<?xml version="1.0" encoding="utf-8" ?>
<svg baseProfile="full" height="300mm" version="1.1" viewBox="0,0,200,300" width="200mm" xmlns="http://www.w3.org/2000/svg" xmlns:ev="http://www.w3.org/2001/xml-events" xmlns:xlink="http://www.w3.org/1999/xlink"><defs /><rect fill="#222222" height="300" width="200" x="0" y="0" /><text fill="#FFFFFF" style="font-size:12px; font-family:Arial; font-weight:bold;" x="10" y="20">Over 5km Acitivities</text><text fill="#FFFFFF" style="font-size:4px; font-family:Arial" x="10" y="280">Runner</text><text fill="#FFFFFF" style="font-size:9px; font-family:Arial" x="10" y="290">Yiling</text><text fill="#FFFFFF" style="font-size:4px; font-family:Arial" x="65" y="280">SPECIAL TRACKS</text><rect fill="gold" height="2.6" width="2.6" x="65" y="283" /><text fill="#FFFFFF" style="font-size:3px; font-family:Arial" x="70" y="285.5">Over 5.0 km</text><rect fill="tomato" height="2.6" width="2.6" x="65" y="287" /><text fill="#FFFFFF" style="font-size:3px; font-family:Arial" x="70" y="289.5">Over 10.0 km</text><text fill="#FFFFFF" style="font-size:4px; font-family:Arial" x="120" y="280">STATISTICS</text><text fill="#FFFFFF" style="font-size:3px; font-family:Arial" x="120" y="285">Number: 10</text><text fill="#FFFFFF" style="font-size:3px; font-family:Arial" x="120" y="290">Weekly: 1.4</text><text fill="#FFFFFF" style="font-size:3px; font-family:Arial" x="141" y="285">Total: 79.2 km</text><text fill="#FFFFFF" style="font-size:3px; font-family:Arial" x="141" y="290">Avg: 7.9 km</text><text fill="#FFFFFF" style="font-size:3px; font-family:Arial" x="167" y="285">Min: 5.3 km</text><text fill="#FFFFFF" style="font-size:3px; font-family:Arial" x="167" y="290">Max: 12.7 km</text><polyline fill="none" points="66.77042985358275,85.40781079392764 66.3623051487375,85.40781079392764 65.9796882381197,85.1020485603949 67.0,82.46136414815555 66.82144544168841,81.93322499041096 66.00519603211433,81.34949135486386 65.36750118096825,81.01592886133585 64.14312706666533,80.23761520005064 63.70949456782546,79.57048789365217 61.74539442616515,78.56979466488701 60.47000472364016,78.37521510975785 59.70477090217173,77.37451862861053 58.96504487481434,76.48500835936284 58.301842229557224,75.67888781943475 57.40906943776645,75.3175228658074 56.56731223431416,74.67818400109536 54.526688710437156,72.06522230364499 53.608408124768175,70.84212746992125 52.562588568776846,69.53563531287364 52.307510628248565,69.20206210334436 51.414737836574204,68.3403299114434 50.572980632889085,68.0901492194389 49.782239017426036,67.75657469860744 49.246575342607684,67.3118082000583 47.99669343419373,66.53346553305164 46.41521020315122,65.33815037220484 45.72649976378307,64.19842764639179 45.5734529994661,63.0031048944802 44.09400094486773,61.891173264273675 42.92064241855405,61.64098818399361 41.79829948046245,61.19621428771643 41.3901747756172,60.862633512413595 40.446386395953596,60.056478722486645 39.324043457745574,59.889687855611555 38.78837978269439,59.13912801837432 38.50779404817149,58.69435109544429 37.89560699113645,58.166177800594596 37.69154463871382,57.58240643402678 36.18658478977159,57.054231541696936 35.064241851796396,56.63725082759629 33.508266414748505,56.52605589063023 32.74303259328008,55.94228191967704 32.53897024097387,55.88668435032014 32.69201700517442,55.803287980525056 31.28908833267633,55.33070819405839 29.98819083615672,54.691334574948996 29.197449220577255,54.52454127400415 28.53424657532014,54.274351180676604 27.845536136068404,53.773970483394805 27.02928672649432,53.10679516082746 26.697685403982177,52.77320704545127 26.315068493131548,52.41181957887602 25.702881436096504,51.99483359916485 25.320264525245875,52.18942711522686 24.810108644422144,52.99559915595455 24.45299952768255,53.05119716259651 24.121398205053993,52.9400011409889 23.177609825273976,52.49521671808907 22.182805857388303,51.46665067903814 21.21350968349725,50.66047528531635 20.881908360985108,50.35468415624928 19.785073216888122,49.02031988897943 19.555503070470877,47.26895943743875 19.478979688254185,45.96238350731437 19.147378365625627,45.54539021156961 17.59140292869415,43.76621350142523 16.367028814391233,42.682023470813874 15.856872933451086,41.7090296948154 14.989607935887761,41.23643178868224 14.606991025037132,40.87503297976218 14.453944260720164,40.291234153177356 13.969296173891053,39.31823404840543 13.484648086829111,38.6788325770176 13.0,37.956029574241256 13.43363249883987,37.4278264810564 13.663202645257115,36.31581748771714 13.40812470484525,35.75981172933825 13.969296173891053,35.31500651704846 14.581483230926096,35.28720617335057 14.964100141776726,35.81541234301403 15.37222484650556,36.343617753562285 15.933396315667778,36.343617753562285 16.41804440249689,36.649420538917184 16.290505432290956,37.09422413629363 16.800661313231103,38.011629855725914 17.10675484186504,38.31743125329376 16.443552196607925,37.56682736863149 16.290505432290956,36.81622195101227 16.443552196607925,36.39921827890794 17.285309400060214,36.45481879587169 17.74444969301112,36.42701853849576 18.076051015523262,36.14901584852487 18.56069910246879,35.87101294833701 19.22390174784232,35.75981172933825 19.683042040560395,35.92661354513257 20.29522909782827,36.03781471363618 20.907416154979728,36.12121556792408 21.59612659434788,35.509608863678295 22.029759093071334,34.981402254488785 22.743977326434106,34.87020076639601 23.40717997169122,34.981402254488785 23.84081247053109,34.758999244601 24.504015115788206,34.703398471086985 25.141709966934286,34.703398471086985 25.95795937650837,34.8424003891123 26.289560699020512,34.56439650055836 26.77420878596604,35.06480334853404 26.927255550283007,35.48180853470694 27.02928672649432,36.17681612697197 27.105810108594596,36.42701853849576 26.901747756288387,36.81622195101227 26.697685403982177,37.01082350281649 26.67217760987114,37.06642392723006 26.952763344394043,36.51041930436622 27.18233349081129,36.2046164033236 27.590458195656538,36.17681612697197 28.100614076596685,36.53821955554304 29.095418044482358,37.12202434320352 29.80963627784513,36.955223069991916 29.911667454056442,37.09422413629363 30.804440245614387,37.4278264810564 31.263580538565293,37.84482898612623 31.97779877181165,37.81702883384423 32.53897024097387,37.678028040827485 32.84506376949139,37.84482898612623 33.2276806802256,38.150630522490246 33.58478979684878,38.400831590319285 33.66131317906547,38.428631698392564 33.941898913588375,38.92903328521061 34.145961266011,39.15143377179629 34.120453471899964,39.73523440869758 34.19697685400024,40.01323438604595 34.78365611715708,40.43023395794444 35.0897496456746,40.708233409619424 35.727444496937096,40.930632819625316 36.00803023146,40.87503297976218 36.39064714219421,41.31983146327548 36.79877184703946,42.07042768370593 37.1303731695516,42.1816269934352 37.41095890419092,42.404025511903455 37.64052905049175,42.1816269934352 37.43646669818554,42.37622570444364 36.95181861135643,42.876621916890144 36.87529522913974,42.93222145398613 37.028341993456706,42.793222595442785 37.35994331596885,42.48742492168094 37.35994331596885,42.348425894917455 36.79877184703946,42.237226635654224 36.54369390651118,41.84802896340261 36.26310817187186,41.208631892863195 35.880491261254065,40.87503297976218 35.01322626369074,40.59703365416499 34.75814832316246,40.43023395794444 34.426547000417486,40.12443431818974 34.426547000417486,40.09663433828973 34.27350023621693,39.84643442489323 34.04393008979969,39.45723422104493 34.120453471899964,39.123633718292695 33.992914501577616,38.79003291277331 33.7633443553932,38.428631698392564 33.355219650431536,38.31743125329376 33.0491261217976,38.039429993281374 32.81955597549677,37.789228679495864 32.48795465286821,37.65022787597263 32.33490788855124,37.70582820367417 31.77373641950544,37.92822943039937 31.467642890871502,37.9004292844038 31.059518186142668,37.87262913628365 30.855455833720043,37.45562666276237 29.80963627784513,36.927422850363655 29.273972602793947,36.899622628698125 28.381199811119586,36.62162029626779 27.666981577756815,36.28801721971831 27.233349078916945,36.14901584852487 27.105810108594596,36.232416677550646 26.97827113850508,35.87101294833701 26.82522437418811,35.231605479784776 26.417099669459276,34.536596100108 26.034482758725062,34.592196898855036 26.008974964614026,34.758999244601 25.830420406186022,34.703398471086985 25.37128011335153,34.73119885890628 25.141709966934286,34.675598081201315 24.47850732167717,34.64779768916196 23.789796882425435,34.703398471086985 23.662257912103087,34.758999244601 23.050070855068043,34.9258015146188 22.743977326434106,34.78679962820024 22.157298063277267,34.87020076639601 21.77468115265947,35.259405827644514 21.034955125302076,35.81541234301403 20.907416154979728,36.09341528528603 20.269721303717233,35.98221413360443 19.657534246565774,35.898813247767976 18.943316013319418,35.67641079300665 18.356636750046164,35.78761203723843 17.820973075227812,36.09341528528603 17.667926310910843,36.39921827890794 17.285309400060214,36.482619051181246 17.412848370266147,36.09341528528603 16.979215871426277,36.12121556792408 16.367028814391233,36.39921827890794 15.98441190365702,36.31581748771714 15.37222484650556,36.343617753562285 15.117146906093694,36.09341528528603 14.785545583348721,35.31500651704846 13.484648086829111,35.426207870594226 13.40812470484525,35.78761203723843 13.612187057267874,36.28801721971831 13.459140292950906,37.45562666276237 13.02550779399462,37.87262913628365 13.816249409574084,39.179233823088 14.453944260720164,40.26343418596662 14.658006613259204,41.1530320950842 15.856872933451086,41.68122983482317 16.239489844301715,42.515224720700644 16.69863013701979,42.960021219420014 17.183278223965317,43.37701744810329 17.693434104905464,43.96081137351575 19.632026452571154,46.49057433620328 19.606518658460118,47.79714838892687 19.632026452571154,48.07514226908097 20.1421823335113,49.492907787585864 20.77987718465738,50.13229044806212 21.06046291918028,50.410282562312204 21.80018894665409,51.1886593636882 22.463391591911204,51.74464178417111 22.514407179900445,51.77244088318548 23.917335852631368,52.912202130275546 24.27444496937096,53.05119716259651 24.45299952768255,53.02339816035237 24.73358526220545,52.99559915595455 25.141709966934286,52.30062336384435 25.75389702420216,52.02263267914532 26.340576287242584,52.41181957887602 26.621162021765485,52.77320704545127 26.927255550283007,53.19019214229775 27.105810108594596,53.30138808832271 27.488427019445226,53.60717676623608 27.998582900385372,53.85736731358338 29.401511572883464,54.52454127400415 30.29428436467424,54.63573681632988 30.804440245614387,55.052719800616615 31.263580538565293,55.21951286189142 31.671705243294127,55.44190349258133 32.615493623074144,55.91448313606088" stroke="#ffb012" stroke-linecap="round" stroke-linejoin="round" stroke-width="0.5"><title>2025-05-30 8.3km</title><desc>14637812970</desc></polyline><polyline fill="none" points="119.70153405331075,87.0 119.30618554376997,86.37768580461852 117.8565743425861,85.7075006022933 117.37337060878053,85.22879645222565 116.49481836543418,84.55861003434984 114.64985865494236,83.40971738210646 112.49740565917455,81.97359863569727 112.18991237389855,81.68637449556263 111.88241908885539,81.68637449556263 111.13564968225546,81.30340877291746 109.90567654184997,78.81412592972629 110.5206631119363,77.37799676152645 109.99353176611476,76.61205987341236 109.55425564432517,77.13864158361685 107.05038175126538,78.09606175287627 106.21575712016784,77.28225470124744 105.8643362231087,76.13334884797223 106.30361234489828,75.51102397369687 105.55684293806553,73.1653324123472 104.7661459192168,72.8302329085418 103.40438994229771,73.21320375561481 102.96511382074095,73.78765959182056 102.74547575972974,74.40998615970602 101.69121306785382,73.93127346946858 102.0865615773946,73.02171836094931 101.95477874088101,72.92597564205062 101.99870635312982,72.87810427707154 102.70154814771377,69.9100725837634 102.48191008693539,68.52179491950665 103.00904143275693,66.94202697847504 102.35012725042179,66.08033371309284 100.9444436612539,64.644175664871 101.51550261932425,64.2133276151144 101.99870635312982,64.35694366425741 102.56976531120017,64.1175835642498 103.44831755431369,63.495246880920604 103.75581083958969,62.872909585770685 103.75581083958969,62.34631601208821 102.0865615773946,61.53248871862888 100.54909515194595,60.19206501398003 100.28552947891876,59.47397971927421 101.1201541100163,58.66014873381937 102.0865615773946,58.75589360995218 103.4922451665625,59.8090862914687 103.79973845160566,60.000575681682676 104.19508696114644,59.6175968432799 103.09689665702172,59.56972447223961 102.3940548626706,59.0910005622427 101.82299590460025,58.61227629031055 101.38371978304349,57.51120909146266 102.43798247445375,57.27184640348423 103.97544890013523,57.41546402708627 104.54650785843842,58.08567917323671 105.02971159224398,57.942061701614875 104.19508696114644,56.41013997764094 103.93152128788643,55.692050393496174 103.58010039082728,55.692050393496174 103.4922451665625,55.692050393496174 103.62402800307609,53.39415825140895 104.06330412463285,51.0005117347464 103.79973845160566,50.904765685787424 103.79973845160566,50.09092368558049 102.5258376991842,48.128123969130684 102.13048918964341,47.553644852072466 99.9780361938756,46.16531816730276 98.96770111401565,45.78233095980249 97.82558319787495,46.35681168414885 97.16666901577264,46.21319155191304 96.24418916041031,45.159976253518835 95.45349214132875,44.58549444319215 93.30103914556094,44.44187390914885 93.03747347276658,44.48974742408609 92.4664145144634,44.77698843786493 92.20284884166904,45.11210278922226 91.28036898653954,45.255723171227146 90.35788913094439,44.77698843786493 90.445744355442,44.20250627992209 90.48967196745798,44.05888565903297 89.87468539713882,44.29825334245106 88.9961331540253,43.77164431946585 89.21577121480368,43.48440284951357 87.06331821903586,41.856698724848684 87.06331821903586,41.04284509312129 87.67830478935502,39.60663024941459 87.67830478935502,39.65450412995415 86.79975254600868,40.947097538097296 86.27262120018713,40.85134996881243 85.26228612056002,40.18111657787813 84.82300999877043,39.989621192915365 83.02197790029459,39.70237800700124 81.61629431135952,39.60663024941459 80.8695249047596,39.17576516082045 80.29846594645642,39.55875636514975 80.47417639521882,41.13859263347695 82.0116428209003,42.81417224620236 82.67055700300261,43.53227643686114 83.81267491914332,43.81951788510196 84.95479283528402,45.447216963162646 84.99872044776566,45.35147007444175 85.70156224211678,46.11744477896718 85.83334507863037,45.87807778338902 85.92120030289516,46.16531816730276 83.76874730689451,43.67589717719238 82.31913610571064,43.3886556638754 81.04523535305634,42.09606724086916 80.29846594645642,39.79812575009419 80.64988684374839,39.12789124407573 81.17701818980277,39.51088247721782 82.84626745176502,39.60663024941459 83.54910924634896,39.55875636514975 84.16409581643529,39.79812575009419 87.37081150431186,41.808825010666624 87.67830478935502,42.383309340744745 89.43540927558206,44.10675920301583 90.62145480397157,45.39934352063574 92.68605257524177,44.25037981313653 94.97028840752319,42.431183011387475 96.68346528196707,40.85134996881243 97.86951081012376,41.2343401593389 96.85917573049664,40.947097538097296 95.14599885628559,41.904572435247246 94.35530183743685,42.76629860443063 93.16925630904734,43.19716124923434 92.4664145144634,42.57480400160421 91.93928316864185,41.52158265019534 91.80750033236109,40.65985478670336 91.6757174958475,39.51088247721782 91.63178988359869,38.36190808255924 91.10465853777714,38.07466415804811 91.45607943483628,37.69167205586564 91.0607309252955,37.40442782721948 91.28036898653954,36.97356123995269 92.24677645391785,36.44694612373132 92.07106600515544,35.10646930593066 92.37855929043144,35.53733716410352 93.16925630904734,34.962846621347126 93.03747347276658,34.244732709776144 92.90569063625298,34.484104104107246 92.42248690221459,35.44158877647715 92.5103421267122,36.159701330412645 92.90569063625298,36.35119787376607 93.43282198207453,37.117183468304574 93.56460481835529,37.35655377648072 94.39922944945283,38.218286136572715 95.10207124403678,38.2661601221771 95.58527497784235,38.505529995891266 95.40956452931277,38.505529995891266 95.14599885628559,38.218286136572715 95.45349214132875,37.02143531967886 95.01421602000482,36.25544960930711 94.44315706170164,36.06395303690806 95.05814363178797,35.44158877647715 95.62920259009115,35.53733716410352 95.80491303862073,35.29796616791282 96.55168244522065,34.484104104107246 96.81524811824784,34.00536122487392 97.12274140352383,33.57449232402723 97.12274140352383,33.23937186499825 97.69380036159419,33.095748756837565 97.69380036159419,33.19149749923963 97.60594513709657,33.38299494056264 97.60594513709657,33.095748756837565 97.12274140352383,33.28724622708978 96.99095856701024,33.71811532351421 97.12274140352383,34.101109829731286 96.55168244522065,34.053235529048834 96.63953766971827,34.148984126746655 95.98062348738313,34.86709814687492 95.05814363178797,35.82458223996218 94.83850557124242,35.872456406534184 94.44315706170164,36.39907200058224 93.74031526735052,36.44694612373132 92.72998018749058,36.25544960930711 92.07106600515544,36.782064884668216 91.98321078089066,36.782064884668216 91.1925137618091,36.782064884668216 89.83075778489001,36.97356123995269 90.75323764048517,37.212931602378376 90.92894808901474,37.5480499578407 91.45607943483628,37.59592399420217 91.10465853777714,37.88316813588608 91.5439346593339,38.60127792006824 91.6757174958475,40.27686424856074 91.98321078089066,41.04284509312129 91.76357272011228,41.4258351676981 92.33463167818263,42.143940933281556 92.20284884166904,42.57480400160421 92.64212496345863,44.25037981313653 93.60853243083693,44.29825334245106 95.27778169279918,44.44187390914885 96.37597199669108,45.303596624638885 97.60594513709657,46.40468505426543 98.7041354412213,46.16531816730276 100.10981903015636,46.45255842077313 101.20800933404826,47.17065848456696 102.0865615773946,47.745137949008495 103.05296904500574,48.9419684925233 103.75581083958969,50.13879677344812 103.71188322710805,53.298412564443424 103.40438994229771,54.447359851852525 104.10723173664883,56.60163039586041 104.7661459192168,57.70269917655969 104.28294218541123,57.89418920391472 103.40438994229771,57.22397385496879 101.55943023157306,57.03248362510931 100.9444436612539,58.75589360995218 99.846253357362,59.42610733723268 100.24160186666995,60.04844802018488 101.51550261932425,61.48461649235105 102.13048918964341,61.91546639887383 102.70154814771377,62.154827331251 103.3165347178001,62.29844384739408 103.40438994229771,62.82503746077418 103.22867949376814,63.59099102579057 101.64728545583785,63.9260954191559 100.85658843698911,64.0218394989497 100.50516753946431,65.69735855207546 102.3940548626706,66.2718212067266 102.87725859624334,66.70266785577405 102.70154814771377,66.84628334030276 102.35012725042179,68.47392322169617 102.65762053546496,70.96324671246111 102.87725859624334,71.82493333320599 102.48191008693539,72.63874739821767 101.51550261932425,74.31424365052953 102.65762053546496,74.84082727140049 103.6679556153249,73.54830305668293 105.02971159224398,73.35681776341517 106.12790189613588,75.22379690245725 105.8643362231087,75.98973546968773 107.09430936374702,78.04819077864522 108.2803548919037,78.47902941511711 109.72996609308757,76.80354418238858 110.43280788767152,76.85141525050858 109.86174892960116,78.71838408650365 110.5206631119363,80.4417350498843 111.9263467011042,81.78211589017883 112.54133327142335,82.06933998677414 113.8591616358608,83.31397623359226 114.9573519397527,83.45758795080474 116.84623926272616,84.89370333199622 117.94442956708372,85.80324138898868" stroke="#ffbb0d" stroke-linecap="round" stroke-linejoin="round" stroke-width="0.5"><title>2025-05-17 7.4km</title><desc>14504809249</desc></polyline><polyline fill="none" points="153.15783560462296,34.117720100824954 153.07638126658276,34.00006549878162 152.83201825234573,34.00006549878162 153.59225874079857,33.61768780590501 154.6240136893466,35.61781327679637 154.81407381151803,36.1472565990116 154.81407381151803,36.05901609340799 154.6240136893466,37.38262165596825 154.70546802738681,37.44144846929703 155.16704260953702,38.05912949319463 155.24849694757722,38.58856962021673 155.43855706986506,39.176835615275195 155.43855706986506,39.20624889258761 155.52001140778884,39.382728511467576 155.92728309787344,39.794513989414554 156.19879755820148,40.26512545105652 156.68752358632628,40.52984415757237 156.9318866005633,40.47101779328659 157.1219467226183,40.29453864917741 157.2305525066331,40.17688584365533 157.66497564292513,39.64744779543253 157.5835213047685,38.912116023362614 157.4206126286881,38.765049508569064 157.4206126286881,39.26507544075139 157.4206126286881,39.11800905427663 157.2848553986987,39.02976919669891 157.2577039526077,39.176835615275195 157.5020669667283,39.05918248472153 157.55636985879391,38.147369562473614 158.15370167116635,37.44144846929703 158.58812480734196,36.52963190077571 158.96824505145196,36.11784309925861 158.94109360547736,35.50015911113587 159.07685083558317,35.02954210608732 159.3755167417694,34.64716538644279 159.8642427698942,34.26478830521228 160.1086057841312,33.94123818492517 160.54302892030682,33.82358353160089 161.49332953081466,33.58827412230312 161.87344977492467,33.52944674855098 162.3893272492569,33.94123818492517 163.25817352172453,33.82358353160089 163.74689954996575,33.58827412230312 164.56144293036778,33.76475619213306 165.15877474250738,33.61768780590501 165.4574406486936,33.705928844050504 166.81501294940244,33.558860436518444 166.51634704321623,33.35296457601362 166.24483258312102,33.2647234609467 166.32628692116123,33.20589604010456 166.62495282723103,33.382378276844975 166.67925571929663,33.11765489287791 167.24943608557805,33.0 167.71101066784468,33.2647234609467 167.8196164519759,33.11765489287791 168.06397946598008,33.470619366300525 168.2268881421769,33.470619366300525 168.14543380402029,33.41179197540623 168.3083424801007,33.41179197540623 169.09573441452812,33.558860436518444 169.17718875256833,33.73534251912497 168.85137140040752,33.558860436518444 168.6613112783525,33.382378276844975 168.6341598322615,33.441205671901116 168.4712511561811,33.382378276844975 168.1997366960859,33.470619366300525 168.3626453722827,33.64710148744052 167.92822223587427,33.58827412230312 167.92822223587427,33.294137168093584 167.92822223587427,33.02941372641362 167.62955632980447,33.14706861076411 167.76531355991028,33.2647234609467 167.38519331556745,33.0 166.62495282723103,33.23530975158792 166.19052969117183,33.294137168093584 166.13622679910623,33.558860436518444 165.9461666769348,33.85299719814793 165.8104094469454,33.61768780590501 165.7018036628142,33.64710148744052 165.240229080664,33.61768780590501 164.45283714623656,33.20589604010456 163.82835388788953,33.470619366300525 163.50253653572872,33.558860436518444 162.6879931553267,33.64710148744052 162.2264185731765,33.911824524839176 161.52048097678926,33.73534251912497 161.08605784061365,33.73534251912497 160.73308904236183,33.911824524839176 160.38012024422642,33.82358353160089 159.72848553978838,34.26478830521228 159.02254794340115,35.41191846437869 158.91394215950277,36.029602587310364 158.64242769929115,36.647285767045105 158.39806468528695,37.0296605960466 158.34376179310493,37.67675563725061 157.74642998096533,37.85323592336499 157.5020669667283,38.08854285176494 157.3391582906479,38.41208965485566 157.5835213047685,38.970942614309024 157.66497564292513,39.08859577056137 157.4749155206373,39.7356875182013 157.3120068446733,39.94158013002016 157.2577039526077,39.94158013002016 157.1490981685929,40.05923300393624 156.9861894925125,40.353365039103664 156.74182647839189,40.441604607971385 156.25310045015067,40.500430976448115 156.11734322016127,40.26512545105652 155.90013165201526,39.58862130288617 155.65576863789465,39.52979480166687 155.54716285376344,39.26507544075139 155.38425417779945,38.47091631856165 155.00413393345661,37.82382254768163 154.92267959553283,37.17672774178209 155.30279983964283,36.44139147858368 155.38425417779945,36.00018907900085 155.43855706986506,35.61781327679637 155.54716285376344,35.23543711320963 155.30279983964283,34.941301356768236 154.89552814944182,34.235374668613076 154.86837670346722,33.882410862570396 154.4339535671752,33.470619366300525 153.51080440275837,33.61768780590501 152.85916969843674,34.08830645351554 153.04922982049175,34.50009732096805 153.18498705071397,35.32367779838387 152.77771536039654,35.558986198244384 151.4201430596877,35.00012852510554 150.00826786702964,36.11784309925861 149.49239039293025,36.588458838145016 149.46523894683924,37.11790088991984 149.89966208289843,37.529688673326746 150.74135690939147,37.0296605960466 151.4201430596877,37.0296605960466 151.63735462795012,37.29438141983701 151.0128713696031,38.64739625816583 150.14402509713545,40.94162846787367 149.89966208289843,41.88284817466047 150.08972220518626,42.41228329736623 157.2305525066331,53.58908529925975 156.8775837084977,54.500863420340465 157.2305525066331,56.147941269824514 157.5835213047685,56.883241716452176 157.52921841281932,57.383245257049566 157.0676438306691,57.70677663051174 156.28025189624168,57.64795276365476 154.569710797281,57.82442433855613 153.42935006483458,59.00089953764109 152.66910957638174,59.265605986031005 150.79565980145708,60.55972390784882 150.33408521919046,61.0597229055129 149.95396497496404,61.647956229542615 149.76390485290904,62.23618869850179 150.08972220518626,62.73618562478805 150.71420546341687,62.9420665326179 151.82741475000512,63.2067704029032 152.47904945432674,62.677362489077495 152.80486680648755,62.00089581354405 153.8909246471012,61.38325133957551 155.68292008386925,60.50090045569232 156.52461491024587,60.353841788019054 156.9047351545887,60.67737078643404 157.52921841281932,61.00089952608687 158.34376179310493,61.795014426956186 159.21260806568898,63.00088962979498 159.29406240372919,63.97146950013121 159.3755167417694,64.47146428239648 159.72848553978838,64.94204704259755 160.217211568146,65.85379958321573 160.217211568146,66.94201766862534 160.2443630141206,67.91258808673592 160.59733181225602,69.00080063607311 161.16751217865385,69.4125559728418 161.87344977492467,70.38312046608189 162.4164786952315,70.82428537544911 163.14956773759332,71.41250450644293 163.90980822592974,71.94190099346451 163.80120244191494,71.85366829374107 164.45283714623656,72.05954456314794 165.1859261885984,72.44188592868159 165.3759863106534,73.94183702836744 165.8375608928036,74.55946233600844 167.22228463960346,74.73592653655214 168.4169482642319,74.55946233600844 169.09573441452812,74.64769444591366 170.18179225502536,76.26527971820906 170.12748936307617,77.23582777852425 170.18179225502536,77.79462712121313 170.5347610533936,79.29455838428112 170.50760960730258,80.11804769467562 170.10033791698515,81.11799674778013 169.66591478080954,81.85325182852102 169.63876333471853,82.91201679853839 169.58446044276934,83.26493783990736 169.15003730659373,83.88254892171244 168.2268881421769,84.55897902537254 167.49379909981508,85.00012848398183 166.59780138125643,84.94130858397693 165.8375608928036,85.00012848398183 164.94156317447778,85.1471781966975 164.58859437634237,85.08835831802571 164.53429148427676,85.35304770473158 165.10447185055818,85.29422785597853 166.65210427332204,85.38245762590668 167.16798174753785,85.58832701432402 167.22228463960346,86.02947535112617 167.11367885558866,86.11770496083773 167.30373897752725,86.8529509602813 167.30373897752725,86.91177058260655 167.11367885558866,86.50003304722486 166.51634704321623,85.85301607407746 166.43489270529244,85.67655672007822 166.43489270529244,85.67655672007822 167.41234476165846,85.94124572223518 167.46664765372407,86.61767238579341 167.22228463960346,86.97059019631706 166.92361873341724,86.79413132951595 167.03222451754846,86.97059019631706 166.70640716538765,85.91183584168903 166.05477246106602,85.52950719973887 166.38058981311042,85.85301607407746 166.02762101509143,86.35298382595647 165.8647123388946,86.02947535112617 165.9190152309602,85.94124572223518 166.29913547518663,86.08829509306815 166.29913547518663,86.29416412246064 166.35343836713582,86.29416412246064 165.97331812302582,85.52950719973887 165.620349324774,85.55891710805008 166.13622679910623,85.55891710805008 166.46204415115062,85.94124572223518 166.32628692116123,85.91183584168903 165.8375608928036,86.058885223174 166.08192390704062,86.26475426758407 166.27198402921204,86.47062320724945 166.46204415115062,86.41180352089577 166.51634704321623,86.55885272083106 166.32628692116123,86.50003304722486 166.38058981311042,86.55885272083106 166.38058981311042,86.52944288504659 166.29913547518663,86.52944288504659 166.54349848919082,86.29416412246064 166.48919559724163,86.17652468997403 166.46204415115062,86.17652468997403 166.05477246106602,86.00006547698285 165.430289202719,85.35304770473158 164.88726028241217,85.35304770473158 164.50714003830217,85.17658813277376 164.86010883643758,84.97071853501257 166.16337824508082,84.82366875818116 167.41234476165846,84.97071853501257 168.2268881421769,84.7060288983048 168.85137140040752,84.08841907291207 169.66591478080954,83.82372885924997 169.91027779504657,83.44139824507874" stroke="#ffc00a" stroke-linecap="round" stroke-linejoin="round" stroke-width="0.5"><title>2024-03-09 7.0km</title><desc>14614524479</desc></polyline><polyline fill="none" points="65.76114418468205,108.16725100082112 65.87875707857893,108.26915893894329 65.86307535934611,108.26066661416553 65.92580223607365,108.27765126312443 65.98068825321388,108.25217428876931 65.98068825321388,108.29463590960222 65.95716567445197,108.3116205536353 65.91012051689904,108.4305129927161 65.98068825321388,108.61734372426145 66.09046028746525,108.7871895848657 66.08261942790705,108.8126664426818 66.12966458543087,108.85512786003528 66.22375490050763,108.88909698282805 66.23943661974045,108.90608154053189 66.23943661974045,108.87211242267949 66.3256860752299,108.94854292396485 66.43545810948126,108.9825120196474 66.55307100331993,109.02497337533714 66.60795702046016,109.15235734995804 66.62363873963477,109.14386508930329 66.62363873963477,109.10140377677453 66.63147959922208,109.10140377677453 66.678524756775,109.14386508930329 66.72556991432793,109.21180315732636 66.74125163350254,109.26275668241578 66.78829679105547,109.28823343664408 66.87454624654492,109.46657056087861 66.88238710616133,109.53450844142935 66.90590968492324,109.52601620851783 66.89806882530684,109.53450844142935 66.90590968492324,109.559985136475 66.89806882530684,109.59395405454416 66.91375054451055,109.63641518828081 66.89806882530684,109.63641518828081 66.93727312327246,109.7383218463583 66.93727312327246,109.8062595690717 66.92159140409785,109.85721283523162 66.85886452737032,109.92515048890345 66.827501088992,110.04404128785973 66.75693335270626,110.20539289317094 66.91375054451055,110.36674427589605 66.92159140409785,110.40071295971575 66.92943226368516,110.39222078967578 66.96079570203437,110.46015813260601 66.91375054451055,110.5365875962234 66.90590968492324,110.57904838779359 66.8431828081666,110.66396992465161 66.80397851020098,110.68944637366803 66.79613765067188,110.70643066993944 66.78829679105547,110.80833639581397 66.75693335270626,110.85079708870035 66.78829679105547,110.88476563192671 66.76477421226446,111.04611607753759 66.73341077391524,111.11405304068467 66.74909249311895,111.1480215074771 66.68636561636231,111.22445052166586 66.73341077391524,111.29238738124695 66.74125163350254,111.39429259659664 66.77261507188086,111.42826098201476 66.81181936981739,111.53865816644247 66.8353419486084,111.5641344249816 66.81181936981739,111.53865816644247 66.79613765067188,111.5641344249816 66.827501088992,111.64056316729693 66.827501088992,111.6830235581001 66.91375054451055,111.73397600673343 66.98431828079629,111.73397600673343 67.0,111.75945222273731 66.9921591404127,111.86135703125183 66.96863656162168,111.87834115736769 66.96079570203437,111.90381734189577 66.93727312327246,111.91230940219248 66.91375054451055,112.01421407753514 66.87454624654492,112.04818228292424 66.8510236677539,112.02270612981374 66.86670538695762,111.92929352090141 66.8510236677539,111.90381734189577 66.86670538695762,111.89532528102427 66.92159140409785,111.79342050210107 66.92943226368516,111.8358808374469 66.89806882530684,111.86984909461171 66.88238710616133,111.86135703125183 66.8431828081666,111.82738877159863 66.78045593146817,111.8358808374469 66.73341077391524,111.79342050210107 66.68636561636231,111.78492843318963 66.63932045883848,111.79342050210107 66.68636561636231,111.8104046380904 66.678524756775,111.84437290264759 66.69420647594961,111.82738877159863 66.6706838971877,111.82738877159863 66.65500217801309,111.87834115736769 66.63932045883848,111.87834115736769 66.63932045883848,111.8358808374469 66.60011616087286,111.79342050210107 66.58443444169825,111.80191257041588 66.55307100331993,111.78492843318963 66.45898068827228,111.80191257041588 66.38841295192833,111.84437290264759 66.3335269348172,111.84437290264759 66.3256860752299,111.88683321951248 66.31784521561349,111.88683321951248 66.06693770870334,111.82738877159863 65.92580223607365,111.81889670514647 65.90227965731174,111.82738877159863 65.87091621896252,111.88683321951248 65.80818934223498,111.87834115736769 65.78466676347307,111.86984909461171 65.75330332506564,111.79342050210107 65.6670538696053,111.7424680793556 65.61216785246506,111.64905524668575 65.59648613326135,111.58111859425117 65.46319152021897,111.43675307682861 65.36126034558401,111.42826098201476 65.22012487292523,111.39429259659664 65.12603455781937,111.39429259659664 65.03978510235902,111.35183210099785 64.93001306807855,111.26691106352519 64.88296791052562,111.24143474025186 64.62421954408637,111.25841895636404 64.48308407142758,111.21595841143426 64.42819805428735,111.16500573715894 64.27922172207036,111.08857668413111 64.16944968778989,111.00365545552631 64.11456367067876,110.9442105588314 64.06751851315494,110.91873416530143 64.0126324959856,110.86778136155772 63.71467983155162,110.81682853560778 63.60490779727115,110.78285997266357 63.39320458835573,110.7743678303741 63.25990997531335,110.74039925508987 63.1815013794112,110.7573835439689 63.09525192389265,110.74039925508987 62.875707855360815,110.66396992465161 62.687527225207305,110.63849347005453 62.49934659502469,110.51960327530105 62.311165964842075,110.5026189518976 62.20139393056161,110.44317380057328 62.05241759837372,110.41769729789667 61.96616814288427,110.37523644778412 61.91128212571493,110.28182252325496 61.840714389429195,110.26483816534164 61.6760563380376,110.29880687872355 61.45651226947666,110.30729905552289 61.00174241323839,110.52809543607873 61.0095832728548,110.51111111389764 61.017424132413,110.51111111389764 60.578335995349335,110.73190710972995 60.578335995349335,110.69793852212024 60.562654276174726,110.71492281714745 60.46856396109797,110.74039925508987 60.35879192684661,110.74889139985316 60.34311020761379,110.7743678303741 60.3666327863757,110.83381281339825 60.32742848843918,110.8423049513658 60.27254247132805,110.81682853560778 60.25686075215344,110.8423049513658 60.15492957746028,110.91024203287816 60.08436184114544,110.91873416530143 60.0294758239761,110.91024203287816 59.99027152603958,110.89325776620535 59.98243066651048,110.86778136155772 59.99027152603958,110.81682853560778 60.045157543208916,110.71492281714745 60.045157543208916,110.67246207493008 60.03731668359251,110.63849347005453 59.87265863220091,110.5365875962234 59.55118338900502,110.26483816534164 59.527660810214,110.06951787191792 59.42572963554994,110.05253348314727 59.3630027587933,110.01856469824997 59.32379846085678,109.97610370324401 59.261071584158344,109.94213489614776 59.00232321766089,109.87419725234213 58.92391462175874,109.89118166698609 58.87686946420581,109.87419725234213 58.74357485116343,109.8996738733913 58.6886888340523,109.86570504410338 58.56323508056812,109.84872062574141 58.42209960796754,109.8062595690717 58.28096413530875,109.7383218463583 58.186873820231995,109.72982962824608 58.09278350515524,109.70435297019867 57.95948889211286,109.71284519017354 57.81051255989587,109.56847736690543 57.716422244819114,109.50053950608708 57.5282416146365,109.49204727070173 57.18324379264959,109.35617142078263 56.822564251488075,109.28823343664408 56.75199651517323,109.19481864399131 56.65006534050917,109.1608496100016 55.95222883694805,109.00798883490643 55.72484390879981,109.05894244880619 55.65427617248497,108.9825120196474 55.560185857408214,108.8381432949318 55.52098155944259,108.804174157347 55.47393640188966,108.804174157347 55.33280092928908,108.82965101146692 55.277914912148844,108.82965101146692 55.23871061421232,108.8126664426818 55.12893857996096,108.65980521252641 55.06621170320432,108.51543608950305 54.96428052851115,108.44749761701678 54.93291709013283,108.3370975150392 54.83882677505608,108.29463590960222 54.27428488456644,108.22669730884809 54.25860316539183,108.27765126312443 54.24292144618812,108.18423566333513 54.12530855232035,108.13328166838619 53.99201393930707,108.12478933372768 53.639175257703755,108.16725100082112 53.545084942627,108.15875866865099 52.40816030197311,107.8785113605918 52.306229127338156,107.8785113605918 52.20429795264499,107.85303429928899 51.53782488743309,107.8105725181158 51.475098010734655,107.9124807670305 51.30259909975575,107.66620234683796 51.224190503853606,107.55580150736205 51.19282706550439,107.47937009590532 49.42863365763333,107.52183199731371 49.412951938429615,107.53881675357843 49.3815885000804,107.47937009590532 49.114999273995636,107.55580150736205 48.8876143458765,107.46238533100404 48.70727457528119,107.46238533100404 48.5661391026224,107.48786247741373 48.31523159574135,107.60675575389178 48.236822999839205,107.58977100753691 48.17409612314077,107.58977100753691 48.048642369685695,107.67469471478398 47.83693916074117,107.67469471478398 47.68796282852418,107.70866418041987 47.65659939014586,107.70017181492585 47.64091767100035,107.61524812617427 47.586031653831014,107.58977100753691 47.53114563669078,107.58977100753691 47.37432844491559,107.64072523927462 47.225352112640394,107.61524812617427 47.2175112531113,107.6322328688475 47.24103383187321,107.64921760908328 47.09205749962712,107.65770997825894 47.013648903754074,107.68318708211154 46.98228546534665,107.66620234683796 46.92739944826462,107.59826338102721 46.61376506459783,107.51333961827186 46.566719907074,107.47087771377846 46.31581240016385,107.47087771377846 46.04922317410819,107.41992340801517 45.994337156938855,107.41992340801517 45.986496297380654,107.42841579384549 45.994337156938855,107.46238533100404 45.94729199941503,107.44540056366532 45.91592856106581,107.46238533100404 45.86888340351288,107.53032437575166 45.76695222881972,107.6322328688475 45.71990707129589,107.73414127316937 45.67286191377207,107.80208016002143 45.461158704798436,108.00589658384706 45.38275010892539,108.10780466257711 45.30434151296504,108.17574333239463 45.21809205747559,108.27765126312443 45.11616088281153,108.3370975150392 45.11616088281153,108.35408215288044 45.13968346157344,108.37106678828422 45.08479744446231,108.34558983425813 45.03775228690938,108.39654373673693 44.99070712935645,108.40503605166305 44.92013939307071,108.39654373673693 44.84173079713946,108.36257447090611 44.70059532453888,108.26915893894329 44.614345869020326,108.20122032338986 44.50457383473986,108.1502663358333 44.4104835196631,108.08232765122375 44.347756642935565,108.02288126981148 44.28502976623713,107.98041955030203 44.23014374906779,107.88700371312007 44.12037171481643,107.75961836036004 43.994917961390456,107.70866418041987 43.861623348348076,107.68318708211154 43.814578190795146,107.64072523927462 43.736169594863895,107.6322328688475 43.71264701610198,107.58977100753691 43.696965296927374,107.51333961827186 43.67344271813636,107.45389294765482 43.64207927978714,107.42841579384549 43.516625526332064,107.37746146959398 43.52446638594847,107.36896908007475 43.55582982429769,107.35198429915908 43.37549005370238,107.32650712316536 43.14026426599594,107.25007556186029 43.03833309133188,107.13118192277034 42.92856105705141,107.04625782084622 26.447074197756592,121.7796669905365 13.619427907658974,132.9537421791465 13.658632205595495,132.9537421791465 13.658632205595495,132.88581789209275 13.729199941910338,132.83487465095095 13.76840423984686,132.7669502949575 13.76840423984686,132.7414786512818 13.721359082323033,132.6820447945356 13.705677363148425,132.47827134237014 13.729199941910338,132.35940333151666 13.697836503532017,132.26600695263915 13.65079134600819,132.19808226663008 13.556701030931436,132.13864813408873 13.454769856238272,132.03676097954303 13.446928996680072,131.83298640444264 13.431247277447255,131.78204270527203 13.0,131.27260449444293 13.031363438349217,131.4593987624321" stroke="tomato" stroke-linecap="round" stroke-linejoin="round" stroke-width="0.5"><title>2024-03-09 10.0km</title><desc>14614524267</desc></polyline><polyline fill="none" points="73.0,113.4061127408786 74.08045018755365,114.30119160540926 74.77824093378149,114.24853999665356 75.83618174237199,113.66937156481436 76.39891621505376,113.09020178425999 77.05168820347171,112.40572666822118 77.41183826595079,111.5369670772343 77.9970821174793,111.35268434959289 78.06461025425233,111.08942307325196 77.97457273863256,110.9314661736571 78.10962901206221,111.74757574155228 79.05502292630263,112.48470466234721 79.25760733650532,113.16917956096586 79.34764485200867,113.95895594933245 79.21258857857902,114.03793345020676 79.43768236774486,113.9326301101537 79.55022926221136,113.95895594933245 80.02292621915694,114.24853999665356 80.45060441852547,114.40649478936393 80.69820758653805,114.11691092606634 81.35097957483958,113.98528178580455 81.80116715305485,113.98528178580455 82.09378907876089,113.95895594933245 82.99416423519142,113.9326301101537 84.2997082117945,113.69569743186003 85.58274280955084,113.53774218769104 87.00083368073683,112.69531252415618 87.15839933312964,112.53735664453416 87.00083368073683,112.48470466234721 87.72113380569499,112.08981444076926 88.73405585670844,111.82655394474568 89.94956231769174,111.80022787985217 90.57982492703013,112.19511856118334 91.32263443095144,111.5106409816799 91.59274697792716,111.66859751340235 91.817840767093,111.74757574155228 91.97540641936939,111.6159453473083 92.44810337643139,111.5106409816799 93.84368486865424,110.87881385150831 94.27136306802277,110.58922588035057 95.12671946641058,110.29963757205405 96.18466027523391,110.32596379581082 96.76990412676241,110.03637518090545 96.94997915800195,109.82576506733312 97.17507294705138,109.66780736508372 97.7603167986963,109.03597555296437 97.62526052526664,109.11495461723825 98.07544810336549,108.8516909720347 98.36807002918795,108.50944781654107 98.77323884947691,108.24618353025289 100.03376406850293,107.45638899930054 101.42934556072578,106.90353133507597 101.67694872862194,106.69291856834025 101.74447686539497,106.71924517391017 102.1271363068372,106.85087816015584 102.55481450608931,107.06149079314491 102.35223009588663,107.21945015089295 106.58399333071429,105.69250549015123 107.21425594005268,105.87679241219303 107.39433097129222,105.35025798682182 107.7544810337713,105.16597067454131 107.66444351815153,105.00801001251966 107.84451854939107,104.90270284870348 108.45227177999914,104.77106883119268 108.8574406002881,104.58678108968888 110.14047519804444,104.06024393285043 111.46852855361067,103.63901340465236 111.82867861620616,103.69166725971445 112.0087536474457,103.71799418301089 112.34639433107805,103.66534033359494 113.04418507718947,102.87553125359409 113.76448520214763,102.98083927590051 113.60691954987124,103.24410913648899 114.46227594837546,102.95451227450394 114.88995414762758,102.90185826340166 115.02501042105723,103.00716627445945 115.0025010422105,102.53327987329976 115.16006669448689,101.92775704633095 115.31763234687969,102.08571966509044 115.56523551489227,102.1383738489676 115.54272613592912,102.40164460151573 115.65527303039562,102.69124210732116 115.7453105461318,103.16512820751814 115.49770737811923,103.29676307516638 115.61025427270215,103.61268647295947 115.85785744059831,103.58635953850171 115.56523551489227,104.4288200596784 115.67778240935877,105.35025798682182 115.65527303039562,105.69250549015123 115.587744893739,105.85046571736166 115.7002917882055,106.42965235904558 115.72280116716865,107.08781735977391 115.7002917882055,107.79863360403397 115.85785744059831,108.21985708632565 115.97040433518123,108.72005904490652 116.19549812434707,109.19393365645374 116.37557315558661,110.01004892642959 116.51062942901626,110.95779233059147 116.42059191328008,111.32635823453893 116.48812005005311,111.27370599597634 117.09587328066118,112.27409662217542 117.29845769074745,113.1428536381718 117.70362651103642,114.1695625626744 117.95122967904899,114.98566150468832 118.15381408925168,115.56482687110838 118.53647353069391,116.09133967026719 118.8966235932894,116.72315355790488 119.1667361400323,117.43394226294186 119.43684868700802,117.80249856959563 120.04460191749968,118.3816573764052 120.38224260113202,119.40834467408422 120.7874114215374,119.88219892053166 121.1025427262066,120.72460424057499 122.3180491871899,121.54068167344667 122.7907461442519,122.11983177573711 123.12838682800066,122.46205620213004 123.98374322638847,123.3834273176326 124.5239683202235,124.09419698895363 125.19924968748819,124.6206917322852 125.82951229682658,125.17351001329371 126.18966235942207,125.48940562225471 126.86494372657035,125.98957284922653 126.81992496876046,126.17384473192215 127.0,126.3581164782081 126.63984993752092,126.51606358055142 126.61734055867419,126.85828195828071 126.03209670702927,127.59536609578936 124.9966652772855,127.99023169948487 124.65902459365316,128.09552908795013 124.59149645688012,128.22715076085296 124.20883701555431,128.9379065909452 123.35348061693367,129.59601203018974 123.01583993341774,129.88557787181344 123.08336807007436,130.1224951279146 122.49812421842944,130.46470854390645 122.3180491871899,130.7016252483445 121.64276782004163,130.9911898029677 121.35014589410275,131.4913459669042 120.76490204257425,132.07047290040646 120.17965819092933,132.54430302492983 119.61692371824756,132.46533140019164 118.98666110890917,132.51797915280622 118.33388912060764,132.51797915280622 117.7486452688463,132.51797915280622 117.05085452273488,132.59695076082426 116.71321383921895,132.51797915280622 116.75823259691242,132.3337119698699 116.30804501881357,134.43961449727067 116.64568570244592,134.20270135303144 116.82576073368546,134.2553487378609 116.75823259691242,134.30799611164548 116.73572321806569,134.57123281332315 116.37557315558661,135.01873456678004 117.45602334314026,135.8610886247625 117.65860775322653,135.9927061887429 118.53647353069391,136.96667399717262 118.55898290965706,136.70343983033672 118.37890787841752,136.86138036384364 118.28887036268134,137.30887799755146 118.33388912060764,137.01932079711696 118.55898290965706,137.80902145900473 118.49145477288403,137.78269814397208 118.53647353069391,137.9406379922293 118.64902042527683,138.09857774025295 118.71654856193345,138.04593116871547 118.69403918308672,138.15122430064366 118.94164235098287,138.01960787885764 119.30179241357837,137.70372818231408 119.45935806597117,137.62475819545216 119.50437682366464,136.54549919655256 119.36932055023499,136.33491152897477 119.3243017924251,136.62446952601022 118.96415172994602,136.28226458416611 118.80658607755322,136.0190296931105 118.17632346821483,135.72947099125304 119.14422676118556,136.0190296931105 119.00917048775591,135.94005917153845 117.77115464792587,133.54460810152523 119.07669862452894,137.67740485610557 118.67152980423998,137.1509377481707 118.42392663611099,137.1246143635508 118.33388912060764,136.99299739857088 118.17632346821483,136.9140271860815 118.31137974164449,136.62446952601022 118.60400166735053,136.67711639843765 118.42392663611099,136.70343983033672 118.31137974164449,136.3875584625348 118.28887036268134,136.3875584625348 118.17632346821483,136.28226458416611 118.2213422259083,136.49285229638917 117.7486452688463,136.46652884213836 117.54606085876003,136.28226458416611 117.7486452688463,136.1769706611667 118.04126719466876,136.2296176282398 118.19883284706157,136.15064717351925 118.2663609838346,135.9927061887429 118.1087953314418,135.78211805304454 118.15381408925168,135.8610886247625 118.06377657363191,135.72947099125304 118.13130471040495,135.75579452351667 118.24385160487145,135.43991195240233 118.42392663611099,135.51888263272122 118.62651104631368,135.57152973907068 118.58149228862021,135.54520618732204 118.73905794078019,135.36094124689407 118.67152980423998,135.36094124689407 118.73905794078019,135.33461767277913 118.8516048353631,135.20299976071692 118.87411421432626,135.1503525763692 118.80658607755322,134.83446923638985 118.91913297201972,134.83446923638985 118.73905794078019,134.9924109565036 118.58149228862021,135.01873456678004 118.40141725714784,134.9924109565036 117.88370154239237,135.1503525763692 117.61358899553306,134.36064347422507 117.61358899553306,133.93946426136245 118.08628595259506,132.62327462462417 117.92872030020226,132.83386543445522 117.38849520636722,132.3337119698699 117.27594831190072,132.3337119698699 116.6907044602558,132.3863597503514 115.88036681956146,132.57062689421582 115.63276365154888,132.64959848557191 115.40766986249946,132.7022461992019 114.68736973742489,132.51797915280622 113.29178824508563,132.4126836364303 112.72905377252027,132.3337119698699 112.18882867856883,132.36003586150764 111.78365985827986,132.46533140019164 111.15339724882506,132.51797915280622 109.98290954576805,132.8075415930216 109.89287203003187,133.20239892271638 109.64526886213571,133.36034167915932 109.12755314714741,133.22872272245877 109.10504376830067,133.36034167915932 109.19508128392044,134.2553487378609 109.19508128392044,135.1503525763692 109.06002501049079,135.255646933947 109.26260942069348,135.33461767277913 109.10504376830067,135.36094124689407 109.19508128392044,135.41358838668384 108.99249687371776,135.57152973907068 109.12755314714741,135.33461767277913 109.28511879965663,135.54520618732204 109.44268445193302,135.04505817426252 109.30762817838695,134.3343197943177 108.58732805342879,132.59695076082426" stroke="#ffc309" stroke-linecap="round" stroke-linejoin="round" stroke-width="0.5"><title>2024-01-21 6.8km</title><desc>14614523941</desc></polyline><polyline fill="none" points="186.69499017682392,105.1576527217403 187.0,105.31268264066603 186.81434184673708,105.21966470892949 186.5358546168427,105.06463469170558 185.6606090372661,105.37469456235704 185.11689587426372,105.35919158437173 184.89145383099094,105.18865871861635 184.71905697439797,104.2584759608726 184.59970530448481,103.59184135610121 184.4670923379017,103.32828730467008 184.50687622785335,102.73916477151215 184.20186640473548,102.66164847261098 183.4061886051204,102.94070695702976 183.300098231819,102.9562101905758 183.06139489193447,103.0027198814787 182.84921414538985,103.08023600013985 182.11984282906633,103.1887584974902 181.8811394891818,103.35929368824873 181.94744597247336,103.77787922498828 182.06679764238652,104.89410148348543 182.08005893905647,105.40570051338 182.02701375243487,105.73126260341087 182.17288801568793,105.99481233759434 182.4513752455241,106.21185293961025 182.25245579564944,106.2583615983167 182.09332023572642,104.90960451064166 181.40373280941276,105.56073017016752 181.16502946952824,105.70025672124757 180.7937131630606,105.87078899225162 180.3295677799615,106.19635005014425 180.3560903732432,106.38238461595029 179.8654223968624,106.52191038549063 179.09626719058724,106.70794453841518 178.95039292733418,106.84746999831987 178.51277013751678,106.95598970868741 178.02210216107778,106.98699532551109 177.86296660115477,107.1265205200325 178.03536345774774,107.26604558175313 177.99557956773788,107.25054280369659 178.1281925344374,107.25054280369659 177.1468565815012,107.31255390621664 176.48379174852744,107.49858705651422 175.99312377208844,107.57610079950246 175.99312377208844,107.42107327256235 175.80746561888373,107.31255390621664 175.6218074656208,106.84746999831987 175.568762278941,106.81646435207222 175.568762278941,107.09551493270556 175.75442043220391,107.17302888864651 175.47593320236774,107.23504002398113 174.9454813359771,107.45207879105874 174.60068762279116,107.59160354315827 174.14980353636201,107.68461997088161 173.91110019641928,107.94816619579797 173.12868369347416,108.27372264348378 172.27996070723748,108.42874926936929 171.90864440076984,108.50626252088114 171.73624754417688,108.72329940724012 171.25884086440783,108.9403359725111 170.87426326132845,109.00234636076493 170.60903732810402,109.26589021843392 169.8266208251589,109.3279004690703 169.07072691549547,109.17287479333754 168.7657170923194,109.0798593092477 168.46070726920152,108.83181773002434 168.07612966600573,108.92483337136218 167.63850687624654,109.06435672282532 167.25392927305074,109.29689534701174 167.3202357564005,109.65345385488763 166.73673870333005,109.82398153057147 166.2593320236192,110.07202143226459 165.72888015722856,110.11852886716952 165.55648330057738,110.04101646748313 165.3045186640229,109.90149404492695 165.37082514737267,109.57594120950671 165.6890962672187,108.97134116996313 165.7686640471802,108.22721462373738 165.43713163060602,107.26604558175313 165.0392927308567,106.69244170136517 165.15864440082805,106.5374132405559 165.39734774065437,106.5374132405559 165.15864440082805,106.50640752878098 165.0923379174783,106.59942464454798 165.0923379174783,106.61492749146419 165.1719056974398,106.86297281896987 165.41060903732432,107.09551493270556 165.70235756383045,107.51408980840642 165.83497053047176,108.56827309260552 165.41060903732432,109.4829259810067 164.98624754417688,109.71546394169854 164.33644400787307,109.79297651337401 163.6203339882195,109.93249903916148 163.22249508841196,110.11852886716952 163.16944990179036,110.33556336832407 163.050098231819,110.86264582013246 163.24901768169366,110.97116256043955 162.98379174852744,111.11068396580231 162.81139489199268,111.52924738560978 162.95726915524574,111.83929359336616 162.93074656196404,111.97881417309691 162.40029469551519,112.36637064280512 161.8831041257945,112.64541066708625 161.3393909627339,112.93995233920577 160.9813359528198,113.18798697284365 160.19891944993287,113.65305078070378 159.6154223968624,113.9475904298888 159.09823182714172,114.27313356472587 158.66060903732432,114.66068397391064 158.36886051076,114.80020187061746 157.5466601178632,115.28076249934384 157.09577603143407,115.76132155407686 156.59184675838333,116.19537354093336 156.08791748533258,116.72243494159193 155.49115913559217,117.34250475371664 155.25245579570765,117.48202010031673 155.212671905756,117.55952856887598 154.81483300594846,117.86956203370937 154.32416502945125,118.44312221664586 154.05893909628503,118.78415693822899 153.36935166997137,119.4972269765276 153.15717092336854,119.74525052537501 152.93172888015397,120.00877508670965 152.5736738704145,120.42731312311662 152.2156188605004,120.87685264728498 151.71168958739145,121.4814036290336 151.55255402752664,121.89993746505934 151.2608055009623,122.16345815679233 151.1812377210008,122.16345815679233 151.2342829076806,122.31847010736237 151.11493123770924,122.62849351714249 150.91601178783458,123.1400307113654 150.83644400787307,123.32604379441182 150.86296660121297,123.38804810306465 150.5579567780369,123.79107547047897 150.34577603143407,124.33361056326248 150.08055009832606,124.7986390463775 149.9346758350148,125.077655428875 149.85510805505328,125.21716342118452 149.6827111984603,125.55818239961809 149.550098231819,126.1472133139905 149.20530451869126,126.92225038869947 148.90029469551519,127.4802745480265 148.90029469551519,127.7127839881723 148.83398821228184,127.88329067682207 148.01178781926865,127.92979246663162 147.77308447938412,128.41031009836297 147.52111984288786,128.84432467150327 147.30893909628503,129.18533522135112 147.03045186639065,129.34033975482453 147.12328094308032,129.69684956046694 147.16306483303197,129.96035625151126 147.32220039295498,130.08435923649813 147.25589390960522,130.31686455097224 146.79174852656433,130.3013642081496 145.7971512770746,130.17736140651687 144.88212180748815,130.51836885893135 143.71512770140544,130.64237137249438 142.4155206286814,131.10737986511958 141.59332023578463,131.18488113727653 141.2750491159386,131.2933828496316 140.95677799603436,130.92137664483744 140.1080550098559,130.25486316983006 140.01522593328264,129.80535237290314 139.8030451866798,129.38684108291636 139.41846758360043,128.7048201272264 139.1532416503178,128.48781279483228 138.86149312375346,128.61181702408066 138.38408644404262,128.11579947841528 137.98624754423508,127.61978025631106 137.77406679769047,127.40277131946641 137.6016699411557,127.07725731249957 137.29666011792142,126.67423897015397 137.12426326132845,126.5347323629976 137.42927308450453,127.12375935763703 137.72102161101066,127.55777773565205 137.44253438117448,127.82128826751432 137.09774066798855,128.0227960020129 136.20923379180022,128.58081597655837 136.01031434186734,128.8908261567267 135.54616895876825,128.8133236730937 134.9361493124161,128.797823171466 134.6046168959001,128.9683285994397 134.43222003930714,129.2163361411367 134.51178781932686,129.66584874216642 134.5250491159386,130.09985960224003 134.68418467586162,130.1463606897305 134.6576620825217,130.62687106398516 134.80353634583298,130.89037608524086 134.85658153239638,131.2933828496316 134.97593320236774,131.75838927956647 134.92288801580435,131.83589020797808 134.6576620825217,131.88239074540616 134.86984282912454,132.16139366042626 134.8831041257945,132.4403960451309 134.71070726920152,132.68839771953935 134.75049115915317,133.66490023920778 134.69744597253157,134.2228987619892 134.5780943026184,134.951393640702 134.6311394891818,135.7883832929947 133.981335952878,136.1293777089013 133.75589390966343,136.06737878310378 133.5967583497404,135.69538467843086 133.71611001965357,135.4163884812442 133.66306483303197,135.23039072178653 133.47740667982725,135.16839141624223 133.3845776031376,134.67239602927293 133.34479371318594,134.5948965986463 133.33153241651598,134.54839692059613 133.22544204327278,134.34689814560988 133.25196463655448,134.17639896612673 133.1060903733014,134.08339933016396 133.03978389000986,133.86639995049336 133.0,133.4944002674165 133.13261296664132,133.40140019932005 133.13261296664132,133.10689959493175 133.9017681729165,132.87439870039816 134.22003929276252,132.85889862767363 134.64440078590997,132.68839771953935 134.77701375249308,132.79689832036092 134.76375245588133,133.58740027659223 134.6311394891818,133.99039963528048 134.5250491159386,135.23039072178653 134.6046168959001,135.7883832929947 134.75049115915317,136.19137660850538 134.68418467586162,136.31537432911864 134.31286836939398,136.81136416415393 133.99459724954795,137.0748580822401 134.02111984282965,137.33835152738902 134.15373280947097,137.29185271846654" stroke="#ffb410" stroke-linecap="round" stroke-linejoin="round" stroke-width="0.5"><title>2023-10-04 8.0km</title><desc>14614522219</desc></polyline><polyline fill="none" points="66.0522778192535,193.97133776999544 66.47572815534659,194.2127755258116 66.67737117246725,194.76149695686763 66.75802837940864,195.727244175534 66.77819268102758,196.49544991354924 67.0,196.95637238796917 66.85884988796897,197.11001305142418 66.19342793128453,196.62714212323772 65.95145631069317,196.42960378646967 65.89096340560354,196.56129602581495 66.31441374158021,197.41729413616122 66.31441374158021,197.6367804276524 66.13293502607848,197.3294995734759 65.42718446603976,196.89052636467386 65.34652725909837,196.38570636018994 64.96340552647598,195.815039219131 64.35847647488117,195.5736027858511 63.30993278557435,195.52970523113618 62.8058252427727,195.5955515607784 62.8058252427727,195.9467317351082 62.90664675121661,195.727244175534 62.94697535468731,195.63944910559803 62.120238984236494,195.15657574991928 61.49514563102275,193.81769545804127 61.19268110522535,193.79574654973112 61.112023898400366,194.27862215190544 61.23300970881246,194.93708759744186 61.112023898400366,195.09072932146955 61.01120238984004,195.00293406043784 60.72890216577798,194.34446876318543 60.648244958953,194.38836649569566 60.62808065721765,194.91513877312536 60.40627333824523,195.61750033401768 60.446601941715926,196.40765507420292 60.3054518296849,196.78078295954037 60.40627333824523,196.71493689669296 60.345780433155596,196.23206531634787 60.365944734890945,195.20047336062999 59.92233009706251,193.6421041455178 59.4383868558798,193.2689722564828 59.014936519786716,192.65440104866866 58.85362210602034,192.28126789961243 58.97460791631602,191.77643994038226 58.914115011226386,191.35940749073052 58.28902165789623,190.76678140790318 57.92606422700919,190.54728996139602 57.30097087379545,190.76678140790318 56.97834204637911,190.7448322706914 56.131441374192946,190.10830657428596 55.667662434629165,189.95466223312542 54.84092606417835,190.1741541243391 53.6109036593698,189.5376271859859 53.20761762512848,188.9010988625232 52.82449589238968,187.97922779995133 52.784167289035395,187.40854425748694 52.38088125467766,187.0354044161213 51.715459297876805,186.94760673720157 50.22330097085796,186.1793759224238 49.47722180723213,185.47699169724365 49.15459297981579,185.47699169724365 48.3883495144546,185.78428500331938 47.279312920058146,186.33302224683575 46.412247946253046,185.872083031456 45.90814040333498,184.2039159896667 45.968633308424614,184.1161174607114 45.98879761015996,184.09416782439803 45.98879761015996,183.94052032384207 45.383868558565155,183.56737605767557 45.04107542941347,182.73328715315438 44.77893950708676,181.72359740163665 45.00074682594277,181.54799882817315 45.70649738609791,180.93340299051488 45.928304704953916,180.60415468903375 45.928304704953916,180.5163550794241 45.56534727406688,180.64805448398693 44.89992531738244,180.67000437900424 44.637789395055734,180.5602548875031 44.15384615387302,180.67000437900424 43.81105302460492,180.82365359790856 43.77072442113422,180.71390416406211 44.09335324866697,180.45050535484916 44.85959671391174,180.27490601688623 45.24271844665054,179.94565697401413 45.00074682594277,179.85785716667306 44.17401045549195,179.52860765418154 43.89171023154631,179.24325777692138 43.81105302460492,179.24325777692138 42.9843166541541,179.52860765418154 42.82300224050414,179.7481073703384 42.78267363703344,179.63835753290914 43.085138162830845,179.46275770725333 43.629574309219606,178.80425742201624 44.37565347272903,178.80425742201624 44.57729648984969,178.69450723033515 44.65795369679108,178.38720647443552 44.395817774464376,178.18965581792872 44.11351755040232,178.2335559753701 43.266616878216155,178.1677057367924 42.702016430092044,178.32135627043317 41.734129947726615,178.49695678145508 41.18969380133785,178.67255718706292 40.70575056015514,178.9798576431058 40.76624346524477,178.9798576431058 40.8670649738051,178.95790762119577 40.80657206871547,179.02375768186175 40.78640776698012,178.07990539559978 40.685586258303374,177.9043046340812 39.778192681027576,178.21160589749343 39.35474234493449,178.5408568927378 39.132935026078485,178.93595759768505 38.81030619866215,179.37495775488787 38.447348767658696,178.76035735031473 38.165048543713056,178.84815748716937 38.46751306951046,178.65060714210267 38.548170276219025,178.5408568927378 38.165048543713056,178.89205754568684 38.366691560833715,180.42855544332997 38.245705750538036,180.71390416406211 38.20537714706734,180.80170371447457 38.20537714706734,180.5383049842785 38.26587005215697,180.49440517285257 38.10455563850701,180.055406696134 37.64077669894323,179.35300776269287 37.116504854289815,178.7823073869804 36.89469753543381,178.05795530619798 36.249439880484715,176.96044873457868 36.370425690780394,176.21414191296208 36.51157580281142,175.84098778793123 36.935026138904504,175.57758458939497 36.914861837169155,175.55563431218616 36.45108289772179,175.75318674810114 36.49141150107607,175.8190375304548 36.148618371924385,176.10439074918395 36.10828976845369,176.1702414524334 36.249439880484715,176.10439074918395 36.51157580281142,176.1702414524334 36.330097087309696,176.27999259150238 36.08812546671834,176.21414191296208 36.10828976845369,176.34584325519972 36.430918595870025,176.21414191296208 36.6728902165778,175.9726892982144 36.57206870801747,176.12634098521085 36.59223300975282,176.2360921408399 36.59223300975282,175.9726892982144 36.45108289772179,176.0604902720952 36.41075429425109,176.2580423670006 36.35026138916146,176.12634098521085 36.30993278557435,176.1702414524334 35.82598954450805,176.08244051146903 35.40253920829855,176.14829121966613 35.82598954450805,176.14829121966613 36.00746825989336,175.9726892982144 35.684839432360604,176.08244051146903 35.584017923800275,176.10439074918395 35.70500373409595,176.01658978842897 35.563853622064926,175.79708727131947 35.90664675133303,175.70928621833446 36.168782673659734,176.0604902720952 35.86631814786233,175.8848882979364 36.047796863364056,175.99463954410749 36.39058999251574,175.4897834705189 36.632561613223515,174.69957221410004 36.61239731137175,174.83127423844417 35.946975354803726,175.2263799556531 35.82598954450805,175.3141811536334 35.563853622064926,175.16052903982927 35.42270351015031,174.91907555508078 35.120238984236494,174.83127423844417 34.999253173940815,174.50201906627626 34.73711725161411,174.52396942256019 34.17251680360641,174.567870130355 33.84988797607366,174.567870130355 33.52725914865732,174.67762187091284 33.04331590735819,175.13857873127563 32.92233009706251,175.0727277957194 32.720687079941854,175.24833025757107 32.29723674384877,175.59953486503218 32.216579536907375,175.42393261403777 32.216579536907375,175.3580817427428 32.216579536907375,175.24833025757107 32.29723674384877,175.24833025757107 32.33756534731947,175.3141811536334 31.510828976868652,174.567870130355 31.430171769927256,173.93130922291311 31.04705003730487,173.55815218458883 30.542942494386807,173.25084603074356 30.159820761648007,173.031341437425 29.69604182220064,172.5923317564011 29.59522031364031,172.6362327541283 29.55489171028603,172.50452974109794 29.63554891711101,172.54843075200915 29.49439880507998,172.6142822560796 29.17176997754723,172.3508761508856 28.74831964157056,172.06551926909015 28.768483943189494,171.95576654808247 28.990291262161918,171.84601378592197 28.728155339718796,171.73626098249224 28.707991038099863,171.64845871011494 28.30470500374213,171.58260698855156 27.71994025388267,171.01189144692034 27.619118745438755,170.4411747912818 27.39731142646633,169.87045702157775 27.034353995579295,169.6289991683152 26.9133681851672,169.7826541889517 26.73188946978189,169.6070484445081 26.389096340513788,169.49729480067617 26.24794622848276,169.03632904664846 26.106796116451733,168.7729197180015 25.925317401066422,168.11439535822137 25.663181478739716,168.15829702839255 25.643017177004367,167.9168377610622 25.38088125467766,167.56562392544583 25.219566840911284,167.0168514625111 25.280059746000916,166.73148937473889 24.654966392787173,166.22661730635446 24.352501867106184,166.42417604563525 23.707244212157093,166.05100942603895 22.82001493650023,166.13881337933708 22.477221807348542,166.2924702343007 22.215085885021836,166.3363721779897 21.589992531691678,166.07296041681548 20.380134428618476,165.37052789345034 19.513069454813376,164.88760455459123 18.908140403218567,164.64614258607617 17.758775205351412,164.44858264524373 17.456310679670423,164.55833818443352 17.395817774464376,164.44858264524373 16.972367438371293,163.92175548378145 17.01269604184199,163.59248802578077 16.750560119515285,163.50468330763397 15.540702016442083,163.43882975174347 14.955937266582623,163.06565932152444 14.855115758022293,162.99980566673912 14.613144137430936,162.9559032219695 13.867064973921515,162.8241958480794 13.604929051478393,162.9120007706224 13.403286034357734,163.06565932152444 13.504107542918064,163.21931779163424 13.443614637712017,163.4168785631773 13.362957430887036,163.46078093867982 13.483943241182715,163.1095617497631 13.161314413649961,162.73639089922654 13.0,162.38517084001796" stroke="#ffc608" stroke-linecap="round" stroke-linejoin="round" stroke-width="0.5"><title>2023-07-23 6.5km</title><desc>14614522106</desc></polyline><polyline fill="none" points="127.0,169.87331609900866 126.10539845767198,170.00689765588322 124.79434447310632,170.07368840530398 123.85347043705406,170.17387449319358 122.92802056559594,170.19057217024965 122.38817480724538,170.29075820742582 121.91002570698038,170.42433952260762 121.52442159387283,170.574618409737 120.39845758356387,171.15903537362465 119.85861182527151,171.45959209292778 119.65809768636245,171.65996302157873 119.41131105402019,171.82693866257614 119.21079691516934,172.01061172808113 118.85604113113368,172.2443772363622 118.33161953731906,172.4447474834742 117.65295629826142,172.61172255653946 117.25192802061792,172.67851255190908 116.75835475581698,172.6952100477647 116.12596401030896,172.6618150548893 115.75578406173736,172.5950250546739 115.26221079693642,172.4781425077963 114.6298200514866,172.2443772363622 114.16709511569934,172.01061172808113 113.59640102827689,171.62656787890592 112.74807197949849,170.825083004107 112.1619537275983,170.4577348393068 111.86889460159,170.39094420103356 111.40616966586094,170.3241535434645 110.2493573264801,170.35754887465737 104.92802056553774,170.35754887465737 104.5424164524884,170.39094420103356 104.23393316200236,170.47443249587377 103.84832904889481,170.72489719896112 103.55526992294472,170.95866400991508 103.27763496147236,171.27591858876985 102.95372750645038,171.49298725980043 102.58354755787877,171.6432654508535 102.13624678668566,171.7267532924743 101.6735218508984,171.67666059109615 101.303341902385,171.55977757899382 100.99485861189896,171.34270897081296 100.39331619540462,170.84178063402942 99.88431876606774,170.557920760446 99.54498714656802,170.47443249587377 98.2493573264801,170.44103718157567 96.53727506427094,170.49113015118928 96.0745501286001,170.4577348393068 94.74807197949849,170.4577348393068 93.63753213366726,170.60801370468107 92.49614395888057,170.85847826278768 91.0,171.3594065633224 90.08997429313604,171.71005572659487 89.30334190232679,171.84363622000092 89.17994858615566,171.82693866257614 89.05655526992632,171.65996302157873 88.96401028276887,171.50968484136683 88.91773778921925,171.30931378219975 88.84061696659774,171.2258257895155 88.62467866326915,171.09224493840884 88.4241645244183,171.00875686714426 87.83804627251811,170.8751758903527 87.5758354755817,170.8751758903527 87.48329048842425,170.89187351666624 87.31362467870349,170.97536163017503 87.0976863753749,171.1423377666506 86.92802056559594,171.426196921253 86.83547557843849,171.50968484136683 86.60411311057396,171.50968484136683 86.12596401030896,171.34270897081296 85.75578406167915,171.1423377666506 84.25964010279858,170.1571768149006 83.14910025714198,169.67294361867243 82.73264781490434,169.55605959144305 81.2056555270101,169.33898909809068 80.6195372750517,169.28889587830054 80.434447300795,169.3222913593636 80.26478149101604,169.40578004086274 80.04884318762925,169.58945503384166 79.80205655528698,169.9901999654976 79.53984575840877,170.2740605375875 79.32390745502198,170.40764186243177 78.86118251929292,170.557920760446 78.69151670951396,170.54122310994717 78.19794344471302,170.4577348393068 77.59640102827689,170.20726984617068 77.2724935732549,170.02359534501738 77.04113110539038,169.9735022739187 76.67095115681877,169.94010688709386 76.39331619534642,169.94010688709386 75.71465295634698,170.1404791354289 75.22107969154604,170.47443249587377 74.91259640106,170.8751758903527 74.66580976865953,171.59317273137276 74.60411311057396,172.19428464738303 74.63496143958764,172.82878997085209 74.8046272493084,173.46329354941554 74.95886889460962,173.8306369290367 75.56041131104575,174.94936089156545 75.6838046272751,175.30000459916482 75.73007712076651,175.53376677491178 75.74550128536066,175.81762052705744 75.69922879175283,176.28514359294786 75.4678663238883,176.91963766732079 75.26735218509566,177.20348971465137 74.9897172236233,177.4873414128524 74.37275064265123,177.95486109582998 74.18766066839453,178.15522638428956 74.04884318762925,178.50586522044614 73.97172236500774,178.8898976202181 73.97172236500774,179.09026209682634 74.03341902315151,179.34071744790708 74.58868894603802,180.1421727448469 74.77377892029472,180.47611163042893 74.86632390745217,180.70986856281525 74.95886889460962,181.11059418178047 75.00514138821745,181.4111379393289 75.02056555269519,181.6281970764103 74.97429305914557,182.04561792004097 74.85089974297443,182.5465219357866 74.71208226220915,182.81367029964167 74.55784061696613,183.0641216099757 74.34190231363755,183.36466282354377 73.75578406167915,183.9490473963233 73.57069408742245,184.1661041464249 73.24678663240047,184.76718331228767 73.07712082267972,185.1845984787069 73.03084832907189,185.41835064213956 73.0,186.11960571201053 73.01542416453594,186.303267402036 73.12339331622934,186.7373762702482 73.20051413885085,186.95443039819656 73.30848329048604,187.15478787361644 73.57069408742245,187.4386273327109 74.12596401030896,187.92282325144333 74.37275064265123,188.20666176606028 74.7275064267451,188.67415973517927 75.0976863753749,189.35870862450975 75.25192802055972,189.8429005155922 75.39074550126679,190.4773573181883 75.40616966586094,190.6109269492008 75.39074550126679,190.67771173572692 75.31362467870349,190.71110412169946" stroke="#ffd700" stroke-linecap="round" stroke-linejoin="round" stroke-width="0.5"><title>2023-07-21 5.3km</title><desc>14614521895</desc></polyline><polyline fill="none" points="144.6485497042886,178.2549762982526 144.6789636721369,178.2549762982526 144.6789636721369,178.18912536479183 144.52689383272082,178.2549762982526 144.45085891295457,178.3866781079123 144.4660658968496,178.73239499556075 144.45085891295457,178.96287262873375 144.3596170092933,179.3579765993927 144.16192621790105,179.901243438464 144.05547733028652,180.6255972055078 144.07068431418156,180.85607292037457 143.949028442672,181.05362334725214 143.949028442672,181.15239849637146 144.66375668830005,181.0206982880336 145.2872430300922,180.85607292037457 145.59138270904077,180.8066852868651 147.44663475075504,180.70790998759912 147.7507744297036,180.65852232191537 147.88763728522463,180.74083509214688 147.9788791888859,180.75729764257267 147.94846522103762,180.74083509214688 147.94846522103762,180.70790998759912 148.34384680370567,180.65852232191537 149.04336806532228,180.74083509214688 150.0622359898407,180.69144743357901 151.35482962540118,180.70790998759912 151.71979724022094,180.82314783254697 152.06955787102925,181.00423575662717 152.61700929311337,181.48164868360618 153.02759785979288,181.74504849029472 153.5142213461222,181.95906060864218 153.81836102507077,181.99198553206224 154.21374260768062,181.92613568049273 154.53308927058242,181.81089839433844 154.73078006191645,181.64627359852602 155.14136862853775,181.23471108787635 155.41509433963802,181.03716081824678 155.61278513091384,180.9219230817398 155.93213179387385,180.8066852868651 156.4187552802614,180.74083509214688 156.677274007292,180.65852232191537 156.677274007292,180.6255972055078 156.66206702339696,180.64205976430094 157.057448606065,180.65852232191537 157.42241622071015,180.64205976430094 157.7265558997169,180.6749848783802 158.06110954657197,180.69144743357901 160.23570825118804,180.6749848783802 160.6006758659496,180.64205976430094 161.14812728803372,180.69144743357901 161.98451140522957,180.65852232191537 162.57758377917344,180.72437254044053 163.42917488032253,180.74083509214688 163.7029005913646,180.79022273996088 164.34159391722642,181.11947345145745 164.61531962821027,181.33348615832801 165.2235989862238,181.87674827926094 165.8622923119692,182.28830962834763 166.24246691074222,182.4858588114148 166.8659532525926,182.7163326414884 167.74795832158998,182.8974190584413 168.15854688821128,182.94680623807653 168.78203323000344,182.94680623807653 169.32948465220397,182.83156946896634 170.08983384957537,182.5517085009924 170.86539003095822,182.17307252566388 171.047873838339,182.0578353646124 171.1391157420585,181.97552307097067 171.19994367781328,181.72858601134794 171.32159954943927,181.580423646883 171.7473950999556,181.3170236495789 171.9298789073364,181.16886101703858 172.50774429738522,180.85607292037457 173.61785412562313,180.4774341226148 173.93720078852493,180.39512125706824 174.1500985636958,180.39512125706824 175.15375950431917,180.06586949710618 175.8228667980875,179.9506312685553 177.13066741765942,179.80246774603438 177.87580963107757,179.67076675608405 178.1343283582246,179.70369201072026 178.66657279635547,179.86831821240776 179.2444381864043,179.98355648267898 179.44212897773832,179.98355648267898 179.6246127851191,179.93416865970357 180.0352013517404,179.73661726061255 180.46099690231495,179.63784149668936 180.90199943672633,179.48967777041253 181.03886229230557,179.4732151282078 181.51027879468165,179.53906568989623 181.6775556181674,179.5226030512713 182.316248943971,179.32505129468336 182.7572514784406,179.07811135773954 182.98535623773932,179.0122606625955 183.1374260771554,179.0122606625955 183.60884257953148,179.07811135773954 183.98901717824629,179.02872333816777 184.12588003376732,178.94640994840302 184.3083638411481,178.74885769140383 184.44522669672733,178.63361879557488 184.93185018305667,178.45252898419858 185.3272317656665,178.18912536479183 185.49450858915225,178.139737152218 185.61616446072003,178.17266262846533 185.63137144467328,178.20558809995418 185.8290622360073,178.18912536479183 186.31568572233664,178.09034892887576 186.37651365814963,178.00803519948386 186.66544635314494,177.49768941258662 186.95437904814025,177.15197064826498 187.0,177.05319376193802 151.75021120806923,180.95484815529198 151.70459025620949,180.83961037707923 151.59814136865316,180.74083509214688 151.50689946493367,180.74083509214688 151.21796676988015,180.65852232191537 150.57927344407653,180.6091346454923 150.27513376506977,180.6255972055078 149.94058011827292,180.6091346454923 149.98620107013267,180.6255972055078 149.95578710216796,180.65852232191537 149.8341312306584,180.6255972055078 149.56040551955812,180.64205976430094 148.4807096592267,180.6255972055078 147.3705998309888,180.69144743357901 146.86876936076442,180.75729764257267 146.44297381013166,180.75729764257267 145.65221064485377,180.9219230817398 144.48127288086107,181.07008587512246 142.88453956635203,181.51457367614785 142.367502112058,181.72858601134794 141.75922275410267,181.74504849029472 141.01408054068452,181.95906060864218 140.89242466911674,181.92613568049273 140.6947338777245,181.6627360834682 140.32976626296295,181.38287367748853 140.14728245564038,181.2840986284864 139.91917769639986,181.23471108787635 139.5846240495448,181.26763611612841 139.37172627431573,181.33348615832801 139.09800056315726,181.51457367614785 138.90030977193965,181.72858601134794 138.7634469163604,181.76151096810645 138.64179104479263,181.74504849029472 137.7141650239355,181.3664111722901 136.64967614755733,180.6255972055078 135.70684314268874,180.1975702583295 134.9921148972353,179.901243438464 134.64235426636878,179.78600512644334 134.21655871585244,179.70369201072026 133.2889326949953,179.6049162325071 133.0912419037195,179.53906568989623 133.0,179.4732151282078" stroke="#ffbe0b" stroke-linecap="round" stroke-linejoin="round" stroke-width="0.5"><title>2023-07-14 7.2km</title><desc>14614521651</desc></polyline><polyline fill="none" points="38.959209059306886,226.68780621048063 38.8888853470562,226.8400571125385 38.74823792261304,227.02275804959936 38.64978472556686,227.2054588280298 38.42474884650437,227.8905853346805 38.3825546191656,228.3321101238398 38.46694307384314,229.04768281508586 38.55133152852068,229.33695619124046 38.70604369533248,229.59577940129384 38.902950089541264,229.79370281776937 39.6202519540675,230.44837125392223 40.22503587906249,231.4075329600164 40.32348907610867,231.65112888778094 40.54852495522937,232.41236434505845 40.59071918256814,232.68640843575122 40.60478392493678,233.14314779400593 40.562589697598014,233.66078453531372 40.5063307278906,234.0109498444217 40.28129484882811,234.81785029546882 39.88748206041055,235.426829719916 39.80309360579122,235.457278644928 39.05766225641128,236.3098467561358 38.81856163486373,236.6295589076326 38.39661936159246,237.34510339205735 38.199712967383675,237.75615976193512 38.08719502785243,238.15199106320506 37.974677088379394,239.82665371822077 38.31223090697313,240.9684615272854 38.720108437759336,241.88190331606893 39.07172699877992,242.5822060037026 39.17018019588431,243.05414780543651 39.381151332578156,243.70877500499773 39.47960452962434,244.37862398606376 39.451475044712424,244.59175730591232 39.33895710523939,244.97235198323324 39.19830968079623,245.7639867086109 39.02953277155757,246.2968160979799 38.70604369533248,247.08844584404142 38.49507255869685,247.4842596010567 38.21377770986874,247.8952961765899 37.70744698191993,248.5042377767677 37.130792541836854,249.4937641214783 36.91982140520122,250.19404149426555 36.83543295058189,250.7725297415309 36.7369797534775,251.22922986689082 36.68072078365367,252.52320817713917 36.75104449590435,252.9190117194812 36.96201563253999,253.58883140425314 37.20111625408754,254.06074853939936 37.369893163326196,254.33476445518318 37.651188012212515,255.03502573150035 37.72151172434678,255.14158702596615 37.693382239493076,255.14158702596615 37.876223891216796,255.84184561978327 37.96061234589433,256.37464951202855 37.94654760346748,256.80089165543905 37.81996492150938,257.44025325324037 37.651188012212515,258.0491672563512 37.355828420841135,258.6276339289034 37.28550470870687,258.82553005742375 37.15892202669056,259.55622184459935 37.187051511602476,260.01290292447084 37.28550470870687,260.5000283183472 37.355828420841135,260.68270005063096 37.46834636043059,260.8501489994378 37.552734815108124,260.911039493265 37.608993784873746,260.911039493265 37.58086430002004,260.97192996951344 37.59492904244689,261.00237520101655 37.52460533019621,261.1089334766584 37.21518099651439,261.36771763596334 36.83543295058189,261.58083376375725 36.11813108599745,262.1136231399578 35.76651252497686,262.2962934730458 35.049210660450626,262.8595260029251 34.627268387179356,262.95086086586525 34.55694467492867,262.9204159159708 34.55694467492867,262.90519343933556 34.47255622030934,262.88997096166713 34.09280817443505,263.4075345866295 33.65680115867872,263.8642073174706 32.70039867266314,264.594881627796 31.645542989543173,265.29510879718873 31.15327700402122,265.29510879718873 30.88604689767817,265.34077570567024 30.77352895808872,265.3712203058094 30.36565142730251,265.58433238361613 29.66241430514492,265.7517774364387 29.38111945631681,265.7822219771915 28.776335531380028,265.7669997073681 27.84806253015995,265.5538878142979 26.624429937743116,264.82321683004557 26.49784725572681,264.79277215070033 26.019646012748126,264.79277215070033 25.597703739476856,265.03632946222206 25.400797345268074,265.21899726106494 25.274214663368184,265.4473317869124 25.10543775401311,266.02577814485994 24.908531359862536,266.3911118684482 24.753819192992523,266.55855628001154 24.50065382901812,266.68033395033854 24.317812177236192,266.9695556352235 24.247488465101924,267.0 24.45845960167935,266.6346673322114 24.570977541210596,266.5737784926896 24.78194867784623,266.5737784926896 24.992919814540073,266.28455626450886 25.175761466205586,265.93444461496256 25.3304736330756,265.41688719778904 25.457056315033697,265.2037749505689 25.738351163861807,265.0058848136832 26.033710755233187,264.8993285091565 26.357199831400067,264.86888384079793 26.610365195316263,264.914550841655 26.905724786571227,265.03632946222206 27.482379226654302,265.38644260422734 27.833997787733097,265.5538878142979 28.565364394686185,265.7517774364387 28.959177183103748,265.8126665135351 29.296731001639273,265.7974442459381 29.873385441838764,265.72133289129124 30.35158668481745,265.5538878142979 30.393780912156217,265.5386655279872 30.407845654641278,265.5538878142979 30.590687306364998,265.4473317869124 30.77352895808872,265.3712203058094 30.956370609870646,265.34077570567024 31.43457185284933,265.3255534039199 31.57521927729249,265.2798864921351 32.60194547555875,264.5796592721599 33.052017233741935,264.2904343064729 33.924031265079975,263.6663159223099 34.07874343194999,263.4988692120096 34.28971456858562,263.1487529330916 34.47255622030934,263.0421956892242 34.627268387179356,263.01175075251376 34.96482220577309,262.82908103981754 35.73838304012315,262.2506259046495 36.202519540674984,262.00706537254155 37.21518099651439,261.3068272741657 37.44021687551867,261.1393786883564 37.52460533019621,261.0175978151092 37.52460533019621,260.911039493265 37.32769893598743,260.57614155937335 37.229245738941245,260.3173564276658 37.15892202669056,259.84545331010304 37.11672779935179,259.3431036685215 37.17298676917562,259.0690942681249 37.48241110285744,258.38406920777925 37.79183543659747,257.59248191904044 37.90435337618692,256.98356659569254 37.96061234589433,256.05496733843756 37.81996492150938,255.46127058590355 37.510540587769356,254.47177227941575 37.187051511602476,253.87807106411492 36.990145117393695,253.31481451795844 36.821368208155036,252.50798494913033 36.765109238331206,251.29012314211286 36.89169192034751,250.57462604627653 37.32769893598743,249.280635763178 37.66525275458116,248.67169640808424 37.89028863370186,248.19976719679835 38.66384946805192,247.05799860112893 38.81856163486373,246.75352593004936 39.184244938369375,245.687868114328 39.31082762032747,244.92668065828911 39.451475044712424,244.50041448096454 39.49366927205119,244.30250489099126 39.451475044712424,244.0132520787447 39.22643916570814,243.05414780543651 38.959209059306886,242.23205495104776 38.81856163486373,241.89712731230247 38.3825546191656,241.0598058845062 38.27003667963436,240.77054861736542 38.059065542998724,239.87232614947425 38.04500080051366,238.95887564177974 38.07313028542558,238.62394279592263 38.14345399767626,238.16721532918746 38.241907194722444,237.80183264239167 38.42474884650437,237.32987906667404 38.720108437759336,236.75135388525086 38.860755862202495,236.5534370108362 39.28269813541556,235.9901341190416 39.85935257555684,235.44205418293132 40.21097113657743,234.86352381343022 40.351618561078794,234.49813539240859 40.562589697598014,233.7978058125882 40.618848667421844,233.49331396419439 40.64697815227555,233.17359704934643 40.60478392493678,232.99090145138325 40.52039547031745,232.89955359294254 40.46413650055183,232.884328945991 40.46413650055183,232.97567681105284 40.3797480459325,233.06702463647525 40.42194227327127,233.0974739027879 40.45007175812498,233.06702463647525 40.45007175812498,232.97567681105284 40.12658268189989,231.05736331992375 39.95780577266123,230.76809230828076 38.62165524071315,229.5501047402795 38.46694307384314,229.519654960779 38.32629564939998,229.56532962837082 38.2278424523538,229.65667893386853 38.14345399767626,229.80892768823833 38.2278424523538,229.56532962837082 38.2278424523538,229.4739802832337 37.46834636043059,229.29128147407027 37.7496412092587,229.33695619124046 38.255971937207505,229.4739802832337 38.36848987668054,229.45875538855034 38.45287833135808,229.39785579871386 38.49507255869685,229.215156923412 38.36848987668054,228.3625600751693 38.43881358887302,227.8296852910571 38.55133152852068,227.44905961927725 38.69197895290563,227.14455858619476 38.93107957439497,226.77915676494013 39.142050711030606,226.55078030447476 39.6202519540675,226.0788015008875 40.04219422733877,225.43934465911298 40.18284165172372,225.13484071819403 40.28129484882811,224.79988587429398 40.295359591254964,224.5258315145329 40.26723010640126,224.23655152543506 40.12658268189989,223.7036662939645 39.92967628774932,223.2773571372236 39.39521607506322,222.48563784058206 39.28269813541556,222.18112962563464 39.26863339304691,221.95274817524478 39.31082762032747,221.64823918916227 39.465539787197486,221.3285042795178 39.648381438921206,221.11534740317438 40.32348907610867,220.58245426765643 40.54852495522937,220.3236199720268 40.77356083429186,219.94298072364472 40.87201403139625,219.56234078663692 40.87201403139625,218.99899241619278 40.843884546426125,218.70970482903067 40.78762557677692,218.46609392084065 40.675107637187466,218.23770843818784 40.26723010640126,217.50687322796148 39.94374103023438,216.74558385118144 39.88748206041055,216.4410673291568 39.873417317983694,215.37525603127142 39.971870515088085,215.04028565112094 40.08438845461933,214.79667049423733 40.36568330350565,214.35511730331928 40.478201242978685,214.26376135500323 40.857949288911186,214.0505973213585 41.279891562182456,213.92878920516523 41.50492744130315,213.9135631856625 42.20816456340253,213.92878920516523 42.447265184891876,213.9744672570232 43.22082601918373,214.21808336598042 43.72715674707433,214.26376135500323 44.0225163383293,214.23330936342245 44.17722850519931,214.1571793651674 44.317875929700676,214.0353713106888 44.79607717267936,213.45678208871686 44.93672459706431,213.31974756626005 45.1617604761268,213.21316509817552 45.48524955229368,213.1674868810369 46.83546482672682,213.30452150267956 47.59496091859182,213.45678208871686 48.15755061630625,213.6090425645525 48.76233454130124,213.89833716506837 49.465571663342416,214.44647321195225 49.85938445175998,214.69008877438318 50.5485568313743,214.96415594490827 50.94236961979186,215.14686719361634 51.08301704417681,215.14686719361634 51.19553498370806,215.08596346164995 51.44870034768246,214.72054069984006 51.617477257037535,214.59873297152808 51.870642620895524,214.56828102841973 52.166002212208696,214.61395894140878 52.306649636651855,214.65963684448798 52.46136180352187,214.76621857976716 52.78485087963054,215.25344868205138 52.89736881921999,215.37525603127142 52.995822016266175,215.42093376906996 53.375570062256884,215.32957828359213 53.86783604766242,215.28390052597388 54.782044306455646,214.97938188837725 55.34463400411187,214.85757430990634 55.513410913408734,214.78144453754066 55.752511534898076,214.58350700049778 55.71031730755931,214.49215115141124 55.654058337793685,214.4616991928633 55.654058337793685,214.59873297152808 54.83830327616306,214.82712240425462 53.82564182032365,215.28390052597388 53.277116865094285,215.39048194499628 53.12240469822427,215.39048194499628 53.009886758751236,215.34480420059117 52.70046242506942,214.88802621114883 52.55981500056805,214.7509926209168 52.41916757612489,214.67486280998855 52.166002212208696,214.59873297152808 51.92690159071935,214.59873297152808 51.701865711656865,214.65963684448798 51.40650612034369,214.82712240425462 51.11114652903052,215.11641532981594 50.94236961979186,215.16209312382853 50.56262157385936,214.99460783072573 48.69201082905056,213.9135631856625 47.69341411575442,213.44155603507534 47.35586029710248,213.35019969005953 46.69481740234187,213.27406937225896 46.18848667439306,213.12180865397386 45.836868113372475,213.09135649709788 45.38679635518929,213.0 44.97891882440308,213.07613041700097 44.72575346042868,213.19793902688252 44.59917077847058,213.33497362870548 44.43039386917371,213.65472068583767 44.205357990111224,213.92878920516523 44.03658108081436,214.0353713106888 43.67089777730871,214.1571793651674 43.50212086801184,214.18763136779307 43.31927921628812,214.1571793651674 42.71449529129313,213.9896932720585 42.26442353310995,213.80698101840972 41.969063941796776,213.7613029302156 41.58931589592248,213.7613029302156 41.30802104709437,213.80698101840972 40.95640248601558,213.9135631856625 40.74543134943815,214.02014529888402 40.14064742438495,214.61395894140878 40.014064742426854,214.82712240425462 39.84528783307178,215.49706331003108 39.81715834821807,216.13655036641285 39.873417317983694,216.5933256452554 40.14064742438495,217.3850671127875 40.26723010640126,217.67435652118002 40.60478392493678,218.20725702181517 40.77356083429186,218.6335764505202 40.843884546426125,219.0598950154381 40.815755061630625,219.48621271662705 40.68917237961432,219.91252955401433 40.5063307278906,220.3236199720268 40.309424333740026,220.53677765041357 39.84528783307178,220.88696479606733 39.60618721158244,221.1001219037571 39.35302184766624,221.52643547135813 39.28269813541556,221.89184641328757 39.28269813541556,222.30293296449236 39.33895710523939,222.48563784058206 39.43741030228557,222.65311717097939 39.67651092383312,222.9119486012205 39.81715834821807,223.1098783036723 40.16877690923866,223.94727113863337 40.253165363916196,224.404029462341 40.23910062148934,224.647633496279 40.196906394150574,224.89123724824458 40.014064742426854,225.3936690960545 39.746834636083804,225.91132489680604 39.59212246915558,226.09402664008667 39.07172699877992,226.53555519829388 38.93107957439497,226.5660054095788 38.79043215001002,226.55078030447476 38.11532451270614,226.44420453811472 37.86215914884815,226.3528538383107 37.77777069417061,226.3528538383107" stroke="tomato" stroke-linecap="round" stroke-linejoin="round" stroke-width="0.5"><title>2023-07-13 12.7km</title><desc>14614521311</desc></polyline></svg>