<?xml version="1.0" encoding="utf-8" ?>
<svg baseProfile="full" height="300mm" version="1.1" viewBox="0,0,200,300" width="200mm" xmlns="http://www.w3.org/2000/svg" xmlns:ev="http://www.w3.org/2001/xml-events" xmlns:xlink="http://www.w3.org/1999/xlink"><defs /><rect fill="#222222" height="300" width="200" x="0" y="0" /><text fill="#FFFFFF" style="font-size:12px; font-family:Arial; font-weight:bold;" x="10" y="20">Over 5km Acitivities</text><text fill="#FFFFFF" style="font-size:4px; font-family:Arial" x="10" y="280">Runner</text><text fill="#FFFFFF" style="font-size:9px; font-family:Arial" x="10" y="290">Yiling</text><text fill="#FFFFFF" style="font-size:4px; font-family:Arial" x="65" y="280">SPECIAL TRACKS</text><rect fill="gold" height="2.6" width="2.6" x="65" y="283" /><text fill="#FFFFFF" style="font-size:3px; font-family:Arial" x="70" y="285.5">Over 5.0 km</text><rect fill="tomato" height="2.6" width="2.6" x="65" y="287" /><text fill="#FFFFFF" style="font-size:3px; font-family:Arial" x="70" y="289.5">Over 10.0 km</text><text fill="#FFFFFF" style="font-size:4px; font-family:Arial" x="120" y="280">STATISTICS</text><text fill="#FFFFFF" style="font-size:3px; font-family:Arial" x="120" y="285">Number: 9</text><text fill="#FFFFFF" style="font-size:3px; font-family:Arial" x="120" y="290">Weekly: 1.5</text><text fill="#FFFFFF" style="font-size:3px; font-family:Arial" x="141" y="285">Total: 70.9 km</text><text fill="#FFFFFF" style="font-size:3px; font-family:Arial" x="141" y="290">Avg: 7.9 km</text><text fill="#FFFFFF" style="font-size:3px; font-family:Arial" x="167" y="285">Min: 5.3 km</text><text fill="#FFFFFF" style="font-size:3px; font-family:Arial" x="167" y="290">Max: 12.7 km</text><polyline fill="none" points="59.70153405331075,87.0 59.30618554376997,86.37768580461852 57.8565743425861,85.7075006022933 57.37337060878053,85.22879645222565 56.494818365434185,84.55861003434984 54.64985865494236,83.40971738210646 52.49740565917455,81.97359863569727 52.18991237389855,81.68637449556263 51.882419088855386,81.68637449556263 51.13564968225546,81.30340877291746 49.90567654184997,78.81412592972629 50.5206631119363,77.37799676152645 49.99353176611476,76.61205987341236 49.55425564432517,77.13864158361685 47.05038175126538,78.09606175287627 46.21575712016784,77.28225470124744 45.864336223108694,76.13334884797223 46.30361234489828,75.51102397369687 45.55684293806553,73.1653324123472 44.7661459192168,72.8302329085418 43.40438994229771,73.21320375561481 42.96511382074095,73.78765959182056 42.74547575972974,74.40998615970602 41.69121306785382,73.93127346946858 42.086561577394605,73.02171836094931 41.95477874088101,72.92597564205062 41.99870635312982,72.87810427707154 42.701548147713766,69.9100725837634 42.481910086935386,68.52179491950665 43.00904143275693,66.94202697847504 42.35012725042179,66.08033371309284 40.9444436612539,64.644175664871 41.51550261932425,64.2133276151144 41.99870635312982,64.35694366425741 42.56976531120017,64.1175835642498 43.44831755431369,63.495246880920604 43.755810839589685,62.872909585770685 43.755810839589685,62.34631601208821 42.086561577394605,61.53248871862888 40.54909515194595,60.19206501398003 40.28552947891876,59.47397971927421 41.1201541100163,58.66014873381937 42.086561577394605,58.75589360995218 43.4922451665625,59.8090862914687 43.79973845160566,60.000575681682676 44.195086961146444,59.6175968432799 43.096896657021716,59.56972447223961 42.3940548626706,59.0910005622427 41.82299590460025,58.61227629031055 41.38371978304349,57.51120909146266 42.43798247445375,57.27184640348423 43.975448900135234,57.41546402708627 44.54650785843842,58.08567917323671 45.029711592243984,57.942061701614875 44.195086961146444,56.41013997764094 43.931521287886426,55.692050393496174 43.58010039082728,55.692050393496174 43.4922451665625,55.692050393496174 43.62402800307609,53.39415825140895 44.06330412463285,51.0005117347464 43.79973845160566,50.904765685787424 43.79973845160566,50.09092368558049 42.525837699184194,48.128123969130684 42.13048918964341,47.553644852072466 39.978036193875596,46.16531816730276 38.967701114015654,45.78233095980249 37.82558319787495,46.35681168414885 37.16666901577264,46.21319155191304 36.244189160410315,45.159976253518835 35.45349214132875,44.58549444319215 33.301039145560935,44.44187390914885 33.03747347276658,44.48974742408609 32.466414514463395,44.77698843786493 32.20284884166904,45.11210278922226 31.280368986539543,45.255723171227146 30.357889130944386,44.77698843786493 30.445744355442002,44.20250627992209 30.48967196745798,44.05888565903297 29.87468539713882,44.29825334245106 28.9961331540253,43.77164431946585 29.21577121480368,43.48440284951357 27.063318219035864,41.856698724848684 27.063318219035864,41.04284509312129 27.678304789355025,39.60663024941459 27.678304789355025,39.65450412995415 26.799752546008676,40.947097538097296 26.27262120018713,40.85134996881243 25.26228612056002,40.18111657787813 24.82300999877043,39.989621192915365 23.021977900294587,39.70237800700124 21.616294311359525,39.60663024941459 20.8695249047596,39.17576516082045 20.298465946456417,39.55875636514975 20.47417639521882,41.13859263347695 22.011642820900306,42.81417224620236 22.670557003002614,43.53227643686114 23.81267491914332,43.81951788510196 24.954792835284024,45.447216963162646 24.998720447765663,45.35147007444175 25.70156224211678,46.11744477896718 25.833345078630373,45.87807778338902 25.92120030289516,46.16531816730276 23.76874730689451,43.67589717719238 22.31913610571064,43.3886556638754 21.04523535305634,42.09606724086916 20.298465946456417,39.79812575009419 20.64988684374839,39.12789124407573 21.177018189802766,39.51088247721782 22.846267451765016,39.60663024941459 23.549109246348962,39.55875636514975 24.164095816435292,39.79812575009419 27.37081150431186,41.808825010666624 27.678304789355025,42.383309340744745 29.43540927558206,44.10675920301583 30.621454803971574,45.39934352063574 32.686052575241774,44.25037981313653 34.970288407523185,42.431183011387475 36.683465281967074,40.85134996881243 37.86951081012376,41.2343401593389 36.859175730496645,40.947097538097296 35.14599885628559,41.904572435247246 34.355301837436855,42.76629860443063 33.16925630904734,43.19716124923434 32.466414514463395,42.57480400160421 31.93928316864185,41.52158265019534 31.807500332361087,40.65985478670336 31.675717495847493,39.51088247721782 31.631789883598685,38.36190808255924 31.10465853777714,38.07466415804811 31.456079434836283,37.69167205586564 31.060730925295502,37.40442782721948 31.280368986539543,36.97356123995269 32.246776453917846,36.44694612373132 32.071066005155444,35.10646930593066 32.37855929043144,35.53733716410352 33.16925630904734,34.962846621347126 33.03747347276658,34.244732709776144 32.905690636252984,34.484104104107246 32.42248690221459,35.44158877647715 32.5103421267122,36.159701330412645 32.905690636252984,36.35119787376607 33.43282198207453,37.117183468304574 33.56460481835529,37.35655377648072 34.39922944945283,38.218286136572715 35.10207124403678,38.2661601221771 35.585274977842346,38.505529995891266 35.409564529312775,38.505529995891266 35.14599885628559,38.218286136572715 35.45349214132875,37.02143531967886 35.014216020004824,36.25544960930711 34.44315706170164,36.06395303690806 35.05814363178797,35.44158877647715 35.629202590091154,35.53733716410352 35.804913038620725,35.29796616791282 36.55168244522065,34.484104104107246 36.81524811824784,34.00536122487392 37.12274140352383,33.57449232402723 37.12274140352383,33.23937186499825 37.693800361594185,33.095748756837565 37.693800361594185,33.19149749923963 37.60594513709657,33.38299494056264 37.60594513709657,33.095748756837565 37.12274140352383,33.28724622708978 36.99095856701024,33.71811532351421 37.12274140352383,34.101109829731286 36.55168244522065,34.053235529048834 36.639537669718266,34.148984126746655 35.98062348738313,34.86709814687492 35.05814363178797,35.82458223996218 34.83850557124242,35.872456406534184 34.44315706170164,36.39907200058224 33.740315267350525,36.44694612373132 32.72998018749058,36.25544960930711 32.071066005155444,36.782064884668216 31.98321078089066,36.782064884668216 31.192513761809096,36.782064884668216 29.83075778489001,36.97356123995269 30.753237640485168,37.212931602378376 30.92894808901474,37.5480499578407 31.456079434836283,37.59592399420217 31.10465853777714,37.88316813588608 31.5439346593339,38.60127792006824 31.675717495847493,40.27686424856074 31.98321078089066,41.04284509312129 31.76357272011228,41.4258351676981 32.33463167818263,42.143940933281556 32.20284884166904,42.57480400160421 32.64212496345863,44.25037981313653 33.60853243083693,44.29825334245106 35.27778169279918,44.44187390914885 36.37597199669108,45.303596624638885 37.60594513709657,46.40468505426543 38.7041354412213,46.16531816730276 40.10981903015636,46.45255842077313 41.208009334048256,47.17065848456696 42.086561577394605,47.745137949008495 43.05296904500574,48.9419684925233 43.755810839589685,50.13879677344812 43.711883227108046,53.298412564443424 43.40438994229771,54.447359851852525 44.10723173664883,56.60163039586041 44.7661459192168,57.70269917655969 44.28294218541123,57.89418920391472 43.40438994229771,57.22397385496879 41.55943023157306,57.03248362510931 40.9444436612539,58.75589360995218 39.846253357362,59.42610733723268 40.24160186666995,60.04844802018488 41.51550261932425,61.48461649235105 42.13048918964341,61.91546639887383 42.701548147713766,62.154827331251 43.316534717800096,62.29844384739408 43.40438994229771,62.82503746077418 43.22867949376814,63.59099102579057 41.647285455837846,63.9260954191559 40.856588436989114,64.0218394989497 40.50516753946431,65.69735855207546 42.3940548626706,66.2718212067266 42.87725859624334,66.70266785577405 42.701548147713766,66.84628334030276 42.35012725042179,68.47392322169617 42.65762053546496,70.96324671246111 42.87725859624334,71.82493333320599 42.481910086935386,72.63874739821767 41.51550261932425,74.31424365052953 42.65762053546496,74.84082727140049 43.6679556153249,73.54830305668293 45.029711592243984,73.35681776341517 46.12790189613588,75.22379690245725 45.864336223108694,75.98973546968773 47.094309363747016,78.04819077864522 48.2803548919037,78.47902941511711 49.72996609308757,76.80354418238858 50.432807887671515,76.85141525050858 49.86174892960116,78.71838408650365 50.5206631119363,80.4417350498843 51.926346701104194,81.78211589017883 52.541333271423355,82.06933998677414 53.8591616358608,83.31397623359226 54.9573519397527,83.45758795080474 56.84623926272616,84.89370333199622 57.944429567083716,85.80324138898868" stroke="#ffbb0d" stroke-linecap="round" stroke-linejoin="round" stroke-width="0.5"><title>2025-05-17 7.4km</title><desc>14504809249</desc></polyline><polyline fill="none" points="93.15783560462296,34.117720100824954 93.07638126658276,34.00006549878162 92.83201825234573,34.00006549878162 93.59225874079857,33.61768780590501 94.62401368934661,35.61781327679637 94.81407381151803,36.1472565990116 94.81407381151803,36.05901609340799 94.62401368934661,37.38262165596825 94.70546802738681,37.44144846929703 95.16704260953702,38.05912949319463 95.24849694757722,38.58856962021673 95.43855706986506,39.176835615275195 95.43855706986506,39.20624889258761 95.52001140778884,39.382728511467576 95.92728309787344,39.794513989414554 96.19879755820148,40.26512545105652 96.68752358632628,40.52984415757237 96.9318866005633,40.47101779328659 97.1219467226183,40.29453864917741 97.2305525066331,40.17688584365533 97.66497564292513,39.64744779543253 97.58352130476851,38.912116023362614 97.4206126286881,38.765049508569064 97.4206126286881,39.26507544075139 97.4206126286881,39.11800905427663 97.28485539869871,39.02976919669891 97.2577039526077,39.176835615275195 97.50206696672831,39.05918248472153 97.55636985879391,38.147369562473614 98.15370167116635,37.44144846929703 98.58812480734196,36.52963190077571 98.96824505145196,36.11784309925861 98.94109360547736,35.50015911113587 99.07685083558317,35.02954210608732 99.37551674176939,34.64716538644279 99.86424276989419,34.26478830521228 100.10860578413121,33.94123818492517 100.54302892030682,33.82358353160089 101.49332953081466,33.58827412230312 101.87344977492467,33.52944674855098 102.3893272492569,33.94123818492517 103.25817352172453,33.82358353160089 103.74689954996575,33.58827412230312 104.56144293036778,33.76475619213306 105.15877474250738,33.61768780590501 105.45744064869359,33.705928844050504 106.81501294940244,33.558860436518444 106.51634704321623,33.35296457601362 106.24483258312102,33.2647234609467 106.32628692116123,33.20589604010456 106.62495282723103,33.382378276844975 106.67925571929663,33.11765489287791 107.24943608557805,33.0 107.71101066784468,33.2647234609467 107.81961645197589,33.11765489287791 108.06397946598008,33.470619366300525 108.2268881421769,33.470619366300525 108.14543380402029,33.41179197540623 108.30834248010069,33.41179197540623 109.09573441452812,33.558860436518444 109.17718875256833,33.73534251912497 108.85137140040752,33.558860436518444 108.66131127835251,33.382378276844975 108.6341598322615,33.441205671901116 108.4712511561811,33.382378276844975 108.19973669608589,33.470619366300525 108.36264537228271,33.64710148744052 107.92822223587427,33.58827412230312 107.92822223587427,33.294137168093584 107.92822223587427,33.02941372641362 107.62955632980447,33.14706861076411 107.76531355991028,33.2647234609467 107.38519331556745,33.0 106.62495282723103,33.23530975158792 106.19052969117183,33.294137168093584 106.13622679910623,33.558860436518444 105.94616667693481,33.85299719814793 105.81040944694541,33.61768780590501 105.7018036628142,33.64710148744052 105.240229080664,33.61768780590501 104.45283714623656,33.20589604010456 103.82835388788953,33.470619366300525 103.50253653572872,33.558860436518444 102.6879931553267,33.64710148744052 102.22641857317649,33.911824524839176 101.52048097678926,33.73534251912497 101.08605784061365,33.73534251912497 100.73308904236183,33.911824524839176 100.38012024422642,33.82358353160089 99.72848553978838,34.26478830521228 99.02254794340115,35.41191846437869 98.91394215950277,36.029602587310364 98.64242769929115,36.647285767045105 98.39806468528695,37.0296605960466 98.34376179310493,37.67675563725061 97.74642998096533,37.85323592336499 97.50206696672831,38.08854285176494 97.3391582906479,38.41208965485566 97.58352130476851,38.970942614309024 97.66497564292513,39.08859577056137 97.4749155206373,39.7356875182013 97.3120068446733,39.94158013002016 97.2577039526077,39.94158013002016 97.1490981685929,40.05923300393624 96.9861894925125,40.353365039103664 96.74182647839189,40.441604607971385 96.25310045015067,40.500430976448115 96.11734322016127,40.26512545105652 95.90013165201526,39.58862130288617 95.65576863789465,39.52979480166687 95.54716285376344,39.26507544075139 95.38425417779945,38.47091631856165 95.00413393345661,37.82382254768163 94.92267959553283,37.17672774178209 95.30279983964283,36.44139147858368 95.38425417779945,36.00018907900085 95.43855706986506,35.61781327679637 95.54716285376344,35.23543711320963 95.30279983964283,34.941301356768236 94.89552814944182,34.235374668613076 94.86837670346722,33.882410862570396 94.4339535671752,33.470619366300525 93.51080440275837,33.61768780590501 92.85916969843674,34.08830645351554 93.04922982049175,34.50009732096805 93.18498705071397,35.32367779838387 92.77771536039654,35.558986198244384 91.42014305968769,35.00012852510554 90.00826786702964,36.11784309925861 89.49239039293025,36.588458838145016 89.46523894683924,37.11790088991984 89.89966208289843,37.529688673326746 90.74135690939147,37.0296605960466 91.42014305968769,37.0296605960466 91.63735462795012,37.29438141983701 91.01287136960309,38.64739625816583 90.14402509713545,40.94162846787367 89.89966208289843,41.88284817466047 90.08972220518626,42.41228329736623 97.2305525066331,53.58908529925975 96.8775837084977,54.500863420340465 97.2305525066331,56.147941269824514 97.58352130476851,56.883241716452176 97.52921841281932,57.383245257049566 97.06764383066911,57.70677663051174 96.28025189624168,57.64795276365476 94.569710797281,57.82442433855613 93.42935006483458,59.00089953764109 92.66910957638174,59.265605986031005 90.79565980145708,60.55972390784882 90.33408521919046,61.0597229055129 89.95396497496404,61.647956229542615 89.76390485290904,62.23618869850179 90.08972220518626,62.73618562478805 90.71420546341687,62.9420665326179 91.82741475000512,63.2067704029032 92.47904945432674,62.677362489077495 92.80486680648755,62.00089581354405 93.8909246471012,61.38325133957551 95.68292008386925,60.50090045569232 96.52461491024587,60.353841788019054 96.9047351545887,60.67737078643404 97.52921841281932,61.00089952608687 98.34376179310493,61.795014426956186 99.21260806568898,63.00088962979498 99.29406240372919,63.97146950013121 99.37551674176939,64.47146428239648 99.72848553978838,64.94204704259755 100.21721156814601,65.85379958321573 100.21721156814601,66.94201766862534 100.24436301412061,67.91258808673592 100.59733181225602,69.00080063607311 101.16751217865385,69.4125559728418 101.87344977492467,70.38312046608189 102.41647869523149,70.82428537544911 103.14956773759332,71.41250450644293 103.90980822592974,71.94190099346451 103.80120244191494,71.85366829374107 104.45283714623656,72.05954456314794 105.18592618859839,72.44188592868159 105.37598631065339,73.94183702836744 105.8375608928036,74.55946233600844 107.22228463960346,74.73592653655214 108.4169482642319,74.55946233600844 109.09573441452812,74.64769444591366 110.18179225502536,76.26527971820906 110.12748936307617,77.23582777852425 110.18179225502536,77.79462712121313 110.5347610533936,79.29455838428112 110.50760960730258,80.11804769467562 110.10033791698515,81.11799674778013 109.66591478080954,81.85325182852102 109.63876333471853,82.91201679853839 109.58446044276934,83.26493783990736 109.15003730659373,83.88254892171244 108.2268881421769,84.55897902537254 107.49379909981508,85.00012848398183 106.59780138125643,84.94130858397693 105.8375608928036,85.00012848398183 104.94156317447778,85.1471781966975 104.58859437634237,85.08835831802571 104.53429148427676,85.35304770473158 105.10447185055818,85.29422785597853 106.65210427332204,85.38245762590668 107.16798174753785,85.58832701432402 107.22228463960346,86.02947535112617 107.11367885558866,86.11770496083773 107.30373897752725,86.8529509602813 107.30373897752725,86.91177058260655 107.11367885558866,86.50003304722486 106.51634704321623,85.85301607407746 106.43489270529244,85.67655672007822 106.43489270529244,85.67655672007822 107.41234476165846,85.94124572223518 107.46664765372407,86.61767238579341 107.22228463960346,86.97059019631706 106.92361873341724,86.79413132951595 107.03222451754846,86.97059019631706 106.70640716538765,85.91183584168903 106.05477246106602,85.52950719973887 106.38058981311042,85.85301607407746 106.02762101509143,86.35298382595647 105.8647123388946,86.02947535112617 105.91901523096021,85.94124572223518 106.29913547518663,86.08829509306815 106.29913547518663,86.29416412246064 106.35343836713582,86.29416412246064 105.97331812302582,85.52950719973887 105.620349324774,85.55891710805008 106.13622679910623,85.55891710805008 106.46204415115062,85.94124572223518 106.32628692116123,85.91183584168903 105.8375608928036,86.058885223174 106.08192390704062,86.26475426758407 106.27198402921204,86.47062320724945 106.46204415115062,86.41180352089577 106.51634704321623,86.55885272083106 106.32628692116123,86.50003304722486 106.38058981311042,86.55885272083106 106.38058981311042,86.52944288504659 106.29913547518663,86.52944288504659 106.54349848919082,86.29416412246064 106.48919559724163,86.17652468997403 106.46204415115062,86.17652468997403 106.05477246106602,86.00006547698285 105.430289202719,85.35304770473158 104.88726028241217,85.35304770473158 104.50714003830217,85.17658813277376 104.86010883643758,84.97071853501257 106.16337824508082,84.82366875818116 107.41234476165846,84.97071853501257 108.2268881421769,84.7060288983048 108.85137140040752,84.08841907291207 109.66591478080954,83.82372885924997 109.91027779504657,83.44139824507874" stroke="#ffc00a" stroke-linecap="round" stroke-linejoin="round" stroke-width="0.5"><title>2024-03-09 7.0km</title><desc>14614524479</desc></polyline><polyline fill="none" points="185.76114418468205,48.167251000821125 185.87875707857893,48.26915893894329 185.8630753593461,48.26066661416553 185.92580223607365,48.277651263124426 185.98068825321388,48.25217428876931 185.98068825321388,48.29463590960222 185.95716567445197,48.311620553635294 185.91012051689904,48.4305129927161 185.98068825321388,48.617343724261445 186.09046028746525,48.7871895848657 186.08261942790705,48.8126664426818 186.12966458543087,48.85512786003528 186.22375490050763,48.88909698282805 186.23943661974045,48.906081540531886 186.23943661974045,48.87211242267949 186.3256860752299,48.94854292396485 186.43545810948126,48.9825120196474 186.55307100331993,49.02497337533714 186.60795702046016,49.15235734995804 186.62363873963477,49.14386508930329 186.62363873963477,49.10140377677453 186.63147959922208,49.10140377677453 186.678524756775,49.14386508930329 186.72556991432793,49.21180315732636 186.74125163350254,49.262756682415784 186.78829679105547,49.28823343664408 186.87454624654492,49.46657056087861 186.88238710616133,49.53450844142935 186.90590968492324,49.52601620851783 186.89806882530684,49.53450844142935 186.90590968492324,49.55998513647501 186.89806882530684,49.593954054544156 186.91375054451055,49.63641518828081 186.89806882530684,49.63641518828081 186.93727312327246,49.7383218463583 186.93727312327246,49.8062595690717 186.92159140409785,49.85721283523162 186.85886452737032,49.925150488903455 186.827501088992,50.04404128785973 186.75693335270626,50.20539289317094 186.91375054451055,50.36674427589605 186.92159140409785,50.40071295971575 186.92943226368516,50.392220789675775 186.96079570203437,50.46015813260601 186.91375054451055,50.5365875962234 186.90590968492324,50.57904838779359 186.8431828081666,50.66396992465161 186.80397851020098,50.689446373668034 186.79613765067188,50.70643066993944 186.78829679105547,50.80833639581397 186.75693335270626,50.85079708870035 186.78829679105547,50.88476563192671 186.76477421226446,51.04611607753759 186.73341077391524,51.11405304068467 186.74909249311895,51.1480215074771 186.6863656163623,51.22445052166586 186.73341077391524,51.292387381246954 186.74125163350254,51.39429259659664 186.77261507188086,51.42826098201476 186.81181936981739,51.538658166442474 186.8353419486084,51.5641344249816 186.81181936981739,51.538658166442474 186.79613765067188,51.5641344249816 186.827501088992,51.64056316729693 186.827501088992,51.6830235581001 186.91375054451055,51.73397600673343 186.9843182807963,51.73397600673343 187.0,51.75945222273731 186.9921591404127,51.86135703125183 186.96863656162168,51.878341157367686 186.96079570203437,51.903817341895774 186.93727312327246,51.91230940219248 186.91375054451055,52.014214077535144 186.87454624654492,52.048182282924245 186.8510236677539,52.02270612981374 186.86670538695762,51.92929352090141 186.8510236677539,51.903817341895774 186.86670538695762,51.89532528102427 186.92159140409785,51.79342050210107 186.92943226368516,51.835880837446894 186.89806882530684,51.86984909461171 186.88238710616133,51.86135703125183 186.8431828081666,51.827388771598635 186.78045593146817,51.835880837446894 186.73341077391524,51.79342050210107 186.6863656163623,51.784928433189634 186.63932045883848,51.79342050210107 186.6863656163623,51.810404638090404 186.678524756775,51.84437290264759 186.6942064759496,51.827388771598635 186.6706838971877,51.827388771598635 186.6550021780131,51.878341157367686 186.63932045883848,51.878341157367686 186.63932045883848,51.835880837446894 186.60011616087286,51.79342050210107 186.58443444169825,51.80191257041588 186.55307100331993,51.784928433189634 186.45898068827228,51.80191257041588 186.38841295192833,51.84437290264759 186.3335269348172,51.84437290264759 186.3256860752299,51.88683321951248 186.3178452156135,51.88683321951248 186.06693770870334,51.827388771598635 185.92580223607365,51.81889670514647 185.90227965731174,51.827388771598635 185.87091621896252,51.88683321951248 185.80818934223498,51.878341157367686 185.78466676347307,51.86984909461171 185.75330332506564,51.79342050210107 185.6670538696053,51.7424680793556 185.61216785246506,51.64905524668575 185.59648613326135,51.581118594251166 185.46319152021897,51.43675307682861 185.36126034558401,51.42826098201476 185.22012487292523,51.39429259659664 185.12603455781937,51.39429259659664 185.03978510235902,51.351832100997854 184.93001306807855,51.266911063525185 184.88296791052562,51.24143474025186 184.62421954408637,51.25841895636404 184.48308407142758,51.21595841143426 184.42819805428735,51.165005737158936 184.27922172207036,51.08857668413111 184.1694496877899,51.003655455526314 184.11456367067876,50.9442105588314 184.06751851315494,50.91873416530143 184.0126324959856,50.86778136155772 183.71467983155162,50.81682853560778 183.60490779727115,50.78285997266357 183.39320458835573,50.7743678303741 183.25990997531335,50.74039925508987 183.1815013794112,50.7573835439689 183.09525192389265,50.74039925508987 182.87570785536082,50.66396992465161 182.6875272252073,50.63849347005453 182.4993465950247,50.51960327530105 182.31116596484208,50.5026189518976 182.2013939305616,50.44317380057328 182.05241759837372,50.417697297896666 181.96616814288427,50.37523644778412 181.91128212571493,50.28182252325496 181.8407143894292,50.264838165341644 181.6760563380376,50.29880687872355 181.45651226947666,50.30729905552289 181.0017424132384,50.52809543607873 181.0095832728548,50.51111111389764 181.017424132413,50.51111111389764 180.57833599534933,50.731907109729946 180.57833599534933,50.69793852212024 180.56265427617473,50.71492281714745 180.46856396109797,50.74039925508987 180.3587919268466,50.748891399853164 180.3431102076138,50.7743678303741 180.3666327863757,50.833812813398254 180.32742848843918,50.842304951365804 180.27254247132805,50.81682853560778 180.25686075215344,50.842304951365804 180.15492957746028,50.91024203287816 180.08436184114544,50.91873416530143 180.0294758239761,50.91024203287816 179.99027152603958,50.89325776620535 179.98243066651048,50.86778136155772 179.99027152603958,50.81682853560778 180.04515754320892,50.71492281714745 180.04515754320892,50.67246207493008 180.0373166835925,50.63849347005453 179.8726586322009,50.5365875962234 179.55118338900502,50.264838165341644 179.527660810214,50.069517871917924 179.42572963554994,50.05253348314727 179.3630027587933,50.018564698249975 179.32379846085678,49.97610370324401 179.26107158415834,49.94213489614776 179.0023232176609,49.87419725234213 178.92391462175874,49.891181666986085 178.8768694642058,49.87419725234213 178.74357485116343,49.89967387339129 178.6886888340523,49.86570504410338 178.56323508056812,49.84872062574141 178.42209960796754,49.8062595690717 178.28096413530875,49.7383218463583 178.186873820232,49.72982962824608 178.09278350515524,49.70435297019867 177.95948889211286,49.71284519017354 177.81051255989587,49.56847736690543 177.7164222448191,49.50053950608708 177.5282416146365,49.49204727070173 177.1832437926496,49.35617142078263 176.82256425148807,49.28823343664408 176.75199651517323,49.19481864399131 176.65006534050917,49.160849610001605 175.95222883694805,49.00798883490643 175.7248439087998,49.05894244880619 175.65427617248497,48.9825120196474 175.56018585740821,48.8381432949318 175.5209815594426,48.804174157347006 175.47393640188966,48.804174157347006 175.33280092928908,48.82965101146692 175.27791491214884,48.82965101146692 175.23871061421232,48.8126664426818 175.12893857996096,48.65980521252641 175.06621170320432,48.515436089503055 174.96428052851115,48.44749761701678 174.93291709013283,48.337097515039204 174.83882677505608,48.29463590960222 174.27428488456644,48.22669730884809 174.25860316539183,48.277651263124426 174.24292144618812,48.18423566333513 174.12530855232035,48.13328166838619 173.99201393930707,48.124789333727676 173.63917525770376,48.167251000821125 173.545084942627,48.15875866865099 172.4081603019731,47.8785113605918 172.30622912733816,47.8785113605918 172.204297952645,47.85303429928899 171.5378248874331,47.810572518115805 171.47509801073465,47.9124807670305 171.30259909975575,47.66620234683796 171.2241905038536,47.55580150736205 171.1928270655044,47.479370095905324 169.42863365763333,47.52183199731371 169.41295193842961,47.53881675357843 169.3815885000804,47.479370095905324 169.11499927399564,47.55580150736205 168.8876143458765,47.46238533100404 168.7072745752812,47.46238533100404 168.5661391026224,47.48786247741373 168.31523159574135,47.606755753891775 168.2368229998392,47.58977100753691 168.17409612314077,47.58977100753691 168.0486423696857,47.67469471478398 167.83693916074117,47.67469471478398 167.68796282852418,47.70866418041987 167.65659939014586,47.70017181492585 167.64091767100035,47.615248126174265 167.58603165383101,47.58977100753691 167.53114563669078,47.58977100753691 167.3743284449156,47.640725239274616 167.2253521126404,47.615248126174265 167.2175112531113,47.632232868847495 167.2410338318732,47.64921760908328 167.09205749962712,47.657709978258936 167.01364890375407,47.683187082111544 166.98228546534665,47.66620234683796 166.92739944826462,47.59826338102721 166.61376506459783,47.51333961827186 166.566719907074,47.470877713778464 166.31581240016385,47.470877713778464 166.0492231741082,47.419923408015165 165.99433715693885,47.419923408015165 165.98649629738065,47.42841579384549 165.99433715693885,47.46238533100404 165.94729199941503,47.445400563665316 165.9159285610658,47.46238533100404 165.86888340351288,47.53032437575166 165.76695222881972,47.632232868847495 165.7199070712959,47.73414127316937 165.67286191377207,47.80208016002143 165.46115870479844,48.00589658384706 165.3827501089254,48.10780466257711 165.30434151296504,48.17574333239463 165.2180920574756,48.277651263124426 165.11616088281153,48.337097515039204 165.11616088281153,48.35408215288044 165.13968346157344,48.371066788284224 165.0847974444623,48.345589834258135 165.03775228690938,48.39654373673693 164.99070712935645,48.405036051663046 164.9201393930707,48.39654373673693 164.84173079713946,48.36257447090611 164.70059532453888,48.26915893894329 164.61434586902033,48.20122032338986 164.50457383473986,48.150266335833294 164.4104835196631,48.08232765122375 164.34775664293556,48.02288126981148 164.28502976623713,47.98041955030203 164.2301437490678,47.887003713120066 164.12037171481643,47.75961836036004 163.99491796139046,47.70866418041987 163.86162334834808,47.683187082111544 163.81457819079515,47.640725239274616 163.7361695948639,47.632232868847495 163.71264701610198,47.58977100753691 163.69696529692737,47.51333961827186 163.67344271813636,47.45389294765482 163.64207927978714,47.42841579384549 163.51662552633206,47.37746146959398 163.52446638594847,47.36896908007475 163.5558298242977,47.351984299159085 163.37549005370238,47.32650712316536 163.14026426599594,47.250075561860285 163.03833309133188,47.13118192277034 162.9285610570514,47.04625782084622 146.4470741977566,61.7796669905365 133.61942790765897,72.9537421791465 133.6586322055955,72.9537421791465 133.6586322055955,72.88581789209275 133.72919994191034,72.83487465095095 133.76840423984686,72.7669502949575 133.76840423984686,72.7414786512818 133.72135908232303,72.68204479453561 133.70567736314842,72.47827134237014 133.72919994191034,72.35940333151666 133.69783650353202,72.26600695263915 133.6507913460082,72.19808226663008 133.55670103093144,72.13864813408873 133.45476985623827,72.03676097954303 133.44692899668007,71.83298640444264 133.43124727744726,71.78204270527203 133.0,71.27260449444293 133.03136343834922,71.4593987624321" stroke="tomato" stroke-linecap="round" stroke-linejoin="round" stroke-width="0.5"><title>2024-03-09 10.0km</title><desc>14614524267</desc></polyline><polyline fill="none" points="13.0,143.4061127408786 14.080450187553652,144.30119160540926 14.77824093378149,144.24853999665356 15.836181742371991,143.66937156481436 16.39891621505376,143.09020178426 17.051688203471713,142.40572666822118 17.41183826595079,141.5369670772343 17.997082117479295,141.3526843495929 18.06461025425233,141.08942307325196 17.97457273863256,140.9314661736571 18.109629012062214,141.74757574155228 19.055022926302627,142.4847046623472 19.257607336505316,143.16917956096586 19.34764485200867,143.95895594933245 19.212588578579016,144.03793345020676 19.437682367744856,143.9326301101537 19.55022926221136,143.95895594933245 20.022926219156943,144.24853999665356 20.450604418525472,144.40649478936393 20.698207586538047,144.11691092606634 21.350979574839585,143.98528178580455 21.80116715305485,143.98528178580455 22.093789078760892,143.95895594933245 22.99416423519142,143.9326301101537 24.299708211794496,143.69569743186003 25.582742809550837,143.53774218769104 27.000833680736832,142.69531252415618 27.158399333129637,142.53735664453416 27.000833680736832,142.4847046623472 27.72113380569499,142.08981444076926 28.734055856708437,141.82655394474568 29.949562317691743,141.80022787985217 30.57982492703013,142.19511856118334 31.32263443095144,141.5106409816799 31.592746977927163,141.66859751340235 31.817840767093003,141.74757574155228 31.975406419369392,141.6159453473083 32.44810337643139,141.5106409816799 33.843684868654236,140.8788138515083 34.271363068022765,140.58922588035057 35.12671946641058,140.29963757205405 36.18466027523391,140.32596379581082 36.76990412676241,140.03637518090545 36.94997915800195,139.82576506733312 37.175072947051376,139.66780736508372 37.760316798696294,139.03597555296437 37.62526052526664,139.11495461723825 38.07544810336549,138.8516909720347 38.36807002918795,138.50944781654107 38.77323884947691,138.2461835302529 40.03376406850293,137.45638899930054 41.42934556072578,136.90353133507597 41.67694872862194,136.69291856834025 41.74447686539497,136.71924517391017 42.1271363068372,136.85087816015584 42.554814506089315,137.0614907931449 42.352230095886625,137.21945015089295 46.58399333071429,135.69250549015123 47.21425594005268,135.87679241219303 47.39433097129222,135.35025798682182 47.7544810337713,135.1659706745413 47.66444351815153,135.00801001251966 47.84451854939107,134.90270284870348 48.45227177999914,134.77106883119268 48.8574406002881,134.58678108968888 50.14047519804444,134.06024393285043 51.46852855361067,133.63901340465236 51.82867861620616,133.69166725971445 52.0087536474457,133.7179941830109 52.346394331078045,133.66534033359494 53.04418507718947,132.8755312535941 53.764485202147625,132.9808392759005 53.606919549871236,133.244109136489 54.46227594837546,132.95451227450394 54.88995414762758,132.90185826340166 55.02501042105723,133.00716627445945 55.0025010422105,132.53327987329976 55.160066694486886,131.92775704633095 55.31763234687969,132.08571966509044 55.565235514892265,132.1383738489676 55.542726135929115,132.40164460151573 55.65527303039562,132.69124210732116 55.745310546131805,133.16512820751814 55.49770737811923,133.29676307516638 55.61025427270215,133.61268647295947 55.85785744059831,133.5863595385017 55.565235514892265,134.4288200596784 55.67778240935877,135.35025798682182 55.65527303039562,135.69250549015123 55.587744893739,135.85046571736166 55.700291788205504,136.42965235904558 55.722801167168655,137.0878173597739 55.700291788205504,137.79863360403397 55.85785744059831,138.21985708632565 55.97040433518123,138.72005904490652 56.19549812434707,139.19393365645374 56.37557315558661,140.0100489264296 56.51062942901626,140.95779233059147 56.42059191328008,141.32635823453893 56.48812005005311,141.27370599597634 57.09587328066118,142.27409662217542 57.298457690747455,143.1428536381718 57.70362651103642,144.1695625626744 57.95122967904899,144.98566150468832 58.15381408925168,145.56482687110838 58.53647353069391,146.0913396702672 58.896623593289405,146.72315355790488 59.1667361400323,147.43394226294186 59.43684868700802,147.80249856959563 60.044601917499676,148.3816573764052 60.38224260113202,149.40834467408422 60.7874114215374,149.88219892053166 61.10254272620659,150.724604240575 62.3180491871899,151.54068167344667 62.7907461442519,152.1198317757371 63.12838682800066,152.46205620213004 63.98374322638847,153.3834273176326 64.5239683202235,154.09419698895363 65.19924968748819,154.6206917322852 65.82951229682658,155.1735100132937 66.18966235942207,155.4894056222547 66.86494372657035,155.98957284922653 66.81992496876046,156.17384473192215 67.0,156.3581164782081 66.63984993752092,156.51606358055142 66.61734055867419,156.8582819582807 66.03209670702927,157.59536609578936 64.9966652772855,157.99023169948487 64.65902459365316,158.09552908795013 64.59149645688012,158.22715076085296 64.20883701555431,158.9379065909452 63.353480616933666,159.59601203018974 63.01583993341774,159.88557787181344 63.08336807007436,160.1224951279146 62.49812421842944,160.46470854390645 62.3180491871899,160.7016252483445 61.64276782004163,160.9911898029677 61.35014589410275,161.4913459669042 60.76490204257425,162.07047290040646 60.17965819092933,162.54430302492983 59.61692371824756,162.46533140019164 58.986661108909175,162.51797915280622 58.33388912060764,162.51797915280622 57.7486452688463,162.51797915280622 57.05085452273488,162.59695076082426 56.71321383921895,162.51797915280622 56.75823259691242,162.3337119698699 56.30804501881357,164.43961449727067 56.64568570244592,164.20270135303144 56.825760733685456,164.2553487378609 56.75823259691242,164.30799611164548 56.73572321806569,164.57123281332315 56.37557315558661,165.01873456678004 57.45602334314026,165.8610886247625 57.65860775322653,165.9927061887429 58.53647353069391,166.96667399717262 58.55898290965706,166.70343983033672 58.37890787841752,166.86138036384364 58.28887036268134,167.30887799755146 58.33388912060764,167.01932079711696 58.55898290965706,167.80902145900473 58.491454772884026,167.78269814397208 58.53647353069391,167.9406379922293 58.64902042527683,168.09857774025295 58.71654856193345,168.04593116871547 58.694039183086716,168.15122430064366 58.941642350982875,168.01960787885764 59.30179241357837,167.70372818231408 59.45935806597117,167.62475819545216 59.50437682366464,166.54549919655256 59.36932055023499,166.33491152897477 59.3243017924251,166.62446952601022 58.964151729946025,166.28226458416611 58.80658607755322,166.0190296931105 58.17632346821483,165.72947099125304 59.144226761185564,166.0190296931105 59.00917048775591,165.94005917153845 57.77115464792587,163.54460810152523 59.076698624528944,167.67740485610557 58.67152980423998,167.1509377481707 58.42392663611099,167.1246143635508 58.33388912060764,166.99299739857088 58.17632346821483,166.9140271860815 58.31137974164449,166.62446952601022 58.60400166735053,166.67711639843765 58.42392663611099,166.70343983033672 58.31137974164449,166.3875584625348 58.28887036268134,166.3875584625348 58.17632346821483,166.28226458416611 58.2213422259083,166.49285229638917 57.7486452688463,166.46652884213836 57.54606085876003,166.28226458416611 57.7486452688463,166.1769706611667 58.04126719466876,166.2296176282398 58.19883284706157,166.15064717351925 58.2663609838346,165.9927061887429 58.1087953314418,165.78211805304454 58.15381408925168,165.8610886247625 58.06377657363191,165.72947099125304 58.13130471040495,165.75579452351667 58.24385160487145,165.43991195240233 58.42392663611099,165.51888263272122 58.62651104631368,165.57152973907068 58.58149228862021,165.54520618732204 58.739057940780185,165.36094124689407 58.67152980423998,165.36094124689407 58.739057940780185,165.33461767277913 58.851604835363105,165.20299976071692 58.874114214326255,165.1503525763692 58.80658607755322,164.83446923638985 58.919132972019725,164.83446923638985 58.739057940780185,164.9924109565036 58.58149228862021,165.01873456678004 58.40141725714784,164.9924109565036 57.88370154239237,165.1503525763692 57.613588995533064,164.36064347422507 57.613588995533064,163.93946426136245 58.08628595259506,162.62327462462417 57.92872030020226,162.83386543445522 57.388495206367224,162.3337119698699 57.27594831190072,162.3337119698699 56.6907044602558,162.3863597503514 55.88036681956146,162.57062689421582 55.632763651548885,162.64959848557191 55.40766986249946,162.7022461992019 54.68736973742489,162.51797915280622 53.29178824508563,162.4126836364303 52.729053772520274,162.3337119698699 52.188828678568825,162.36003586150764 51.78365985827986,162.46533140019164 51.15339724882506,162.51797915280622 49.98290954576805,162.8075415930216 49.89287203003187,163.20239892271638 49.64526886213571,163.36034167915932 49.12755314714741,163.22872272245877 49.105043768300675,163.36034167915932 49.195081283920445,164.2553487378609 49.195081283920445,165.1503525763692 49.06002501049079,165.255646933947 49.26260942069348,165.33461767277913 49.105043768300675,165.36094124689407 49.195081283920445,165.41358838668384 48.992496873717755,165.57152973907068 49.12755314714741,165.33461767277913 49.28511879965663,165.54520618732204 49.44268445193302,165.04505817426252 49.30762817838695,164.3343197943177 48.58732805342879,162.59695076082426" stroke="#ffc309" stroke-linecap="round" stroke-linejoin="round" stroke-width="0.5"><title>2024-01-21 6.8km</title><desc>14614523941</desc></polyline><polyline fill="none" points="126.69499017682392,135.1576527217403 127.0,135.31268264066603 126.81434184673708,135.21966470892949 126.5358546168427,135.06463469170558 125.66060903726611,135.37469456235704 125.11689587426372,135.35919158437173 124.89145383099094,135.18865871861635 124.71905697439797,134.2584759608726 124.59970530448481,133.5918413561012 124.4670923379017,133.32828730467008 124.50687622785335,132.73916477151215 124.20186640473548,132.66164847261098 123.4061886051204,132.94070695702976 123.30009823181899,132.9562101905758 123.06139489193447,133.0027198814787 122.84921414538985,133.08023600013985 122.11984282906633,133.1887584974902 121.8811394891818,133.35929368824873 121.94744597247336,133.77787922498828 122.06679764238652,134.89410148348543 122.08005893905647,135.40570051338 122.02701375243487,135.73126260341087 122.17288801568793,135.99481233759434 122.4513752455241,136.21185293961025 122.25245579564944,136.2583615983167 122.09332023572642,134.90960451064166 121.40373280941276,135.56073017016752 121.16502946952824,135.70025672124757 120.7937131630606,135.87078899225162 120.32956777996151,136.19635005014425 120.3560903732432,136.3823846159503 119.86542239686241,136.52191038549063 119.09626719058724,136.70794453841518 118.95039292733418,136.84746999831987 118.51277013751678,136.9559897086874 118.02210216107778,136.9869953255111 117.86296660115477,137.1265205200325 118.03536345774774,137.26604558175313 117.99557956773788,137.2505428036966 118.1281925344374,137.2505428036966 117.1468565815012,137.31255390621664 116.48379174852744,137.49858705651422 115.99312377208844,137.57610079950246 115.99312377208844,137.42107327256235 115.80746561888373,137.31255390621664 115.6218074656208,136.84746999831987 115.568762278941,136.81646435207222 115.568762278941,137.09551493270556 115.75442043220391,137.1730288886465 115.47593320236774,137.23504002398113 114.94548133597709,137.45207879105874 114.60068762279116,137.59160354315827 114.14980353636201,137.6846199708816 113.91110019641928,137.94816619579797 113.12868369347416,138.27372264348378 112.27996070723748,138.4287492693693 111.90864440076984,138.50626252088114 111.73624754417688,138.72329940724012 111.25884086440783,138.9403359725111 110.87426326132845,139.00234636076493 110.60903732810402,139.26589021843392 109.8266208251589,139.3279004690703 109.07072691549547,139.17287479333754 108.76571709231939,139.0798593092477 108.46070726920152,138.83181773002434 108.07612966600573,138.92483337136218 107.63850687624654,139.06435672282532 107.25392927305074,139.29689534701174 107.3202357564005,139.65345385488763 106.73673870333005,139.82398153057147 106.25933202361921,140.0720214322646 105.72888015722856,140.11852886716952 105.55648330057738,140.04101646748313 105.30451866402291,139.90149404492695 105.37082514737267,139.5759412095067 105.6890962672187,138.97134116996313 105.76866404718021,138.22721462373738 105.43713163060602,137.26604558175313 105.03929273085669,136.69244170136517 105.15864440082805,136.5374132405559 105.39734774065437,136.5374132405559 105.15864440082805,136.50640752878098 105.09233791747829,136.59942464454798 105.09233791747829,136.6149274914642 105.1719056974398,136.86297281896987 105.41060903732432,137.09551493270556 105.70235756383045,137.51408980840642 105.83497053047176,138.56827309260552 105.41060903732432,139.4829259810067 104.98624754417688,139.71546394169854 104.33644400787307,139.79297651337401 103.6203339882195,139.93249903916148 103.22249508841196,140.11852886716952 103.16944990179036,140.33556336832407 103.05009823181899,140.86264582013246 103.24901768169366,140.97116256043955 102.98379174852744,141.1106839658023 102.81139489199268,141.52924738560978 102.95726915524574,141.83929359336616 102.93074656196404,141.9788141730969 102.40029469551519,142.36637064280512 101.88310412579449,142.64541066708625 101.33939096273389,142.93995233920577 100.98133595281979,143.18798697284365 100.19891944993287,143.65305078070378 99.61542239686241,143.9475904298888 99.09823182714172,144.27313356472587 98.66060903732432,144.66068397391064 98.36886051075999,144.80020187061746 97.54666011786321,145.28076249934384 97.09577603143407,145.76132155407686 96.59184675838333,146.19537354093336 96.08791748533258,146.72243494159193 95.49115913559217,147.34250475371664 95.25245579570765,147.48202010031673 95.212671905756,147.55952856887598 94.81483300594846,147.86956203370937 94.32416502945125,148.44312221664586 94.05893909628503,148.784156938229 93.36935166997137,149.4972269765276 93.15717092336854,149.745250525375 92.93172888015397,150.00877508670965 92.5736738704145,150.42731312311662 92.2156188605004,150.87685264728498 91.71168958739145,151.4814036290336 91.55255402752664,151.89993746505934 91.2608055009623,152.16345815679233 91.1812377210008,152.16345815679233 91.23428290768061,152.31847010736237 91.11493123770924,152.6284935171425 90.91601178783458,153.1400307113654 90.83644400787307,153.32604379441182 90.86296660121297,153.38804810306465 90.5579567780369,153.79107547047897 90.34577603143407,154.33361056326248 90.08055009832606,154.7986390463775 89.93467583501479,155.077655428875 89.85510805505328,155.21716342118452 89.68271119846031,155.5581823996181 89.55009823181899,156.1472133139905 89.20530451869126,156.92225038869947 88.90029469551519,157.4802745480265 88.90029469551519,157.7127839881723 88.83398821228184,157.88329067682207 88.01178781926865,157.92979246663162 87.77308447938412,158.41031009836297 87.52111984288786,158.84432467150327 87.30893909628503,159.18533522135112 87.03045186639065,159.34033975482453 87.12328094308032,159.69684956046694 87.16306483303197,159.96035625151126 87.32220039295498,160.08435923649813 87.25589390960522,160.31686455097224 86.79174852656433,160.3013642081496 85.79715127707459,160.17736140651687 84.88212180748815,160.51836885893135 83.71512770140544,160.64237137249438 82.4155206286814,161.10737986511958 81.59332023578463,161.18488113727653 81.2750491159386,161.2933828496316 80.95677799603436,160.92137664483744 80.10805500985589,160.25486316983006 80.01522593328264,159.80535237290314 79.80304518667981,159.38684108291636 79.41846758360043,158.7048201272264 79.1532416503178,158.48781279483228 78.86149312375346,158.61181702408066 78.38408644404262,158.11579947841528 77.98624754423508,157.61978025631106 77.77406679769047,157.4027713194664 77.6016699411557,157.07725731249957 77.29666011792142,156.67423897015397 77.12426326132845,156.5347323629976 77.42927308450453,157.12375935763703 77.72102161101066,157.55777773565205 77.44253438117448,157.82128826751432 77.09774066798855,158.0227960020129 76.20923379180022,158.58081597655837 76.01031434186734,158.8908261567267 75.54616895876825,158.8133236730937 74.93614931241609,158.797823171466 74.60461689590011,158.9683285994397 74.43222003930714,159.2163361411367 74.51178781932686,159.66584874216642 74.5250491159386,160.09985960224003 74.68418467586162,160.1463606897305 74.65766208252171,160.62687106398516 74.80353634583298,160.89037608524086 74.85658153239638,161.2933828496316 74.97593320236774,161.75838927956647 74.92288801580435,161.83589020797808 74.65766208252171,161.88239074540616 74.86984282912454,162.16139366042626 74.88310412579449,162.4403960451309 74.71070726920152,162.68839771953935 74.75049115915317,163.66490023920778 74.69744597253157,164.2228987619892 74.57809430261841,164.951393640702 74.6311394891818,165.7883832929947 73.981335952878,166.1293777089013 73.75589390966343,166.06737878310378 73.59675834974041,165.69538467843086 73.71611001965357,165.4163884812442 73.66306483303197,165.23039072178653 73.47740667982725,165.16839141624223 73.38457760313759,164.67239602927293 73.34479371318594,164.5948965986463 73.33153241651598,164.54839692059613 73.22544204327278,164.34689814560988 73.25196463655448,164.17639896612673 73.10609037330141,164.08339933016396 73.03978389000986,163.86639995049336 73.0,163.4944002674165 73.13261296664132,163.40140019932005 73.13261296664132,163.10689959493175 73.90176817291649,162.87439870039816 74.22003929276252,162.85889862767363 74.64440078590997,162.68839771953935 74.77701375249308,162.79689832036092 74.76375245588133,163.58740027659223 74.6311394891818,163.99039963528048 74.5250491159386,165.23039072178653 74.60461689590011,165.7883832929947 74.75049115915317,166.19137660850538 74.68418467586162,166.31537432911864 74.31286836939398,166.81136416415393 73.99459724954795,167.0748580822401 74.02111984282965,167.33835152738902 74.15373280947097,167.29185271846654" stroke="#ffb410" stroke-linecap="round" stroke-linejoin="round" stroke-width="0.5"><title>2023-10-04 8.0km</title><desc>14614522219</desc></polyline><polyline fill="none" points="186.0522778192535,163.97133776999544 186.4757281553466,164.2127755258116 186.67737117246725,164.76149695686763 186.75802837940864,165.727244175534 186.77819268102758,166.49544991354924 187.0,166.95637238796917 186.85884988796897,167.11001305142418 186.19342793128453,166.62714212323772 185.95145631069317,166.42960378646967 185.89096340560354,166.56129602581495 186.3144137415802,167.41729413616122 186.3144137415802,167.6367804276524 186.13293502607848,167.3294995734759 185.42718446603976,166.89052636467386 185.34652725909837,166.38570636018994 184.96340552647598,165.815039219131 184.35847647488117,165.5736027858511 183.30993278557435,165.52970523113618 182.8058252427727,165.5955515607784 182.8058252427727,165.9467317351082 182.9066467512166,165.727244175534 182.9469753546873,165.63944910559803 182.1202389842365,165.15657574991928 181.49514563102275,163.81769545804127 181.19268110522535,163.79574654973112 181.11202389840037,164.27862215190544 181.23300970881246,164.93708759744186 181.11202389840037,165.09072932146955 181.01120238984004,165.00293406043784 180.72890216577798,164.34446876318543 180.648244958953,164.38836649569566 180.62808065721765,164.91513877312536 180.40627333824523,165.61750033401768 180.44660194171593,166.40765507420292 180.3054518296849,166.78078295954037 180.40627333824523,166.71493689669296 180.3457804331556,166.23206531634787 180.36594473489095,165.20047336062999 179.9223300970625,163.6421041455178 179.4383868558798,163.2689722564828 179.01493651978672,162.65440104866866 178.85362210602034,162.28126789961243 178.97460791631602,161.77643994038226 178.9141150112264,161.35940749073052 178.28902165789623,160.76678140790318 177.9260642270092,160.54728996139602 177.30097087379545,160.76678140790318 176.9783420463791,160.7448322706914 176.13144137419295,160.10830657428596 175.66766243462916,159.95466223312542 174.84092606417835,160.1741541243391 173.6109036593698,159.5376271859859 173.20761762512848,158.9010988625232 172.82449589238968,157.97922779995133 172.7841672890354,157.40854425748694 172.38088125467766,157.0354044161213 171.7154592978768,156.94760673720157 170.22330097085796,156.1793759224238 169.47722180723213,155.47699169724365 169.1545929798158,155.47699169724365 168.3883495144546,155.78428500331938 167.27931292005815,156.33302224683575 166.41224794625305,155.872083031456 165.90814040333498,154.2039159896667 165.96863330842461,154.1161174607114 165.98879761015996,154.09416782439803 165.98879761015996,153.94052032384207 165.38386855856515,153.56737605767557 165.04107542941347,152.73328715315438 164.77893950708676,151.72359740163665 165.00074682594277,151.54799882817315 165.7064973860979,150.93340299051488 165.92830470495392,150.60415468903375 165.92830470495392,150.5163550794241 165.56534727406688,150.64805448398693 164.89992531738244,150.67000437900424 164.63778939505573,150.5602548875031 164.15384615387302,150.67000437900424 163.81105302460492,150.82365359790856 163.77072442113422,150.71390416406211 164.09335324866697,150.45050535484916 164.85959671391174,150.27490601688623 165.24271844665054,149.94565697401413 165.00074682594277,149.85785716667306 164.17401045549195,149.52860765418154 163.8917102315463,149.24325777692138 163.81105302460492,149.24325777692138 162.9843166541541,149.52860765418154 162.82300224050414,149.7481073703384 162.78267363703344,149.63835753290914 163.08513816283084,149.46275770725333 163.6295743092196,148.80425742201624 164.37565347272903,148.80425742201624 164.5772964898497,148.69450723033515 164.65795369679108,148.38720647443552 164.39581777446438,148.18965581792872 164.11351755040232,148.2335559753701 163.26661687821615,148.1677057367924 162.70201643009204,148.32135627043317 161.73412994772661,148.49695678145508 161.18969380133785,148.67255718706292 160.70575056015514,148.9798576431058 160.76624346524477,148.9798576431058 160.8670649738051,148.95790762119577 160.80657206871547,149.02375768186175 160.78640776698012,148.07990539559978 160.68558625830337,147.9043046340812 159.77819268102758,148.21160589749343 159.3547423449345,148.5408568927378 159.13293502607848,148.93595759768505 158.81030619866215,149.37495775488787 158.4473487676587,148.76035735031473 158.16504854371306,148.84815748716937 158.46751306951046,148.65060714210267 158.54817027621903,148.5408568927378 158.16504854371306,148.89205754568684 158.36669156083371,150.42855544332997 158.24570575053804,150.71390416406211 158.20537714706734,150.80170371447457 158.20537714706734,150.5383049842785 158.26587005215697,150.49440517285257 158.104555638507,150.055406696134 157.64077669894323,149.35300776269287 157.11650485428981,148.7823073869804 156.8946975354338,148.05795530619798 156.24943988048472,146.96044873457868 156.3704256907804,146.21414191296208 156.51157580281142,145.84098778793123 156.9350261389045,145.57758458939497 156.91486183716916,145.55563431218616 156.4510828977218,145.75318674810114 156.49141150107607,145.8190375304548 156.14861837192439,146.10439074918395 156.1082897684537,146.1702414524334 156.24943988048472,146.10439074918395 156.51157580281142,146.1702414524334 156.3300970873097,146.27999259150238 156.08812546671834,146.21414191296208 156.1082897684537,146.34584325519972 156.43091859587003,146.21414191296208 156.6728902165778,145.9726892982144 156.57206870801747,146.12634098521085 156.59223300975282,146.2360921408399 156.59223300975282,145.9726892982144 156.4510828977218,146.0604902720952 156.4107542942511,146.2580423670006 156.35026138916146,146.12634098521085 156.30993278557435,146.1702414524334 155.82598954450805,146.08244051146903 155.40253920829855,146.14829121966613 155.82598954450805,146.14829121966613 156.00746825989336,145.9726892982144 155.6848394323606,146.08244051146903 155.58401792380027,146.10439074918395 155.70500373409595,146.01658978842897 155.56385362206493,145.79708727131947 155.90664675133303,145.70928621833446 156.16878267365973,146.0604902720952 155.86631814786233,145.8848882979364 156.04779686336406,145.99463954410749 156.39058999251574,145.4897834705189 156.63256161322352,144.69957221410004 156.61239731137175,144.83127423844417 155.94697535480373,145.2263799556531 155.82598954450805,145.3141811536334 155.56385362206493,145.16052903982927 155.4227035101503,144.91907555508078 155.1202389842365,144.83127423844417 154.99925317394082,144.50201906627626 154.7371172516141,144.52396942256019 154.1725168036064,144.567870130355 153.84988797607366,144.567870130355 153.52725914865732,144.67762187091284 153.0433159073582,145.13857873127563 152.9223300970625,145.0727277957194 152.72068707994185,145.24833025757107 152.29723674384877,145.59953486503218 152.21657953690737,145.42393261403777 152.21657953690737,145.3580817427428 152.21657953690737,145.24833025757107 152.29723674384877,145.24833025757107 152.33756534731947,145.3141811536334 151.51082897686865,144.567870130355 151.43017176992726,143.93130922291311 151.04705003730487,143.55815218458883 150.5429424943868,143.25084603074356 150.159820761648,143.031341437425 149.69604182220064,142.5923317564011 149.5952203136403,142.6362327541283 149.55489171028603,142.50452974109794 149.635548917111,142.54843075200915 149.49439880507998,142.6142822560796 149.17176997754723,142.3508761508856 148.74831964157056,142.06551926909015 148.7684839431895,141.95576654808247 148.99029126216192,141.84601378592197 148.7281553397188,141.73626098249224 148.70799103809986,141.64845871011494 148.30470500374213,141.58260698855156 147.71994025388267,141.01189144692034 147.61911874543875,140.4411747912818 147.39731142646633,139.87045702157775 147.0343539955793,139.6289991683152 146.9133681851672,139.7826541889517 146.7318894697819,139.6070484445081 146.3890963405138,139.49729480067617 146.24794622848276,139.03632904664846 146.10679611645173,138.7729197180015 145.92531740106642,138.11439535822137 145.66318147873972,138.15829702839255 145.64301717700437,137.9168377610622 145.38088125467766,137.56562392544583 145.21956684091128,137.0168514625111 145.28005974600092,136.73148937473889 144.65496639278717,136.22661730635446 144.35250186710618,136.42417604563525 143.7072442121571,136.05100942603895 142.82001493650023,136.13881337933708 142.47722180734854,136.2924702343007 142.21508588502184,136.3363721779897 141.58999253169168,136.07296041681548 140.38013442861848,135.37052789345034 139.51306945481338,134.88760455459123 138.90814040321857,134.64614258607617 137.7587752053514,134.44858264524373 137.45631067967042,134.55833818443352 137.39581777446438,134.44858264524373 136.9723674383713,133.92175548378145 137.012696041842,133.59248802578077 136.75056011951528,133.50468330763397 135.54070201644208,133.43882975174347 134.95593726658262,133.06565932152444 134.8551157580223,132.99980566673912 134.61314413743094,132.9559032219695 133.86706497392152,132.8241958480794 133.6049290514784,132.9120007706224 133.40328603435773,133.06565932152444 133.50410754291806,133.21931779163424 133.44361463771202,133.4168785631773 133.36295743088704,133.46078093867982 133.48394324118271,133.1095617497631 133.16131441364996,132.73639089922654 133.0,132.38517084001796" stroke="#ffc608" stroke-linecap="round" stroke-linejoin="round" stroke-width="0.5"><title>2023-07-23 6.5km</title><desc>14614522106</desc></polyline><polyline fill="none" points="67.0,229.87331609900866 66.10539845767198,230.00689765588322 64.79434447310632,230.07368840530398 63.85347043705406,230.17387449319358 62.92802056559594,230.19057217024965 62.38817480724538,230.29075820742582 61.91002570698038,230.42433952260762 61.52442159387283,230.574618409737 60.39845758356387,231.15903537362465 59.85861182527151,231.45959209292778 59.65809768636245,231.65996302157873 59.41131105402019,231.82693866257614 59.21079691516934,232.01061172808113 58.85604113113368,232.2443772363622 58.33161953731906,232.4447474834742 57.652956298261415,232.61172255653946 57.251928020617925,232.67851255190908 56.75835475581698,232.6952100477647 56.12596401030896,232.6618150548893 55.75578406173736,232.5950250546739 55.262210796936415,232.4781425077963 54.629820051486604,232.2443772363622 54.16709511569934,232.01061172808113 53.59640102827689,231.62656787890592 52.74807197949849,230.825083004107 52.1619537275983,230.4577348393068 51.86889460159,230.39094420103356 51.40616966586094,230.3241535434645 50.249357326480094,230.35754887465737 44.928020565537736,230.35754887465737 44.542416452488396,230.39094420103356 44.23393316200236,230.47443249587377 43.84832904889481,230.72489719896112 43.55526992294472,230.95866400991508 43.27763496147236,231.27591858876985 42.95372750645038,231.49298725980043 42.583547557878774,231.6432654508535 42.13624678668566,231.7267532924743 41.673521850898396,231.67666059109615 41.303341902385,231.55977757899382 40.99485861189896,231.34270897081296 40.39331619540462,230.84178063402942 39.884318766067736,230.557920760446 39.54498714656802,230.47443249587377 38.249357326480094,230.44103718157567 36.53727506427094,230.49113015118928 36.074550128600094,230.4577348393068 34.74807197949849,230.4577348393068 33.637532133667264,230.60801370468107 32.496143958880566,230.85847826278768 31.0,231.3594065633224 30.089974293136038,231.71005572659487 29.303341902326792,231.84363622000092 29.17994858615566,231.82693866257614 29.05655526992632,231.65996302157873 28.964010282768868,231.50968484136683 28.917737789219245,231.30931378219975 28.840616966597736,231.2258257895155 28.62467866326915,231.09224493840884 28.424164524418302,231.00875686714426 27.838046272518113,230.8751758903527 27.575835475581698,230.8751758903527 27.483290488424245,230.89187351666624 27.31362467870349,230.97536163017503 27.097686375374906,231.1423377666506 26.928020565595943,231.426196921253 26.83547557843849,231.50968484136683 26.604113110573962,231.50968484136683 26.125964010308962,231.34270897081296 25.75578406167915,231.1423377666506 24.259640102798585,230.1571768149006 23.14910025714198,229.67294361867243 22.73264781490434,229.55605959144305 21.205655527010094,229.33898909809068 20.619537275051698,229.28889587830054 20.434447300795,229.3222913593636 20.264781491016038,229.40578004086274 20.048843187629245,229.58945503384166 19.80205655528698,229.9901999654976 19.539845758408774,230.2740605375875 19.32390745502198,230.40764186243177 18.861182519292925,230.557920760446 18.691516709513962,230.54122310994717 18.19794344471302,230.4577348393068 17.596401028276887,230.20726984617068 17.272493573254906,230.02359534501738 17.041131105390377,229.9735022739187 16.670951156818774,229.94010688709386 16.393316195346415,229.94010688709386 15.714652956346981,230.1404791354289 15.221079691546038,230.47443249587377 14.91259640106,230.8751758903527 14.665809768659528,231.59317273137276 14.604113110573962,232.19428464738303 14.634961439587642,232.82878997085209 14.804627249308396,233.46329354941554 14.958868894609623,233.8306369290367 15.560411311045755,234.94936089156545 15.683804627275094,235.30000459916482 15.73007712076651,235.53376677491178 15.74550128536066,235.81762052705744 15.69922879175283,236.28514359294786 15.467866323888302,236.91963766732079 15.26735218509566,237.20348971465137 14.989717223623302,237.4873414128524 14.372750642651226,237.95486109582998 14.187660668394528,238.15522638428956 14.048843187629245,238.50586522044614 13.971722365007736,238.8898976202181 13.971722365007736,239.09026209682634 14.03341902315151,239.34071744790708 14.588688946038019,240.1421727448469 14.773778920294717,240.47611163042893 14.86632390745217,240.70986856281525 14.958868894609623,241.11059418178047 15.005141388217453,241.4111379393289 15.020565552695189,241.6281970764103 14.974293059145566,242.04561792004097 14.850899742974434,242.5465219357866 14.712082262209151,242.81367029964167 14.557840616966132,243.0641216099757 14.341902313637547,243.36466282354377 13.755784061679151,243.9490473963233 13.570694087422453,244.1661041464249 13.246786632400472,244.76718331228767 13.077120822679717,245.1845984787069 13.030848329071887,245.41835064213956 13.0,246.11960571201053 13.015424164535943,246.303267402036 13.12339331622934,246.7373762702482 13.20051413885085,246.95443039819656 13.308483290486038,247.15478787361644 13.570694087422453,247.4386273327109 14.125964010308962,247.92282325144333 14.372750642651226,248.20666176606028 14.727506426745094,248.67415973517927 15.097686375374906,249.35870862450975 15.251928020559717,249.8429005155922 15.390745501266792,250.4773573181883 15.406169665860943,250.6109269492008 15.390745501266792,250.67771173572692 15.31362467870349,250.71110412169946" stroke="#ffd700" stroke-linecap="round" stroke-linejoin="round" stroke-width="0.5"><title>2023-07-21 5.3km</title><desc>14614521895</desc></polyline><polyline fill="none" points="84.6485497042886,238.2549762982526 84.67896367213689,238.2549762982526 84.67896367213689,238.18912536479183 84.52689383272082,238.2549762982526 84.45085891295457,238.3866781079123 84.46606589684961,238.73239499556075 84.45085891295457,238.96287262873375 84.35961700929329,239.3579765993927 84.16192621790105,239.901243438464 84.05547733028652,240.6255972055078 84.07068431418156,240.85607292037457 83.94902844267199,241.05362334725214 83.94902844267199,241.15239849637146 84.66375668830005,241.0206982880336 85.28724303009221,240.85607292037457 85.59138270904077,240.8066852868651 87.44663475075504,240.70790998759912 87.7507744297036,240.65852232191537 87.88763728522463,240.74083509214688 87.97887918888591,240.75729764257267 87.94846522103762,240.74083509214688 87.94846522103762,240.70790998759912 88.34384680370567,240.65852232191537 89.04336806532228,240.74083509214688 90.0622359898407,240.69144743357901 91.35482962540118,240.70790998759912 91.71979724022094,240.82314783254697 92.06955787102925,241.00423575662717 92.61700929311337,241.48164868360618 93.02759785979288,241.74504849029472 93.51422134612221,241.95906060864218 93.81836102507077,241.99198553206224 94.21374260768062,241.92613568049273 94.53308927058242,241.81089839433844 94.73078006191645,241.64627359852602 95.14136862853775,241.23471108787635 95.41509433963802,241.03716081824678 95.61278513091384,240.9219230817398 95.93213179387385,240.8066852868651 96.4187552802614,240.74083509214688 96.677274007292,240.65852232191537 96.677274007292,240.6255972055078 96.66206702339696,240.64205976430094 97.05744860606501,240.65852232191537 97.42241622071015,240.64205976430094 97.72655589971691,240.6749848783802 98.06110954657197,240.69144743357901 100.23570825118804,240.6749848783802 100.6006758659496,240.64205976430094 101.14812728803372,240.69144743357901 101.98451140522957,240.65852232191537 102.57758377917344,240.72437254044053 103.42917488032253,240.74083509214688 103.7029005913646,240.79022273996088 104.34159391722642,241.11947345145745 104.61531962821027,241.33348615832801 105.2235989862238,241.87674827926094 105.86229231196921,242.28830962834763 106.24246691074222,242.4858588114148 106.86595325259259,242.7163326414884 107.74795832158998,242.8974190584413 108.15854688821128,242.94680623807653 108.78203323000344,242.94680623807653 109.32948465220397,242.83156946896634 110.08983384957537,242.5517085009924 110.86539003095822,242.17307252566388 111.047873838339,242.0578353646124 111.1391157420585,241.97552307097067 111.19994367781328,241.72858601134794 111.32159954943927,241.580423646883 111.74739509995561,241.3170236495789 111.92987890733639,241.16886101703858 112.50774429738522,240.85607292037457 113.61785412562313,240.4774341226148 113.93720078852493,240.39512125706824 114.15009856369579,240.39512125706824 115.15375950431917,240.06586949710618 115.82286679808749,239.9506312685553 117.13066741765942,239.80246774603438 117.87580963107757,239.67076675608405 118.1343283582246,239.70369201072026 118.66657279635547,239.86831821240776 119.2444381864043,239.98355648267898 119.44212897773832,239.98355648267898 119.6246127851191,239.93416865970357 120.0352013517404,239.73661726061255 120.46099690231495,239.63784149668936 120.90199943672633,239.48967777041253 121.03886229230557,239.4732151282078 121.51027879468165,239.53906568989623 121.67755561816739,239.5226030512713 122.316248943971,239.32505129468336 122.7572514784406,239.07811135773954 122.98535623773932,239.0122606625955 123.1374260771554,239.0122606625955 123.60884257953148,239.07811135773954 123.98901717824629,239.02872333816777 124.12588003376732,238.94640994840302 124.3083638411481,238.74885769140383 124.44522669672733,238.63361879557488 124.93185018305667,238.45252898419858 125.32723176566651,238.18912536479183 125.49450858915225,238.139737152218 125.61616446072003,238.17266262846533 125.63137144467328,238.20558809995418 125.8290622360073,238.18912536479183 126.31568572233664,238.09034892887576 126.37651365814963,238.00803519948386 126.66544635314494,237.49768941258662 126.95437904814025,237.15197064826498 127.0,237.05319376193802 91.75021120806923,240.95484815529198 91.70459025620949,240.83961037707923 91.59814136865316,240.74083509214688 91.50689946493367,240.74083509214688 91.21796676988015,240.65852232191537 90.57927344407653,240.6091346454923 90.27513376506977,240.6255972055078 89.94058011827292,240.6091346454923 89.98620107013267,240.6255972055078 89.95578710216796,240.65852232191537 89.83413123065839,240.6255972055078 89.56040551955812,240.64205976430094 88.4807096592267,240.6255972055078 87.3705998309888,240.69144743357901 86.86876936076442,240.75729764257267 86.44297381013166,240.75729764257267 85.65221064485377,240.9219230817398 84.48127288086107,241.07008587512246 82.88453956635203,241.51457367614785 82.36750211205799,241.72858601134794 81.75922275410267,241.74504849029472 81.01408054068452,241.95906060864218 80.89242466911674,241.92613568049273 80.6947338777245,241.6627360834682 80.32976626296295,241.38287367748853 80.14728245564038,241.2840986284864 79.91917769639986,241.23471108787635 79.5846240495448,241.26763611612841 79.37172627431573,241.33348615832801 79.09800056315726,241.51457367614785 78.90030977193965,241.72858601134794 78.76344691636041,241.76151096810645 78.64179104479263,241.74504849029472 77.7141650239355,241.3664111722901 76.64967614755733,240.6255972055078 75.70684314268874,240.1975702583295 74.9921148972353,239.901243438464 74.64235426636878,239.78600512644334 74.21655871585244,239.70369201072026 73.28893269499531,239.6049162325071 73.09124190371949,239.53906568989623 73.0,239.4732151282078" stroke="#ffbe0b" stroke-linecap="round" stroke-linejoin="round" stroke-width="0.5"><title>2023-07-14 7.2km</title><desc>14614521651</desc></polyline><polyline fill="none" points="158.9592090593069,226.68780621048063 158.8888853470562,226.8400571125385 158.74823792261304,227.02275804959936 158.64978472556686,227.2054588280298 158.42474884650437,227.8905853346805 158.3825546191656,228.3321101238398 158.46694307384314,229.04768281508586 158.55133152852068,229.33695619124046 158.70604369533248,229.59577940129384 158.90295008954126,229.79370281776937 159.6202519540675,230.44837125392223 160.2250358790625,231.4075329600164 160.32348907610867,231.65112888778094 160.54852495522937,232.41236434505845 160.59071918256814,232.68640843575122 160.60478392493678,233.14314779400593 160.562589697598,233.66078453531372 160.5063307278906,234.0109498444217 160.2812948488281,234.81785029546882 159.88748206041055,235.426829719916 159.80309360579122,235.457278644928 159.05766225641128,236.3098467561358 158.81856163486373,236.6295589076326 158.39661936159246,237.34510339205735 158.19971296738368,237.75615976193512 158.08719502785243,238.15199106320506 157.9746770883794,239.82665371822077 158.31223090697313,240.9684615272854 158.72010843775934,241.88190331606893 159.07172699877992,242.5822060037026 159.1701801958843,243.05414780543651 159.38115133257816,243.70877500499773 159.47960452962434,244.37862398606376 159.45147504471242,244.59175730591232 159.3389571052394,244.97235198323324 159.19830968079623,245.7639867086109 159.02953277155757,246.2968160979799 158.70604369533248,247.08844584404142 158.49507255869685,247.4842596010567 158.21377770986874,247.8952961765899 157.70744698191993,248.5042377767677 157.13079254183685,249.4937641214783 156.91982140520122,250.19404149426555 156.8354329505819,250.7725297415309 156.7369797534775,251.22922986689082 156.68072078365367,252.52320817713917 156.75104449590435,252.9190117194812 156.96201563254,253.58883140425314 157.20111625408754,254.06074853939936 157.3698931633262,254.33476445518318 157.65118801221251,255.03502573150035 157.72151172434678,255.14158702596615 157.69338223949308,255.14158702596615 157.8762238912168,255.84184561978327 157.96061234589433,256.37464951202855 157.94654760346748,256.80089165543905 157.81996492150938,257.44025325324037 157.65118801221251,258.0491672563512 157.35582842084114,258.6276339289034 157.28550470870687,258.82553005742375 157.15892202669056,259.55622184459935 157.18705151160248,260.01290292447084 157.28550470870687,260.5000283183472 157.35582842084114,260.68270005063096 157.4683463604306,260.8501489994378 157.55273481510812,260.911039493265 157.60899378487375,260.911039493265 157.58086430002004,260.97192996951344 157.5949290424469,261.00237520101655 157.5246053301962,261.1089334766584 157.2151809965144,261.36771763596334 156.8354329505819,261.58083376375725 156.11813108599745,262.1136231399578 155.76651252497686,262.2962934730458 155.04921066045063,262.8595260029251 154.62726838717936,262.95086086586525 154.55694467492867,262.9204159159708 154.55694467492867,262.90519343933556 154.47255622030934,262.88997096166713 154.09280817443505,263.4075345866295 153.65680115867872,263.8642073174706 152.70039867266314,264.594881627796 151.64554298954317,265.29510879718873 151.15327700402122,265.29510879718873 150.88604689767817,265.34077570567024 150.77352895808872,265.3712203058094 150.3656514273025,265.58433238361613 149.66241430514492,265.7517774364387 149.3811194563168,265.7822219771915 148.77633553138003,265.7669997073681 147.84806253015995,265.5538878142979 146.62442993774312,264.82321683004557 146.4978472557268,264.79277215070033 146.01964601274813,264.79277215070033 145.59770373947686,265.03632946222206 145.40079734526807,265.21899726106494 145.27421466336818,265.4473317869124 145.1054377540131,266.02577814485994 144.90853135986254,266.3911118684482 144.75381919299252,266.55855628001154 144.50065382901812,266.68033395033854 144.3178121772362,266.9695556352235 144.24748846510192,267.0 144.45845960167935,266.6346673322114 144.5709775412106,266.5737784926896 144.78194867784623,266.5737784926896 144.99291981454007,266.28455626450886 145.17576146620559,265.93444461496256 145.3304736330756,265.41688719778904 145.4570563150337,265.2037749505689 145.7383511638618,265.0058848136832 146.0337107552332,264.8993285091565 146.35719983140007,264.86888384079793 146.61036519531626,264.914550841655 146.90572478657123,265.03632946222206 147.4823792266543,265.38644260422734 147.8339977877331,265.5538878142979 148.56536439468618,265.7517774364387 148.95917718310375,265.8126665135351 149.29673100163927,265.7974442459381 149.87338544183876,265.72133289129124 150.35158668481745,265.5538878142979 150.39378091215622,265.5386655279872 150.40784565464128,265.5538878142979 150.590687306365,265.4473317869124 150.77352895808872,265.3712203058094 150.95637060987065,265.34077570567024 151.43457185284933,265.3255534039199 151.5752192772925,265.2798864921351 152.60194547555875,264.5796592721599 153.05201723374194,264.2904343064729 153.92403126507998,263.6663159223099 154.07874343195,263.4988692120096 154.28971456858562,263.1487529330916 154.47255622030934,263.0421956892242 154.62726838717936,263.01175075251376 154.9648222057731,262.82908103981754 155.73838304012315,262.2506259046495 156.20251954067498,262.00706537254155 157.2151809965144,261.3068272741657 157.44021687551867,261.1393786883564 157.5246053301962,261.0175978151092 157.5246053301962,260.911039493265 157.32769893598743,260.57614155937335 157.22924573894124,260.3173564276658 157.15892202669056,259.84545331010304 157.1167277993518,259.3431036685215 157.17298676917562,259.0690942681249 157.48241110285744,258.38406920777925 157.79183543659747,257.59248191904044 157.90435337618692,256.98356659569254 157.96061234589433,256.05496733843756 157.81996492150938,255.46127058590355 157.51054058776936,254.47177227941575 157.18705151160248,253.87807106411492 156.9901451173937,253.31481451795844 156.82136820815504,252.50798494913033 156.7651092383312,251.29012314211286 156.8916919203475,250.57462604627653 157.32769893598743,249.280635763178 157.66525275458116,248.67169640808424 157.89028863370186,248.19976719679835 158.66384946805192,247.05799860112893 158.81856163486373,246.75352593004936 159.18424493836937,245.687868114328 159.31082762032747,244.92668065828911 159.45147504471242,244.50041448096454 159.4936692720512,244.30250489099126 159.45147504471242,244.0132520787447 159.22643916570814,243.05414780543651 158.9592090593069,242.23205495104776 158.81856163486373,241.89712731230247 158.3825546191656,241.0598058845062 158.27003667963436,240.77054861736542 158.05906554299872,239.87232614947425 158.04500080051366,238.95887564177974 158.07313028542558,238.62394279592263 158.14345399767626,238.16721532918746 158.24190719472244,237.80183264239167 158.42474884650437,237.32987906667404 158.72010843775934,236.75135388525086 158.8607558622025,236.5534370108362 159.28269813541556,235.9901341190416 159.85935257555684,235.44205418293132 160.21097113657743,234.86352381343022 160.3516185610788,234.49813539240859 160.562589697598,233.7978058125882 160.61884866742184,233.49331396419439 160.64697815227555,233.17359704934643 160.60478392493678,232.99090145138325 160.52039547031745,232.89955359294254 160.46413650055183,232.884328945991 160.46413650055183,232.97567681105284 160.3797480459325,233.06702463647525 160.42194227327127,233.0974739027879 160.45007175812498,233.06702463647525 160.45007175812498,232.97567681105284 160.1265826818999,231.05736331992375 159.95780577266123,230.76809230828076 158.62165524071315,229.5501047402795 158.46694307384314,229.519654960779 158.32629564939998,229.56532962837082 158.2278424523538,229.65667893386853 158.14345399767626,229.80892768823833 158.2278424523538,229.56532962837082 158.2278424523538,229.4739802832337 157.4683463604306,229.29128147407027 157.7496412092587,229.33695619124046 158.2559719372075,229.4739802832337 158.36848987668054,229.45875538855034 158.45287833135808,229.39785579871386 158.49507255869685,229.215156923412 158.36848987668054,228.3625600751693 158.43881358887302,227.8296852910571 158.55133152852068,227.44905961927725 158.69197895290563,227.14455858619476 158.93107957439497,226.77915676494013 159.1420507110306,226.55078030447476 159.6202519540675,226.0788015008875 160.04219422733877,225.43934465911298 160.18284165172372,225.13484071819403 160.2812948488281,224.79988587429398 160.29535959125496,224.5258315145329 160.26723010640126,224.23655152543506 160.1265826818999,223.7036662939645 159.92967628774932,223.2773571372236 159.39521607506322,222.48563784058206 159.28269813541556,222.18112962563464 159.2686333930469,221.95274817524478 159.31082762032747,221.64823918916227 159.46553978719749,221.3285042795178 159.6483814389212,221.11534740317438 160.32348907610867,220.58245426765643 160.54852495522937,220.3236199720268 160.77356083429186,219.94298072364472 160.87201403139625,219.56234078663692 160.87201403139625,218.99899241619278 160.84388454642612,218.70970482903067 160.78762557677692,218.46609392084065 160.67510763718747,218.23770843818784 160.26723010640126,217.50687322796148 159.94374103023438,216.74558385118144 159.88748206041055,216.4410673291568 159.8734173179837,215.37525603127142 159.97187051508809,215.04028565112094 160.08438845461933,214.79667049423733 160.36568330350565,214.35511730331928 160.47820124297868,214.26376135500323 160.8579492889112,214.0505973213585 161.27989156218246,213.92878920516523 161.50492744130315,213.9135631856625 162.20816456340253,213.92878920516523 162.44726518489188,213.9744672570232 163.22082601918373,214.21808336598042 163.72715674707433,214.26376135500323 164.0225163383293,214.23330936342245 164.1772285051993,214.1571793651674 164.31787592970068,214.0353713106888 164.79607717267936,213.45678208871686 164.9367245970643,213.31974756626005 165.1617604761268,213.21316509817552 165.48524955229368,213.1674868810369 166.83546482672682,213.30452150267956 167.59496091859182,213.45678208871686 168.15755061630625,213.6090425645525 168.76233454130124,213.89833716506837 169.46557166334242,214.44647321195225 169.85938445175998,214.69008877438318 170.5485568313743,214.96415594490827 170.94236961979186,215.14686719361634 171.0830170441768,215.14686719361634 171.19553498370806,215.08596346164995 171.44870034768246,214.72054069984006 171.61747725703754,214.59873297152808 171.87064262089552,214.56828102841973 172.1660022122087,214.61395894140878 172.30664963665185,214.65963684448798 172.46136180352187,214.76621857976716 172.78485087963054,215.25344868205138 172.89736881922,215.37525603127142 172.99582201626617,215.42093376906996 173.37557006225688,215.32957828359213 173.86783604766242,215.28390052597388 174.78204430645565,214.97938188837725 175.34463400411187,214.85757430990634 175.51341091340873,214.78144453754066 175.75251153489808,214.58350700049778 175.7103173075593,214.49215115141124 175.65405833779369,214.4616991928633 175.65405833779369,214.59873297152808 174.83830327616306,214.82712240425462 173.82564182032365,215.28390052597388 173.27711686509429,215.39048194499628 173.12240469822427,215.39048194499628 173.00988675875124,215.34480420059117 172.70046242506942,214.88802621114883 172.55981500056805,214.7509926209168 172.4191675761249,214.67486280998855 172.1660022122087,214.59873297152808 171.92690159071935,214.59873297152808 171.70186571165686,214.65963684448798 171.4065061203437,214.82712240425462 171.11114652903052,215.11641532981594 170.94236961979186,215.16209312382853 170.56262157385936,214.99460783072573 168.69201082905056,213.9135631856625 167.69341411575442,213.44155603507534 167.35586029710248,213.35019969005953 166.69481740234187,213.27406937225896 166.18848667439306,213.12180865397386 165.83686811337247,213.09135649709788 165.3867963551893,213.0 164.97891882440308,213.07613041700097 164.72575346042868,213.19793902688252 164.59917077847058,213.33497362870548 164.4303938691737,213.65472068583767 164.20535799011122,213.92878920516523 164.03658108081436,214.0353713106888 163.6708977773087,214.1571793651674 163.50212086801184,214.18763136779307 163.31927921628812,214.1571793651674 162.71449529129313,213.9896932720585 162.26442353310995,213.80698101840972 161.96906394179678,213.7613029302156 161.58931589592248,213.7613029302156 161.30802104709437,213.80698101840972 160.95640248601558,213.9135631856625 160.74543134943815,214.02014529888402 160.14064742438495,214.61395894140878 160.01406474242685,214.82712240425462 159.84528783307178,215.49706331003108 159.81715834821807,216.13655036641285 159.8734173179837,216.5933256452554 160.14064742438495,217.3850671127875 160.26723010640126,217.67435652118002 160.60478392493678,218.20725702181517 160.77356083429186,218.6335764505202 160.84388454642612,219.0598950154381 160.81575506163063,219.48621271662705 160.68917237961432,219.91252955401433 160.5063307278906,220.3236199720268 160.30942433374003,220.53677765041357 159.84528783307178,220.88696479606733 159.60618721158244,221.1001219037571 159.35302184766624,221.52643547135813 159.28269813541556,221.89184641328757 159.28269813541556,222.30293296449236 159.3389571052394,222.48563784058206 159.43741030228557,222.65311717097939 159.67651092383312,222.9119486012205 159.81715834821807,223.1098783036723 160.16877690923866,223.94727113863337 160.2531653639162,224.404029462341 160.23910062148934,224.647633496279 160.19690639415057,224.89123724824458 160.01406474242685,225.3936690960545 159.7468346360838,225.91132489680604 159.59212246915558,226.09402664008667 159.07172699877992,226.53555519829388 158.93107957439497,226.5660054095788 158.79043215001002,226.55078030447476 158.11532451270614,226.44420453811472 157.86215914884815,226.3528538383107 157.7777706941706,226.3528538383107" stroke="tomato" stroke-linecap="round" stroke-linejoin="round" stroke-width="0.5"><title>2023-07-13 12.7km</title><desc>14614521311</desc></polyline></svg>