<?xml version="1.0" encoding="utf-8" ?>
<svg baseProfile="full" height="200mm" version="1.1" viewBox="0,0,200,200" width="200mm" xmlns="http://www.w3.org/2000/svg" xmlns:ev="http://www.w3.org/2001/xml-events" xmlns:xlink="http://www.w3.org/1999/xlink"><defs /><rect fill="#1a1a1a" height="200" width="200" x="0" y="0" /><text alignment-baseline="middle" fill="#e1ed5e" style="dominant-baseline: central; font-size:9.0px; font-family:Arial;" text-anchor="middle" x="100.0" y="100.0">2025</text><line stroke="#e1ed5e" stroke-width="0.3" x1="100.0" x2="100.0" y1="15.0" y2="10.0" /><path d="M 100.0 14.0 a86.0,86.0 0 0,1 42.46469731375804,11.215312516191453" fill="none" id="id37" stroke="none" /><text fill="#e1ed5e" style="font-size:6.75px; font-family:Arial;" text-anchor="middle"><textPath startOffset="22.20632615414155" xlink:href="#id37">January</textPath></text><line stroke="#e1ed5e" stroke-width="0.3" x1="143.23703022742887" x2="145.7803849466894" y1="26.81831364943548" y2="22.513508569990506" /><path d="M 143.74570117128098 25.957352633546492 a86.0,86.0 0 0,1 28.547481713284135,27.462654790039103" fill="none" id="id38" stroke="none" /><text fill="#e1ed5e" style="font-size:6.75px; font-family:Arial;" text-anchor="middle"><textPath startOffset="19.985693538727396" xlink:href="#id38">February</textPath></text><line stroke="#e1ed5e" stroke-width="0.3" x1="172.23445277983987" x2="176.4835382374775" y1="55.19839476539836" y2="52.563006222186495" /><path d="M 173.08426987136738 54.67131705675599 a86.0,86.0 0 0,1 12.851231095245387,41.99856678651699" fill="none" id="id39" stroke="none" /><text fill="#e1ed5e" style="font-size:6.75px; font-family:Arial;" text-anchor="middle"><textPath startOffset="22.20632615414155" xlink:href="#id39">March</textPath></text><line stroke="#e1ed5e" stroke-width="0.3" x1="184.98032266829074" x2="189.97916517819016" y1="98.17113171792111" y2="98.06355123074" /><path d="M 185.9800911702706 98.14961562048488 a86.0,86.0 0 0,1 -9.607161424134198,41.387399972396054" fill="none" id="id40" stroke="none" /><text fill="#e1ed5e" style="font-size:6.75px; font-family:Arial;" text-anchor="middle"><textPath startOffset="21.466115282336823" xlink:href="#id40">April</textPath></text><path d="M 120.23288151984713 105.62410040840565 l 3.06377969180471 0.8516337427786225 a24.1799411994177,24.1799411994177 0 0,0 -0.11492077006490703,0.40005427678459293 l -3.0486662848537036 -0.9042454950677974" fill="#ff1702" stroke="none" /><path d="M 119.54520255179757 107.68017299344265 l 4.352578491407884 1.7103202534207433 a25.676551602744027,25.676551602744027 0 0,0 -0.16518261887694657,0.4099697135246044 l -4.322493258273545 -1.7849893347881611" fill="#ff2d04" stroke="none" /><path d="M 119.41010516605496 108.01547362559984 l 5.414786071896937 2.236055630623693 a26.85831485904035,26.85831485904035 0 0,0 -0.1801412997487554,0.42580081972635897 l -5.375493790955873 -2.3289309760162156" fill="#ff3e05" stroke="none" /><path d="M 118.97047184881838 109.00673069616215 l 2.8047963832575427 1.3316508879110356 a24.104863417094034,24.104863417094034 0 0,0 -0.181184485244543,0.37329370467559947 l -2.7814586413982854 -1.3797335485519107" fill="#ff1602" stroke="none" /><line stroke="#e1ed5e" stroke-width="0.3" x1="174.80103733775053" x2="179.2010983576182" y1="140.37084112569926" y2="142.7455964860345" /><path d="M 175.68104954172406 140.8457921977663 a86.0,86.0 0 0,1 -30.038265399797805,32.042727171017184" fill="none" id="id41" stroke="none" /><text fill="#e1ed5e" style="font-size:6.75px; font-family:Arial;" text-anchor="middle"><textPath startOffset="22.206326154141568" xlink:href="#id41">May</textPath></text><path d="M 118.30583269289576 110.29060199501025 l 1.389645066557586 0.7811873152223978 a22.594166563591212,22.594166563591212 0 0,0 -0.19350075024107286,0.33738486827208736 l -1.3759923201641335 -0.8049920293528003" fill="#ff0000" stroke="none" /><path d="M 115.07121518719521 114.62390073753431 l 7.950922452503928 7.71493866108677 a32.07869335210892,32.07869335210892 0 0,0 -0.38793737679698703,0.3929785145480608 l -7.816944450651405 -7.8506576696154955" fill="#ff860c" stroke="none" /><path d="M 111.45004920935366 117.60387380957326 l 6.767421283560939 10.404569282960477 a33.41181101987612,33.41181101987612 0 0,0 -0.484818421158341,0.3094340547729316 l -6.587321060355667 -10.519517766557216" fill="#ff980e" stroke="none" /><line stroke="#e1ed5e" stroke-width="0.3" x1="143.8653032363475" x2="146.44561519142675" y1="172.8068346515853" y2="177.08958963109032" /><path d="M 144.38136562736335 173.6633856474863 a86.0,86.0 0 0,1 -40.68145358897372,12.25698825130547" fill="none" id="id42" stroke="none" /><text fill="#e1ed5e" style="font-size:6.75px; font-family:Arial;" text-anchor="middle"><textPath startOffset="21.466115282336833" xlink:href="#id42">June</textPath></text><path d="M 109.2508944713604 118.85261126421891 l 1.0918768224586408 2.22516096642882 a23.478615807651686,23.478615807651686 0 0,0 -0.3643515935525318,0.1749109065150921 l -1.0534125609058764 -2.2436261494434717" fill="#ff0d01" stroke="none" /><path d="M 107.59598834532513 119.57807347666477 l 1.1424228863146342 2.9445067834334617 a24.158361956594135,24.158361956594135 0 0,0 -0.38898388548459767,0.14708042146228364 l -1.0915687800697618 -2.9637354550023765" fill="#ff1702" stroke="none" /><path d="M 106.91757812671514 119.82793768551818 l 1.1449930874765057 3.281907507651647 a24.47590650897708,24.47590650897708 0 0,0 -0.39899255294388514,0.13535993690063747 l -1.0883308015953936 -3.3011304314504075" fill="#ff1c02" stroke="none" /><path d="M 101.98527174616119 120.90594882070398 l 0.30968811218078546 3.2611776378478026 a24.275848945300236,24.275848945300236 0 0,0 -0.41633737806180393,0.03592334083549643 l -0.25350641637743987 -3.2660252309619624" fill="#ff1902" stroke="none" /><path d="M 101.62511606390274 120.93702456842531 l 0.421996568415309 5.436751698512113 a26.453104632686653,26.453104632686653 0 0,0 -0.45428450588372393,0.0313301192808973 l -0.32834930175265475 -5.443210162309295" fill="#ff3805" stroke="none" /><line stroke="#e1ed5e" stroke-width="0.3" x1="102.19456741930631" x2="102.32365962044197" y1="184.97166512339345" y2="189.96999836594603" /><path d="M 102.22038585953345 185.97133177190398 a86.0,86.0 0 0,1 -42.740103519485714,-10.115201625700543" fill="none" id="id43" stroke="none" /><text fill="#e1ed5e" style="font-size:6.75px; font-family:Arial;" text-anchor="middle"><textPath startOffset="22.20632615414155" xlink:href="#id43">July</textPath></text><path d="M 94.46302465271185 120.25689768951611 l -2.4121964464082764 8.824965537518379 a30.14869982207591,30.14869982207591 0 0,0 -0.49941871382238956,-0.14114071708490422 l 2.56374632833528 -8.782136027094953" fill="#ff6c09" stroke="none" /><path d="M 92.7421414339146 119.70592522655815 l -3.521806105331354 9.562110799236404 a31.190048144166084,31.190048144166084 0 0,0 -0.5022040044506202,-0.18989058259476146 l 3.685880330542257 -9.500071966535009" fill="#ff7a0b" stroke="none" /><path d="M 92.40401165467489 119.57807347666478 l -21.032809738059814 54.21044316449921 a79.14766748175565,79.14766748175565 0 0,0 -1.2659063517889955,-0.5037302627064758 l 21.96283716589067 -53.84036605738667" fill="#47fffe" stroke="none" /><path d="M 91.7346041902142 119.30500536409082 l -9.576404086082253 22.367051319144302 a45.33089599528073,45.33089599528073 0 0,0 -0.7146724982513118,-0.31329142094465695 l 9.959997258991308 -22.198895344905193" fill="#d1ff1d" stroke="none" /><line stroke="#e1ed5e" stroke-width="0.3" x1="58.666819895761336" x2="56.23545636021788" y1="174.27360380694188" y2="178.64263932499728" /><path d="M 58.180547188652646 175.14741091055294 a86.0,86.0 0 0,1 -31.652253787137756,-30.449443065178592" fill="none" id="id44" stroke="none" /><text fill="#e1ed5e" style="font-size:6.75px; font-family:Arial;" text-anchor="middle"><textPath startOffset="22.20632615414155" xlink:href="#id44">August</textPath></text><path d="M 87.95078237400918 117.19931262002967 l -36.14765287797246 51.59793786008904 a84.0,84.0 0 0,0 -1.1770906886044523,-0.8398229526231229 l 37.030470894425804 -50.968070645621694" fill="#4dd2ff" stroke="none" /><line stroke="#e1ed5e" stroke-width="0.3" x1="26.63291911575756" x2="22.317208475507996" y1="142.92168965132927" y2="145.44649492493687" /><path d="M 25.769776987707644 143.4266507060508 a86.0,86.0 0 0,1 -11.730757126820373,-40.83630448921669" fill="none" id="id45" stroke="none" /><text fill="#e1ed5e" style="font-size:6.75px; font-family:Arial;" text-anchor="middle"><textPath startOffset="21.46611528233685" xlink:href="#id45">September</textPath></text><line stroke="#e1ed5e" stroke-width="0.3" x1="15.007084014347285" x2="10.007500721073583" y1="101.09737516637583" y2="101.16192664675087" /><path d="M 14.007167355692545 101.11028546245083 a86.0,86.0 0 0,1 10.666146001902534,-42.60595125391555" fill="none" id="id46" stroke="none" /><text fill="#e1ed5e" style="font-size:6.75px; font-family:Arial;" text-anchor="middle"><textPath startOffset="22.20632615414155" xlink:href="#id46">October</textPath></text><line stroke="#e1ed5e" stroke-width="0.3" x1="26.266209847984243" x2="21.928928074336255" y1="57.711370442889674" y2="55.22380399835377" /><path d="M 25.398753493254645 57.213857153982495 a86.0,86.0 0 0,1 29.58750427330803,-30.492523968695096" fill="none" id="id47" stroke="none" /><text fill="#e1ed5e" style="font-size:6.75px; font-family:Arial;" text-anchor="middle"><textPath startOffset="21.46611528233685" xlink:href="#id47">November</textPath></text><line stroke="#e1ed5e" stroke-width="0.3" x1="56.762969772571076" x2="54.21961505331055" y1="26.818313649435495" y2="22.513508569990535" /><path d="M 56.25429882871897 25.957352633546506 a86.0,86.0 0 0,1 42.265352541879196,-11.944610805530505" fill="none" id="id48" stroke="none" /><text fill="#e1ed5e" style="font-size:6.75px; font-family:Arial;" text-anchor="middle"><textPath startOffset="22.20632615414155" xlink:href="#id48">December</textPath></text></svg>