<?xml version="1.0" encoding="utf-8" ?>
<svg baseProfile="full" height="200mm" version="1.1" viewBox="0,0,200,200" width="200mm" xmlns="http://www.w3.org/2000/svg" xmlns:ev="http://www.w3.org/2001/xml-events" xmlns:xlink="http://www.w3.org/1999/xlink"><defs /><rect fill="#1a1a1a" height="200" width="200" x="0" y="0" /><rect fill="#1a1a1a" height="200" width="180" x="10" y="0" /><text alignment-baseline="middle" fill="#e1ed5e" style="dominant-baseline: central; font-size:9.0px; font-family:Arial;" text-anchor="middle" x="100.0" y="100.0">2020</text><line stroke="#e1ed5e" stroke-width="0.3" x1="100.0" x2="100.0" y1="15.0" y2="10.0" /><path d="M 100.0 14.0 a86.0,86.0 0 0,1 42.35913384403234,11.155469271406648" fill="none" id="id97" stroke="none" /><text fill="#e1ed5e" style="font-size:6.75px; font-family:Arial;" text-anchor="middle"><textPath startOffset="22.145653131862478" xlink:href="#id97">January</textPath></text><path d="M 100.0 79.0 l 0.0 -15.178259048518683 a36.17825904851868,36.17825904851868 0 0,0 0.6210479247780974,0.005330949498930223 l -0.26055499992924264 15.176022497214188" fill="#ffbd11" stroke="none" /><path d="M 100.36049292484886 79.00309439819443 l 0.03756014734371756 -2.1876902812908314 a23.18801268998213,23.18801268998213 0 0,0 0.39793576412515497,0.010249413708531198 l -0.07510922553961387 2.1867231502322553" fill="#ff0a01" stroke="none" /><path d="M 101.08105385017728 79.02784411241856 l 0.40157839632357806 -7.79051360614641 a28.800856841139066,28.800856841139066 0 0,0 0.4935309998908715,0.029689599407850334 l -0.535253748346912 7.782472028913868" fill="#ff5a08" stroke="none" /><path d="M 101.44090949804482 79.04949213459386 l 0.772847897674296 -11.237038815385993 a32.2635844743772,32.2635844743772 0 0,0 0.5522158380847413,0.04274499832480438 l -0.9656327305342707 11.222116050066136" fill="#ff890c" stroke="none" /><path d="M 102.15924093988457 79.11130261209362 l 0.8403066596116728 -8.129204666992393 a29.172520039745308,29.172520039745308 0 0,0 0.49768888524152594,0.055767077670987035 l -0.9797314464539953 8.113581828814436" fill="#ff5f08" stroke="none" /><path d="M 103.23170211078529 79.25015418208739 l 1.2553410765324269 -8.060190232264524 a29.157361570919978,29.157361570919978 0 0,0 0.4939014029710524,0.08127128790736055 l -1.3935199825565499 8.037452945861496" fill="#ff5f08" stroke="none" /><path d="M 103.94208987418118 79.37332000966035 l 2.014342601562899 -10.539891671540472 a31.730652010212584,31.730652010212584 0 0,0 0.5341379524763978,0.1068425499010949 l -2.194977039570254 10.503759724976517" fill="#ff820c" stroke="none" /><line stroke="#e1ed5e" stroke-width="0.3" x1="143.13028292997686" x2="145.6673583964461" y1="26.7553504044142" y2="22.446841604673864" /><path d="M 143.63769802327073 25.89364864446614 a86.0,86.0 0 0,1 29.32050498858742,28.57503671076993" fill="none" id="id98" stroke="none" /><text fill="#e1ed5e" style="font-size:6.75px; font-family:Arial;" text-anchor="middle"><textPath startOffset="20.669276256404974" xlink:href="#id98">February</textPath></text><path d="M 114.39649973595853 84.71141617570332 l 9.750924925537479 -10.355144363052908 a35.22355622490854,35.22355622490854 0 0,0 0.4366505157625644,0.41830131666626486 l -9.927247927165356 10.186230916081064" fill="#ffb110" stroke="none" /><line stroke="#e1ed5e" stroke-width="0.3" x1="172.87174338648825" x2="177.1583165268699" y1="56.24261187166439" y2="53.66864786411523" /><path d="M 173.72905801456457 55.72781907015455 a86.0,86.0 0 0,1 12.242430191666344,42.057860355516425" fill="none" id="id99" stroke="none" /><text fill="#e1ed5e" style="font-size:6.75px; font-family:Arial;" text-anchor="middle"><textPath startOffset="22.145653131862474" xlink:href="#id99">March</textPath></text><line stroke="#e1ed5e" stroke-width="0.3" x1="184.99686870605535" x2="189.99668451229388" y1="99.2704041080226" y2="99.22748670261217" /><path d="M 185.99683186730306 99.26182062694052 a86.0,86.0 0 0,1 -10.086455211305974,41.156179273409016" fill="none" id="id100" stroke="none" /><text fill="#e1ed5e" style="font-size:6.75px; font-family:Arial;" text-anchor="middle"><textPath startOffset="21.40746469413373" xlink:href="#id100">April</textPath></text><path d="M 120.77682067341334 103.0534771498775 l 13.741479932795837 2.019524336270781 a34.8890874174015,34.8890874174015 0 0,0 -0.09217116717023717,0.5918050123669114 l -13.704787273487332 -2.2551175305691427" fill="#ffac0f" stroke="none" /><path d="M 120.65975698304385 103.76489593502545 l 61.97927094913153 11.294687805076347 a84.0,84.0 0 0,0 -0.27069483087136303,1.4163897398667418 l -61.776249825978006 -12.356980109976403" fill="#4dd2ff" stroke="none" /><path d="M 120.51834098615036 104.47187691870673 l 49.6896586418719 10.829629828697627 a71.85610148421104,71.85610148421104 0 0,0 -0.27301602044048834,1.2029589608972497 l -49.496431759873744 -11.681023123533894" fill="#3effb4" stroke="none" /><path d="M 120.43855184770803 104.8234425847677 l 5.823551571897848 1.374342314259068 a26.98352485641339,26.98352485641339 0 0,0 -0.11026300053513549,0.4499106695245578 l -5.799101044846417 -1.4741088083917253" fill="#ff4106" stroke="none" /><path d="M 120.35273937422433 105.17358676015961 l 43.646631823072894 11.094803130599068 a66.034688030513,66.034688030513 0 0,0 -0.2886989996656696,1.0962371254807965 l -43.449743342602495 -11.842420760452669" fill="#37ff73" stroke="none" /><path d="M 120.16314734710363 105.8691983318838 l 7.8751443097106115 2.2923397349738233 a29.201994840239006,29.201994840239006 0 0,0 -0.14423516038402898,0.4801119389748689 l -7.834632829322953 -2.4271892775394157" fill="#ff6008" stroke="none" /><path d="M 120.05942366710727 106.21446072829308 l 8.099286476927787 2.509179654079328 a29.479057964879765,29.479057964879765 0 0,0 -0.15390213802849392,0.48209625536887496 l -8.055019623122039 -2.6478449431395865" fill="#ff6309" stroke="none" /><line stroke="#e1ed5e" stroke-width="0.3" x1="174.33088141563837" x2="178.70328620479359" y1="141.23008692659167" y2="143.65538615756765" /><path d="M 175.20536237346943 141.71514677278685 a86.0,86.0 0 0,1 -30.301960400862466,31.631185727798858" fill="none" id="id101" stroke="none" /><text fill="#e1ed5e" style="font-size:6.75px; font-family:Arial;" text-anchor="middle"><textPath startOffset="22.145653131862474" xlink:href="#id101">May</textPath></text><path d="M 118.18653347947321 110.5 l 13.965963426235254 8.063252743629388 a37.12650548725878,37.12650548725878 0 0,0 -0.32340066212529317,0.5492050264266698 l -13.825489053980196 -8.301808938349607" fill="#ffc912" stroke="none" /><path d="M 118.00360718960297 110.81064883170644 l 26.818539199412413 16.103762230028686 a52.28202683253946,52.28202683253946 0 0,0 -0.46862630157552637,0.7654658449898034 l -26.53814493338148 -16.561765191143046" fill="#82ff25" stroke="none" /><path d="M 117.62189284568427 111.42229804090321 l 1.76443492187638 1.1436853990623164 a23.102676124743237,23.102676124743237 0 0,0 -0.2185684353102902,0.330940468692311 l -1.744542047645363 -1.1738057460936884" fill="#ff0901" stroke="none" /><path d="M 113.03279911837588 116.46651593811092 l 4.392687843865388 5.5500175929335915 a28.078022448079345,28.078022448079345 0 0,0 -0.38051076014438745,0.29588746858703435 l -4.29676713908577 -5.624606113141419" fill="#ff5007" stroke="none" /><line stroke="#e1ed5e" stroke-width="0.3" x1="143.1302829299769" x2="145.66735839644613" y1="173.24464959558577" y2="177.55315839532614" /><path d="M 143.63769802327073 174.10635135553383 a86.0,86.0 0 0,1 -40.68552437913181,11.842963189579606" fill="none" id="id102" stroke="none" /><text fill="#e1ed5e" style="font-size:6.75px; font-family:Arial;" text-anchor="middle"><textPath startOffset="21.407464694133747" xlink:href="#id102">June</textPath></text><line stroke="#e1ed5e" stroke-width="0.3" x1="101.45913802915013" x2="101.54496967792366" y1="184.9874750549273" y2="189.98673829345242" /><path d="M 101.47630435890484 185.9873277026323 a86.0,86.0 0 0,1 -42.54439059252881,-10.42667462771756" fill="none" id="id103" stroke="none" /><text fill="#e1ed5e" style="font-size:6.75px; font-family:Arial;" text-anchor="middle"><textPath startOffset="22.145653131862474" xlink:href="#id103">July</textPath></text><path d="M 100.36049292484886 120.99690560180557 l 0.03786132242986581 2.2052322201683334 a23.205557214085523,23.205557214085523 0 0,0 -0.39835424727871777,0.0034193921116248698 l -2.70102858256619e-16 -2.2055572140855233" fill="#ff0a01" stroke="none" /><path d="M 95.70440661134978 120.55596938700252 l -0.6709848978038313 3.210905635258604 a24.280264582562857,24.280264582562857 0 0,0 -0.4072581771623768,-0.08876002419670773 l 0.7260054915853446 -3.1989141529281775" fill="#ff1a02" stroke="none" /><path d="M 93.61358852112213 120.00534299687104 l -2.424260500712044 7.593961490096805 a28.97152997161686,28.97152997161686 0 0,0 -0.47248048908741375,-0.15531372141801633 l 2.5542637274472013 -7.551226847276768" fill="#ff5c08" stroke="none" /><path d="M 91.59046798132341 119.24265499422711 l -5.764056745647765 13.189289853147171 a35.393808286807854,35.393808286807854 0 0,0 -0.5546489490040771,-0.24808742003970521 l 5.989619097507477 -13.088398682197612" fill="#ffb310" stroke="none" /><line stroke="#e1ed5e" stroke-width="0.3" x1="58.13341422392154" x2="55.67067388415222" y1="173.97424548756322" y2="178.32567169271397" /><path d="M 57.64086615596768 174.84453072859336 a86.0,86.0 0 0,1 -31.369924170532247,-30.572349798747897" fill="none" id="id104" stroke="none" /><text fill="#e1ed5e" style="font-size:6.75px; font-family:Arial;" text-anchor="middle"><textPath startOffset="22.145653131862474" xlink:href="#id104">August</textPath></text><path d="M 88.1277618465304 117.32195027204791 l -4.203705140532364 6.133331429286873 a28.435650027402875,28.435650027402875 0 0,0 -0.4002722730364353,-0.27942113329074325 l 4.3083725047425645 -6.060265480191001" fill="#ff5507" stroke="none" /><path d="M 87.54013794807813 116.9041958592261 l -4.405774221626395 5.977278885075174 a28.425544381519323,28.425544381519323 0 0,0 -0.3903057505235931,-0.29289271161062225 l 4.507732961060754 -5.900767146200537" fill="#ff5507" stroke="none" /><path d="M 86.13680546590413 115.77377054828092 l -2.0479852567211965 2.3302312786804733 a24.10229293005806,24.10229293005806 0 0,0 -0.3084347163835433,-0.2758042252930049 l 2.0876849999281104 -2.2947315235040864" fill="#ff1702" stroke="none" /><path d="M 85.08716467003676 114.78537596483092 l -2.2194926934194443 2.2005227843874122 a24.125451701874535,24.125451701874535 0 0,0 -0.2890610512566809,-0.29660210347808535 l 2.2569405458269345 -2.1620979888415897" fill="#ff1802" stroke="none" /><line stroke="#e1ed5e" stroke-width="0.3" x1="26.387840678322732" x2="22.057713659400548" y1="142.50000000000003" y2="145.00000000000006" /><path d="M 25.521815274538298 143.00000000000003 a86.0,86.0 0 0,1 -11.493303480769221,-40.785679425670985" fill="none" id="id105" stroke="none" /><text fill="#e1ed5e" style="font-size:6.75px; font-family:Arial;" text-anchor="middle"><textPath startOffset="21.40746469413373" xlink:href="#id105">September</textPath></text><path d="M 81.29705330413844 109.54985784667822 l -2.413693402481791 1.2324490495535987 a23.710137727299056,23.710137727299056 0 0,0 -0.18198105031655862,-0.3640840049059002 l 2.4344943660100866 -1.1908331884839456" fill="#ff1201" stroke="none" /><path d="M 80.68587082218212 108.24405325689762 l -2.855565801717975 1.2188712383147813 a24.104819341528945,24.104819341528945 0 0,0 -0.15917692689462454,-0.3819666782215168 l 2.876068573149085 -1.1696720506519833" fill="#ff1702" stroke="none" /><line stroke="#e1ed5e" stroke-width="0.3" x1="15.003131293944662" x2="10.003315487706104" y1="100.72959589197737" y2="100.7725132973878" /><path d="M 14.003168132696942 100.73817937305945 a86.0,86.0 0 0,1 10.791469493833604,-42.45332614584628" fill="none" id="id106" stroke="none" /><text fill="#e1ed5e" style="font-size:6.75px; font-family:Arial;" text-anchor="middle"><textPath startOffset="22.145653131862435" xlink:href="#id106">October</textPath></text><path d="M 79.2786578344484 96.59031103205396 l -5.772280900316081 -0.9498266255365142 a26.849905760841956,26.849905760841956 0 0,0 0.07874077840941719,-0.4541558853179323 l 5.755125304414429 1.0487755437750392" fill="#ff3f05" stroke="none" /><path d="M 80.68587082218212 91.75594674310238 l -5.500846503711776 -2.3479842718822743 a26.9809984449425,26.9809984449425 0 0,0 0.1854829526096343,-0.4244212943658505 l 5.459729669085164 2.4420676360239915" fill="#ff4106" stroke="none" /><path d="M 80.83023694016515 91.42560881287825 l -3.548638505729513 -1.587260866753255 a24.887445472733024,24.887445472733024 0 0,0 0.17778587861823278,-0.38849423002349914 l 3.520868162256233 1.6479440789914255" fill="#ff2303" stroke="none" /><line stroke="#e1ed5e" stroke-width="0.3" x1="26.387840678322718" x2="22.05771365940052" y1="57.49999999999999" y2="54.99999999999999" /><path d="M 25.521815274538284 56.99999999999999 a86.0,86.0 0 0,1 29.574782752854787,-30.34633250058573" fill="none" id="id107" stroke="none" /><text fill="#e1ed5e" style="font-size:6.75px; font-family:Arial;" text-anchor="middle"><textPath startOffset="21.40746469413373" xlink:href="#id107">November</textPath></text><path d="M 82.98947788004972 87.6856937992154 l -1.2277599711267912 -0.8888035369466925 a22.51570652634018,22.51570652634018 0 0,0 0.22933638826798075,-0.3111388560141808 l 1.2123215632749917 0.9097487022297367" fill="#ff0000" stroke="none" /><path d="M 83.8745106332314 86.54754324733833 l -3.307130370090059 -2.7589257768966364 a25.30682977690049,25.30682977690049 0 0,0 0.2811533793976629,-0.33119797398032996 l 3.2592824271852816 2.815290533326523" fill="#ff2903" stroke="none" /><path d="M 87.83215693770416 82.88440491214696 l -2.375594488854317 -3.341571152421978 a25.0999447486733,25.0999447486733 0 0,0 0.35331747042738554,-0.24664303437588675 l 2.317881927253166 3.381859002602992" fill="#ff2603" stroke="none" /><line stroke="#e1ed5e" stroke-width="0.3" x1="56.869717070023135" x2="54.33264160355391" y1="26.7553504044142" y2="22.446841604673864" /><path d="M 56.362301976729285 25.89364864446614 a86.0,86.0 0 0,1 42.16139366436587,-11.88097634709845" fill="none" id="id108" stroke="none" /><text fill="#e1ed5e" style="font-size:6.75px; font-family:Arial;" text-anchor="middle"><textPath startOffset="22.145653131862474" xlink:href="#id108">December</textPath></text><path d="M 90.61103034731259 81.2157712731953 l -14.21297539675885 -28.43547168828568 a52.7896951819952,52.7896951819952 0 0,0 0.8140667490128344,-0.3982008403471915 l 13.722748398483962 28.675266278730085" fill="#7cff26" stroke="none" /><path d="M 92.93061703081487 80.22567764915836 l -1.692322002552947 -4.73372583516454 a26.02713775848932,26.02713775848932 0 0,0 0.4220042941407209,-0.14679499961280093 l 1.6108119363672218 4.762079267345927" fill="#ff3304" stroke="none" /><path d="M 98.1996594967304 79.07731436759882 l -0.43329052387022493 -5.03549267595276 a26.054100035382127,26.054100035382127 0 0,0 0.445935779330688,-0.034518249615170596 l 0.3467857497643198 5.042188692562984" fill="#ff3304" stroke="none" /></svg>