<?xml version="1.0" encoding="utf-8" ?>
<svg baseProfile="full" height="200mm" version="1.1" viewBox="0,0,200,200" width="200mm" xmlns="http://www.w3.org/2000/svg" xmlns:ev="http://www.w3.org/2001/xml-events" xmlns:xlink="http://www.w3.org/1999/xlink"><defs /><rect fill="#1a1a1a" height="200" width="200" x="0" y="0" /><rect fill="#1a1a1a" height="200" width="180" x="10" y="0" /><text alignment-baseline="middle" fill="#e1ed5e" style="dominant-baseline: central; font-size:9.0px; font-family:Arial;" text-anchor="middle" x="100.0" y="100.0">2022</text><line stroke="#e1ed5e" stroke-width="0.3" x1="100.0" x2="100.0" y1="15.0" y2="10.0" /><path d="M 100.0 14.0 a86.0,86.0 0 0,1 42.46469731375804,11.215312516191453" fill="none" id="id121" stroke="none" /><text fill="#e1ed5e" style="font-size:6.75px; font-family:Arial;" text-anchor="middle"><textPath startOffset="22.20632615414155" xlink:href="#id121">January</textPath></text><path d="M 102.52436894288641 79.15227682838746 l 1.0955939970863373 -9.048059485956147 a30.114148707797817,30.114148707797817 0 0,0 0.5140704178699999,0.06674109415930744 l -1.2511791434641832 9.027860068632702" fill="#ff730a" stroke="none" /><path d="M 104.307194497241 79.44645832069477 l 3.876823283153302 -18.499849260262877 a39.90169784493574,39.90169784493574 0 0,0 0.6710273767888834,0.146660594127911 l -4.1946933840957135 18.430375168039095" fill="#fff116" stroke="none" /><path d="M 106.0581310904928 79.89281104454417 l 0.5604645295573136 -1.8602050748497214 a22.942802977501465,22.942802977501465 0 0,0 0.3771519608975996,0.11718295013255774 l -0.5924018631656315 1.850281989834643" fill="#ff0e01" stroke="none" /><line stroke="#e1ed5e" stroke-width="0.3" x1="143.23703022742887" x2="145.7803849466894" y1="26.81831364943548" y2="22.513508569990506" /><path d="M 143.74570117128098 25.957352633546492 a86.0,86.0 0 0,1 28.547481713284135,27.462654790039103" fill="none" id="id122" stroke="none" /><text fill="#e1ed5e" style="font-size:6.75px; font-family:Arial;" text-anchor="middle"><textPath startOffset="19.985693538727396" xlink:href="#id122">February</textPath></text><path d="M 113.06298171725822 83.55741782278167 l 7.272718288697851 -9.154285805643159 a32.691594413002875,32.691594413002875 0 0,0 0.43759505166681795,0.35383809908521896 l -7.42921673892916 9.02774160929381" fill="#ff950d" stroke="none" /><path d="M 113.6212207817346 84.01681056812373 l 7.9325791326676045 -9.30811687090422 a33.22975271125485,33.22975271125485 0 0,0 0.4321548349942,0.37476041438251134 l -8.09162776630857 9.170191463102036" fill="#ff9c0e" stroke="none" /><path d="M 114.68862486808459 84.99185889309783 l 9.602418744438237 -9.811296617508633 a34.72836432574089,34.72836432574089 0 0,0 0.42362684090481506,0.4218076526218031 l -9.769881385510375 9.644553114236711" fill="#ffb010" stroke="none" /><path d="M 115.68641384162765 86.03803664274999 l 9.215008279603246 -8.201977152683995 a33.33648275669798,33.33648275669798 0 0,0 0.3778263874186135,0.43192087471458057 l -9.35482653059971 8.042140721766467" fill="#ff9e0e" stroke="none" /><path d="M 116.82858285166822 87.43820079747576 l 4.931892802607717 -3.68144172452354 a27.15439516016616,27.15439516016616 0 0,0 0.2763766419193592,0.3769774289796886 l -4.994532057040702 3.5960018518723578" fill="#ff4a06" stroke="none" /><path d="M 117.2510076193507 88.02491185347247 l 14.689447729712745 -10.196936623562847 a38.88176140957373,38.88176140957373 0 0,0 0.37692263593784736,0.5530874584283948 l -14.862794831319325 9.942571141864045" fill="#ffe515" stroke="none" /><line stroke="#e1ed5e" stroke-width="0.3" x1="172.23445277983987" x2="176.4835382374775" y1="55.19839476539836" y2="52.563006222186495" /><path d="M 173.08426987136738 54.67131705675599 a86.0,86.0 0 0,1 12.851231095245387,41.99856678651699" fill="none" id="id123" stroke="none" /><text fill="#e1ed5e" style="font-size:6.75px; font-family:Arial;" text-anchor="middle"><textPath startOffset="22.20632615414155" xlink:href="#id123">March</textPath></text><path d="M 118.21658344932153 89.55222093294921 l 11.10044010455172 -6.3664487955180205 a33.79654018790599,33.79654018790599 0 0,0 0.2850856592876546,0.5071355771600293 l -11.208383405131807 6.174429708423197" fill="#ffa40f" stroke="none" /><path d="M 118.73160827565052 90.50648371742162 l 11.155670434738042 -5.653894601935135 a33.50661852853439,33.50661852853439 0 0,0 0.25630965554280283,0.5167046253471089 l -11.251340103234252 5.461030388089076" fill="#ffa00e" stroke="none" /><path d="M 119.61058180528143 92.48833698450437 l 17.83202138623543 -6.830400896236418 a40.0954278067412,40.0954278067412 0 0,0 0.24132752842078242,0.6466377956692357 l -17.946953503157836 6.52243996353785" fill="#fff316" stroke="none" /><path d="M 119.85752413597 93.16781622104841 l 7.237319893978704 -2.4900737495847705 a28.65370933117734,28.65370933117734 0 0,0 0.1564529454947561,0.4677743933225459 l -7.279110133245229 2.3651262533399104" fill="#ff5f08" stroke="none" /><path d="M 120.18372546131832 94.20196356495316 l 8.836858049837884 -2.5385018758053657 a30.194240151662996,30.194240151662996 0 0,0 0.1392000904465372,0.5007767879370406 l -8.879244910850785 2.386013784449373" fill="#ff740a" stroke="none" /><path d="M 120.28053869075195 94.5502522615342 l 1.180058331747982 -0.3171030278221293 a22.221921436337784,22.221921436337784 0 0,0 0.09608723710997251,0.3702633210355816 l -1.185341900728257 0.2967432812376973" fill="#ff0400" stroke="none" /><path d="M 120.37134235888165 94.90015583598534 l 18.265203743261566 -4.572584912353549 a39.82886615183027,39.82886615183027 0 0,0 0.16077054535606117,0.666497703429236 l -18.341207088878445 4.257501977264908" fill="#fff016" stroke="none" /><path d="M 120.53481517161879 95.60439243477599 l 14.326452807262301 -3.0666681835764846 a35.65099668237196,35.65099668237196 0 0,0 0.12328573716218863,0.6011850384412073 l -14.377117840339487 2.8196074889718656" fill="#ffbc11" stroke="none" /><path d="M 120.6074358757038 95.95851677861258 l 3.0432866424263474 -0.5968424202517876 a24.10126014106889,24.10126014106889 0 0,0 0.07633704148301713,0.40779552804283353 l -3.053109407819224 0.5443688147463912" fill="#ff1f03" stroke="none" /><path d="M 120.83666639777658 97.38593545837742 l 3.030956831722076 -0.3802487705921538 a24.054715771278822,24.054715771278822 0 0,0 0.04800593555110942,0.4112855390711229 l -3.037053120276774 0.3280194931961782" fill="#ff1e03" stroke="none" /><path d="M 120.91429891909075 98.10471618934814 l 9.967191964725007 -0.9032412533397949 a31.00803479327553,31.00803479327553 0 0,0 0.043596582524501264,0.5319887328930692 l -9.981263031069004 0.7315386032389569" fill="#ff7f0b" stroke="none" /><path d="M 120.94382443527127 98.46500227214037 l 13.555534042194752 -0.9935011639827735 a34.59189272073378,34.59189272073378 0 0,0 0.038412499727912996,0.5942243690160058 l -13.570627132927081 0.7600177307137324" fill="#ffae10" stroke="none" /><path d="M 120.98425023603335 99.18683210126433 l 7.171876050867224 -0.2779198357185991 a28.177258914382893,28.177258914382893 0 0,0 0.014609647831533325,0.4848230861667429 l -7.175597393154403 0.15442660212685708" fill="#ff5808" stroke="none" /><line stroke="#e1ed5e" stroke-width="0.3" x1="184.98032266829074" x2="189.97916517819016" y1="98.17113171792111" y2="98.06355123074" /><path d="M 185.9800911702706 98.14961562048488 a86.0,86.0 0 0,1 -9.607161424134198,41.387399972396054" fill="none" id="id124" stroke="none" /><text fill="#e1ed5e" style="font-size:6.75px; font-family:Arial;" text-anchor="middle"><textPath startOffset="21.466115282336823" xlink:href="#id124">April</textPath></text><path d="M 120.8583938346157 102.4346265915055 l 34.94247633808271 4.07854424172232 a56.179698346761825,56.179698346761825 0 0,0 -0.12038103031293446,0.9595552555463457 l -34.86709379852293 -4.67941725155606" fill="#56ff2a" stroke="none" /><path d="M 120.70491114924044 103.5080841355445 l 22.227315806883716 3.7660289095578556 a43.54410214948842,43.54410214948842 0 0,0 -0.13157277126337238,0.7379299748171567 l -22.159196593281155 -4.148077635108231" fill="#e1ff1b" stroke="none" /><path d="M 120.5718875245553 104.21870165774334 l 20.600449235189068 4.224558842012639 a42.02915609579303,42.02915609579303 0 0,0 -0.15143697607564818,0.7074631362601673 l -20.524678220388978 -4.578535797688976" fill="#f3ff19" stroke="none" /><path d="M 120.32669344350535 105.2749913415812 l 38.0721591983151 9.880126872803379 a60.33327106972595,60.33327106972595 0 0,0 -0.2695228676020948,1.002994855315177 l -37.89644825437123 -10.534012661294105" fill="#30ff32" stroke="none" /><path d="M 119.67450827220406 107.3425965602758 l 7.637289883456124 2.8502637856174426 a29.151821907496725,29.151821907496725 0 0,0 -0.17949987299574552,0.46861752665943623 l -7.587095730866872 -2.9813048791100227" fill="#ff6609" stroke="none" /><path d="M 119.54520255179757 107.68017299344265 l 20.709610350535648 8.137720225584262 a43.25107753213081,43.25107753213081 0 0,0 -0.2782432145305572,0.6905768399049022 l -20.566464521747697 -8.492996433331978" fill="#e4ff1a" stroke="none" /><line stroke="#e1ed5e" stroke-width="0.3" x1="174.80103733775053" x2="179.2010983576182" y1="140.37084112569926" y2="142.7455964860345" /><path d="M 175.68104954172406 140.8457921977663 a86.0,86.0 0 0,1 -30.038265399797805,32.042727171017184" fill="none" id="id125" stroke="none" /><text fill="#e1ed5e" style="font-size:6.75px; font-family:Arial;" text-anchor="middle"><textPath startOffset="22.206326154141568" xlink:href="#id125">May</textPath></text><path d="M 118.30583269289576 110.29060199501025 l 8.61434138643191 4.8425417266769895 a30.882160082522514,30.882160082522514 0 0,0 -0.26448070692115905,0.46114440566217135 l -8.52970868335837 -4.990105978197476" fill="#ff7d0b" stroke="none" /><path d="M 116.498646956653 112.99209946851258 l 3.87262143695527 3.0495520659970414 a25.929195126711086,25.929195126711086 0 0,0 -0.27914888442780705,0.3482811544268415 l -3.819554640472609 -3.115761054002133" fill="#ff3905" stroke="none" /><path d="M 115.80600337817218 113.82643327865902 l 4.060806348960663 3.5522242212725885 a26.395224288382725,26.395224288382725 0 0,0 -0.30208850329809644,0.33939963587364724 l -3.999058996014228 -3.621598026887102" fill="#ff3f05" stroke="none" /><path d="M 115.56566222782051 114.09645910891815 l 0.9370902733490104 0.8486407148177507 a22.264250466977057,22.264250466977057 0 0,0 -0.25970038691280734,0.28185347854450693 l -0.922343478440481 -0.8646454481635925" fill="#ff0400" stroke="none" /><path d="M 114.81725581225074 114.88116024355365 l 5.746297785015825 5.77108063932445 a29.144035239343165,29.144035239343165 0 0,0 -0.35854109009742086,0.3509079195566121 l -5.64610674254261 -5.869138661803634" fill="#ff6509" stroke="none" /><path d="M 113.75828350139079 115.86535959552629 l 5.335117818985604 6.152189164742107 a29.143274136440937,29.143274136440937 0 0,0 -0.38182480192924484,0.32539937971627675 l -5.228427540479312 -6.2431129346813306" fill="#ff6509" stroke="none" /><path d="M 112.92097659922987 116.55440617244103 l 3.763758114297403 4.82214173831207 a27.11710111795701,27.11710111795701 0 0,0 -0.37043415606089664,0.28403311474474024 l -3.6801952297430125 -4.8862141948841815" fill="#ff4906" stroke="none" /><path d="M 111.45004920935366 117.60387380957326 l 8.793831877645733 13.520073481449835 a37.12835596197273,37.12835596197273 0 0,0 -0.5387469391282113,0.34385378648081943 l -8.559803136470592 -13.669441696754463" fill="#ffcf13" stroke="none" /><line stroke="#e1ed5e" stroke-width="0.3" x1="143.8653032363475" x2="146.44561519142675" y1="172.8068346515853" y2="177.08958963109032" /><path d="M 144.38136562736335 173.6633856474863 a86.0,86.0 0 0,1 -40.68145358897372,12.25698825130547" fill="none" id="id126" stroke="none" /><text fill="#e1ed5e" style="font-size:6.75px; font-family:Arial;" text-anchor="middle"><textPath startOffset="21.466115282336833" xlink:href="#id126">June</textPath></text><path d="M 109.57404056367764 118.69057910512821 l 2.6784305345656687 5.228870449308039 a26.87495330229446,26.87495330229446 0 0,0 -0.41354934004022603,0.20736222423964062 l -2.5880272868426824 -5.274200514456982" fill="#ff4606" stroke="none" /><path d="M 107.93186726928326 119.44442032107085 l 4.06265779041917 9.959322693598414 a31.756081853411025,31.756081853411025 0 0,0 -0.5079142191452435,0.20210954995274075 l -3.89062249523206 -10.027779087957224" fill="#ff890c" stroke="none" /><path d="M 106.2309692047433 120.05430185196036 l 2.4886354464064393 8.009644214535783 a29.3873539825476,29.3873539825476 0 0,0 -0.4843666023020396,0.14593568395377915 l -2.350393869664154 -8.051295267595288" fill="#ff6909" stroke="none" /><path d="M 104.13013068566511 120.58985236759428 l 1.8263815797414384 9.105021113324412 a30.286392149209625,30.286392149209625 0 0,0 -0.5120309547976523,0.09813195113091346 l -1.6693830103720817 -9.135110262803794" fill="#ff750a" stroke="none" /><path d="M 101.98527174616119 120.90594882070398 l 0.09172244383000158 0.9658852598530947 a21.970230561208844,21.970230561208844 0 0,0 -0.37679539891180014,0.032511492490463104 l -0.07508272717665977 -0.9673210046222211" fill="#ff0000" stroke="none" /><path d="M 100.90346689309514 120.98055641714683 l 0.5273804431193364 12.246973546821406 a33.25832334327693,33.25832334327693 0 0,0 -0.5721693029214187,0.01970666768431168 l -0.3164907885232655 -12.254237012931812" fill="#ff9d0e" stroke="none" /><line stroke="#e1ed5e" stroke-width="0.3" x1="102.19456741930631" x2="102.32365962044197" y1="184.97166512339345" y2="189.96999836594603" /><path d="M 102.22038585953345 185.97133177190398 a86.0,86.0 0 0,1 -42.740103519485714,-10.115201625700543" fill="none" id="id127" stroke="none" /><text fill="#e1ed5e" style="font-size:6.75px; font-family:Arial;" text-anchor="middle"><textPath startOffset="22.20632615414155" xlink:href="#id127">July</textPath></text><path d="M 100.18074693466247 120.99922214144158 l 0.09113537696130085 10.588129913949926 a31.588522122166772,31.588522122166772 0 0,0 -0.5437646232475053,0.0 l 0.09113537696129356 -10.588129913949926" fill="#ff870c" stroke="none" /><path d="M 98.73552117531835 120.96189622390904 l -0.8727086031964635 14.467325839578669 a35.493624020742146,35.493624020742146 0 0,0 -0.6095391703233857,-0.0420373899291621 l 1.1216105342987792 -14.450160105133222" fill="#ffba11" stroke="none" /><path d="M 98.37488393609728 120.93702456842531 l -1.0326412177667943 13.303932578717184 a34.34394881373888,34.34394881373888 0 0,0 -0.5890080150696047,-0.050822089956678404 l 1.2614935505779405 -13.284186236481842" fill="#ffab0f" stroke="none" /><path d="M 97.65516085044442 120.86867818915974 l -1.9975030272934984 17.777444506741958 a38.88931389221891,38.88931389221891 0 0,0 -0.6645861091554287,-0.08047212254382516 l 2.3032165595003162 -17.740426855472784" fill="#ffe515" stroke="none" /><path d="M 96.93821686468263 120.77559828337769 l -0.3591613571652776 2.4370740008681597 a23.46339736262511,23.46339736262511 0 0,0 -0.3990611455158188,-0.06232514382260395 l 0.40105836628961344 -2.43053054969845" fill="#ff1602" stroke="none" /><path d="M 94.46302465271185 120.25689768951611 l -4.466118850545208 16.339193684332187 a37.93857927458251,37.93857927458251 0 0,0 -0.6284594883818819,-0.1776089289288748 l 4.746709507031704 -16.259895962064792" fill="#ffd914" stroke="none" /><path d="M 93.76903079525671 120.05430185196036 l -2.255579930917193 7.259557750887789 a28.601895787448772,28.601895787448772 0 0,0 -0.4689058195024744,-0.1501288358469623 l 2.380207095510608 -7.21965606838112" fill="#ff5e08" stroke="none" /><path d="M 93.42475214034765 119.94407469862007 l -2.5724105966075292 7.802648689349173 a29.215754551283837,29.215754551283837 0 0,0 -0.4762589075229265,-0.16157287948112725 l 2.7063392370676813 -7.757212822969922" fill="#ff6609" stroke="none" /><path d="M 92.06813273071674 119.44442032107085 l -2.3186818998394902 5.684087229489428 a27.138821823859043,27.138821823859043 0 0,0 -0.43102722066048216,-0.18016941319342483 l 2.4161805799974347 -5.64333277327603" fill="#ff4a06" stroke="none" /><path d="M 91.40352486487194 119.15986991738527 l -3.1583999433573577 7.039458744494183 a28.715534305389056,28.715534305389056 0 0,0 -0.44923676371232807,-0.20622256454848165 l 3.279104702837105 -6.984049109611628" fill="#ff6008" stroke="none" /><line stroke="#e1ed5e" stroke-width="0.3" x1="58.666819895761336" x2="56.23545636021788" y1="174.27360380694188" y2="178.64263932499728" /><path d="M 58.180547188652646 175.14741091055294 a86.0,86.0 0 0,1 -31.652253787137756,-30.449443065178592" fill="none" id="id128" stroke="none" /><text fill="#e1ed5e" style="font-size:6.75px; font-family:Arial;" text-anchor="middle"><textPath startOffset="22.20632615414155" xlink:href="#id128">August</textPath></text><path d="M 89.7882731507175 118.34994917583269 l -3.9948979200563657 7.178626580755513 a29.215344726644176,29.215344726644176 0 0,0 -0.43732760188774294,-0.24832602590116407 l 4.117874288865316 -7.108797389059716" fill="#ff6609" stroke="none" /><path d="M 89.4739219176387 118.17145234162733 l -3.65077572231218 6.302432542195622 a28.283462042432184,28.283462042432184 0 0,0 -0.41917724315019583,-0.2476573038494273 l 3.7587208364907583 -6.238656666052446" fill="#ff5a08" stroke="none" /><path d="M 88.24862548938628 117.40417183066458 l -17.56828687430931 26.01921020002622 a52.3949677994926,52.3949677994926 0 0,0 -0.7431181161659154,-0.5111234164116666 l 18.013561875098116 -25.71294599424945" fill="#7eff26" stroke="none" /><path d="M 86.24171649860922 115.8653595955263 l -29.08916692269435 33.54416221443484 a65.4003429144944,65.4003429144944 0 0,0 -0.844155384262151,-0.7448689783477963 l 29.662264659863087 -33.03847009431476" fill="#36ff6e" stroke="none" /><path d="M 85.70375840098266 115.38237550388516 l -1.2022410203595266 1.293579343441946 a22.765992918676293,22.765992918676293 0 0,0 -0.2847528825832704,-0.2692516238612669 l 1.2243297373336142 -1.2726930828347485" fill="#ff0c01" stroke="none" /><path d="M 84.9287848128048 114.62390073753433 l -14.051285226912007 13.63424235145468 a40.578845242409884,40.578845242409884 0 0,0 -0.48210266859944884,-0.5054827206054523 l 14.283894446890415 -13.390352514266729" fill="#fff917" stroke="none" /><path d="M 83.50135304334701 112.99209946851258 l -5.735544017432567 4.516537542520583 a28.30038194541247,28.30038194541247 0 0,0 -0.2980881693547665,-0.3853191415806392 l 5.812439004005403 -4.417140406826691" fill="#ff5a08" stroke="none" /><path d="M 83.28015986056508 112.70617746262583 l -16.398019691910154 12.461611265625729 a41.595795812540075,41.595795812540075 0 0,0 -0.42831534272921673,-0.573798395878739 l 16.61009630133446 -12.177499990237681" fill="#f8ff18" stroke="none" /><path d="M 82.85270091963577 112.12312394758628 l -51.44189724109269 36.36937184275885 a84.0,84.0 0 0,0 -0.8245563713514645,-1.1878349512519497 l 52.06031451960629 -35.47849562931989" fill="#4dd2ff" stroke="none" /><path d="M 82.05923443525364 110.91462005526583 l -14.11142822153361 8.584966840982876 a37.51768936965067,37.51768936965067 0 0,0 -0.33090445575583105,-0.5546149014355076 l 14.257113552987672 -8.340789845661256" fill="#ffd313" stroke="none" /><line stroke="#e1ed5e" stroke-width="0.3" x1="26.63291911575756" x2="22.317208475507996" y1="142.92168965132927" y2="145.44649492493687" /><path d="M 25.769776987707644 143.4266507060508 a86.0,86.0 0 0,1 -11.730757126820373,-40.83630448921669" fill="none" id="id129" stroke="none" /><text fill="#e1ed5e" style="font-size:6.75px; font-family:Arial;" text-anchor="middle"><textPath startOffset="21.46611528233685" xlink:href="#id129">September</textPath></text><path d="M 81.69416730710424 110.29060199501025 l -11.64644747232871 6.547036543169086 a34.36051743845661,34.36051743845661 0 0,0 -0.2853945154628277,-0.5180739440057665 l 11.757418397243054 -6.345592080765497" fill="#ffab0f" stroke="none" /><path d="M 81.35079622478065 109.6543875284942 l -28.006612954869965 14.49856509081339 a52.536942763946584,52.536942763946584 0 0,0 -0.40884081294509145,-0.8066817106786512 l 28.252032437601326 -14.014329168432054" fill="#7cff26" stroke="none" /><path d="M 80.73074385275274 108.34839909993369 l -13.748865944868808 5.956691799732441 a35.98377428977669,35.98377428977669 0 0,0 -0.2413466334148834,-0.5704721487497992 l 13.849363559475997 -5.719145125316484" fill="#ffc011" stroke="none" /><path d="M 80.20201598880116 107.00284435728193 l -10.041616530077205 3.5518706155062696 a31.651283838412,31.651283838412 0 0,0 -0.17726100913407894,-0.5152034665827523 l 10.10126837015451 -3.3784944458342205" fill="#ff870c" stroke="none" /><path d="M 79.97269907076064 106.31721596034903 l -18.09408487254978 5.707421192133787 a39.97289023948256,39.97289023948256 0 0,0 -0.2013362672803938,-0.6579785707107921 l 18.1896479123363 -5.395115648870947" fill="#fff216" stroke="none" /><path d="M 79.58551787078972 104.9243191809786 l -17.133219372525236 4.132822976063609 a38.624625721375004,38.624625721375004 0 0,0 -0.15034071655282455,-0.6476638721274559 l 17.201820655008618 -3.8372904465875783" fill="#ffe115" stroke="none" /><path d="M 79.29508885075956 103.50808413554451 l -14.557280208023075 2.466475870692894 a35.76475229306644,35.76475229306644 0 0,0 -0.0976177551019796,-0.6078658542034607 l 14.597579717486344 -2.21553078679622" fill="#ffbd11" stroke="none" /><path d="M 79.18660465613746 102.79330883721812 l -32.53525542753835 4.366467604416633 a53.82695363684519,53.82695363684519 0 0,0 -0.11533960359513871,-0.9193701243014843 l 32.60559654038034 -3.80577972582774" fill="#6fff28" stroke="none" /><path d="M 79.1416061653843 102.43462659150553 l -2.223193439156912 0.25949485410758033 a23.238286542697036,23.238286542697036 0 0,0 -0.042955085745075096,-0.39771074554955643 l 2.2273308264030387 -0.2211877866732418" fill="#ff1202" stroke="none" /><path d="M 79.0235259727143 100.99374915477108 l -11.619372424821755 0.5504615080264333 a32.63240402576041,32.63240402576041 0 0,0 -0.02175162172850154,-0.561312705654129 l 11.627126179401458 -0.35037155535830755" fill="#ff940d" stroke="none" /><path d="M 79.0095281055655 100.63252640178507 l -8.66848144986113 0.26121582249302033 a29.67241629262037,29.67241629262037 0 0,0 -0.010990009233731652,-0.5106625446794243 l 8.671693521779869 -0.11196346202346719" fill="#ff6d0a" stroke="none" /><line stroke="#e1ed5e" stroke-width="0.3" x1="15.007084014347285" x2="10.007500721073583" y1="101.09737516637583" y2="101.16192664675087" /><path d="M 14.007167355692545 101.11028546245083 a86.0,86.0 0 0,1 10.666146001902534,-42.60595125391555" fill="none" id="id130" stroke="none" /><text fill="#e1ed5e" style="font-size:6.75px; font-family:Arial;" text-anchor="middle"><textPath startOffset="22.20632615414155" xlink:href="#id130">October</textPath></text><path d="M 79.00019446554 99.90962569577889 l -28.966722753031224 -0.12466055507397379 a49.96699099500962,49.96699099500962 0 0,0 0.011104551967756239,-0.8600597875483275 l 28.960285193945754 0.6232566006827732" fill="#98ff23" stroke="none" /><path d="M 79.01574976396665 99.18683210126434 l -17.595793976133557 -0.6818606646992931 a38.60900052861042,38.60900052861042 0 0,0 0.031450508988355316,-0.6638705369175045 l 17.581449858911704 0.9846423082398067" fill="#ffe115" stroke="none" /><path d="M 79.03285615573316 98.82574320788736 l -6.722742931914599 -0.37650462113782607 a27.73327767571974,27.73327767571974 0 0,0 0.030796364043251718,-0.4764061209557237 l 6.7152659768669345 0.49216980634656154" fill="#ff5207" stroke="none" /><path d="M 79.12142395522702 97.74499172005258 l -11.072647708865553 -1.1959106890665436 a32.137043129164454,32.137043129164454 0 0,0 0.06413581585960575,-0.5494765032024036 l 11.050421540002358 1.386330930593809" fill="#ff8e0d" stroke="none" /><path d="M 79.32604984820605 96.31383870115002 l -9.21667741189625 -1.6433317934051777 a30.362034068415625,30.362034068415625 0 0,0 0.09616708174689449,-0.5137283960636336 l 9.187024606239493 1.801738266931384" fill="#ff760a" stroke="none" /><path d="M 79.46518482838121 95.60439243477599 l -16.263889633039227 -3.4813888371277653 a37.63232317600156,37.63232317600156 0 0,0 0.14104166971926813,-0.6322621498592554 l 16.201553576317924 3.76082915653698" fill="#ffd513" stroke="none" /><path d="M 79.54389044137918 95.25157060432595 l -17.278280968959926 -4.01076739565802 a38.73767877554434,38.73767877554434 0 0,0 0.15636593115233158,-0.6482377339505054 l 17.20668223754678 4.307590361267922" fill="#ffe315" stroke="none" /><path d="M 79.71946130924805 94.55025226153421 l -16.258977243660826 -4.369081404322499 a37.83577183640469,37.83577183640469 0 0,0 0.17442872664746062,-0.6275129360495081 l 16.181361746447006 4.648305643790949" fill="#ffd714" stroke="none" /><path d="M 79.81627453868168 94.20196356495316 l -8.487417209237963 -2.438120470520466 a29.830667149906606,29.830667149906606 0 0,0 0.14601984134447255,-0.4923063146620476 l 8.444191470781783 2.5838561719290527" fill="#ff6f0a" stroke="none" /><path d="M 80.2630227832202 92.82701384747504 l -10.928823580001453 -3.971849353714194 a32.628188686609604,32.628188686609604 0 0,0 0.19638349216621714,-0.5262101232759845 l 10.858835499333606 4.1593826140195205" fill="#ff940d" stroke="none" /><path d="M 80.65960295795068 91.81776055985345 l -13.167041949522874 -5.570510766413629 a35.296908193704866,35.296908193704866 0 0,0 0.241547315298352,-0.5575245067285799 l 13.069203924381842 5.796334417728809" fill="#ffb711" stroke="none" /><path d="M 81.26839172434947 90.50648371742162 l -31.017264324340797 -15.72010793579018 a55.773445036103595,55.773445036103595 0 0,0 0.44138192596015624,-0.8526093919096733 l 30.742072965220526 16.25169004996019" fill="#5aff2a" stroke="none" /><line stroke="#e1ed5e" stroke-width="0.3" x1="26.266209847984243" x2="21.928928074336255" y1="57.711370442889674" y2="55.22380399835377" /><path d="M 25.398753493254645 57.213857153982495 a86.0,86.0 0 0,1 29.58750427330803,-30.492523968695096" fill="none" id="id131" stroke="none" /><text fill="#e1ed5e" style="font-size:6.75px; font-family:Arial;" text-anchor="middle"><textPath startOffset="21.46611528233685" xlink:href="#id131">November</textPath></text><path d="M 82.54541684631803 88.32363383020206 l -2.710037052640728 -1.8128983477716614 a24.260506286765732,24.260506286765732 0 0,0 0.23518312049881987,-0.3451022092591983 l 2.678429466473168 1.8592785803012755" fill="#ff2103" stroke="none" /><path d="M 84.07557802195018 86.31012108654704 l -7.124412981977657 -6.124702748215592 a30.39517131785107,30.39517131785107 0 0,0 0.3444903848378055,-0.3938120610539888 l 7.017930733562008 6.2464303654725235" fill="#ff760a" stroke="none" /><path d="M 84.5562425177563 85.77008943001954 l -12.403702324450673 -11.42879736466498 a37.866215952493796,37.866215952493796 0 0,0 0.4457983798466707,-0.47554662922727947 l 12.205136622633548 11.640613410770309" fill="#ffd814" stroke="none" /><path d="M 85.83668400450813 84.49514656593479 l -12.31338609951263 -13.47969972644595 a39.2571022331261,39.2571022331261 0 0,0 0.5028442456920273,-0.45145852867360536 l 12.079530866224633 13.689657263888835" fill="#ffe915" stroke="none" /><path d="M 87.51073957382395 83.11751280151077 l -4.621259645607453 -6.246835612807407 a28.770392260726535,28.770392260726535 0 0,0 0.40066837938039934,-0.2911026172468472 l 4.5130459498732725 6.325457464870922" fill="#ff6008" stroke="none" /><line stroke="#e1ed5e" stroke-width="0.3" x1="56.762969772571076" x2="54.21961505331055" y1="26.818313649435495" y2="22.513508569990535" /><path d="M 56.25429882871897 25.957352633546506 a86.0,86.0 0 0,1 42.265352541879196,-11.944610805530505" fill="none" id="id132" stroke="none" /><text fill="#e1ed5e" style="font-size:6.75px; font-family:Arial;" text-anchor="middle"><textPath startOffset="22.20632615414155" xlink:href="#id132">December</textPath></text><path d="M 90.91171255644093 81.06846463323043 l -5.684227308749853 -11.840641154524661 a34.13435278374084,34.13435278374084 0 0,0 0.5318811416202793,-0.2497253277381966 l 5.479567955829965 11.936731464902865" fill="#ffa80f" stroke="none" /><path d="M 92.23578459929587 80.48803036053334 l -4.932481427858184 -12.395641143453313 a34.34096294850707,34.34096294850707 0 0,0 0.5511182211318684,-0.21382530766388283 l 4.718380041726639 12.478709155007747" fill="#ffab0f" stroke="none" /><path d="M 95.33964822691252 79.52364482259891 l -1.4630300567530263 -6.42816777271759 a27.592556246340852,27.592556246340852 0 0,0 0.46402438083802305,-0.10141775691657388 l 1.3521629517614824 6.452399027730032" fill="#ff5007" stroke="none" /><path d="M 99.63851952072746 79.00311137660856 l -0.16456134528671687 -9.558680030673315 a30.56009646212607,30.56009646212607 0 0,0 0.5260418245592502,-0.0045278080613124615 l 2.341548306376525e-15 9.560096462126069" fill="#ff790b" stroke="none" /></svg>