<?xml version="1.0" encoding="utf-8" ?>
<svg baseProfile="full" height="200mm" version="1.1" viewBox="0,0,200,200" width="200mm" xmlns="http://www.w3.org/2000/svg" xmlns:ev="http://www.w3.org/2001/xml-events" xmlns:xlink="http://www.w3.org/1999/xlink"><defs /><rect fill="#1a1a1a" height="200" width="200" x="0" y="0" /><rect fill="#1a1a1a" height="200" width="180" x="10" y="0" /><text alignment-baseline="middle" fill="#e1ed5e" style="dominant-baseline: central; font-size:9.0px; font-family:Arial;" text-anchor="middle" x="100.0" y="100.0">2015</text><line stroke="#e1ed5e" stroke-width="0.3" x1="100.0" x2="100.0" y1="15.0" y2="10.0" /><path d="M 100.0 14.0 a86.0,86.0 0 0,1 42.46469731375804,11.215312516191453" fill="none" id="id37" stroke="none" /><text fill="#e1ed5e" style="font-size:6.75px; font-family:Arial;" text-anchor="middle"><textPath startOffset="22.20632615414155" xlink:href="#id37">January</textPath></text><path d="M 102.16513564639614 79.11191278185805 l 4.28323175929109 -41.32236181714905 a62.543755974287855,62.543755974287855 0 0,0 1.0698952206441306,0.12021519410807346 l -4.993893683444946 41.24251066957038" fill="#32ff4d" stroke="none" /><path d="M 103.2404852339499 79.25152402106235 l 0.7065319356575167 -4.523847460176061 a25.578687936412063,25.578687936412063 0 0,0 0.43443671105743176,0.07168577972185668 l -0.7842978528538236 4.51101541751458" fill="#ff3605" stroke="none" /><path d="M 103.95276090670814 79.375362276772 l 4.362260685886265 -22.76131757627903 a44.17556679133992,44.17556679133992 0 0,0 0.7455859405561632,0.14955752556720572 l -4.753413035909554 22.682856094634616" fill="#d9ff1c" stroke="none" /><path d="M 104.307194497241 79.44645832069477 l 2.9478315101605532 -14.066784735740258 a35.37233952472424,35.37233952472424 0 0,0 0.5948570984222907,0.13001272152755433 l -3.189531332736372 14.013958516116833" fill="#ffba11" stroke="none" /><path d="M 105.01212808612495 79.60689891045804 l 14.96134643588953 -60.87399305444389 a83.68560375051985,83.68560375051985 0 0,0 1.3959201494682967,0.35585112755813225 l -16.006975474042854 60.607438930716896" fill="#4dd5ff" stroke="none" /><path d="M 107.76421540070413 80.48803036053334 l 1.2062156177881933 -3.031296956392954 a24.262471050359427,24.262471050359427 0 0,0 0.38671621067619427,0.15775125220060182 l -1.258215698052775 3.010084818008773" fill="#ff2303" stroke="none" /><line stroke="#e1ed5e" stroke-width="0.3" x1="143.23703022742887" x2="145.7803849466894" y1="26.81831364943548" y2="22.513508569990506" /><path d="M 143.74570117128098 25.957352633546492 a86.0,86.0 0 0,1 28.547481713284135,27.462654790039103" fill="none" id="id38" stroke="none" /><text fill="#e1ed5e" style="font-size:6.75px; font-family:Arial;" text-anchor="middle"><textPath startOffset="19.985693538727396" xlink:href="#id38">February</textPath></text><path d="M 110.99172775467656 82.1063720568725 l 1.002374500587245 -1.6317831712630686 a22.91506421757728,22.91506421757728 0 0,0 0.33432079992501657,0.20935165424239624 l -1.030314452884525 1.6142871756977282" fill="#ff1001" stroke="none" /><path d="M 111.60114157652 82.49532879139004 l 5.417250986648795 -8.173953981195215 a30.806127265085053,30.806127265085053 0 0,0 0.4394938624825771,0.2967482178065645 l -5.557149543537913 8.07949385108998" fill="#ff7e0b" stroke="none" /><path d="M 111.90073688211348 82.69761687909136 l 4.422388096295097 -6.429673549580625 a28.803731058181675,28.803731058181675 0 0,0 0.40608989667308804,0.2844919241151459 l -4.5324091325518365 6.352596782701544" fill="#ff6209" stroke="none" /><path d="M 114.42810811169701 84.74124197986012 l 13.423223406904473 -14.196020450538626 a40.53739806790502,40.53739806790502 0 0,0 0.50288911700204,0.4837789321174373 l -13.66559576751893 13.962858431658885" fill="#fffa17" stroke="none" /><path d="M 114.94478906791727 85.2469230424477 l 8.625579427169448 -8.514930288691259 a33.120423188803294,33.120423188803294 0 0,0 0.39702829132847706,0.40917255398608715 l -8.770871982201033 8.365193539155056" fill="#ff9c0e" stroke="none" /><path d="M 115.9244219780498 86.31012108654704 l 6.3102300604743204 -5.424767414666547 a29.32148453819039,29.32148453819039 0 0,0 0.3257329114076864,0.38556502565760975 l -6.402673585369124 5.315343439379832" fill="#ff6a09" stroke="none" /><path d="M 117.2510076193507 88.02491185347247 l 6.297845900304368 -4.371759693897256 a28.666495014357288,28.666495014357288 0 0,0 0.2778950971405893,0.4077767645998975 l -6.37216546311369 4.2627049060269515" fill="#ff6108" stroke="none" /><line stroke="#e1ed5e" stroke-width="0.3" x1="172.23445277983987" x2="176.4835382374775" y1="55.19839476539836" y2="52.563006222186495" /><path d="M 173.08426987136738 54.67131705675599 a86.0,86.0 0 0,1 12.851231095245387,41.99856678651699" fill="none" id="id39" stroke="none" /><text fill="#e1ed5e" style="font-size:6.75px; font-family:Arial;" text-anchor="middle"><textPath startOffset="22.20632615414155" xlink:href="#id39">March</textPath></text><path d="M 117.84615892207809 88.93136811851018 l 3.101175156233268 -1.9234260074812042 a24.649226624353922,24.649226624353922 0 0,0 0.22053334605612818,0.3624988355772627 l -3.1338243005756206 1.86975939869686" fill="#ff2903" stroke="none" /><path d="M 118.03404312379186 89.2402003453031 l 1.6178033310841393 -0.9652433236228476 a22.883874277085766,22.883874277085766 0 0,0 0.19891570761520663,0.34001142378837523 l -1.6341787131696732 0.937252487480577" fill="#ff0f01" stroke="none" /><path d="M 118.56541770881063 90.18545643968196 l 3.909999039753255 -2.0670074058311334 a25.422738078004635,25.422738078004635 0 0,0 0.2011913929431183,0.3886377332319096 l -3.9449998658564898 1.9993969503388789" fill="#ff3304" stroke="none" /><path d="M 119.47837535516314 92.15188598940014 l 4.351071814600646 -1.7531086164350926 a25.69097172841951,25.69097172841951 0 0,0 0.1617386748716161,0.4116072858676673 l -4.380604039353962 1.6779523256716409" fill="#ff3705" stroke="none" /><path d="M 119.7369772167798 92.82701384747503 l 9.57397973258974 -3.479460065852244 a31.186644701269383,31.186644701269383 0 0,0 0.1790216161246239,0.5061182160944023 l -9.632454429524174 3.314144223331227" fill="#ff830c" stroke="none" /><path d="M 119.85752413597 93.16781622104841 l 3.4388982748708785 -1.1831880374491466 a24.636750648157317,24.636750648157317 0 0,0 0.13451983342799123,0.4021971799421163 l -3.45875540207064 1.123817754584716" fill="#ff2803" stroke="none" /><path d="M 119.97218684219823 93.5106431181261 l 13.84095500536692 -4.497198895917145 a35.55324133552488,35.55324133552488 0 0,0 0.1841057156906604,0.5836654301630266 l -13.916316204825787 4.258283299327699" fill="#ffbc11" stroke="none" /><path d="M 120.28053869075195 94.5502522615342 l 3.024188679187793 -0.8126542231648416 a24.131473144345208,24.131473144345208 0 0,0 0.10434410851808693,0.4020804147608719 l -3.037729119576183 0.7604773828551193" fill="#ff2103" stroke="none" /><path d="M 120.53481517161879 95.60439243477599 l 2.519222594934805 -0.5392555912596396 a23.576291729508682,23.576291729508682 0 0,0 0.08152985262430266,0.39756851613391636 l -2.5281317434741046 0.4958114189623115" fill="#ff1902" stroke="none" /><line stroke="#e1ed5e" stroke-width="0.3" x1="184.98032266829074" x2="189.97916517819016" y1="98.17113171792111" y2="98.06355123074" /><path d="M 185.9800911702706 98.14961562048488 a86.0,86.0 0 0,1 -9.607161424134198,41.387399972396054" fill="none" id="id40" stroke="none" /><text fill="#e1ed5e" style="font-size:6.75px; font-family:Arial;" text-anchor="middle"><textPath startOffset="21.466115282336823" xlink:href="#id40">April</textPath></text><path d="M 120.23288151984713 105.62410040840565 l 3.7923881336584944 1.0541638189508196 a24.936174426203536,24.936174426203536 0 0,0 -0.11851494360131705,0.4125660663761066 l -3.773680553171078 -1.1192873608315081" fill="#ff2d04" stroke="none" /><path d="M 119.9155931802556 106.66101706037122 l 2.4373401559296535 0.8151986342375624 a23.57005366655445,23.57005366655445 0 0,0 -0.13200259173080597,0.3836613206132587 l -2.4229467332556167 -0.8570326579401215" fill="#ff1902" stroke="none" /><line stroke="#e1ed5e" stroke-width="0.3" x1="174.80103733775053" x2="179.2010983576182" y1="140.37084112569926" y2="142.7455964860345" /><path d="M 175.68104954172406 140.8457921977663 a86.0,86.0 0 0,1 -30.038265399797805,32.042727171017184" fill="none" id="id41" stroke="none" /><text fill="#e1ed5e" style="font-size:6.75px; font-family:Arial;" text-anchor="middle"><textPath startOffset="22.206326154141568" xlink:href="#id41">May</textPath></text><path d="M 117.35343817320211 111.8261652097733 l 6.886803196050657 4.693275854087505 a29.333960433293065,29.333960433293065 0 0,0 -0.2879464758600392,0.4148083745393627 l -6.804995813028482 -4.811125490813886" fill="#ff6a09" stroke="none" /><path d="M 116.93607887273984 112.41649034213515 l 3.2448771826793275 2.378944176092788 a25.0235063469117,25.0235063469117 0 0,0 -0.25766911025254813,0.34518988086748714 l -3.203446805731687 -2.43444693646959" fill="#ff2e04" stroke="none" /><path d="M 115.32070863581623 114.36230785411682 l 4.273366361080296 4.006042064384725 a26.857476681783076,26.857476681783076 0 0,0 -0.3190840227903383,0.3345583222145578 l -4.2037757869109935 -4.079007503181789" fill="#ff4806" stroke="none" /><path d="M 113.48314897796784 116.09983520530334 l 2.635377951413799 3.146827999214686 a25.104600273283562,25.104600273283562 0 0,0 -0.33368780224850253,0.2746023439006023 l -2.580820020620605 -3.1917254619724664" fill="#ff2f04" stroke="none" /><path d="M 111.45004920935366 117.60387380957326 l 4.2413048391183725 6.520792514566566 a28.778778937362617,28.778778937362617 0 0,0 -0.41759131700394714,0.26652653616125277 l -4.1284317200674945 -6.592833479551628" fill="#ff6209" stroke="none" /><line stroke="#e1ed5e" stroke-width="0.3" x1="143.8653032363475" x2="146.44561519142675" y1="172.8068346515853" y2="177.08958963109032" /><path d="M 144.38136562736335 173.6633856474863 a86.0,86.0 0 0,1 -40.68145358897372,12.25698825130547" fill="none" id="id42" stroke="none" /><text fill="#e1ed5e" style="font-size:6.75px; font-family:Arial;" text-anchor="middle"><textPath startOffset="21.466115282336833" xlink:href="#id42">June</textPath></text><path d="M 110.5260780823613 118.17145234162733 l 1.604019463409116 2.7690620387116516 a24.200091094520467,24.200091094520467 0 0,0 -0.3622537369610389,0.2056971260882623 l -1.5561169595268782 -2.7962623305945424" fill="#ff2203" stroke="none" /><path d="M 109.2508944713604 118.85261126421891 l 0.3682257933626636 0.7504158393781821 a21.835891241063827,21.835891241063827 0 0,0 -0.3388590637327323,0.16267294302310237 l -0.3552540616296986 -0.7566430589008446" fill="#ff0000" stroke="none" /><path d="M 108.2653958097858 119.30500536409082 l 1.9322533523678909 4.513052029290693 a25.9093015426659,25.9093015426659 0 0,0 -0.41149959661740654,0.17200686475968138 l -1.8542822962530232 -4.545643937070348" fill="#ff3a05" stroke="none" /><path d="M 107.59598834532513 119.57807347666477 l 17.588071596727794 45.33189657215552 a69.62428518055796,69.62428518055796 0 0,0 -1.1210497227536065,0.4238850807337763 l -16.805151653213912 -45.62792990299593" fill="#3bff9d" stroke="none" /><path d="M 106.91757812671514 119.82793768551818 l 14.895794494887335 42.69599556530941 a66.21982674609487,66.21982674609487 0 0,0 -1.0794786178495817,0.3662177564959639 l -14.158646144100526 -42.946076308703496" fill="#37ff77" stroke="none" /><path d="M 105.53697534728816 120.25689768951611 l 1.840992049695145 6.73522731434085 a27.98230181980726,27.98230181980726 0 0,0 -0.4657181865788507,0.12300040592220357 l -1.724783420304797 -6.765919069566638" fill="#ff5708" stroke="none" /><path d="M 104.83641907484287 120.43548508189849 l 2.8824125996291134 12.179155438781073 a33.51559545513082,33.51559545513082 0 0,0 -0.5625510513825611,0.1280347877856909 l -2.6723413988536904 -12.226966960144448" fill="#ffa10e" stroke="none" /><path d="M 104.13013068566511 120.58985236759428 l 6.780012220688419 33.800250233965365 a55.47354756318764,55.47354756318764 0 0,0 -0.9378526628346916,0.17974169494041883 l -6.197191943282023 -33.91194912725425" fill="#5dff2a" stroke="none" /><path d="M 103.41894727170886 120.7198165907248 l 1.3620212569529369 8.254245647558042 a29.365863560602847,29.365863560602847 0 0,0 -0.4994492046672777,0.07800369407735115 l -1.219736188677142 -8.2764676489825" fill="#ff6a09" stroke="none" /><path d="M 102.70371172650421 120.8252237178851 l 1.4850595778302282 11.438607762629148 a32.53460660347743,32.53460660347743 0 0,0 -0.5559894338952154,0.06732257752775324 l -1.2879427208836325 -11.462475868882253" fill="#ff950d" stroke="none" /><path d="M 101.98527174616119 120.90594882070398 l 0.827966472744018 8.718919582629184 a29.758144048161277,29.758144048161277 0 0,0 -0.5103602224957622,0.04403602748075494 l -0.6777619325067142 -8.7318798623886" fill="#ff6f0a" stroke="none" /><line stroke="#e1ed5e" stroke-width="0.3" x1="102.19456741930631" x2="102.32365962044197" y1="184.97166512339345" y2="189.96999836594603" /><path d="M 102.22038585953345 185.97133177190398 a86.0,86.0 0 0,1 -42.740103519485714,-10.115201625700543" fill="none" id="id43" stroke="none" /><text fill="#e1ed5e" style="font-size:6.75px; font-family:Arial;" text-anchor="middle"><textPath startOffset="22.20632615414155" xlink:href="#id43">July</textPath></text><path d="M 99.81925306533755 120.99922214144158 l -0.06738144929442515 7.8283929107201935 a28.828682892052992,28.828682892052992 0 0,0 -0.496183242118551,-0.008542244490842902 l 0.2021243813056441 -7.826073188950191" fill="#ff6309" stroke="none" /><path d="M 97.65516085044442 120.86867818915974 l -1.7224752620991086 15.32974316824575 a36.42620972996674,36.42620972996674 0 0,0 -0.6224937025839867,-0.07537531830263178 l 1.9860963877344846 -15.297822321217769" fill="#ffc712" stroke="none" /><path d="M 97.2962882734958 120.8252237178851 l -2.3671710756368762 18.23303377552894 a39.386055029856486,39.386055029856486 0 0,0 -0.6715723910539863,-0.09307381401851439 l 2.6806720578776932 -18.189585396017822" fill="#ffec16" stroke="none" /><path d="M 94.46302465271185 120.25689768951611 l -4.4395333747299315 16.241931329013788 a37.83774895530102,37.83774895530102 0 0,0 -0.6267892157443538,-0.17713689319760692 l 4.718453758578899 -16.16310564247766" fill="#ffd914" stroke="none" /><path d="M 94.11515582081647 120.15858648285463 l -6.662291955549364 22.82174080921913 a44.77431361078918,44.77431361078918 0 0,0 -0.7379766877597549,-0.2223463223069351 l 7.054143617749365 -22.70367911780647" fill="#d2ff1c" stroke="none" /><path d="M 93.08242187328487 119.8279376855182 l -6.696266397817156 19.193589205561523 a41.328154128262184,41.328154128262184 0 0,0 -0.6696744021489254,-0.24012141473661375 l 7.025660360595808 -19.07548024978495" fill="#faff18" stroke="none" /><path d="M 92.40401165467489 119.57807347666478 l -6.13844579629918 15.821370092863884 a37.97045280508068,37.97045280508068 0 0,0 -0.6073083252559005,-0.24166051603474067 l 6.409875197596939 -15.713362732423077" fill="#ffda14" stroke="none" /><path d="M 92.06813273071674 119.44442032107085 l -13.879372473007097 34.024315207967064 a57.74630601319765,57.74630601319765 0 0,0 -0.9171448173330824,-0.38336660802787687 l 14.462988749837642 -33.78036355691921" fill="#46ff2c" stroke="none" /><path d="M 91.40352486487194 119.15986991738527 l -6.319327055520185 14.084550056385 a36.43724213470282,36.43724213470282 0 0,0 -0.5700381041534166,-0.26167653501339233 l 6.5608331554410215 -13.973686451037533" fill="#ffc712" stroke="none" /><line stroke="#e1ed5e" stroke-width="0.3" x1="58.666819895761336" x2="56.23545636021788" y1="174.27360380694188" y2="178.64263932499728" /><path d="M 58.180547188652646 175.14741091055294 a86.0,86.0 0 0,1 -31.652253787137756,-30.449443065178592" fill="none" id="id44" stroke="none" /><text fill="#e1ed5e" style="font-size:6.75px; font-family:Arial;" text-anchor="middle"><textPath startOffset="22.20632615414155" xlink:href="#id44">August</textPath></text><path d="M 89.1626897886671 117.98757091392108 l -10.79417838743797 17.915981494976 a41.91642129973852,41.91642129973852 0 0,0 -0.6148156964152321,-0.37767001615195966 l 11.10097328378551 -17.72752301199566" fill="#f3ff19" stroke="none" /><path d="M 88.54995079064634 117.60387380957326 l -16.767680140914123 25.77946346630608 a51.752818308548825,51.752818308548825 0 0,0 -0.7425920746609284,-0.49214953477707846 l 17.208946914315014 -25.487015910437684" fill="#84ff25" stroke="none" /><path d="M 87.36589467227662 116.77436683061367 l -7.996548223082074 10.617058334817738 a34.29160303232834,34.29160303232834 0 0,0 -0.46844170304193505,-0.3591811225136003 l 8.178118654617496 -10.47783787047677" fill="#ffac0f" stroke="none" /><path d="M 86.79598089348748 116.32954008644616 l -33.30986792825353 41.194640754523164 a73.97684143370492,73.97684143370492 0 0,0 -0.983292678098095,-0.809182931850018 l 34.014030734896316 -40.61516270381597" fill="#41ffcb" stroke="none" /><path d="M 86.51685102203217 116.09983520530335 l -6.993725155598016 8.351003364295924 a31.892724578475594,31.892724578475594 0 0,0 -0.4178471227408608,-0.3560983829995013 l 7.136437754915933 -8.22938059107347" fill="#ff8c0c" stroke="none" /><path d="M 86.24171649860922 115.8653595955263 l -4.111382815533336 4.741039592381564 a27.27542230231499,27.27542230231499 0 0,0 -0.3520577044164135,-0.31064999110008307 l 4.192382872856338 -4.669566459509192" fill="#ff4d07" stroke="none" /><path d="M 85.97065885151581 115.62618273729859 l -13.950501166505562 15.538369065055216 a41.88198735749397,41.88198735749397 0 0,0 -0.5323010140446971,-0.48624435559460033 l 14.215901730017114 -15.29593194287404" fill="#f4ff19" stroke="none" /><path d="M 85.44109423537348 115.13401014063109 l -14.051935638046208 14.607013733022962 a41.26873812975328,41.26873812975328 0 0,0 -0.507703831486316,-0.49689505660112104 l 14.301289421908319 -14.362968573499272" fill="#fbff18" stroke="none" /><path d="M 85.18274418774928 114.88116024355367 l -2.3107489459071733 2.320714832920473 a24.274947026556035,24.274947026556035 0 0,0 -0.2935643035082958,-0.29737908955701614 l 2.3503538744710024 -2.2805952493827926" fill="#ff2303" stroke="none" /><path d="M 84.19399662182784 113.82643327865904 l -7.330525048948132 6.412437923858078 a30.739402323581736,30.739402323581736 0 0,0 -0.3449509718509259,-0.40125591118957243 l 7.439818530369837 -6.285304913506975" fill="#ff7d0b" stroke="none" /><path d="M 83.72743513129214 113.27417163493432 l -12.992444625486714 10.59844845035701 a37.76695341739857,37.76695341739857 0 0,0 -0.4065919849491559,-0.5072860175997412 l 13.172954522490732 -10.373234599179009" fill="#ffd814" stroke="none" /><path d="M 83.28015986056508 112.70617746262583 l -24.812126838254223 18.85587925499714 a52.16385439442058,52.16385439442058 0 0,0 -0.5371355142167394,-0.7195807987245443 l 25.133023619166046 -18.42598557676329" fill="#7fff26" stroke="none" /><path d="M 83.06392112726016 112.41649034213515 l -15.900085890158868 11.656964069295144 a40.715413833528,40.715413833528 0 0,0 -0.40951991254432607,-0.5687873409003315 l 16.098385595078803 -11.381543122943674" fill="#fffc17" stroke="none" /><path d="M 82.6465618267979 111.8261652097733 l -15.082689337556484 10.278676429036185 a39.252087737737405,39.252087737737405 0 0,0 -0.3756927495919413,-0.5616096859783067 l 15.257385192559157 -10.017529828852057" fill="#ffea16" stroke="none" /><path d="M 82.44556493220864 111.52570212397912 l -18.37739286996694 12.066030904247498 a42.9844870415338,42.9844870415338 0 0,0 -0.4007692149030819,-0.6220027214465966 l 18.582366948247067 -11.747906582879454" fill="#e7ff1a" stroke="none" /><line stroke="#e1ed5e" stroke-width="0.3" x1="26.63291911575756" x2="22.317208475507996" y1="142.92168965132927" y2="145.44649492493687" /><path d="M 25.769776987707644 143.4266507060508 a86.0,86.0 0 0,1 -11.730757126820373,-40.83630448921669" fill="none" id="id45" stroke="none" /><text fill="#e1ed5e" style="font-size:6.75px; font-family:Arial;" text-anchor="middle"><textPath startOffset="21.46611528233685" xlink:href="#id45">September</textPath></text><path d="M 81.51974371655577 109.97397251340807 l -55.44076885033272 29.92191754022421 a84.0,84.0 0 0,0 -0.6757899671004557,-1.2783399396554953 l 55.94761132565806 -28.96316258548259" fill="#4dd2ff" stroke="none" /><path d="M 80.87730276802145 108.67885076344099 l -11.05816977176305 5.018758808011313 a33.14376624750844,33.14376624750844 0 0,0 -0.23131021091213594,-0.5215434614945906 l 11.142921067406466 -4.827667010024026" fill="#ff9d0e" stroke="none" /><path d="M 80.45479744820244 107.68017299344265 l -15.073490164283873 5.923039772540469 a37.195447072552795,37.195447072552795 0 0,0 -0.22902781331228297,-0.5979193501332587 l 15.173212257189665 -5.662696855574053" fill="#ffd113" stroke="none" /><path d="M 79.97269907076064 106.31721596034903 l -10.55404316728584 3.329064169862801 a32.066638849442825,32.066638849442825 0 0,0 -0.16151389933266067,-0.5278367681508105 l 10.609783839124631 -3.1469004291599427" fill="#ff8e0d" stroke="none" /><path d="M 79.86692584326677 105.97154293290107 l -22.97659670251145 6.814942049727358 a44.9659640150569,44.9659640150569 0 0,0 -0.21371115705796007,-0.7439565739886125 l 23.090500496455515 -6.418428000234149" fill="#cfff1d" stroke="none" /><path d="M 79.67330655649465 105.27499134158121 l -4.8907725326971905 1.2692070569826963 a26.052775724300453,26.052775724300453 0 0,0 -0.10891137808580673,-0.43504681680645807 l 4.911895225078055 -1.1848324007788464" fill="#ff3c05" stroke="none" /><path d="M 79.4281124754447 104.21870165774334 l -14.195700333940888 2.9111293001257414 a35.491120790784265,35.491120790784265 0 0,0 -0.11757712629445616,-0.5995232338811347 l 14.24370739321101 -2.666342339176652" fill="#ffbb11" stroke="none" /><path d="M 79.29508885075956 103.50808413554451 l -9.956152900780763 1.686895528820743 a31.09804917342358,31.09804917342358 0 0,0 -0.08488026768604531,-0.5285495079055554 l 9.9837149228281 -1.515266791221974" fill="#ff810b" stroke="none" /><path d="M 79.23777060512086 103.15116336523772 l -31.194988351312244 4.734583295564482 a52.552235692913186,52.552235692913186 0 0,0 -0.12804214335367908,-0.8955264523934378 l 31.271864545682522 -4.196911371190644" fill="#7bff26" stroke="none" /><path d="M 79.10278846688536 102.07522291339032 l -15.790763067697606 1.5681208608180013 a36.868434116014576,36.868434116014576 0 0,0 -0.057278454650810696,-0.632062974135059 l 15.815416118625492 -1.2960764981343762" fill="#ffcd13" stroke="none" /><path d="M 79.07016306316243 101.71520430193888 l -19.124937436554003 1.5672924287218943 a40.189049937639794,40.189049937639794 0 0,0 -0.0505682382553963,-0.689963434342492 l 19.149082233473735 -1.2378558578826417" fill="#fff617" stroke="none" /><path d="M 79.04373962182676 101.35467743843564 l -8.840997306731708 0.5715093899660607 a29.85945011614472,29.85945011614472 0 0,0 -0.028741354635190584,-0.5131961943613206 l 8.849525012254432 -0.4192414792693025" fill="#ff710a" stroke="none" /><path d="M 79.0235259727143 100.99374915477108 l -20.774517163869938 0.9841815571825338 a41.79781663371001,41.79781663371001 0 0,0 -0.027860965921359025,-0.71896773301109 l 20.788380262642498 -0.626436577157447" fill="#f5ff19" stroke="none" /><path d="M 79.0095281055655 100.63252640178507 l -17.89408363021924 0.5392199083844715 a38.90220620691423,38.90220620691423 0 0,0 -0.01440852006153775,-0.6695073100672031 l 17.900714212965784 -0.2311227825271396" fill="#ffe615" stroke="none" /><line stroke="#e1ed5e" stroke-width="0.3" x1="15.007084014347285" x2="10.007500721073583" y1="101.09737516637583" y2="101.16192664675087" /><path d="M 14.007167355692545 101.11028546245083 a86.0,86.0 0 0,1 10.666146001902534,-42.60595125391555" fill="none" id="id46" stroke="none" /><text fill="#e1ed5e" style="font-size:6.75px; font-family:Arial;" text-anchor="middle"><textPath startOffset="22.20632615414155" xlink:href="#id46">October</textPath></text><path d="M 79.03285615573316 98.82574320788736 l -11.536612082147895 -0.6461035034647875 a32.55469030615491,32.55469030615491 0 0,0 0.036150292284471044,-0.5592290211426537 l 11.52378119885901 0.844591588860453" fill="#ff950d" stroke="none" /><path d="M 79.08570108090925 98.10471618934814 l -12.349372782550695 -1.1191179009643093 a33.39997713702177,33.39997713702177 0 0,0 0.05681634216582212,-0.5721328119094914 l 12.328279314702645 1.3315262435782311" fill="#ffa00e" stroke="none" /><path d="M 79.16333360222342 97.38593545837743 l -16.889720047456777 -2.1189002814144833 a38.02211448921789,38.02211448921789 0 0,0 0.08705978042489057,-0.648696486543063 l 16.85074426797405 2.4093151100222054" fill="#ffdb14" stroke="none" /><path d="M 79.21141760316559 97.0276538004421 l -7.410355920154905 -1.0595307960968938 a28.485718427195387,28.485718427195387 0 0,0 0.07358011170584852,-0.4848010023823129 l 7.391019915009755 1.1869309108712989" fill="#ff5e08" stroke="none" /><path d="M 79.26566170972629 96.67025291283419 l -11.740775449755597 -1.8854622852001073 a32.891205834165675,32.891205834165675 0 0,0 0.094582794889545,-0.5582330094631428 l 11.706580793345829 2.087281082979078" fill="#ff990e" stroke="none" /><path d="M 79.3925641242962 95.95851677861259 l -19.009195873882213 -3.7280400453381466 a40.37131411007692,40.37131411007692 0 0,0 0.13960920264336668,-0.6807840532881981 l 18.94220737532385 4.054699754789747" fill="#fff817" stroke="none" /><path d="M 79.46518482838121 95.60439243477599 l -27.144430195248795 -5.810437626185105 a48.75934574215542,48.75934574215542 0 0,0 0.18274448552456812,-0.8192076960139846 l 27.04039132272219 6.276823491749049" fill="#a4ff21" stroke="none" /><path d="M 79.62865764111835 94.90015583598534 l -51.693920116750824 -12.941264850301412 a74.28918945679942,74.28918945679942 0 0,0 0.32122528119328936,-1.2378120444767513 l 51.46349850368723 13.829173320327026" fill="#41ffce" stroke="none" /><path d="M 79.81627453868168 94.20196356495316 l -3.80116104198541 -1.0919327187218155 a24.95488840921243,24.95488840921243 0 0,0 0.12215311270011686,-0.41183957045963965 l 3.781802032173586 1.1572016759279944" fill="#ff2d04" stroke="none" /><path d="M 80.14247586403 93.16781622104843 l -14.241970118893198 -4.900095125673731 a36.061362657744425,36.061362657744425 0 0,0 0.20700410334244138,-0.5852284756214321 l 14.155512934740948 5.144521227721775" fill="#ffc212" stroke="none" /><path d="M 81.26839172434947 90.50648371742162 l -16.151927245372928 -8.186087496731188 a39.10792042847436,39.10792042847436 0 0,0 0.3094936887589195,-0.5978432968196447 l 16.00862412345389 8.462903515811169" fill="#ffe915" stroke="none" /><line stroke="#e1ed5e" stroke-width="0.3" x1="26.266209847984243" x2="21.928928074336255" y1="57.711370442889674" y2="55.22380399835377" /><path d="M 25.398753493254645 57.213857153982495 a86.0,86.0 0 0,1 29.58750427330803,-30.492523968695096" fill="none" id="id47" stroke="none" /><text fill="#e1ed5e" style="font-size:6.75px; font-family:Arial;" text-anchor="middle"><textPath startOffset="21.46611528233685" xlink:href="#id47">November</textPath></text><path d="M 81.78341655067845 89.55222093294921 l -16.14354411833827 -9.258826320358505 a39.61020906737207,39.61020906737207 0 0,0 0.34430764083126586,-0.5885333671422207 l 15.981776803036679 9.535339099854617" fill="#ffef16" stroke="none" /><path d="M 81.96595687620814 89.24020034530311 l -21.219890189622237 -12.66059782422191 a45.7098052790045,45.7098052790045 0 0,0 0.40895953692086795,-0.672221950027904 l 20.998814854415155 13.023987547456887" fill="#c7ff1e" stroke="none" /><path d="M 82.34701348167596 88.62581576622439 l -24.200444842909878 -15.592847017520668 a49.78885910741387,49.78885910741387 0 0,0 0.4703941508857794,-0.7164425636867376 l 23.92845405666618 16.007107645185073" fill="#99ff23" stroke="none" /><path d="M 82.54541684631803 88.32363383020206 l -6.29957775661631 -4.2141468492101986 a28.579163118601105,28.579163118601105 0 0,0 0.2770484953623547,-0.406534480955512 l 6.226104795585215 4.321959353436126" fill="#ff5f08" stroke="none" /><path d="M 83.6137871275137 86.86637796730984 l -2.517850623209213 -2.0180684016089954 a24.226789710279817,24.226789710279817 0 0,0 0.2636122848070036,-0.32315749130597143 l 2.4827398463258166 2.061110062523049" fill="#ff2203" stroke="none" /><path d="M 84.07557802195018 86.31012108654704 l -25.95207747531573 -22.310436050949956 a55.22376195084809,55.22376195084809 0 0,0 0.6258906984829593,-0.7155012645132179 l 25.564194913254926 22.75385287166612" fill="#5fff29" stroke="none" /><path d="M 84.80347519578584 85.50635884689758 l -6.157215230493331 -5.87242604496258 a29.50862427470939,29.50862427470939 0 0,0 0.35373215518580964,-0.36455207985325616 l 6.055218811604403 5.97754232036596" fill="#ff6c0a" stroke="none" /><path d="M 85.05521093208273 85.24692304244772 l -13.388720698749498 -13.216969870512324 a39.81345620844702,39.81345620844702 0 0,0 0.48565629296240703,-0.48357073049936483 l 13.159228605619777 13.445476451661799" fill="#fff116" stroke="none" /><path d="M 85.57189188830299 84.74124197986013 l -14.088810929334608 -14.899926941075105 a41.506155569777434,41.506155569777434 0 0,0 0.5233572747076802,-0.48640354930449775 l 13.830245770832072 15.14023507645425" fill="#f8ff18" stroke="none" /><path d="M 86.10567301691215 84.25364557470407 l -11.625259766930737 -13.174834650072617 a38.57051315998974,38.57051315998974 0 0,0 0.501611730160449,-0.4349927494310698 l 11.396754238123515 13.372992392923367" fill="#ffe215" stroke="none" /><path d="M 87.80319425747018 82.90503203632743 l -3.1810193007330696 -4.4584971004528535 a26.476959027268947,26.476959027268947 0 0,0 0.37328586126160174,-0.26151060094160183 l 3.103802299887808 4.512592544158398" fill="#ff4206" stroke="none" /><path d="M 88.70189139769569 82.29822771554957 l -5.154928455098151 -8.076694327063741 a30.581559300552506,30.581559300552506 0 0,0 0.44617162191818166,-0.27939262871330334 l 5.015137680807727 8.164231297099974" fill="#ff7b0b" stroke="none" /><line stroke="#e1ed5e" stroke-width="0.3" x1="56.762969772571076" x2="54.21961505331055" y1="26.818313649435495" y2="22.513508569990535" /><path d="M 56.25429882871897 25.957352633546506 a86.0,86.0 0 0,1 42.265352541879196,-11.944610805530505" fill="none" id="id48" stroke="none" /><text fill="#e1ed5e" style="font-size:6.75px; font-family:Arial;" text-anchor="middle"><textPath startOffset="22.20632615414155" xlink:href="#id48">December</textPath></text><path d="M 90.26544431104013 81.39251694778311 l -8.875524213331687 -16.965454989015143 a40.146842900220804,40.146842900220804 0 0,0 0.6150869361698831,-0.3150714188124272 l 8.58217678957304 17.115718933140073" fill="#fff517" stroke="none" /><path d="M 96.40284397218896 79.31037775812273 l -6.775266584539069 -38.969036966525266 a60.553635476274295,60.553635476274295 0 0,0 1.0284625350713947,-0.16970513049382485 l 6.103474843328788 39.07988835995872" fill="#30ff35" stroke="none" /></svg>