<?xml version="1.0" encoding="utf-8" ?>
<svg baseProfile="full" height="200mm" version="1.1" viewBox="0,0,200,200" width="200mm" xmlns="http://www.w3.org/2000/svg" xmlns:ev="http://www.w3.org/2001/xml-events" xmlns:xlink="http://www.w3.org/1999/xlink"><defs /><rect fill="#1a1a1a" height="200" width="200" x="0" y="0" /><rect fill="#1a1a1a" height="200" width="180" x="10" y="0" /><text alignment-baseline="middle" fill="#e1ed5e" style="dominant-baseline: central; font-size:9.0px; font-family:Arial;" text-anchor="middle" x="100.0" y="100.0">2016</text><line stroke="#e1ed5e" stroke-width="0.3" x1="100.0" x2="100.0" y1="15.0" y2="10.0" /><path d="M 100.0 14.0 a86.0,86.0 0 0,1 42.35913384403234,11.155469271406648" fill="none" id="id49" stroke="none" /><text fill="#e1ed5e" style="font-size:6.75px; font-family:Arial;" text-anchor="middle"><textPath startOffset="22.145653131862478" xlink:href="#id49">January</textPath></text><path d="M 100.72087961077811 79.0123766808444 l 0.941036972276217 -27.397264686420723 a48.41342121810021,48.41342121810021 0 0,0 0.8303460554257418,0.03565863237916145 l -1.411208788302795 27.377073485615732" fill="#a5ff21" stroke="none" /><path d="M 101.44090949804482 79.04949213459386 l 0.15060948053574602 -2.189828792752355 a23.195001903688123,23.195001903688123 0 0,0 0.3970001357349045,0.03073032131021834 l -0.18817861104588401 2.186920704447083" fill="#ff1b02" stroke="none" /><path d="M 102.51750503828377 79.15144685158666 l 0.7491107227596717 -6.203711404743934 a27.24877604561913,27.24877604561913 0 0,0 0.4639067506018939,0.060062016602122244 l -0.8554952952523573 6.189937791941414" fill="#ff5407" stroke="none" /><path d="M 103.94208987418118 79.37332000966035 l 0.3632422008910289 -1.900636686605785 a22.935036100691658,22.935036100691658 0 0,0 0.38607694600327996,0.0772262019161435 l -0.39581563242526574 1.8941210880267825" fill="#ff1802" stroke="none" /><path d="M 104.64783097203109 79.52079915486377 l 0.48643958504789697 -2.1433425658479366 a23.197849135968433,23.197849135968433 0 0,0 0.3875894935335388,0.09147006512243885 l -0.5231612323213207 2.13467635707927" fill="#ff1b02" stroke="none" /><path d="M 105.3480935250658 79.69241777938227 l 1.7154345389825343 -6.5137843572110405 a27.735881702478263,27.735881702478263 0 0,0 0.4593835960760513,0.12520704189864149 l -1.8269995359932782 6.483376821168257" fill="#ff5b08" stroke="none" /><path d="M 106.38641147887787 79.99465700312896 l 2.8416327960239696 -8.90137426058955 a30.34394673970936,30.34394673970936 0 0,0 0.49486246706563686,0.16267112214202914 l -2.9940180007373485 8.8512822170455" fill="#ff7e0b" stroke="none" /><path d="M 106.72888874123014 80.10723608172694 l 0.8835282880350795 -2.611994390887297 a23.757378634461524,23.757378634461524 0 0,0 0.38520239506548354,0.13399338873938585 l -0.9282364551455814 2.5964425695793207" fill="#ff2303" stroke="none" /><path d="M 107.74402155503746 80.48000691201159 l 1.0759456673680117 -2.712085941498009 a23.917716441534225,23.917716441534225 0 0,0 0.3803435573410679,0.15468241363253799 l -1.1223436858995193 2.6932162712861776" fill="#ff2603" stroke="none" /><path d="M 108.73861861582097 80.90454125486305 l 0.7957806245842034 -1.7389242802535765 a22.912360963552395,22.912360963552395 0 0,0 0.35624497364046737,0.1667406355269656 l -0.8255143120961759 1.7250074131560773" fill="#ff1702" stroke="none" /><path d="M 109.71004243097381 81.37971332152246 l 0.6949519537824743 -1.3326620042277182 a22.502979120140502,22.502979120140502 0 0,0 0.34098569686429686,0.18155567748448131 l -0.7177264664333307 1.3205358590206637" fill="#ff1101" stroke="none" /><line stroke="#e1ed5e" stroke-width="0.3" x1="143.13028292997686" x2="145.6673583964461" y1="26.7553504044142" y2="22.446841604673864" /><path d="M 143.63769802327073 25.89364864446614 a86.0,86.0 0 0,1 29.32050498858742,28.57503671076993" fill="none" id="id50" stroke="none" /><text fill="#e1ed5e" style="font-size:6.75px; font-family:Arial;" text-anchor="middle"><textPath startOffset="20.669276256404974" xlink:href="#id50">February</textPath></text><path d="M 111.5731344415666 82.4767994020092 l 1.9631243899774975 -2.972420536378682 a24.562182086251383,24.562182086251383 0 0,0 0.3498399921159589,0.2353879595584042 l -2.0138606701904576 2.938282902763159" fill="#ff2f04" stroke="none" /><path d="M 112.45986205192187 83.09580414077388 l 0.9805039641648103 -1.330241938628287 a22.652553066932633,22.652553066932633 0 0,0 0.311037903351918,0.2334086413131622 l -1.0031948564274946 1.31321427005111" fill="#ff1402" stroke="none" /><path d="M 113.59037401385872 83.9905735841838 l 1.1638789115574066 -1.3710464312827295 a22.798438889009343,22.798438889009343 0 0,0 0.29618485515686516,0.2558374235637887 l -1.187243246477132 1.3508648752542207" fill="#ff1602" stroke="none" /><path d="M 114.39649973595853 84.71141617570332 l 1.8387914538840116 -1.952732802674853 a23.682222848593916,23.682222848593916 0 0,0 0.2935778192075315,0.2812409098018739 l -1.8720417589568552 1.9208797625673988" fill="#ff2203" stroke="none" /><path d="M 115.6541949942343 86.00192230759917 l 0.21525748499259334 -0.19248457042389816 a21.28876650549641,21.28876650549641 0 0,0 0.24126147096557585,0.2745112662014529 l -0.21853001991675938 0.18876102641114748" fill="#ff0000" stroke="none" /><path d="M 116.35404254752997 86.82634096563983 l 3.1821610249136723 -2.5633236683106406 a25.08616899026474,25.08616899026474 0 0,0 0.2672675299867124,0.3376837931968522 l -3.225694985541944 2.5083199311991105" fill="#ff3605" stroke="none" /><path d="M 117.01052211995028 87.68569379921539 l 5.0323108968675605 -3.6430050085819046 a27.212538809157238,27.212538809157238 0 0,0 0.27068040418573486,0.38074588672294435 l -5.094106399583255 3.556081895149456" fill="#ff5307" stroke="none" /><path d="M 117.42321728460499 88.27688183743584 l 5.052321241176626 -3.399427208996619 a27.089503696797554,27.089503696797554 0 0,0 0.2562867783962079,0.3880508475145314 l -5.109932458493558 3.312196483143029" fill="#ff5207" stroke="none" /><path d="M 117.81537515405839 88.88188828441811 l 1.198919394704502 -0.7482143739906558 a22.413234752065218,22.413234752065218 0 0,0 0.2008994666914358,0.32815418065939633 l -1.2115868258513403 0.7275230772067047" fill="#ff1001" stroke="none" /><line stroke="#e1ed5e" stroke-width="0.3" x1="172.87174338648825" x2="177.1583165268699" y1="56.24261187166439" y2="53.66864786411523" /><path d="M 173.72905801456457 55.72781907015455 a86.0,86.0 0 0,1 12.242430191666344,42.057860355516425" fill="none" id="id51" stroke="none" /><text fill="#e1ed5e" style="font-size:6.75px; font-family:Arial;" text-anchor="middle"><textPath startOffset="22.145653131862474" xlink:href="#id51">March</textPath></text><path d="M 118.00360718960297 89.18935116829356 l 1.0016316250414377 -0.6014510116232565 a22.16833609533635,22.16833609533635 0 0,0 0.19310340354839195,0.32793179566152475 l -1.0118087387195973 0.5841680476681753" fill="#ff0d01" stroke="none" /><path d="M 118.36410011445183 89.81374322990088 l 0.551627768230559 -0.3059786242556611 a21.630805923548927,21.630805923548927 0 0,0 0.17732589672890334,0.3262596773491925 l -0.5567990145748037 0.2964641134318653" fill="#ff0500" stroke="none" /><path d="M 119.0197475246899 91.09779779509293 l 4.529752406944749 -2.120152847057529 a26.00137030853624,26.00137030853624 0 0,0 0.1857433086350972,0.4058826506978169 l -4.565480180434898 2.042081214145028" fill="#ff4306" stroke="none" /><path d="M 119.4528033332814 92.08871423366111 l 6.611110352489884 -2.688681026341629 a28.13693111597754,28.13693111597754 0 0,0 0.17812194785452082,0.44898366646171695 l -6.65629097531053 2.574796342666347" fill="#ff6008" stroke="none" /><path d="M 119.83427380445688 93.10060997987247 l 2.653830221532564 -0.9231399105441545 a23.809804644305196,23.809804644305196 0 0,0 0.1309704545681553,0.387190877006074 l -2.6692860976730843 0.8774473590639188" fill="#ff2403" stroke="none" /><path d="M 120.05942366710727 93.78553927170692 l 2.146849141987127 -0.6650993519981147 a23.24751382342338,23.24751382342338 0 0,0 0.11482465164438174,0.3822139206301399 l -2.157950113635136 0.6281478277772512" fill="#ff1c02" stroke="none" /><path d="M 120.16314734710363 94.1308016681162 l 2.273419891901917 -0.6617593973561311 a23.36777606730123,23.36777606730123 0 0,0 0.10880649432020034,0.38611586339820647 l -2.284444878296699 0.6226356100549115" fill="#ff1e03" stroke="none" /><path d="M 120.35273937422433 94.82641323984039 l 1.3800023106843804 -0.3507911909189119 a22.42388933457644,22.42388933457644 0 0,0 0.09163092423452196,0.37388544000640966 l -1.3858207614351936 0.3270499263044073" fill="#ff1001" stroke="none" /><path d="M 120.51834098615036 95.52812308129327 l 11.264912204386519 -2.4551351842752087 a32.529351054834024,32.529351054834024 0 0,0 0.11422803867529806,0.5466225160767954 l -11.305397953886185 2.261396216913009" fill="#ff9a0e" stroke="none" /><path d="M 120.77682067341334 96.94652285012252 l 1.5617415474640468 -0.22952222595336733 a22.578517378200818,22.578517378200818 0 0,0 0.05306541146036364,0.38395488282205054 l -1.5654514754796232 0.20267903493123116" fill="#ff1302" stroke="none" /><path d="M 120.9064616781168 98.02013634271609 l 11.49801803651347 -1.0888742625021062 a32.54946171592116,32.54946171592116 0 0,0 0.047904092608461936,0.5567181698862167 l -11.515015751819673 0.8913350452402276" fill="#ff9b0e" stroke="none" /><line stroke="#e1ed5e" stroke-width="0.3" x1="184.99686870605535" x2="189.99668451229388" y1="99.2704041080226" y2="99.22748670261217" /><path d="M 185.99683186730306 99.26182062694052 a86.0,86.0 0 0,1 -10.086455211305974,41.156179273409016" fill="none" id="id52" stroke="none" /><text fill="#e1ed5e" style="font-size:6.75px; font-family:Arial;" text-anchor="middle"><textPath startOffset="21.40746469413373" xlink:href="#id52">April</textPath></text><path d="M 120.98066250479742 100.90099992219065 l 9.248603330259703 0.39717482129225934 a30.25712759980975,30.25712759980975 0 0,0 -0.02673924742200644,0.5187342565395681 l -9.240422493381123 -0.5558808712085581" fill="#ff7d0b" stroke="none" /><path d="M 120.26092885502905 105.52220625578681 l 5.635544902248923 1.5359928232629794 a26.84111635720255,26.84111635720255 0 0,0 -0.12497927770518712,0.4435073661688872 l -5.608347132469157 -1.632508113334875" fill="#ff4e07" stroke="none" /><path d="M 119.0197475246899 108.90220220490707 l 8.108455502871886 3.7951665952639333 a29.952672233912097,29.952672233912097 0 0,0 -0.2219646228154734,0.46382069239094864 l -8.0421116220965 -3.9337997897199855" fill="#ff780b" stroke="none" /><line stroke="#e1ed5e" stroke-width="0.3" x1="174.33088141563837" x2="178.70328620479359" y1="141.23008692659167" y2="143.65538615756765" /><path d="M 175.20536237346943 141.71514677278685 a86.0,86.0 0 0,1 -30.301960400862466,31.631185727798858" fill="none" id="id53" stroke="none" /><text fill="#e1ed5e" style="font-size:6.75px; font-family:Arial;" text-anchor="middle"><textPath startOffset="22.145653131862474" xlink:href="#id53">May</textPath></text><path d="M 118.18653347947321 110.5 l 2.3169088026032068 1.3376679208707742 a23.67533584174155,23.67533584174155 0 0,0 -0.20623054033150334,0.35022454378546986 l -2.293604552141938 -1.3772436329497937" fill="#ff2203" stroke="none" /><path d="M 117.62189284568427 111.42229804090321 l 5.692972145710336 3.690115764311283 a27.784311770979603,27.784311770979603 0 0,0 -0.2628601776333729,0.39800381177197824 l -5.628787529156236 -3.7872994544223224" fill="#ff5b08" stroke="none" /><path d="M 117.423217284605 111.72311816256416 l 1.6909069743911005 1.1377176751509537 a23.038030398300123,23.038030398300123 0 0,0 -0.22358985898734277,0.3262242863264236 l -1.6711273785884373 -1.1665766965474214" fill="#ff1902" stroke="none" /><path d="M 116.79662413953412 112.60449989151573 l 2.035066171831002 1.527151594807472 a23.54434398563832,23.54434398563832 0 0,0 -0.2453634821784296,0.3211886744451576 l -2.008550712298268 -1.5618611824935071" fill="#ff2003" stroke="none" /><path d="M 116.1254893667686 113.45245675266167 l 3.7835729529780444 3.15639112480945 a25.92729431060119,25.92729431060119 0 0,0 -0.2880466055340151,0.33931817703618233 l -3.728831783936915 -3.220876084295189" fill="#ff4206" stroke="none" /><path d="M 115.89218393027572 113.72728997021213 l 1.1373071329821116 0.9823788138956674 a22.502842522928816,22.502842522928816 0 0,0 -0.2550203595209204,0.29016635569309845 l -1.1202757095026057 -1.001757447400059" fill="#ff1101" stroke="none" /><path d="M 115.41159269507618 114.26474011684316 l 8.779696384934422 8.126355900638977 a32.96330760431581,32.96330760431581 0 0,0 -0.3879375797697063,0.4119762661537706 l -8.638902971428456 -8.275873626737244" fill="#ffa00e" stroke="none" /><path d="M 114.91283532996324 114.78537596483092 l 4.092843263164346 4.057861907012649 a26.763471977307958,26.763471977307958 0 0,0 -0.3262697653126716,0.32348115159646684 l -4.022581577721709 -4.127523068837777" fill="#ff4d07" stroke="none" /><path d="M 114.39649973595853 115.28858382429668 l 1.5189039204521624 1.6130233275303578 a23.21560677348713,23.21560677348713 0 0,0 -0.2924837330069763,0.27071857674266303 l -1.4909904161312189 -1.6388596504054005" fill="#ff1c02" stroke="none" /><path d="M 114.13192950727249 115.5334660781643 l 4.864198962841554 5.346606742402592 a28.228183396124763,28.228183396124763 0 0,0 -0.36123333846582656,0.32301707873144453 l -4.77170059755235 -5.429319351017424" fill="#ff6109" stroke="none" /><path d="M 113.03279911837588 116.46651593811092 l 11.299686072916758 14.276784221509669 a39.20740160083301,39.20740160083301 0 0,0 -0.5313350758233244,0.4131693687116941 l -11.052941052458204 -14.468654641842155" fill="#ffef16" stroke="none" /><path d="M 112.45986205192187 116.90419585922612 l 0.8715932990098537 1.182483704446713 a22.46899373387394,22.46899373387394 0 0,0 -0.3124463260990245,0.2261870449221008 l -0.8511659625368613 -1.1972715207418907" fill="#ff1101" stroke="none" /><path d="M 111.5731344415666 117.5232005979908 l 2.864056489184594 4.336546562848469 a26.19696600575694,26.19696600575694 0 0,0 -0.3773789813341034,0.24461249633726406 l -2.7891918755934806 -4.385072900889628" fill="#ff4506" stroke="none" /><path d="M 110.96478420261333 117.91015095944535 l 3.1976263691276827 5.223082363019083 a27.124165556826636,27.124165556826636 0 0,0 -0.3991995752061015,0.2397078749758454 l -3.1074940373641446 -5.277204238530852" fill="#ff5207" stroke="none" /><line stroke="#e1ed5e" stroke-width="0.3" x1="143.1302829299769" x2="145.66735839644613" y1="173.24464959558577" y2="177.55315839532614" /><path d="M 143.63769802327073 174.10635135553383 a86.0,86.0 0 0,1 -40.68552437913181,11.842963189579606" fill="none" id="id54" stroke="none" /><text fill="#e1ed5e" style="font-size:6.75px; font-family:Arial;" text-anchor="middle"><textPath startOffset="21.407464694133747" xlink:href="#id54">June</textPath></text><path d="M 110.34350942703117 118.27599006163325 l 1.3577243787265383 2.3989688825725324 a23.756531731749096,23.756531731749096 0 0,0 -0.3566373665565745,0.19782073539766543 l -1.3163428240138693 -2.421922533403342" fill="#ff2303" stroke="none" /><path d="M 109.71004243097381 118.62028667847754 l 5.818841538295536 11.158395892697452 a33.584463268092165,33.584463268092165 0 0,0 -0.5134789013687854,0.26218598572092483 l -5.626435415213168 -11.256639830091213" fill="#ffa80f" stroke="none" /><path d="M 109.3889696526874 118.78422872680471 l 4.8177054462541 9.638638145444103 a31.77560351282825,31.77560351282825 0 0,0 -0.49000969148293394,0.23968829480307693 l -4.651535505509097 -9.719920190344403" fill="#ff910d" stroke="none" /><path d="M 109.06512990194946 118.94263497670748 l 0.7653764061380762 1.599342319202722 a22.77304734766604,22.77304734766604 0 0,0 -0.3540789037405487,0.16572680544252333 l -0.7378087885260213 -1.612245356215779" fill="#ff1502" stroke="none" /><path d="M 108.07796709384702 119.3841803445677 l 0.5650601122735696 1.3559385665454862 a22.468966414431605,22.468966414431605 0 0,0 -0.35730529027434527,0.14531295097960575 l -0.5417003608087835 -1.3654387741043832" fill="#ff1101" stroke="none" /><path d="M 106.72888874123015 119.89276391827305 l 0.9154787702195808 2.706450314237138 a23.85709199749624,23.85709199749624 0 0,0 -0.3890719788089838,0.12789568738597082 l -0.8688840537628628 -2.721766923025128" fill="#ff2503" stroke="none" /><path d="M 106.0420521117495 120.11202640906438 l 0.6255982232485976 2.0824130203995157 a23.174354415559073,23.174354415559073 0 0,0 -0.381979559545994,0.11118868275408836 l -0.5897586513209969 -2.0928453974561223" fill="#ff1b02" stroke="none" /><path d="M 105.3480935250658 120.30758222061773 l 1.943441124627481 7.379562500978654 a28.631179863608487,28.631179863608487 0 0,0 -0.4763610806217331,0.12108912389852731 l -1.8164747507803505 -7.411836856712451" fill="#ff6709" stroke="none" /><path d="M 103.94208987418118 120.62667999033965 l 0.36407142505117 1.9049755378084199 a22.9394534802844,22.9394534802844 0 0,0 -0.38742035146562837,0.07060089368796746 l -0.3313163400344845 -1.910944605427751" fill="#ff1802" stroke="none" /><path d="M 102.51750503828377 120.84855314841334 l 0.1653919096723796 1.369682271409824 a22.379631837991372,22.379631837991372 0 0,0 -0.38180088680685836,0.042781585727149796 l -0.14185512126472194 -1.3723196176439447" fill="#ff1001" stroke="none" /><path d="M 101.44090949804482 120.95050786540614 l 0.7983373651638097 11.607650078514363 a32.63507124575742,32.63507124575742 0 0,0 -0.5592340336354855,0.033642130762901026 l -0.5989589793958591 -11.619644187101956" fill="#ff9c0e" stroke="none" /><path d="M 101.08105385017728 120.97215588758144 l 0.6144798840099981 11.920745590173253 a32.93657241227514,32.93657241227514 0 0,0 -0.5649002341431857,0.024259246670215746 l -0.40975388926598283 -11.929537405269299" fill="#ffa00e" stroke="none" /><line stroke="#e1ed5e" stroke-width="0.3" x1="101.45913802915013" x2="101.54496967792366" y1="184.9874750549273" y2="189.98673829345242" /><path d="M 101.47630435890484 185.9873277026323 a86.0,86.0 0 0,1 -42.54439059252881,-10.42667462771756" fill="none" id="id55" stroke="none" /><text fill="#e1ed5e" style="font-size:6.75px; font-family:Arial;" text-anchor="middle"><textPath startOffset="22.145653131862474" xlink:href="#id55">July</textPath></text><path d="M 100.0 121.0 l 5.927946356283868e-16 4.840535540868711 a25.84053554086871,25.84053554086871 0 0,0 -0.44358715413278466,-0.0038076622152807276 l 0.0830942292839319 -4.8398222768478645" fill="#ff4006" stroke="none" /><path d="M 99.27912038922189 120.98762331915562 l -0.1071747923022711 3.120277139924791 a24.12211720888923,24.12211720888923 0 0,0 -0.41372215325757605,-0.01776700939774461 l 0.16072270616068587 -3.117977562101218" fill="#ff2803" stroke="none" /><path d="M 98.55909050195518 120.95050786540614 l -0.605408799946764 8.802511082258293 a29.823305569248582,29.823305569248582 0 0,0 -0.5104486047562056,-0.03951195031073087 l 0.7564263994782057 -8.790821364952508" fill="#ff770a" stroke="none" /><path d="M 97.84075906011543 120.88869738790638 l -0.14760495783216546 1.427944070602706 a22.435552678359823,22.435552678359823 0 0,0 -0.38275490725715977,-0.042888485708502296 l 0.1720957666901245 -1.4251998243872328" fill="#ff1001" stroke="none" /><path d="M 96.76829788921471 120.74984581791261 l -0.8705666370315545 5.589662312110179 a26.657049675664634,26.657049675664634 0 0,0 -0.45154820342218793,-0.07430208503887605 l 0.9663923435068059 -5.573894228575634" fill="#ff4c07" stroke="none" /><path d="M 96.41257539226777 120.69131181640829 l -1.4742406725517432 8.503028435065154 a29.629882857150054,29.629882857150054 0 0,0 -0.5004138237324803,-0.09119206834558685 l 1.6199892298352807 -8.476468192788202" fill="#ff740a" stroke="none" /><path d="M 95.00130118170881 120.39639698878247 l -14.996096454873564 61.18919096634739 a84.0,84.0 0 0,0 -1.3975788270984852,-0.35525907265894796 l 16.044280575197426 -60.922746661853175" fill="#4dd2ff" stroke="none" /><path d="M 92.59220618246901 119.65005319985036 l -2.5066435036950834 6.649169700714562 a28.105963647776235,28.105963647776235 0 0,0 -0.45000021751099745,-0.17406975123894963 l 2.6204159836996093 -6.605160061337571" fill="#ff6008" stroke="none" /><path d="M 92.25597844496254 119.51999308798841 l -0.665424273559899 1.677303856678909 a22.804477124120076,22.804477124120076 0 0,0 -0.36264063811831165,-0.14748279050007337 l 0.6941193728686516 -1.6656338095995442" fill="#ff1602" stroke="none" /><path d="M 91.59046798132341 119.24265499422711 l -0.27525486297769314 0.6298369935449198 a21.687357169185404,21.687357169185404 0 0,0 -0.33985802723150815,-0.15201417276106466 l 0.28602629306483635 -0.6250190698740002" fill="#ff0600" stroke="none" /><path d="M 91.26138138417905 119.09545874513695 l -1.9426303028615535 4.244997800703397 a25.668385033560604,25.668385033560604 0 0,0 -0.3990960671499844,-0.18679711096797272 l 2.0152150838830276 -4.211024458164897" fill="#ff3e05" stroke="none" /><path d="M 90.93487009805054 118.94263497670748 l -0.7178436596756326 1.5000171605544352 a22.66293445502049,22.66293445502049 0 0,0 -0.3494837640430426,-0.1709500218482035 l 0.7434876729807446 -1.4874733886090108" fill="#ff1402" stroke="none" /><path d="M 89.97174638481275 118.45085714620012 l -4.101855189127849 7.546951546416831 a29.589627095313187,29.589627095313187 0 0,0 -0.4442048529567211,-0.24639294397989217 l 4.230804230240673 -7.47542568700379" fill="#ff740a" stroke="none" /><line stroke="#e1ed5e" stroke-width="0.3" x1="58.13341422392154" x2="55.67067388415222" y1="173.97424548756322" y2="178.32567169271397" /><path d="M 57.64086615596768 174.84453072859336 a86.0,86.0 0 0,1 -31.369924170532247,-30.572349798747897" fill="none" id="id56" stroke="none" /><text fill="#e1ed5e" style="font-size:6.75px; font-family:Arial;" text-anchor="middle"><textPath startOffset="22.145653131862474" xlink:href="#id56">August</textPath></text><path d="M 88.72937992617639 117.7192867562869 l -1.8060675554621726 2.839438177033984 a24.365158120518437,24.365158120518437 0 0,0 -0.35099097160888676,-0.22750810724426734 l 1.854544159328069 -2.8080162280858216" fill="#ff2c04" stroke="none" /><path d="M 88.4268655584334 117.5232005979908 l -0.80157023178466 1.2136794950287664 a22.454487109993277,22.454487109993277 0 0,0 -0.319820021117949,-0.21518918332220563 l 0.8222865409996146 -1.1997406376494397" fill="#ff1101" stroke="none" /><path d="M 88.1277618465304 117.32195027204791 l -0.6079313367868355 0.8869899886201057 a22.075328670760584,22.075328670760584 0 0,0 -0.31074169138234975,-0.21692183400081508 l 0.6230681193429507 -0.8764233388141616" fill="#ff0b01" stroke="none" /><path d="M 87.83215693770417 117.11559508785305 l -1.1470075486922744 1.6134097609263334 a22.979575048693388,22.979575048693388 0 0,0 -0.3195462994169211,-0.23132687806993027 l 1.1745348584831494 -1.5934821114833377" fill="#ff1802" stroke="none" /><path d="M 86.68645165197938 116.24036423190432 l -0.37400016292367777 0.45621938719102795 a21.589925631851926,21.589925631851926 0 0,0 -0.2846021684967919,-0.2374252511869057 l 0.38177666558236234 -0.44973195209225203" fill="#ff0400" stroke="none" /><path d="M 86.13680546590413 115.77377054828092 l -1.3405445569649843 1.5252936254559772 a23.030660078167955,23.030660078167955 0 0,0 -0.2947211342069775,-0.2635414555485758 l 1.3665307179953325 -1.5020566400240192" fill="#ff1902" stroke="none" /><path d="M 85.86807049272751 115.53346607816431 l -1.8973171551892207 2.085483914598095 a23.819406949239983,23.819406949239983 0 0,0 -0.3000907592250524,-0.27775952664380965 l 1.9328376857282403 -2.052606641821908" fill="#ff2403" stroke="none" /><path d="M 84.83555147118756 114.52719865689866 l -0.4639983904048061 0.44449996193957947 a21.642553283753603,21.642553283753603 0 0,0 -0.2547062279586669,-0.27048918752035955 l 0.471560452099726 -0.43646931447472975" fill="#ff0500" stroke="none" /><path d="M 84.58840730492382 114.26474011684316 l -0.5321152422153497 0.49251792417522666 a21.72506588433864,21.72506588433864 0 0,0 -0.2509786158524854,-0.27586946380414307 l 0.5404915589097149 -0.48331088481340945" fill="#ff0601" stroke="none" /><path d="M 83.64595745247003 113.17365903436017 l -0.9827049965180349 0.7915975831581754 a22.26187790369884,22.26187790369884 0 0,0 -0.2371775906674424,-0.29966613782772006 l 0.9961490178270389 -0.7746115014157748" fill="#ff0e01" stroke="none" /><path d="M 81.99639281039703 110.81064883170644 l -0.409836590634508 0.24609509711432467 a21.478046888753212,21.478046888753212 0 0,0 -0.1870904490961172,-0.3177204844441595 l 0.4140007498603952 -0.2390234443766064" fill="#ff0300" stroke="none" /><line stroke="#e1ed5e" stroke-width="0.3" x1="26.387840678322732" x2="22.057713659400548" y1="142.50000000000003" y2="145.00000000000006" /><path d="M 25.521815274538298 143.00000000000003 a86.0,86.0 0 0,1 -11.493303480769221,-40.785679425670985" fill="none" id="id57" stroke="none" /><text fill="#e1ed5e" style="font-size:6.75px; font-family:Arial;" text-anchor="middle"><textPath startOffset="21.40746469413373" xlink:href="#id57">September</textPath></text><path d="M 81.81346652052679 110.50000000000001 l -1.6536005951054185 0.95470674871624 a22.909413497432478,22.909413497432478 0 0,0 -0.1937117840034715,-0.3422701612294879 l 1.6697457441302683 -0.9261798173876304" fill="#ff1702" stroke="none" /><path d="M 81.29705330413844 109.54985784667822 l -2.968886480122756 1.5159345909043738 a24.33351835389519,24.33351835389519 0 0,0 -0.18676564762593417,-0.37365640459932553 l 2.994472040960427 -1.4647463301412955" fill="#ff2b04" stroke="none" /><path d="M 80.83023694016515 108.57439118712176 l -0.5014588847095316 0.22429618083106145 a21.549335771445413,21.549335771445413 0 0,0 -0.1481425690684029,-0.33897918935450133 l 0.5052353357949024 -0.21565492170071074" fill="#ff0400" stroke="none" /><path d="M 80.41425534168474 107.57618678355246 l -0.3044980732806574 0.11778639610859427 a21.326485392843054,21.326485392843054 0 0,0 -0.12914640781187006,-0.34257619023724734 l 0.30647516490696347 -0.112541925677202" fill="#ff0100" stroke="none" /><path d="M 80.05021161711548 106.5578916946017 l -2.098082230646473 0.6896813024218403 a23.208531037921986,23.208531037921986 0 0,0 -0.12116542365404664,-0.37954896385508935 l 2.1096123700777745 -0.6535633048753593" fill="#ff1c02" stroke="none" /><path d="M 79.73907114497094 105.5222062557868 l -7.067703969090943 1.9263341454592577 a28.32551722642614,28.32551722642614 0 0,0 -0.12383716395393687,-0.4702298823264843 l 7.099730613849613 -1.8047237587599707" fill="#ff6309" stroke="none" /><path d="M 79.17382384314188 102.69636545807758 l -2.13251446235724 0.2760966915790464 a23.150313306302987,23.150313306302987 0 0,0 -0.047643249692077005,-0.3945544530252479 l 2.1369397983089784 -0.23944856163039924" fill="#ff1b02" stroke="none" /><path d="M 79.13060592940153 102.33845913500099 l -5.6198991788891055 0.6297214249824589 a26.655069924763122,26.655069924763122 0 0,0 -0.047049508111660296,-0.45516131110725233 l 5.629881079482432 -0.5331555915922751" fill="#ff4c07" stroke="none" /><path d="M 79.03789590574601 101.26102812881392 l -7.952055385004766 0.47837590526639706 a28.966431343639556,28.966431343639556 0 0,0 -0.025598615469203057,-0.4966063013774573 l 7.959095589930542 -0.341797810512209" fill="#ff6b09" stroke="none" /><line stroke="#e1ed5e" stroke-width="0.3" x1="15.003131293944662" x2="10.003315487706104" y1="100.72959589197737" y2="100.7725132973878" /><path d="M 14.003168132696942 100.73817937305945 a86.0,86.0 0 0,1 10.791469493833604,-42.45332614584628" fill="none" id="id58" stroke="none" /><text fill="#e1ed5e" style="font-size:6.75px; font-family:Arial;" text-anchor="middle"><textPath startOffset="22.145653131862435" xlink:href="#id58">October</textPath></text><path d="M 79.17382384314186 97.30363454192245 l -1.5949831838263335 -0.20650250582211027 a22.608295570347565,22.608295570347565 0 0,0 0.0531353979874884,-0.38446127046855955 l 1.5912032692836373 0.2338520844907368" fill="#ff1302" stroke="none" /><path d="M 79.56144815229197 95.17655741523228 l -4.234304609719004 -0.9992843584799873 a25.350621192081697,25.350621192081697 0 0,0 0.10359045280194665,-0.4226843977606392 l 4.216526630400759 1.0718245808487443" fill="#ff3a05" stroke="none" /><path d="M 79.73907114497095 94.47779374421319 l -2.542284253238974 -0.6929108782561999 a23.635020817654507,23.635020817654507 0 0,0 0.1100508559713763,-0.39053166391016386 l 2.530014905193015 0.7364504660693769" fill="#ff2203" stroke="none" /><path d="M 80.41425534168474 92.42381321644754 l -2.695741789878478 -1.0427708354543697 a23.890396999197762,23.890396999197762 0 0,0 0.15123909679326228,-0.38122132060927827 l 2.6774440181190844 1.0888931732772307" fill="#ff2503" stroke="none" /><path d="M 81.29705330413844 90.45014215332179 l -2.520463452515293 -1.28696659786743 a23.83002103163418,23.83002103163418 0 0,0 0.18915582010147122,-0.3627312261743316 l 2.497999563438882 1.3300440671462481" fill="#ff2403" stroke="none" /><line stroke="#e1ed5e" stroke-width="0.3" x1="26.387840678322718" x2="22.05771365940052" y1="57.49999999999999" y2="54.99999999999999" /><path d="M 25.521815274538284 56.99999999999999 a86.0,86.0 0 0,1 29.574782752854787,-30.34633250058573" fill="none" id="id59" stroke="none" /><text fill="#e1ed5e" style="font-size:6.75px; font-family:Arial;" text-anchor="middle"><textPath startOffset="21.40746469413373" xlink:href="#id59">November</textPath></text><path d="M 82.37810715431573 88.57770195909679 l -1.7599350149777957 -1.1407686137769866 a23.09731358817025,23.09731358817025 0 0,0 0.21851770174064733,-0.3308636516016301 l 1.7400928743164192 1.1708121437176777" fill="#ff1a02" stroke="none" /><path d="M 82.98947788004972 87.6856937992154 l -0.24408758567644082 -0.1767005885318893 a21.301333448971185,21.301333448971185 0 0,0 0.21696724785269453,-0.29435774147864574 l 0.24101831823992753 0.1808646392793984" fill="#ff0000" stroke="none" /><path d="M 83.64595745247003 86.82634096563983 l -1.1178093217153473 -0.9004280640037516 a22.435363500357756,22.435363500357756 0 0,0 0.24417493759734815,-0.29785372157926937 l 1.1021875648793693 0.9194840672815139" fill="#ff1001" stroke="none" /><path d="M 84.10781606972428 86.27271002978789 l -2.700923538498151 -2.332993423874389 a24.5690119468355,24.5690119468355 0 0,0 0.27843585775314333,-0.3168088943576447 l 2.660476616786415 2.3790145960433335" fill="#ff2f04" stroke="none" /><path d="M 85.34317274990677 84.96080404539775 l -1.648380628048688 -1.6913837387854083 a23.361765789987206,23.361765789987206 0 0,0 0.2896052578049731,-0.277435285841198 l 1.6191028843784143 1.7194311549321746" fill="#ff1e03" stroke="none" /><path d="M 85.86807049272753 84.46653392183569 l -4.564933166270008 -5.0176612083191845 a27.78347542296595,27.78347542296595 0 0,0 0.3555424534544621,-0.3179282542625422 l 4.478125685992155 5.095284992465128" fill="#ff5b08" stroke="none" /><path d="M 86.13680546590413 84.22622945171909 l -1.9403843367533764 -2.207801183785533 a23.93929880098003,23.93929880098003 0 0,0 0.3110062834759994,-0.2686398203395934 l 1.9021985735145284 2.2407851365898366" fill="#ff2603" stroke="none" /><path d="M 87.25179093698888 83.31218511350988 l -3.797347103260106 -4.97084925464709 a27.255332711779882,27.255332711779882 0 0,0 0.3742377963659394,-0.2808350192580108 l 3.7114563179834144 5.035303301169102" fill="#ff5407" stroke="none" /><path d="M 87.54013794807813 83.09580414077388 l -1.145677305127606 -1.5543312981029498 a22.93093818434119,22.93093818434119 0 0,0 0.31886997141753876,-0.2308372687553013 l 1.1188263233360993 1.5737693382313305" fill="#ff1802" stroke="none" /><path d="M 87.83215693770416 82.88440491214696 l -1.1082205842778758 -1.558851038052849 a22.91263415797576,22.91263415797576 0 0,0 0.3225279586303473,-0.22514956390756352 l 1.0812975344737632 1.5776454177655392" fill="#ff1702" stroke="none" /><path d="M 88.12776184653039 82.6780497279521 l -3.4020388929114067 -4.963676415921819 a27.01763676129262,27.01763676129262 0 0,0 0.38481311629285037,-0.25891943830556 l 3.316329488521567 5.021345528284489" fill="#ff5107" stroke="none" /><line stroke="#e1ed5e" stroke-width="0.3" x1="56.869717070023135" x2="54.33264160355391" y1="26.7553504044142" y2="22.446841604673864" /><path d="M 56.362301976729285 25.89364864446614 a86.0,86.0 0 0,1 42.16139366436587,-11.88097634709845" fill="none" id="id60" stroke="none" /><text fill="#e1ed5e" style="font-size:6.75px; font-family:Arial;" text-anchor="middle"><textPath startOffset="22.145653131862474" xlink:href="#id60">December</textPath></text><path d="M 89.34428304082924 81.90426304109057 l -1.921037171182606 -3.2623410955083387 a24.78592831898701,24.78592831898701 0 0,0 0.3684930243933317,-0.21274954682798827 l 1.8647516789288745 3.294837539612501" fill="#ff3204" stroke="none" /><path d="M 89.97174638481275 81.54914285379989 l -2.0538340018285766 -3.7788232352198996 a25.300899807029335,25.300899807029335 0 0,0 0.38338234710763586,-0.2041295057382362 l 1.9886628389343788 3.8135232086807114" fill="#ff3905" stroke="none" /><path d="M 90.28995756902619 81.37971332152246 l -6.893018354229623 -13.21827157277322 a35.90759556076469,35.90759556076469 0 0,0 0.5489976889657027,-0.28032213174929616 l 6.665093443550338 13.33465165619535" fill="#ffc612" stroke="none" /><path d="M 90.93487009805054 81.0573650232925 l -0.8908478733677871 -1.8615294284258586 a23.0637106740964,23.0637106740964 0 0,0 0.35859818262353854,-0.16784205615152886 l 0.858760976872726 1.8765477161479303" fill="#ff1902" stroke="none" /><path d="M 91.5904679813234 80.7573450057729 l -0.3588378181903151 -0.8210911521571278 a21.89607770863598,21.89607770863598 0 0,0 0.3457129218822041,-0.14756428899045826 l 0.3446898211376799 0.8271300908069901" fill="#ff0901" stroke="none" /><path d="M 92.592206182469 80.34994680014964 l -1.0292305627097986 -2.7301563475345527 a23.917716441534225,23.917716441534225 0 0,0 0.3854292719750301,-0.14153496742093294 l 0.9822121390806416 2.747422163964208" fill="#ff2603" stroke="none" /><path d="M 93.27111125876988 80.10723608172694 l -0.9630039033274126 -2.846949925607709 a24.00541185143427,24.00541185143427 0 0,0 0.391490844405581,-0.12869081655234735 l 0.9139903212740705 2.863061663562085" fill="#ff2703" stroke="none" /><path d="M 95.35216902796891 79.52079915486377 l -0.6970385999294175 -3.071280683541951 a24.14938531254743,24.14938531254743 0 0,0 0.4050629106012125,-0.08828157606720796 l 0.6442132727090866 3.082793717742873" fill="#ff2904" stroke="none" /><path d="M 96.41257539226777 79.30868818359171 l -0.5020729897007863 -2.895823583889165 a23.939025606556665,23.939025606556665 0 0,0 0.40550714110670305,-0.06672604575554388 l 0.4522883455410104 2.9040156281403773" fill="#ff2603" stroke="none" /><path d="M 97.48249496171623 79.15144685158666 l -0.7461958950446554 -6.179572449861663 a27.22446174193968,27.22446174193968 0 0,0 0.46445463049426444,-0.05204311010653504 l 0.6400053629495918 6.191471320475169" fill="#ff5407" stroke="none" /><path d="M 98.1996594967304 79.07731436759882 l -0.053165884639387324 -0.6178681691925672 a21.620151341037705,21.620151341037705 0 0,0 0.3700453680771961,-0.028643851819645443 l 0.04255152178697402 0.6186897880072663" fill="#ff0500" stroke="none" /><path d="M 99.27912038922189 79.0123766808444 l -0.8394367528452111 -24.43928515325032 a45.45369732502447,45.45369732502447 0 0,0 0.7800432067712887,-0.020091146002684572 l 0.4197802320031786 24.450094016603053" fill="#c6ff1e" stroke="none" /><path d="M 99.63950707515114 79.00309439819443 l -0.08115135714643602 -4.726659715101278 a25.72735630190152,25.72735630190152 0 0,0 0.441644281995287,-0.003790984994675604 l 1.1578683527105528e-15 4.727356301901519" fill="#ff3f05" stroke="none" /></svg>