<?xml version="1.0" encoding="utf-8" ?>
<svg baseProfile="full" height="200mm" version="1.1" viewBox="0,0,200,200" width="200mm" xmlns="http://www.w3.org/2000/svg" xmlns:ev="http://www.w3.org/2001/xml-events" xmlns:xlink="http://www.w3.org/1999/xlink"><defs /><rect fill="#1a1a1a" height="200" width="200" x="0" y="0" /><rect fill="#1a1a1a" height="200" width="180" x="10" y="0" /><text alignment-baseline="middle" fill="#e1ed5e" style="dominant-baseline: central; font-size:9.0px; font-family:Arial;" text-anchor="middle" x="100.0" y="100.0">2025</text><line stroke="#e1ed5e" stroke-width="0.3" x1="100.0" x2="100.0" y1="15.0" y2="10.0" /><path d="M 100.0 14.0 a86.0,86.0 0 0,1 42.46469731375804,11.215312516191453" fill="none" id="id157" stroke="none" /><text fill="#e1ed5e" style="font-size:6.75px; font-family:Arial;" text-anchor="middle"><textPath startOffset="22.20632615414155" xlink:href="#id157">January</textPath></text><path d="M 101.08401301168833 79.027996857942 l 0.49149974607427355 -9.508865768074386 a30.52155975644999,30.52155975644999 0 0,0 0.5244446232731794,0.03163593187198089 l -0.6551064181870649 9.498996566822102" fill="#ff6309" stroke="none" /><path d="M 106.0581310904928 79.89281104454417 l 2.019578265555763 -6.703064227116001 a28.000697565496417,28.000697565496417 0 0,0 0.46029763685298786,0.14301671638430857 l -2.134661275119469 6.667307375849172" fill="#ff3f05" stroke="none" /><path d="M 108.43124777332544 80.76684994638697 l 4.201550662195786 -9.58447154162998 a31.46494733380502,31.46494733380502 0 0,0 0.4941762986757097,0.22172250032243895 l -4.365909079338277 9.51072871079101" fill="#ff700a" stroke="none" /><line stroke="#e1ed5e" stroke-width="0.3" x1="143.23703022742887" x2="145.7803849466894" y1="26.81831364943548" y2="22.513508569990506" /><path d="M 143.74570117128098 25.957352633546492 a86.0,86.0 0 0,1 28.547481713284135,27.462654790039103" fill="none" id="id158" stroke="none" /><text fill="#e1ed5e" style="font-size:6.75px; font-family:Arial;" text-anchor="middle"><textPath startOffset="19.985693538727396" xlink:href="#id158">February</textPath></text><path d="M 112.48926042617603 83.11751280151076 l 37.41638002334856 -50.577979416143826 a83.91357163499387,83.91357163499387 0 0,0 1.1538269791179019,0.8690385593297074 l -38.28145315622485 49.92642426730827" fill="#4dd3ff" stroke="none" /><path d="M 113.06298171725822 83.55741782278167 l 3.893419168915247 -4.900708430960178 a27.25904592970533,27.25904592970533 0 0,0 0.3648773890102195,0.2950388063913841 l -3.9771999564899576 4.832963527304663" fill="#ff3404" stroke="none" /><path d="M 116.38621287248628 86.86637796730983 l 11.932417058905049 -9.563885005498824 a36.29217032556378,36.29217032556378 0 0,0 0.3865045618905318,0.49082154344818807 l -12.095275701389545 9.357071068097598" fill="#ffb210" stroke="none" /><path d="M 117.45458315368197 88.32363383020206 l 28.760778128943116 -19.23972482213165 a55.60273644979023,55.60273644979023 0 0,0 0.5253223807116634,0.8001020261207984 l -29.0876971450127 18.741804732033174" fill="#65ff29" stroke="none" /><line stroke="#e1ed5e" stroke-width="0.3" x1="172.23445277983987" x2="176.4835382374775" y1="55.19839476539836" y2="52.563006222186495" /><path d="M 173.08426987136738 54.67131705675599 a86.0,86.0 0 0,1 12.851231095245387,41.99856678651699" fill="none" id="id159" stroke="none" /><text fill="#e1ed5e" style="font-size:6.75px; font-family:Arial;" text-anchor="middle"><textPath startOffset="22.20632615414155" xlink:href="#id159">March</textPath></text><path d="M 118.03404312379186 89.2402003453031 l 5.663123368612831 -3.378835929793108 a27.594505176932504,27.594505176932504 0 0,0 0.23986237894416657,0.4100025581480932 l -5.720445422027325 3.2808539592911194" fill="#ff3905" stroke="none" /><path d="M 119.7369772167798 92.82701384747503 l 27.803748022358402 -10.10468307087651 a50.58298538102024,50.58298538102024 0 0,0 0.29036300243449675,0.8208953085847406 l -27.97356410560271 9.624590135865155" fill="#9cff22" stroke="none" /><path d="M 119.97218684219823 93.5106431181261 l 10.890970873570527 -3.5386909479219666 a32.45144445883865,32.45144445883865 0 0,0 0.16804364898568264,0.5327442893527108 l -10.950270006324416 3.350696492142837" fill="#ff7e0b" stroke="none" /><path d="M 120.6074358757038 95.95851677861258 l 18.74319903348674 -3.675873352990583 a40.10025012705657,40.10025012705657 0 0,0 0.1270113861064162,0.6784999033037072 l -18.803696143503014 3.352695372224313" fill="#ffe415" stroke="none" /><line stroke="#e1ed5e" stroke-width="0.3" x1="184.98032266829074" x2="189.97916517819016" y1="98.17113171792111" y2="98.06355123074" /><path d="M 185.9800911702706 98.14961562048488 a86.0,86.0 0 0,1 -9.607161424134198,41.387399972396054" fill="none" id="id160" stroke="none" /><text fill="#e1ed5e" style="font-size:6.75px; font-family:Arial;" text-anchor="middle"><textPath startOffset="21.466115282336823" xlink:href="#id160">April</textPath></text><path d="M 120.89721153311464 102.0752229133903 l 10.618221595252393 1.0544553620948687 a31.670450129049613,31.670450129049613 0 0,0 -0.058541618306448585,0.5420226792354625 l -10.598497675444893 -1.2370743632151224" fill="#ff730a" stroke="none" /><path d="M 120.49622156327973 104.57218783832717 l 57.75090093924858 12.88276310400195 a80.17036542466792,80.17036542466792 0 0,0 -0.3120514428072919,1.3443094484687859 l -57.52058893051074 -13.874941209819301" fill="#48f7ff" stroke="none" /><path d="M 119.54520255179757 107.68017299344265 l 19.989672872609958 7.8548250056304765 a42.47755333884743,42.47755333884743 0 0,0 -0.2732669718485932,0.6782262136669596 l -19.851503286503974 -8.197750587140249" fill="#fcff18" stroke="none" /><line stroke="#e1ed5e" stroke-width="0.3" x1="174.80103733775053" x2="179.2010983576182" y1="140.37084112569926" y2="142.7455964860345" /><path d="M 175.68104954172406 140.8457921977663 a86.0,86.0 0 0,1 -30.038265399797805,32.042727171017184" fill="none" id="id161" stroke="none" /><text fill="#e1ed5e" style="font-size:6.75px; font-family:Arial;" text-anchor="middle"><textPath startOffset="22.206326154141568" xlink:href="#id161">May</textPath></text><path d="M 118.30583269289576 110.29060199501025 l 9.104848235011016 5.11827956604407 a31.4448574475082,31.4448574475082 0 0,0 -0.26929975443844434,0.4695468212072823 l -9.015396484420192 -5.274246233109667" fill="#ff700a" stroke="none" /><path d="M 117.55443506779139 111.5257021239791 l 4.407632821134954 2.8939161398297673 a26.27275807432062,26.27275807432062 0 0,0 -0.2514639421539928,0.3759044744445084 l -4.357165773570241 -2.969357528480083" fill="#ff2603" stroke="none" /><path d="M 115.80600337817218 113.82643327865902 l 5.405911787284847 4.728866421756631 a28.182343620763532,28.182343620763532 0 0,0 -0.32254175644857724,0.36237908261166035 l -5.323711181187931 -4.821219674109158" fill="#ff4106" stroke="none" /><path d="M 111.1453310114006 117.79835938074945 l 3.11550369411552 4.9752541529004075 a26.870222922002213,26.870222922002213 0 0,0 -0.3941232172586828,0.24210267027310933 l -3.029401276924528 -5.028145290001895" fill="#ff2e04" stroke="none" /><line stroke="#e1ed5e" stroke-width="0.3" x1="143.8653032363475" x2="146.44561519142675" y1="172.8068346515853" y2="177.08958963109032" /><path d="M 144.38136562736335 173.6633856474863 a86.0,86.0 0 0,1 -40.68145358897372,12.25698825130547" fill="none" id="id162" stroke="none" /><text fill="#e1ed5e" style="font-size:6.75px; font-family:Arial;" text-anchor="middle"><textPath startOffset="21.466115282336833" xlink:href="#id162">June</textPath></text><path d="M 110.5260780823613 118.17145234162733 l 10.918279359403899 18.848519978627635 a42.78245921733151,42.78245921733151 0 0,0 -0.6404151813862701,0.363644453800671 l -10.59221541109643 -19.033667598222934" fill="#f9ff18" stroke="none" /><path d="M 107.93186726928326 119.44442032107085 l 1.9163139650270893 4.6977102538544635 a26.07353336854378,26.07353336854378 0 0,0 -0.4170262062672847,0.16594333391378743 l -1.8351666827179385 -4.73000043217432" fill="#ff2303" stroke="none" /><path d="M 107.59598834532513 119.57807347666477 l 1.269795458777158 3.2727997545670773 a24.510498360721083,24.510498360721083 0 0,0 -0.39465378094125075,0.14922429077032123 l -1.2132714570756324 -3.2941722954440293" fill="#ff0c01" stroke="none" /><path d="M 107.2578585660854 119.70592522655815 l 1.9462971630345907 5.284421846223475 a26.6314462525785,26.6314462525785 0 0,0 -0.43153143961395307,0.15473182109234485 l -1.8550461627909027 -5.31714120835578" fill="#ff2b04" stroke="none" /><path d="M 106.91757812671514 119.82793768551818 l 3.022463731236237 8.663324276490494 a30.175427757127622,30.175427757127622 0 0,0 -0.4919029639443292,0.16688019279925106 l -2.872891034354681 -8.714067456187868" fill="#ff5e08" stroke="none" /><path d="M 104.48393922423573 120.51570834832081 l 0.5854425227549502 2.678619724956893 a23.741850940218637,23.741850940218637 0 0,0 -0.4000033135295382,0.08382458350948366 l -0.5392477477960339 -2.688300289192918" fill="#ff0000" stroke="none" /><line stroke="#e1ed5e" stroke-width="0.3" x1="102.19456741930631" x2="102.32365962044197" y1="184.97166512339345" y2="189.96999836594603" /><path d="M 102.22038585953345 185.97133177190398 a86.0,86.0 0 0,1 -42.740103519485714,-10.115201625700543" fill="none" id="id163" stroke="none" /><text fill="#e1ed5e" style="font-size:6.75px; font-family:Arial;" text-anchor="middle"><textPath startOffset="22.20632615414155" xlink:href="#id163">July</textPath></text><path d="M 94.11515582081647 120.15858648285463 l -7.647558768645306 26.196781108627142 a48.2902271073952,48.2902271073952 0 0,0 -0.7959264805634998,-0.23980611950930444 l 8.097360223649051 -26.061259620012112" fill="#b6ff1f" stroke="none" /><path d="M 92.7421414339146 119.70592522655815 l -4.744741229631928 12.882521068597272 a34.72850750879431,34.72850750879431 0 0,0 -0.5591782179654036,-0.2114333550563943 l 4.965789668357615 -12.798939463434245" fill="#ff9d0e" stroke="none" /><path d="M 92.40401165467489 119.57807347666478 l -22.787965035975347 58.734220429994345 a84.0,84.0 0 0,0 -1.3435156958325676,-0.5346126223757337 l 23.795601807849774 -58.333260963212545" fill="#4dd2ff" stroke="none" /><path d="M 91.07499286063937 119.00905698771935 l -2.946215572636104 6.275040327010645 a27.932266390297862,27.932266390297862 0 0,0 -0.43346532241146096,-0.20808969640176694 l 3.053793563047807 -6.223396354109316" fill="#ff3e05" stroke="none" /><line stroke="#e1ed5e" stroke-width="0.3" x1="58.666819895761336" x2="56.23545636021788" y1="174.27360380694188" y2="178.64263932499728" /><path d="M 58.180547188652646 175.14741091055294 a86.0,86.0 0 0,1 -31.652253787137756,-30.449443065178592" fill="none" id="id164" stroke="none" /><text fill="#e1ed5e" style="font-size:6.75px; font-family:Arial;" text-anchor="middle"><textPath startOffset="22.20632615414155" xlink:href="#id164">August</textPath></text><path d="M 89.4739219176387 118.17145234162733 l -10.277792331422571 17.742829956823975 a41.50465874099393,41.50465874099393 0 0,0 -0.6151230143904768,-0.3634255193216511 l 10.58168321684143 -17.563285865208574" fill="#fff517" stroke="none" /><path d="M 88.24862548938628 117.40417183066458 l -6.042269186779495 8.948799230154762 a31.797686075596168,31.797686075596168 0 0,0 -0.4509867563113764,-0.31019280330775933 l 6.195412827713762 -8.8434656374819" fill="#ff750a" stroke="none" /><path d="M 86.51685102203217 116.09983520530335 l -4.381563226056375 5.231896940128373 a27.82428325145243,27.82428325145243 0 0,0 -0.36454385295111197,-0.31067218009493464 l 4.470972555584543 -5.155700369810487" fill="#ff3c05" stroke="none" /><path d="M 85.44109423537348 115.13401014063109 l -21.79098913920029 22.651774517856367 a52.43167345962591,52.43167345962591 0 0,0 -0.6450345397767219,-0.6313020589458975 l 22.177673631352807 -22.273322355987897" fill="#87ff25" stroke="none" /><path d="M 84.43433777217949 114.09645910891817 l -7.835182517530511 7.09563964274357 a31.57062850651227,31.57062850651227 0 0,0 -0.3613200558371487,-0.4059469130606532 l 7.956161423015999 -6.959718559942052" fill="#ff720a" stroke="none" /><path d="M 82.85270091963577 112.12312394758628 l -33.791195604741326 23.89034277255461 a62.38349161426621,62.38349161426621 0 0,0 -0.6123655414011174,-0.8821582347685514 l 34.19742205330458 -23.305143275599047" fill="#31ff43" stroke="none" /><line stroke="#e1ed5e" stroke-width="0.3" x1="26.63291911575756" x2="22.317208475507996" y1="142.92168965132927" y2="145.44649492493687" /><path d="M 25.769776987707644 143.4266507060508 a86.0,86.0 0 0,1 -11.730757126820373,-40.83630448921669" fill="none" id="id165" stroke="none" /><text fill="#e1ed5e" style="font-size:6.75px; font-family:Arial;" text-anchor="middle"><textPath startOffset="21.46611528233685" xlink:href="#id165">September</textPath></text><line stroke="#e1ed5e" stroke-width="0.3" x1="15.007084014347285" x2="10.007500721073583" y1="101.09737516637583" y2="101.16192664675087" /><path d="M 14.007167355692545 101.11028546245083 a86.0,86.0 0 0,1 10.666146001902534,-42.60595125391555" fill="none" id="id166" stroke="none" /><text fill="#e1ed5e" style="font-size:6.75px; font-family:Arial;" text-anchor="middle"><textPath startOffset="22.20632615414155" xlink:href="#id166">October</textPath></text><line stroke="#e1ed5e" stroke-width="0.3" x1="26.266209847984243" x2="21.928928074336255" y1="57.711370442889674" y2="55.22380399835377" /><path d="M 25.398753493254645 57.213857153982495 a86.0,86.0 0 0,1 29.58750427330803,-30.492523968695096" fill="none" id="id167" stroke="none" /><text fill="#e1ed5e" style="font-size:6.75px; font-family:Arial;" text-anchor="middle"><textPath startOffset="21.46611528233685" xlink:href="#id167">November</textPath></text><line stroke="#e1ed5e" stroke-width="0.3" x1="56.762969772571076" x2="54.21961505331055" y1="26.818313649435495" y2="22.513508569990535" /><path d="M 56.25429882871897 25.957352633546506 a86.0,86.0 0 0,1 42.265352541879196,-11.944610805530505" fill="none" id="id168" stroke="none" /><text fill="#e1ed5e" style="font-size:6.75px; font-family:Arial;" text-anchor="middle"><textPath startOffset="22.20632615414155" xlink:href="#id168">December</textPath></text></svg>