<?xml version="1.0" encoding="utf-8" ?>
<svg baseProfile="full" height="200mm" version="1.1" viewBox="0,0,200,200" width="200mm" xmlns="http://www.w3.org/2000/svg" xmlns:ev="http://www.w3.org/2001/xml-events" xmlns:xlink="http://www.w3.org/1999/xlink"><defs /><rect fill="#1a1a1a" height="200" width="200" x="0" y="0" /><rect fill="#1a1a1a" height="200" width="180" x="10" y="0" /><text alignment-baseline="middle" fill="#e1ed5e" style="dominant-baseline: central; font-size:9.0px; font-family:Arial;" text-anchor="middle" x="100.0" y="100.0">2025</text><line stroke="#e1ed5e" stroke-width="0.3" x1="100.0" x2="100.0" y1="15.0" y2="10.0" /><path d="M 100.0 14.0 a86.0,86.0 0 0,1 42.46469731375804,11.215312516191453" fill="none" id="id37" stroke="none" /><text fill="#e1ed5e" style="font-size:6.75px; font-family:Arial;" text-anchor="middle"><textPath startOffset="22.20632615414155" xlink:href="#id37">January</textPath></text><line stroke="#e1ed5e" stroke-width="0.3" x1="143.23703022742887" x2="145.7803849466894" y1="26.81831364943548" y2="22.513508569990506" /><path d="M 143.74570117128098 25.957352633546492 a86.0,86.0 0 0,1 28.547481713284135,27.462654790039103" fill="none" id="id38" stroke="none" /><text fill="#e1ed5e" style="font-size:6.75px; font-family:Arial;" text-anchor="middle"><textPath startOffset="19.985693538727396" xlink:href="#id38">February</textPath></text><line stroke="#e1ed5e" stroke-width="0.3" x1="172.23445277983987" x2="176.4835382374775" y1="55.19839476539836" y2="52.563006222186495" /><path d="M 173.08426987136738 54.67131705675599 a86.0,86.0 0 0,1 12.851231095245387,41.99856678651699" fill="none" id="id39" stroke="none" /><text fill="#e1ed5e" style="font-size:6.75px; font-family:Arial;" text-anchor="middle"><textPath startOffset="22.20632615414155" xlink:href="#id39">March</textPath></text><line stroke="#e1ed5e" stroke-width="0.3" x1="184.98032266829074" x2="189.97916517819016" y1="98.17113171792111" y2="98.06355123074" /><path d="M 185.9800911702706 98.14961562048488 a86.0,86.0 0 0,1 -9.607161424134198,41.387399972396054" fill="none" id="id40" stroke="none" /><text fill="#e1ed5e" style="font-size:6.75px; font-family:Arial;" text-anchor="middle"><textPath startOffset="21.466115282336823" xlink:href="#id40">April</textPath></text><path d="M 120.23288151984713 105.62410040840565 l 2.662204745066786 0.7400086230575981 a23.763140761317764,23.763140761317764 0 0,0 -0.11293982946150354,0.39315836266915305 l -2.649072278719183 -0.7857244612313331" fill="#ff1402" stroke="none" /><path d="M 119.54520255179757 107.68017299344265 l 3.7820784386347794 1.4861455953964071 a25.06358782933287,25.06358782933287 0 0,0 -0.16123929490824318,0.4001827068239275 l -3.755936529469144 -1.551027670063148" fill="#ff2703" stroke="none" /><path d="M 119.41010516605496 108.01547362559984 l 4.705060619301352 1.9429719199467639 a26.090455314900822,26.090455314900822 0 0,0 -0.17499119196903282,0.41362748625233914 l -4.67091844614001 -2.023673931865267" fill="#ff3605" stroke="none" /><path d="M 118.97047184881838 109.00673069616215 l 2.437166830378724 1.1571090839370737 a23.69790355484179,23.69790355484179 0 0,0 -0.17812556672335056,0.3669914265002052 l -2.4168880070406593 -1.1988894664025542" fill="#ff1302" stroke="none" /><line stroke="#e1ed5e" stroke-width="0.3" x1="174.80103733775053" x2="179.2010983576182" y1="140.37084112569926" y2="142.7455964860345" /><path d="M 175.68104954172406 140.8457921977663 a86.0,86.0 0 0,1 -30.038265399797805,32.042727171017184" fill="none" id="id41" stroke="none" /><text fill="#e1ed5e" style="font-size:6.75px; font-family:Arial;" text-anchor="middle"><textPath startOffset="22.206326154141568" xlink:href="#id41">May</textPath></text><path d="M 118.30583269289576 110.29060199501025 l 1.2075018644597988 0.678795731603672 a22.38521637223838,22.38521637223838 0 0,0 -0.19171126096400687,0.3342647428810228 l -1.1956386073434122 -0.6994803203430099" fill="#ff0000" stroke="none" /><path d="M 115.07121518719521 114.62390073753431 l 6.908781182058709 6.703728197684513 a30.626589695733323,30.626589695733323 0 0,0 -0.37037664646709567,0.375189587437201 l -6.792363910536078 -6.821658279102379" fill="#ff750a" stroke="none" /><path d="M 111.45004920935366 117.60387380957326 l 5.880403575085214 9.040824243846803 a31.78497330613308,31.78497330613308 0 0,0 -0.4612123708491091,0.29436755658396574 l -5.723909402189174 -9.140706229254578" fill="#ff840c" stroke="none" /><line stroke="#e1ed5e" stroke-width="0.3" x1="143.8653032363475" x2="146.44561519142675" y1="172.8068346515853" y2="177.08958963109032" /><path d="M 144.38136562736335 173.6633856474863 a86.0,86.0 0 0,1 -40.68145358897372,12.25698825130547" fill="none" id="id42" stroke="none" /><text fill="#e1ed5e" style="font-size:6.75px; font-family:Arial;" text-anchor="middle"><textPath startOffset="21.466115282336833" xlink:href="#id42">June</textPath></text><path d="M 109.2508944713604 118.85261126421891 l 0.9487626233548144 1.9335052383857236 a23.153739311602067,23.153739311602067 0 0,0 -0.35931001571791077,0.1724906427782935 l -0.9153399396366709 -1.9495501576635772" fill="#ff0b01" stroke="none" /><path d="M 107.59598834532513 119.57807347666477 l 0.9926835264803922 2.558565144780506 a23.744389947480357,23.744389947480357 0 0,0 -0.3823183491011183,0.14456008594932793 l -0.9484949566189991 -2.5752734808364646" fill="#ff1402" stroke="none" /><path d="M 106.91757812671514 119.82793768551818 l 0.9949168468941335 2.8517421677254977 a24.02031338165719,24.02031338165719 0 0,0 -0.39156572832734315,0.13284035475793865 l -0.9456813856295634 -2.8684455093815595" fill="#ff1802" stroke="none" /><path d="M 101.98527174616119 120.90594882070398 l 0.2690967512918071 2.8337293981050067 a23.846477711706235,23.846477711706235 0 0,0 -0.40897354522479423,0.035287958352926606 l -0.22027888832547116 -2.8379416087365965" fill="#ff1502" stroke="none" /><path d="M 101.62511606390274 120.93702456842531 l 0.36668474232733644 4.724147172933032 a25.738356699509527,25.738356699509527 0 0,0 -0.44200999534277324,0.030483597168912604 l -0.28531198620563286 -4.729759114618229" fill="#ff3104" stroke="none" /><line stroke="#e1ed5e" stroke-width="0.3" x1="102.19456741930631" x2="102.32365962044197" y1="184.97166512339345" y2="189.96999836594603" /><path d="M 102.22038585953345 185.97133177190398 a86.0,86.0 0 0,1 -42.740103519485714,-10.115201625700543" fill="none" id="id43" stroke="none" /><text fill="#e1ed5e" style="font-size:6.75px; font-family:Arial;" text-anchor="middle"><textPath startOffset="22.20632615414155" xlink:href="#id43">July</textPath></text><path d="M 94.46302465271185 120.25689768951611 l -2.0960256518570475 7.6682619157885 a28.94956378315031,28.94956378315031 0 0,0 -0.4795548065297844,-0.135526978468807 l 2.227711626491446 -7.631046143981171" fill="#ff5e08" stroke="none" /><path d="M 92.7421414339146 119.70592522655815 l -3.0601968378788826 8.308788262639919 a29.854420764790138,29.854420764790138 0 0,0 -0.4806985096441959,-0.18175904461101355 l 3.202765568283361 -8.25488096792227" fill="#ff6a09" stroke="none" /><path d="M 92.40401165467489 119.57807347666478 l -18.27600268926871 47.10498584827824 a71.52615130865055,71.52615130865055 0 0,0 -1.1440060350674663,-0.455223610947157 l 19.084129800378037 -46.783415392925015" fill="#3dffb0" stroke="none" /><path d="M 91.7346041902142 119.30500536409082 l -8.32120810345465 19.435362899707417 a42.14180302964539,42.14180302964539 0 0,0 -0.6643942721791078,-0.2912509241754662 l 8.6545230502915 -19.2892474222375" fill="#f5ff19" stroke="none" /><line stroke="#e1ed5e" stroke-width="0.3" x1="58.666819895761336" x2="56.23545636021788" y1="174.27360380694188" y2="178.64263932499728" /><path d="M 58.180547188652646 175.14741091055294 a86.0,86.0 0 0,1 -31.652253787137756,-30.449443065178592" fill="none" id="id44" stroke="none" /><text fill="#e1ed5e" style="font-size:6.75px; font-family:Arial;" text-anchor="middle"><textPath startOffset="22.20632615414155" xlink:href="#id44">August</textPath></text><path d="M 87.95078237400918 117.19931262002967 l -31.40971698199355 44.83490616973057 a75.7424801423673,75.7424801423673 0 0,0 -1.0613781917546212,-0.757265158478109 l 32.17682250159706 -44.287596749408245" fill="#43ffdd" stroke="none" /><path d="M 87.36589467227662 116.77436683061367 l -33.895701838948305 45.0034982200106 a77.34033595208126,77.34033595208126 0 0,0 -1.0565105006340216,-0.8100871999672553 l 34.66534106807581 -44.413371678215974" fill="#45ffed" stroke="none" /><path d="M 83.72743513129214 113.27417163493432 l -29.188565756325037 23.810261919563732 a58.66830157558922,58.66830157558922 0 0,0 -0.6316120055430621,-0.7880330917004978 l 29.594095673922958 -23.304300994284972" fill="#3fff2d" stroke="none" /><path d="M 83.50135304334701 112.99209946851258 l -13.209209206724484 10.401783877492678 a37.81309952688919,37.81309952688919 0 0,0 -0.39828570643821765,-0.5148379650249225 l 13.38630173038077 -10.172867918354502" fill="#ffd313" stroke="none" /><path d="M 82.05923443525364 110.91462005526583 l -53.82229669423909 32.743860165797486 a84.0,84.0 0 0,0 -0.7408764972070725,-1.2417516244555555 l 54.3779540671444 -31.812546447455823" fill="#4dd2ff" stroke="none" /><line stroke="#e1ed5e" stroke-width="0.3" x1="26.63291911575756" x2="22.317208475507996" y1="142.92168965132927" y2="145.44649492493687" /><path d="M 25.769776987707644 143.4266507060508 a86.0,86.0 0 0,1 -11.730757126820373,-40.83630448921669" fill="none" id="id45" stroke="none" /><text fill="#e1ed5e" style="font-size:6.75px; font-family:Arial;" text-anchor="middle"><textPath startOffset="21.46611528233685" xlink:href="#id45">September</textPath></text><path d="M 81.87401531095188 110.60418214915194 l -21.63287656969573 12.655806980449423 a46.06293675940796,46.06293675940796 0 0,0 -0.39449177273994324,-0.6878296575825813 l 21.84752033858805 -12.281557477008535" fill="#c7ff1e" stroke="none" /><path d="M 81.51974371655577 109.97397251340807 l -48.48688101690237 26.168837223145914 a76.09796432136812,76.09796432136812 0 0,0 -0.6122171524422502,-1.1580841323629019 l 48.93015067756951 -25.330338075696886" fill="#43ffe0" stroke="none" /><path d="M 81.35079622478065 109.6543875284942 l -6.565086815093218 3.3986379812814365 a28.392638569382353,28.392638569382353 0 0,0 -0.22095060777553396,-0.4359565107307259 l 6.622616092655018 -3.2851272588480254" fill="#ff5608" stroke="none" /><path d="M 81.18737489456691 109.33194174019688 l -12.016549267304375 5.960770336528131 a34.41373323494943,34.41373323494943 0 0,0 -0.2586712247079324,-0.5329393387842897 l 12.117373748627026 -5.753042041778556" fill="#ffa70f" stroke="none" /><path d="M 81.02952815118164 109.00673069616217 l -18.279986338208634 8.678904530675867 a41.23564390815574,41.23564390815574 0 0,0 -0.2989100806559749,-0.643825721443826 l 18.426671035704434 -8.362958741953214" fill="#fffe18" stroke="none" /><line stroke="#e1ed5e" stroke-width="0.3" x1="15.007084014347285" x2="10.007500721073583" y1="101.09737516637583" y2="101.16192664675087" /><path d="M 14.007167355692545 101.11028546245083 a86.0,86.0 0 0,1 10.666146001902534,-42.60595125391555" fill="none" id="id46" stroke="none" /><text fill="#e1ed5e" style="font-size:6.75px; font-family:Arial;" text-anchor="middle"><textPath startOffset="22.20632615414155" xlink:href="#id46">October</textPath></text><path d="M 79.81627453868168 94.20196356495316 l -16.301743999082408 -4.6828870043158295 a37.961022613828725,37.961022613828725 0 0,0 0.18581758401479662,-0.6264845184287197 l 16.218720517955905 4.962800909491089" fill="#ffd513" stroke="none" /><path d="M 80.65960295795068 91.81776055985345 l -29.419354272329883 -12.446290544467269 a52.94383436781111,52.94383436781111 0 0,0 0.36231051691451516,-0.8362626261270641 l 29.20075304557269 12.950852315180931" fill="#7aff26" stroke="none" /><line stroke="#e1ed5e" stroke-width="0.3" x1="26.266209847984243" x2="21.928928074336255" y1="57.711370442889674" y2="55.22380399835377" /><path d="M 25.398753493254645 57.213857153982495 a86.0,86.0 0 0,1 29.58750427330803,-30.492523968695096" fill="none" id="id47" stroke="none" /><text fill="#e1ed5e" style="font-size:6.75px; font-family:Arial;" text-anchor="middle"><textPath startOffset="21.46611528233685" xlink:href="#id47">November</textPath></text><line stroke="#e1ed5e" stroke-width="0.3" x1="56.762969772571076" x2="54.21961505331055" y1="26.818313649435495" y2="22.513508569990535" /><path d="M 56.25429882871897 25.957352633546506 a86.0,86.0 0 0,1 42.265352541879196,-11.944610805530505" fill="none" id="id48" stroke="none" /><text fill="#e1ed5e" style="font-size:6.75px; font-family:Arial;" text-anchor="middle"><textPath startOffset="22.20632615414155" xlink:href="#id48">December</textPath></text></svg>