<?xml version="1.0" encoding="utf-8" ?>
<svg baseProfile="full" height="200mm" version="1.1" viewBox="0,0,200,200" width="200mm" xmlns="http://www.w3.org/2000/svg" xmlns:ev="http://www.w3.org/2001/xml-events" xmlns:xlink="http://www.w3.org/1999/xlink"><defs /><rect fill="#1a1a1a" height="200" width="200" x="0" y="0" /><text alignment-baseline="middle" fill="#e1ed5e" style="dominant-baseline: central; font-size:9.0px; font-family:Arial;" text-anchor="middle" x="100.0" y="100.0">2025</text><line stroke="#e1ed5e" stroke-width="0.3" x1="100.0" x2="100.0" y1="15.0" y2="10.0" /><path d="M 100.0 14.0 a86.0,86.0 0 0,1 42.46469731375804,11.215312516191453" fill="none" id="id37" stroke="none" /><text fill="#e1ed5e" style="font-size:6.75px; font-family:Arial;" text-anchor="middle"><textPath startOffset="22.20632615414155" xlink:href="#id37">January</textPath></text><line stroke="#e1ed5e" stroke-width="0.3" x1="143.23703022742887" x2="145.7803849466894" y1="26.81831364943548" y2="22.513508569990506" /><path d="M 143.74570117128098 25.957352633546492 a86.0,86.0 0 0,1 28.547481713284135,27.462654790039103" fill="none" id="id38" stroke="none" /><text fill="#e1ed5e" style="font-size:6.75px; font-family:Arial;" text-anchor="middle"><textPath startOffset="19.985693538727396" xlink:href="#id38">February</textPath></text><line stroke="#e1ed5e" stroke-width="0.3" x1="172.23445277983987" x2="176.4835382374775" y1="55.19839476539836" y2="52.563006222186495" /><path d="M 173.08426987136738 54.67131705675599 a86.0,86.0 0 0,1 12.851231095245387,41.99856678651699" fill="none" id="id39" stroke="none" /><text fill="#e1ed5e" style="font-size:6.75px; font-family:Arial;" text-anchor="middle"><textPath startOffset="22.20632615414155" xlink:href="#id39">March</textPath></text><line stroke="#e1ed5e" stroke-width="0.3" x1="184.98032266829074" x2="189.97916517819016" y1="98.17113171792111" y2="98.06355123074" /><path d="M 185.9800911702706 98.14961562048488 a86.0,86.0 0 0,1 -9.607161424134198,41.387399972396054" fill="none" id="id40" stroke="none" /><text fill="#e1ed5e" style="font-size:6.75px; font-family:Arial;" text-anchor="middle"><textPath startOffset="21.466115282336823" xlink:href="#id40">April</textPath></text><path d="M 120.23288151984713 105.62410040840565 l 2.9768885134418874 0.8274807465166797 a24.08975559022361,24.08975559022361 0 0,0 -0.1144921420723126,0.3985621665116619 l -2.9622037344834755 -0.8786003885329235" fill="#ff1702" stroke="none" /><path d="M 119.54520255179757 107.68017299344265 l 4.229135975274373 1.6618142389070174 a25.54392095683827,25.54392095683827 0 0,0 -0.1643293782326027,0.4078520402190988 l -4.199903982784377 -1.7343656469689297" fill="#ff2c04" stroke="none" /><path d="M 119.41010516605496 108.01547362559984 l 5.261218521453191 2.172639351330035 a26.69216848673947,26.69216848673947 0 0,0 -0.17902694005746791,0.4231668025926867 l -5.223040600203414 -2.262880679588885" fill="#ff3c05" stroke="none" /><path d="M 118.97047184881838 109.00673069616215 l 2.725250173240893 1.2938842315394947 a24.01680707228289,24.01680707228289 0 0,0 -0.18052260870821676,0.3719300429694131 l -2.702574307917962 -1.3406032304741833" fill="#ff1602" stroke="none" /><line stroke="#e1ed5e" stroke-width="0.3" x1="174.80103733775053" x2="179.2010983576182" y1="140.37084112569926" y2="142.7455964860345" /><path d="M 175.68104954172406 140.8457921977663 a86.0,86.0 0 0,1 -30.038265399797805,32.042727171017184" fill="none" id="id41" stroke="none" /><text fill="#e1ed5e" style="font-size:6.75px; font-family:Arial;" text-anchor="middle"><textPath startOffset="22.206326154141568" xlink:href="#id41">May</textPath></text><path d="M 118.30583269289576 110.29060199501025 l 1.3502336501093777 0.7590322345149517 a22.548954758190327,22.548954758190327 0 0,0 -0.1931135477195635,0.3367097480384382 l -1.3369681062374346 -0.782161828411705" fill="#ff0000" stroke="none" /><path d="M 115.07121518719521 114.62390073753431 l 7.725428098971426 7.496136991680875 a31.764492979719186,31.764492979719186 0 0,0 -0.384137656312253,0.38912941775796206 l -7.595249817603637 -7.628006903419502" fill="#ff820c" stroke="none" /><path d="M 111.45004920935366 117.60387380957326 l 6.575491944979842 10.10948759423058 a33.05980239209568,33.05980239209568 0 0,0 -0.4797106385525702,0.306174026247559 l -6.400499504380341 -10.221176049301947" fill="#ff940d" stroke="none" /><line stroke="#e1ed5e" stroke-width="0.3" x1="143.8653032363475" x2="146.44561519142675" y1="172.8068346515853" y2="177.08958963109032" /><path d="M 144.38136562736335 173.6633856474863 a86.0,86.0 0 0,1 -40.68145358897372,12.25698825130547" fill="none" id="id42" stroke="none" /><text fill="#e1ed5e" style="font-size:6.75px; font-family:Arial;" text-anchor="middle"><textPath startOffset="21.466115282336833" xlink:href="#id42">June</textPath></text><path d="M 109.2508944713604 118.85261126421891 l 1.0609103453374993 2.162053668297317 a23.40832033281331,23.40832033281331 0 0,0 -0.36326071713602065,0.17438721954271608 l -1.0235369602012458 -2.179995164339593" fill="#ff0d01" stroke="none" /><path d="M 107.59598834532513 119.57807347666477 l 1.1100228834534398 2.8609982776508005 a24.06878835153406,24.06878835153406 0 0,0 -0.38754162342247056,0.14653508135984614 l -1.0606110392706944 -2.879681609117277" fill="#ff1602" stroke="none" /><path d="M 106.91757812671514 119.82793768551818 l 1.112520191708494 3.1888300545369668 a24.37732709308372,24.37732709308372 0 0,0 -0.3973855663834249,0.1348147598094383 l -1.057464892387842 -3.207507801244528" fill="#ff1b02" stroke="none" /><path d="M 101.98527174616119 120.90594882070398 l 0.3009051161108241 3.168688099986748 a24.182943317732708,24.182943317732708 0 0,0 -0.414744021410269,0.03578585931910686 l -0.24631677695901344 -3.1733982115845185" fill="#ff1802" stroke="none" /><path d="M 101.62511606390274 120.93702456842531 l 0.4100284170522207 5.2825611857890715 a26.29845033801352,26.29845033801352 0 0,0 -0.4516285964616001,0.031146952217269347 l -0.3190370598116902 -5.288836482522626" fill="#ff3605" stroke="none" /><line stroke="#e1ed5e" stroke-width="0.3" x1="102.19456741930631" x2="102.32365962044197" y1="184.97166512339345" y2="189.96999836594603" /><path d="M 102.22038585953345 185.97133177190398 a86.0,86.0 0 0,1 -42.740103519485714,-10.115201625700543" fill="none" id="id43" stroke="none" /><text fill="#e1ed5e" style="font-size:6.75px; font-family:Arial;" text-anchor="middle"><textPath startOffset="22.20632615414155" xlink:href="#id43">July</textPath></text><path d="M 94.46302465271185 120.25689768951611 l -2.3437846763871844 8.574682641324033 a29.889235569422777,29.889235569422777 0 0,0 -0.4951206411324346,-0.13992603881043528 l 2.4910364856242326 -8.533067809175076" fill="#ff6909" stroke="none" /><path d="M 92.7421414339146 119.70592522655815 l -3.421924941135315 9.290921889275278 a30.901050442017677,30.901050442017677 0 0,0 -0.49755073163022845,-0.1881311129788169 l 3.581345893525827 -9.230642526189829" fill="#ff770a" stroke="none" /><path d="M 92.40401165467489 119.57807347666478 l -20.436302871946147 52.6729927731626 a77.49855434217369,77.49855434217369 0 0,0 -1.239530049560042,-0.4932345877047355 l 21.339953997548047 -52.3134113410518" fill="#45ffee" stroke="none" /><path d="M 91.7346041902142 119.30500536409082 l -9.30480980737349 21.73270432258287 a44.64085283411337,44.64085283411337 0 0,0 -0.7037934970962486,-0.3085223865426506 l 9.677523979127482 -21.569317382745766" fill="#d8ff1c" stroke="none" /><line stroke="#e1ed5e" stroke-width="0.3" x1="58.666819895761336" x2="56.23545636021788" y1="174.27360380694188" y2="178.64263932499728" /><path d="M 58.180547188652646 175.14741091055294 a86.0,86.0 0 0,1 -31.652253787137756,-30.449443065178592" fill="none" id="id44" stroke="none" /><text fill="#e1ed5e" style="font-size:6.75px; font-family:Arial;" text-anchor="middle"><textPath startOffset="22.20632615414155" xlink:href="#id44">August</textPath></text><path d="M 87.95078237400918 117.19931262002967 l -35.12247728782836 50.13458015400214 a82.21327093083724,82.21327093083724 0 0,0 -1.1520532820524239,-0.8219594278326249 l 35.98025789772967 -49.52257646432529" fill="#4be2ff" stroke="none" /><path d="M 87.36589467227662 116.77436683061367 l -37.902315983170105 50.323100491841 a84.0,84.0 0 0,0 -1.147485086026053,-0.8798426326905329 l 38.76292979768965 -49.663218517323095" fill="#4dd2ff" stroke="none" /><line stroke="#e1ed5e" stroke-width="0.3" x1="26.63291911575756" x2="22.317208475507996" y1="142.92168965132927" y2="145.44649492493687" /><path d="M 25.769776987707644 143.4266507060508 a86.0,86.0 0 0,1 -11.730757126820373,-40.83630448921669" fill="none" id="id45" stroke="none" /><text fill="#e1ed5e" style="font-size:6.75px; font-family:Arial;" text-anchor="middle"><textPath startOffset="21.46611528233685" xlink:href="#id45">September</textPath></text><line stroke="#e1ed5e" stroke-width="0.3" x1="15.007084014347285" x2="10.007500721073583" y1="101.09737516637583" y2="101.16192664675087" /><path d="M 14.007167355692545 101.11028546245083 a86.0,86.0 0 0,1 10.666146001902534,-42.60595125391555" fill="none" id="id46" stroke="none" /><text fill="#e1ed5e" style="font-size:6.75px; font-family:Arial;" text-anchor="middle"><textPath startOffset="22.20632615414155" xlink:href="#id46">October</textPath></text><line stroke="#e1ed5e" stroke-width="0.3" x1="26.266209847984243" x2="21.928928074336255" y1="57.711370442889674" y2="55.22380399835377" /><path d="M 25.398753493254645 57.213857153982495 a86.0,86.0 0 0,1 29.58750427330803,-30.492523968695096" fill="none" id="id47" stroke="none" /><text fill="#e1ed5e" style="font-size:6.75px; font-family:Arial;" text-anchor="middle"><textPath startOffset="21.46611528233685" xlink:href="#id47">November</textPath></text><line stroke="#e1ed5e" stroke-width="0.3" x1="56.762969772571076" x2="54.21961505331055" y1="26.818313649435495" y2="22.513508569990535" /><path d="M 56.25429882871897 25.957352633546506 a86.0,86.0 0 0,1 42.265352541879196,-11.944610805530505" fill="none" id="id48" stroke="none" /><text fill="#e1ed5e" style="font-size:6.75px; font-family:Arial;" text-anchor="middle"><textPath startOffset="22.20632615414155" xlink:href="#id48">December</textPath></text></svg>