<?xml version="1.0" encoding="utf-8" ?>
<svg baseProfile="full" height="200mm" version="1.1" viewBox="0,0,200,200" width="200mm" xmlns="http://www.w3.org/2000/svg" xmlns:ev="http://www.w3.org/2001/xml-events" xmlns:xlink="http://www.w3.org/1999/xlink"><defs /><rect fill="#1a1a1a" height="200" width="200" x="0" y="0" /><rect fill="#1a1a1a" height="200" width="180" x="10" y="0" /><text alignment-baseline="middle" fill="#e1ed5e" style="dominant-baseline: central; font-size:9.0px; font-family:Arial;" text-anchor="middle" x="100.0" y="100.0">2021</text><line stroke="#e1ed5e" stroke-width="0.3" x1="100.0" x2="100.0" y1="15.0" y2="10.0" /><path d="M 100.0 14.0 a86.0,86.0 0 0,1 42.46469731375804,11.215312516191453" fill="none" id="id109" stroke="none" /><text fill="#e1ed5e" style="font-size:6.75px; font-family:Arial;" text-anchor="middle"><textPath startOffset="22.20632615414155" xlink:href="#id109">January</textPath></text><path d="M 100.0 79.0 l 0.0 -1.300294272058629 a22.30029427205863,22.30029427205863 0 0,0 0.38386290768486536,0.003304029236288693 l -0.022382428412336983 1.3001016194308992" fill="#ff0000" stroke="none" /><path d="M 100.36148047927253 79.00311137660856 l 0.19991169857656935 -11.612034149043549 a32.61375485214757,32.61375485214757 0 0,0 0.5612258252309654,0.014494807288248574 l -0.39976415900240264 11.60687254961294" fill="#ff910d" stroke="none" /><path d="M 102.52436894288641 79.15227682838746 l 0.1566268678057823 -1.2935167779073085 a22.302964938302775,22.302964938302775 0 0,0 0.38072783052321235,0.04942939936381322 l -0.1788694268368408 1.2906290553793585" fill="#ff0000" stroke="none" /><path d="M 108.76106565485865 80.91482961587045 l 2.855587996297445 -6.220634064759915 a27.844754997240553,27.844754997240553 0 0,0 0.43387669219626246,0.20371092463742466 l -2.9622428997933055 6.170558157482488" fill="#ff4f07" stroke="none" /><path d="M 110.05341064243156 81.56283822128135 l 6.706887221014056 -12.299901906279738 a35.00963679398954,35.00963679398954 0 0,0 0.5266048054075545,0.2930550040663785 l -6.9176161154936455 12.18263150465318" fill="#ffb010" stroke="none" /><path d="M 110.36928655335952 81.73862282372117 l 7.167265787873122 -12.622290183752854 a35.5152302205952,35.5152302205952 0 0,0 0.5290133362022998,0.3064386697765297 l -7.38347585654075 12.497047356586274" fill="#ffb710" stroke="none" /><line stroke="#e1ed5e" stroke-width="0.3" x1="143.23703022742887" x2="145.7803849466894" y1="26.81831364943548" y2="22.513508569990506" /><path d="M 143.74570117128098 25.957352633546492 a86.0,86.0 0 0,1 28.547481713284135,27.462654790039103" fill="none" id="id110" stroke="none" /><text fill="#e1ed5e" style="font-size:6.75px; font-family:Arial;" text-anchor="middle"><textPath startOffset="19.985693538727396" xlink:href="#id110">February</textPath></text><path d="M 114.94478906791727 85.2469230424477 l 7.233179808195778 -7.140392405216945 a31.163862151671033,31.163862151671033 0 0,0 0.37357418021932,0.3850010308135295 l -7.355018252118207 7.0148271788533005" fill="#ff7d0b" stroke="none" /><path d="M 115.68641384162765 86.03803664274999 l 2.5496672405061727 -2.269375329793937 a24.413336699592893,24.413336699592893 0 0,0 0.27669394151031573,0.31630900653042354 l -2.588353045594337 2.225150767060566" fill="#ff1f03" stroke="none" /><line stroke="#e1ed5e" stroke-width="0.3" x1="172.23445277983987" x2="176.4835382374775" y1="55.19839476539836" y2="52.563006222186495" /><path d="M 173.08426987136738 54.67131705675599 a86.0,86.0 0 0,1 12.851231095245387,41.99856678651699" fill="none" id="id111" stroke="none" /><text fill="#e1ed5e" style="font-size:6.75px; font-family:Arial;" text-anchor="middle"><textPath startOffset="22.20632615414155" xlink:href="#id111">March</textPath></text><path d="M 118.03404312379186 89.2402003453031 l 4.289053999664344 -2.5590136070863148 a25.994450405529083,25.994450405529083 0 0,0 0.2259540685233434,0.38622874719384326 l -4.3324677426580145 2.484805447538576" fill="#ff3505" stroke="none" /><path d="M 118.89224826269711 90.83032412892265 l 6.250235648294454 -3.033658790408621 a27.94755577997286,27.94755577997286 0 0,0 0.20633521551596468,0.4345945859171043 l -6.301529057652174 2.9256217888509766" fill="#ff5107" stroke="none" /><path d="M 120.28053869075195 94.5502522615342 l 1.9979405940602066 -0.5368827919267125 a23.06881844289456,23.06881844289456 0 0,0 0.09974920638251611,0.3843743824539719 l -2.0068861323130256 0.5024119839238902" fill="#ff0b01" stroke="none" /><path d="M 120.45610955862082 95.25157060432595 l 11.977446911333917 -2.7802970469981134 a33.29590526083252,33.29590526083252 0 0,0 0.12478926827980501,0.5594058209818056 l -12.02353056661576 2.5737130564663437" fill="#ff9a0e" stroke="none" /><path d="M 120.53481517161879 95.60439243477599 l 4.107125047256285 -0.8791561929416484 a25.200165683087704,25.200165683087704 0 0,0 0.08714541785545533,0.4249520065284162 l -4.121649761026737 0.8083285302498203" fill="#ff2a04" stroke="none" /><path d="M 120.87857604477298 97.74499172005257 l 4.774952706524172 -0.5157228091838709 a25.802722495153663,25.802722495153663 0 0,0 0.04389273394050977,0.44199384075951853 l -4.783122566146911 0.4334534377199174" fill="#ff3304" stroke="none" /><line stroke="#e1ed5e" stroke-width="0.3" x1="184.98032266829074" x2="189.97916517819016" y1="98.17113171792111" y2="98.06355123074" /><path d="M 185.9800911702706 98.14961562048488 a86.0,86.0 0 0,1 -9.607161424134198,41.387399972396054" fill="none" id="id112" stroke="none" /><text fill="#e1ed5e" style="font-size:6.75px; font-family:Arial;" text-anchor="middle"><textPath startOffset="21.466115282336823" xlink:href="#id112">April</textPath></text><path d="M 120.9904718944345 100.63252640178507 l 4.504417364858196 0.13573601023650078 a25.506462033714584,25.506462033714584 0 0,0 -0.017001717475417445,0.43873878260719584 l -4.501413514531576 -0.2132520398577028" fill="#ff2e04" stroke="none" /><path d="M 120.9764740272857 100.99374915477107 l 9.468110051703336 0.4485466122152224 a30.478728923990573,30.478728923990573 0 0,0 -0.029337444374459863,0.5238397770863717 l -9.458986256441346 -0.6114581056370175" fill="#ff740a" stroke="none" /><path d="M 120.95626037817324 101.35467743843564 l 1.9586409776814588 0.12661260618922934 a22.9627290265085,22.9627290265085 0 0,0 -0.028893063016126562,0.3942228892096039 l -1.9561713560009948 -0.1603086318956035" fill="#ff0a01" stroke="none" /><path d="M 120.5718875245553 104.21870165774334 l 5.119729744824907 1.049909121654971 a26.226274181841134,26.226274181841134 0 0,0 -0.09449696412596806,0.4414583567373028 l -5.100898741974496 -1.137881297808443" fill="#ff3905" stroke="none" /><path d="M 120.32669344350535 105.2749913415812 l 5.755016657761157 1.4934875229323339 a26.945647291276448,26.945647291276448 0 0,0 -0.1203725241243154,0.4479509419446827 l -5.728456057295064 -1.592329398052565" fill="#ff4306" stroke="none" /><path d="M 118.64920377521936 109.65438752849418 l 5.09844170997476 2.639379817648859 a26.741117808565026,26.741117808565026 0 0,0 -0.2151354657628431,0.406955225306198 l -5.052253735987024 -2.7267500580411914" fill="#ff4006" stroke="none" /><line stroke="#e1ed5e" stroke-width="0.3" x1="174.80103733775053" x2="179.2010983576182" y1="140.37084112569926" y2="142.7455964860345" /><path d="M 175.68104954172406 140.8457921977663 a86.0,86.0 0 0,1 -30.038265399797805,32.042727171017184" fill="none" id="id113" stroke="none" /><text fill="#e1ed5e" style="font-size:6.75px; font-family:Arial;" text-anchor="middle"><textPath startOffset="22.206326154141568" xlink:href="#id113">May</textPath></text><path d="M 118.48025628344425 109.97397251340804 l 12.607714254412446 6.8045049539202695 a35.326749330844045,35.326749330844045 0 0,0 -0.29341992669963335,0.5326423965388494 l -12.488717918261303 -7.020517868856924" fill="#ffb410" stroke="none" /><path d="M 116.71984013943494 112.70617746262583 l 2.442836870310474 1.8564243753265548 a24.06818569129296,24.06818569129296 0 0,0 -0.2535104093735064,0.32769637766234255 l -2.4105196437188994 -1.89819874710215" fill="#ff1a02" stroke="none" /><path d="M 116.0416608686014 113.55231037782055 l 2.3957696787807556 2.023993310079183 a24.13628144033831,24.13628144033831 0 0,0 -0.2708521672630245,0.31506226113711006 l -2.3605750019469527 -2.064932670377821" fill="#ff1b02" stroke="none" /><path d="M 111.1453310114006 117.79835938074945 l 1.6016291232039386 2.557696195859869 a24.01778489601414,24.01778489601414 0 0,0 -0.35228463426304696,0.2164019954076694 l -1.557365289008583 -2.5848866580959164" fill="#ff1902" stroke="none" /><line stroke="#e1ed5e" stroke-width="0.3" x1="143.8653032363475" x2="146.44561519142675" y1="172.8068346515853" y2="177.08958963109032" /><path d="M 144.38136562736335 173.6633856474863 a86.0,86.0 0 0,1 -40.68145358897372,12.25698825130547" fill="none" id="id114" stroke="none" /><text fill="#e1ed5e" style="font-size:6.75px; font-family:Arial;" text-anchor="middle"><textPath startOffset="21.466115282336833" xlink:href="#id114">June</textPath></text><path d="M 104.83641907484287 120.43548508189849 l 0.9202734613518976 3.888462579379519 a24.995878435951653,24.995878435951653 0 0,0 -0.41954969032849615,0.09548814358224583 l -0.8532036216305394 -3.9037274565394493" fill="#ff2703" stroke="none" /><line stroke="#e1ed5e" stroke-width="0.3" x1="102.19456741930631" x2="102.32365962044197" y1="184.97166512339345" y2="189.96999836594603" /><path d="M 102.22038585953345 185.97133177190398 a86.0,86.0 0 0,1 -42.740103519485714,-10.115201625700543" fill="none" id="id115" stroke="none" /><text fill="#e1ed5e" style="font-size:6.75px; font-family:Arial;" text-anchor="middle"><textPath startOffset="22.20632615414155" xlink:href="#id115">July</textPath></text><path d="M 95.86986931433489 120.58985236759428 l -10.060570569521188 50.15474776117094 a72.15382491242465,72.15382491242465 0 0,0 -1.2156494925973749,-0.2547511707124089 l 10.922411523547948 -49.97414060973199" fill="#3effb7" stroke="none" /><path d="M 94.46302465271185 120.25689768951611 l -5.567755736956621 20.3695070412379 a42.11674030359453,42.11674030359453 0 0,0 -0.6976714882215599,-0.19716893142354802 l 5.917558393282795 -20.27064931647583" fill="#f5ff19" stroke="none" /><path d="M 93.42475214034765 119.94407469862007 l -7.987379191015344 24.227358516677445 a46.51005933032474,46.51005933032474 0 0,0 -0.7581810015074066,-0.2572161604673809 l 8.403229925459977 -24.086279369311942" fill="#c1ff1e" stroke="none" /><path d="M 92.40401165467489 119.57807347666478 l -2.617484045292633 6.746363031780506 a28.236341401836714,28.236341401836714 0 0,0 -0.4516186650744594,-0.17970838718014795 l 2.7332237864089506 -6.700307800194292" fill="#ff5507" stroke="none" /><path d="M 92.06813273071674 119.44442032107085 l -12.277898226329759 30.098412601609116 a53.506325938081865,53.506325938081865 0 0,0 -0.8498041332276915,-0.3552181966103322 l 12.794173819054913 -29.88260936197881" fill="#74ff27" stroke="none" /><path d="M 91.07499286063937 119.00905698771935 l -12.643303002974227 26.928523814464697 a50.74892444528389,50.74892444528389 0 0,0 -0.7875443613967078,-0.3780691524624516 l 13.104960032371178 -26.706900385502685" fill="#91ff24" stroke="none" /><path d="M 90.42595943632237 118.69057910512821 l -13.088973693649889 25.552481901343945 a49.70976425663521,49.70976425663521 0 0,0 -0.7582137964125473,-0.39666162288597673 l 13.526878392588932 -25.323390859513253" fill="#9dff22" stroke="none" /><line stroke="#e1ed5e" stroke-width="0.3" x1="58.666819895761336" x2="56.23545636021788" y1="174.27360380694188" y2="178.64263932499728" /><path d="M 58.180547188652646 175.14741091055294 a86.0,86.0 0 0,1 -31.652253787137756,-30.449443065178592" fill="none" id="id116" stroke="none" /><text fill="#e1ed5e" style="font-size:6.75px; font-family:Arial;" text-anchor="middle"><textPath startOffset="22.20632615414155" xlink:href="#id116">August</textPath></text><path d="M 89.7882731507175 118.34994917583269 l -20.332461144019117 36.53638940005128 a62.81287752074983,62.81287752074983 0 0,0 -0.9402526429464234,-0.5338999897515857 l 20.958362553886747 -36.18098624450506" fill="#33ff4e" stroke="none" /><path d="M 87.95078237400918 117.19931262002967 l -22.820009725469784 32.57377312314896 a60.771893836589136,60.771893836589136 0 0,0 -0.8515955995703259,-0.6075908490278958 l 23.377332652889 -32.176138012276844" fill="#30ff36" stroke="none" /><path d="M 86.51685102203217 116.09983520530335 l -19.6130735001395 23.419399410162125 a51.54735538233345,51.54735538233345 0 0,0 -0.6753550979443529,-0.5755522659841361 l 20.01329407466091 -23.07832275395504" fill="#89ff24" stroke="none" /><path d="M 85.70375840098266 115.38237550388516 l -2.7769322507612517 2.987905201112065 a25.079084482595388,25.079084482595388 0 0,0 -0.31368460951729177,-0.2966083775047283 l 2.8279526946693605 -2.9396621868614057" fill="#ff2803" stroke="none" /><path d="M 85.18274418774928 114.88116024355367 l -21.774660472375164 21.868571066342987 a51.86049641808944,51.86049641808944 0 0,0 -0.6271647264117977,-0.6353145566873905 l 22.147865823842494 -21.49051601567493" fill="#85ff25" stroke="none" /><path d="M 84.9287848128048 114.62390073753433 l -21.728932938530484 21.084017080161303 a51.27676176349922,51.27676176349922 0 0,0 -0.6092007679283348,-0.6387445696202841 l 22.088640257837778 -20.70686539395852" fill="#8cff24" stroke="none" /><path d="M 84.67929136418377 114.36230785411682 l -37.28956142357091 34.956879191495126 a72.11256982358697,72.11256982358697 0 0,0 -0.8411539527117347,-0.9129064857452882 l 37.88576178427837 -34.3098214509485" fill="#3effb7" stroke="none" /><path d="M 83.50135304334701 112.99209946851258 l -24.033187005115717 18.92528259657788 a51.59020102881308,51.59020102881308 0 0,0 -0.5434000364725164,-0.7024177982027986 l 24.355393858806302 -18.50878680426183" fill="#88ff25" stroke="none" /><path d="M 83.06392112726016 112.41649034213515 l -24.585641824060048 18.024678944722627 a51.48512481459274,51.48512481459274 0 0,0 -0.5178427977574306,-0.7192383542740576 l 24.892264414193086 -17.59880698499743" fill="#89ff24" stroke="none" /><line stroke="#e1ed5e" stroke-width="0.3" x1="26.63291911575756" x2="22.317208475507996" y1="142.92168965132927" y2="145.44649492493687" /><path d="M 25.769776987707644 143.4266507060508 a86.0,86.0 0 0,1 -11.730757126820373,-40.83630448921669" fill="none" id="id117" stroke="none" /><text fill="#e1ed5e" style="font-size:6.75px; font-family:Arial;" text-anchor="middle"><textPath startOffset="21.46611528233685" xlink:href="#id117">September</textPath></text><path d="M 81.69416730710424 110.29060199501025 l -30.30315203889366 17.0348807430955 a55.763029002430024,55.763029002430024 0 0,0 -0.4631613208791934,-0.8407723316955527 l 30.59188976922437 -16.510737893002126" fill="#5cff2a" stroke="none" /><path d="M 81.51974371655577 109.97397251340807 l -35.86031123934394 19.35415576156797 a61.7497885568214,61.7497885568214 0 0,0 -0.4967843759199337,-0.9397288211603174 l 36.188148123488766 -18.734011925321525" fill="#31ff42" stroke="none" /><path d="M 81.18737489456691 109.33194174019688 l -56.437875316299255 27.995825220590643 a84.0,84.0 0 0,0 -0.6313869735411242,-1.300844176138861 l 56.9114155464551 -27.020192088486496" fill="#4dd2ff" stroke="none" /><path d="M 80.87730276802145 108.67885076344099 l -33.59084896971836 15.24523249460599 a57.888511061318525,57.888511061318525 0 0,0 -0.4040036851270547,-0.9109216561035087 l 33.84829373957669 -14.664762502009786" fill="#46ff2c" stroke="none" /><path d="M 80.73074385275274 108.34839909993369 l -30.953800559103076 13.410724251753708 a54.734037617950584,54.734037617950584 0 0,0 -0.3671064520891295,-0.8677312112458335 l 31.180057992384512 -12.875918514841715" fill="#67ff28" stroke="none" /><path d="M 80.20201598880116 107.00284435728193 l -15.20040565583523 5.37661182649457 a37.12328399659167,37.12328399659167 0 0,0 -0.20790659921417576,-0.6042738962382521 l 15.290703085992634 -5.114165227167021" fill="#ffcb12" stroke="none" /><path d="M 79.29508885075956 103.50808413554451 l -30.95063061011595 5.2440416404505665 a52.39174267049579,52.39174267049579 0 0,0 -0.14300013218226296,-0.8904619596032516 l 31.036312496659505 -4.710500451154101" fill="#7fff26" stroke="none" /><path d="M 79.18660465613746 102.79330883721812 l -27.32169487032118 3.6667699079453593 a48.56665036134692,48.56665036134692 0 0,0 -0.10406790319983951,-0.8295235818260073 l 27.38076428276787 -3.1959285718319435" fill="#a9ff21" stroke="none" /><path d="M 79.07016306316243 101.71520430193888 l -33.590812947963165 2.7527738055409867 a54.70341938334332,54.70341938334332 0 0,0 -0.06883107585409681,-0.9391453434847179 l 33.6332205824816 -2.174155325559508" fill="#67ff28" stroke="none" /><path d="M 79.04373962182676 101.35467743843564 l -34.214152166922766 2.211708538609714 a55.2855634802916,55.2855634802916 0 0,0 -0.05321538005598619,-0.9501963589699932 l 34.24715389786628 -1.622440463304283" fill="#61ff29" stroke="none" /><line stroke="#e1ed5e" stroke-width="0.3" x1="15.007084014347285" x2="10.007500721073583" y1="101.09737516637583" y2="101.16192664675087" /><path d="M 14.007167355692545 101.11028546245083 a86.0,86.0 0 0,1 10.666146001902534,-42.60595125391555" fill="none" id="id118" stroke="none" /><text fill="#e1ed5e" style="font-size:6.75px; font-family:Arial;" text-anchor="middle"><textPath startOffset="22.20632615414155" xlink:href="#id118">October</textPath></text><path d="M 79.00486145842228 99.54816195383935 l -20.972246234895103 -0.45134537900805505 a41.97710239256661,41.97710239256661 0 0,0 0.021764738891282755,-0.7222657247158099 l 20.961369801548173 0.8122812511488593" fill="#f6ff19" stroke="none" /><path d="M 79.26566170972629 96.67025291283419 l -32.67174733174566 -5.246786947694839 a54.09035882222994,54.09035882222994 0 0,0 0.1555436228084594,-0.9180272666351944 l 32.57659184741698 5.808400002645862" fill="#6dff28" stroke="none" /><path d="M 80.02781315780177 93.51064311812611 l -27.831693341334557 -9.04306534611382 a50.263974184997004,50.263974184997004 0 0,0 0.2744477764684537,-0.8205639192683344 l 27.67190827109433 9.520802368304476" fill="#97ff23" stroke="none" /><path d="M 80.38941819471856 92.48833698450439 l -37.75187076921094 -14.460526170951212 a61.4266071259507,61.4266071259507 0 0,0 0.38671398433018855,-0.9841449092096717 l 37.49736323499906 15.108220085056647" fill="#31ff3e" stroke="none" /><path d="M 80.52162464483688 92.15188598940014 l -23.052433170355147 -9.28815265359003 a45.853258434058134,45.853258434058134 0 0,0 0.30127405950011793,-0.7295590319235715 l 22.88913742396883 9.683586255966912" fill="#c8ff1d" stroke="none" /><path d="M 81.43458229118936 90.18545643968196 l -44.201156051641135 -23.366787555734398 a70.9974895067378,70.9974895067378 0 0,0 0.5804616154346863,-1.0755072165593578 l 43.792386336987974 24.124175755626226" fill="#3dffab" stroke="none" /><line stroke="#e1ed5e" stroke-width="0.3" x1="26.266209847984243" x2="21.928928074336255" y1="57.711370442889674" y2="55.22380399835377" /><path d="M 25.398753493254645 57.213857153982495 a86.0,86.0 0 0,1 29.58750427330803,-30.492523968695096" fill="none" id="id119" stroke="none" /><text fill="#e1ed5e" style="font-size:6.75px; font-family:Arial;" text-anchor="middle"><textPath startOffset="21.46611528233685" xlink:href="#id119">November</textPath></text><path d="M 82.7489923806493 88.02491185347247 l -41.197607825798535 -28.59803879436105 a71.15068008962666,71.15068008962666 0 0,0 0.7070594774798357,-1.0000854878966001 l 40.69923572851482 29.302950782589434" fill="#3dffad" stroke="none" /><path d="M 84.31358615837235 86.03803664274999 l -26.97949816011962 -24.013567951965914 a57.11848234291666,57.11848234291666 0 0,0 0.6600077608985178,-0.7287970542465523 l 26.562146758605056 24.474417793482022" fill="#4eff2b" stroke="none" /><path d="M 86.10567301691215 84.25364557470407 l -24.314041776738804 -27.554952448866008 a57.7484425789756,57.7484425789756 0 0,0 0.7510217993718546,-0.6512787037235659 l 23.83612617872018 27.969396146009252" fill="#48ff2c" stroke="none" /><path d="M 86.37877921826538 84.01681056812374 l -39.022624557972094 -45.789287937789936 a81.16164988796669,81.16164988796669 0 0,0 1.0711114073530206,-0.8970250001431279 l 38.22865561365997 46.45421409532688" fill="#49ecff" stroke="none" /><path d="M 88.39885842347998 82.49532879139004 l -34.733020477811266 -52.40778241828687 a83.87255656893996,83.87255656893996 0 0,0 1.2102928701029285,-0.7872081492013487 l 33.82576058192405 52.997889491647754" fill="#4dd3ff" stroke="none" /><line stroke="#e1ed5e" stroke-width="0.3" x1="56.762969772571076" x2="54.21961505331055" y1="26.818313649435495" y2="22.513508569990535" /><path d="M 56.25429882871897 25.957352633546506 a86.0,86.0 0 0,1 42.265352541879196,-11.944610805530505" fill="none" id="id120" stroke="none" /><text fill="#e1ed5e" style="font-size:6.75px; font-family:Arial;" text-anchor="middle"><textPath startOffset="22.20632615414155" xlink:href="#id120">December</textPath></text><path d="M 91.90106846888425 80.62456947434976 l -4.2312553023239365 -10.122618376448017 a31.971368384511,31.971368384511 0 0,0 0.5095872718870434,-0.20787344317712078 l 4.056384160848513 10.193952705808714" fill="#ff880c" stroke="none" /><path d="M 97.83486435360386 79.11191278185805 l -1.8422443422705628 -17.773002150016506 a38.86822513964717,38.86822513964717 0 0,0 0.6660808372551718,-0.06325240141946728 l 1.5360383779251545 17.802080095951155" fill="#ffe115" stroke="none" /><path d="M 98.55514903715128 79.0497635885617 l -1.2671730979708649 -18.373919981589125 a39.417563985230544,39.417563985230544 0 0,0 0.6773025251506503,-0.040856737950049946 l 0.9507085239805917 18.39300998891948" fill="#ffe815" stroke="none" /></svg>