<?xml version="1.0" encoding="utf-8" ?>
<svg baseProfile="full" height="200mm" version="1.1" viewBox="0,0,200,200" width="200mm" xmlns="http://www.w3.org/2000/svg" xmlns:ev="http://www.w3.org/2001/xml-events" xmlns:xlink="http://www.w3.org/1999/xlink"><defs /><rect fill="#1a1a1a" height="200" width="200" x="0" y="0" /><rect fill="#1a1a1a" height="200" width="180" x="10" y="0" /><text alignment-baseline="middle" fill="#e1ed5e" style="dominant-baseline: central; font-size:9.0px; font-family:Arial;" text-anchor="middle" x="100.0" y="100.0">2019</text><line stroke="#e1ed5e" stroke-width="0.3" x1="100.0" x2="100.0" y1="15.0" y2="10.0" /><path d="M 100.0 14.0 a86.0,86.0 0 0,1 42.46469731375804,11.215312516191453" fill="none" id="id85" stroke="none" /><text fill="#e1ed5e" style="font-size:6.75px; font-family:Arial;" text-anchor="middle"><textPath startOffset="22.20632615414155" xlink:href="#id85">January</textPath></text><path d="M 103.95276090670814 79.375362276772 l 5.55756581990391 -28.998157076485313 a50.52591491681637,50.52591491681637 0 0,0 0.8527657828059884,0.17105679362691484 l -6.055898012177025 28.89819632678119" fill="#95ff23" stroke="none" /><path d="M 109.08828744355905 81.06846463323043 l 3.2204746711171715 -6.708472912270091 a28.441442462451,28.441442462451 0 0,0 0.43952691841594893,0.21567395002225712 l -3.3354728565435523 6.652043802113002" fill="#ff5407" stroke="none" /><line stroke="#e1ed5e" stroke-width="0.3" x1="143.23703022742887" x2="145.7803849466894" y1="26.81831364943548" y2="22.513508569990506" /><path d="M 143.74570117128098 25.957352633546492 a86.0,86.0 0 0,1 28.547481713284135,27.462654790039103" fill="none" id="id86" stroke="none" /><text fill="#e1ed5e" style="font-size:6.75px; font-family:Arial;" text-anchor="middle"><textPath startOffset="19.985693538727396" xlink:href="#id86">February</textPath></text><path d="M 113.34407831869373 83.78471172551755 l 2.960762693758562 -3.597822153394557 a25.659446316485372,25.659446316485372 0 0,0 0.3386343882102885,0.28359656152246093 l -3.0222546189279678 3.5463244344782767" fill="#ff2d04" stroke="none" /><path d="M 114.94478906791727 85.2469230424477 l 32.264419755126646 -31.85053100950124 a66.3370610838661,66.3370610838661 0 0,0 0.795209948367565,0.819533752720667 l -32.807893967197316 31.29043306123046" fill="#37ff76" stroke="none" /><line stroke="#e1ed5e" stroke-width="0.3" x1="172.23445277983987" x2="176.4835382374775" y1="55.19839476539836" y2="52.563006222186495" /><path d="M 173.08426987136738 54.67131705675599 a86.0,86.0 0 0,1 12.851231095245387,41.99856678651699" fill="none" id="id87" stroke="none" /><text fill="#e1ed5e" style="font-size:6.75px; font-family:Arial;" text-anchor="middle"><textPath startOffset="22.20632615414155" xlink:href="#id87">March</textPath></text><line stroke="#e1ed5e" stroke-width="0.3" x1="184.98032266829074" x2="189.97916517819016" y1="98.17113171792111" y2="98.06355123074" /><path d="M 185.9800911702706 98.14961562048488 a86.0,86.0 0 0,1 -9.607161424134198,41.387399972396054" fill="none" id="id88" stroke="none" /><text fill="#e1ed5e" style="font-size:6.75px; font-family:Arial;" text-anchor="middle"><textPath startOffset="21.466115282336823" xlink:href="#id88">April</textPath></text><path d="M 120.95626037817324 101.35467743843564 l 13.833981692163192 0.8942713319989207 a34.86285579072153,34.86285579072153 0 0,0 -0.04386650594189457,0.5985236214759164 l -13.81653862755696 -1.1322680899716075" fill="#ffab0f" stroke="none" /><line stroke="#e1ed5e" stroke-width="0.3" x1="174.80103733775053" x2="179.2010983576182" y1="140.37084112569926" y2="142.7455964860345" /><path d="M 175.68104954172406 140.8457921977663 a86.0,86.0 0 0,1 -30.038265399797805,32.042727171017184" fill="none" id="id89" stroke="none" /><text fill="#e1ed5e" style="font-size:6.75px; font-family:Arial;" text-anchor="middle"><textPath startOffset="22.206326154141568" xlink:href="#id89">May</textPath></text><path d="M 118.12598468904814 110.60418214915192 l 5.49243801192695 3.213222019137533 a27.363306613634954,27.363306613634954 0 0,0 -0.24134322328468447,0.4045051242613978 l -5.436313912944038 -3.3072892372850347" fill="#ff4506" stroke="none" /><path d="M 117.94076556474637 110.91462005526583 l 8.169869092546024 4.970301669936562 a30.562983827211724,30.562983827211724 0 0,0 -0.2773013874447623,0.4470981312449169 l -8.0831030654333 -5.110196132546753" fill="#ff720a" stroke="none" /><path d="M 116.27256486870786 113.27417163493432 l 35.7557314447194 29.167357448519546 a67.14333182244867,67.14333182244867 0 0,0 -0.7382697094418352,0.8892934241089926 l -35.24836573538403 -29.778512129742307" fill="#38ff80" stroke="none" /><path d="M 114.55890576462653 115.13401014063108 l 3.447903343072732 3.5841020610738923 a25.973311275937416,25.973311275937416 0 0,0 -0.32486943497152043,0.30718432809330715 l -3.385698073710404 -3.6429210259131213" fill="#ff3204" stroke="none" /><path d="M 114.29624159901734 115.38237550388516 l 2.0151014807415133 2.168195566681775 a23.96001790417983,23.96001790417983 0 0,0 -0.3045209320670287,0.2781726513216201 l -1.9774809992076208 -2.202560984589978" fill="#ff1502" stroke="none" /><path d="M 112.04921762599082 117.19931262002967 l 3.540846236481339 5.054280140922443 a27.171170052212712,27.171170052212712 0 0,0 -0.3853688541329738,0.2650602118534805 l -3.453320497725482 -5.114481142141017" fill="#ff4306" stroke="none" /><path d="M 111.45004920935366 117.60387380957326 l 1.0962333505163506 1.6854035485341687 a23.010550342616636,23.010550342616636 0 0,0 -0.33389206830050133,0.21310571554582367 l -1.0670594801689188 -1.7040236929038013" fill="#ff0701" stroke="none" /><line stroke="#e1ed5e" stroke-width="0.3" x1="143.8653032363475" x2="146.44561519142675" y1="172.8068346515853" y2="177.08958963109032" /><path d="M 144.38136562736335 173.6633856474863 a86.0,86.0 0 0,1 -40.68145358897372,12.25698825130547" fill="none" id="id90" stroke="none" /><text fill="#e1ed5e" style="font-size:6.75px; font-family:Arial;" text-anchor="middle"><textPath startOffset="21.466115282336833" xlink:href="#id90">June</textPath></text><path d="M 104.48393922423573 120.51570834832081 l 0.7911276266047194 3.6197064326821047 a24.705152841702677,24.705152841702677 0 0,0 -0.4162330486707939,0.08722568230709282 l -0.7287031165045473 -3.632788095715739" fill="#ff1f03" stroke="none" /><line stroke="#e1ed5e" stroke-width="0.3" x1="102.19456741930631" x2="102.32365962044197" y1="184.97166512339345" y2="189.96999836594603" /><path d="M 102.22038585953345 185.97133177190398 a86.0,86.0 0 0,1 -42.740103519485714,-10.115201625700543" fill="none" id="id91" stroke="none" /><text fill="#e1ed5e" style="font-size:6.75px; font-family:Arial;" text-anchor="middle"><textPath startOffset="22.20632615414155" xlink:href="#id91">July</textPath></text><path d="M 92.06813273071674 119.44442032107085 l -0.589821052694596 1.4459052419124183 a22.561579598608912,22.561579598608912 0 0,0 -0.3583300340455172,-0.14978198329245296 l 0.6146225462375754 -1.435538215599992" fill="#ff0000" stroke="none" /><line stroke="#e1ed5e" stroke-width="0.3" x1="58.666819895761336" x2="56.23545636021788" y1="174.27360380694188" y2="178.64263932499728" /><path d="M 58.180547188652646 175.14741091055294 a86.0,86.0 0 0,1 -31.652253787137756,-30.449443065178592" fill="none" id="id92" stroke="none" /><text fill="#e1ed5e" style="font-size:6.75px; font-family:Arial;" text-anchor="middle"><textPath startOffset="22.20632615414155" xlink:href="#id92">August</textPath></text><path d="M 87.65650970185807 116.9893568818739 l -14.064045944677947 19.35749856693066 a44.92718410308105,44.92718410308105 0 0,0 -0.6217388065298813,-0.4599475053952064 l 14.395169721626393 -19.112541112795686" fill="#d5ff1c" stroke="none" /><path d="M 82.24976979558568 111.22182372390057 l -25.760400521370894 16.28591124615438 a51.476698314270585,51.476698314270585 0 0,0 -0.4670538696196892,-0.753039551016545 l 26.036919030658538 -15.840075363772572" fill="#8bff24" stroke="none" /><line stroke="#e1ed5e" stroke-width="0.3" x1="26.63291911575756" x2="22.317208475507996" y1="142.92168965132927" y2="145.44649492493687" /><path d="M 25.769776987707644 143.4266507060508 a86.0,86.0 0 0,1 -11.730757126820373,-40.83630448921669" fill="none" id="id93" stroke="none" /><text fill="#e1ed5e" style="font-size:6.75px; font-family:Arial;" text-anchor="middle"><textPath startOffset="21.46611528233685" xlink:href="#id93">September</textPath></text><path d="M 80.87730276802145 108.67885076344099 l -27.161813415533185 12.327409791524044 a50.828327814150114,50.828327814150114 0 0,0 -0.3547306947316551,-0.7998240704514515 l 27.369985194996122 -11.858037384579896" fill="#92ff23" stroke="none" /><path d="M 79.04373962182676 101.35467743843564 l -7.282151897083632 0.47074080490597686 a28.297351105545236,28.297351105545236 0 0,0 -0.027237748859990963,-0.48634830317990235 l 7.289175996831155 -0.34532078539063693" fill="#ff5207" stroke="none" /><line stroke="#e1ed5e" stroke-width="0.3" x1="15.007084014347285" x2="10.007500721073583" y1="101.09737516637583" y2="101.16192664675087" /><path d="M 14.007167355692545 101.11028546245083 a86.0,86.0 0 0,1 10.666146001902534,-42.60595125391555" fill="none" id="id94" stroke="none" /><text fill="#e1ed5e" style="font-size:6.75px; font-family:Arial;" text-anchor="middle"><textPath startOffset="22.20632615414155" xlink:href="#id94">October</textPath></text><path d="M 79.46518482838121 95.60439243477599 l -7.62506328373864 -1.6321932082270207 a28.797797429402838,28.797797429402838 0 0,0 0.1079308714129665,-0.48383293342720896 l 7.595838025323635 1.7632043112041889" fill="#ff5908" stroke="none" /><path d="M 79.54389044137918 95.25157060432595 l -1.5374273047956482 -0.3568794441036313 a22.578304677543258,22.578304677543258 0 0,0 0.09113807916064236,-0.3778261765610677 l 1.5310564253741912 0.3832908523240958" fill="#ff0000" stroke="none" /><path d="M 81.10775173730289 90.83032412892265 l -3.078797799486036 -1.4943471788700016 a24.42229007845869,24.42229007845869 0 0,0 0.1868188743738857,-0.3766154508955139 l 3.0526189121587373 1.5471222182644768" fill="#ff1b02" stroke="none" /><path d="M 81.26839172434947 90.50648371742162 l -2.747021288149727 -1.3922398410145689 a24.079684680686654,24.079684680686654 0 0,0 0.1905626879242397,-0.3681064581843019 l 2.722649167065373 1.4393190214592062" fill="#ff1602" stroke="none" /><path d="M 81.43458229118936 90.18545643968196 l -2.6493048771529755 -1.4005458174550642 a23.996722362665153,23.996722362665153 0 0,0 0.19619251785583733,-0.3635149391073667 l 2.6248042600786663 1.4459417398949037" fill="#ff1502" stroke="none" /><line stroke="#e1ed5e" stroke-width="0.3" x1="26.266209847984243" x2="21.928928074336255" y1="57.711370442889674" y2="55.22380399835377" /><path d="M 25.398753493254645 57.213857153982495 a86.0,86.0 0 0,1 29.58750427330803,-30.492523968695096" fill="none" id="id95" stroke="none" /><text fill="#e1ed5e" style="font-size:6.75px; font-family:Arial;" text-anchor="middle"><textPath startOffset="21.46611528233685" xlink:href="#id95">November</textPath></text><path d="M 81.78341655067845 89.55222093294921 l -2.742886845589007 -1.573131199291989 a24.161988301352658,24.161988301352658 0 0,0 0.21002558142729114,-0.3590017994517356 l 2.7154015896913912 1.6201124110976164" fill="#ff1702" stroke="none" /><path d="M 82.7489923806493 88.02491185347247 l -1.5723014565467137 -1.0914405088975998 a22.913994319406818,22.913994319406818 0 0,0 0.22770768782599166,-0.3220763759350896 l 1.5532811489168437 1.1183433851644757" fill="#ff0500" stroke="none" /><path d="M 83.17141714833178 87.43820079747576 l -2.73218578956665 -2.0394568915899023 a24.409431565725214,24.409431565725214 0 0,0 0.2542347604227241,-0.33454314365266413 l 2.696675088919817 2.086184811123593" fill="#ff1b02" stroke="none" /><path d="M 83.6137871275137 86.86637796730984 l -4.614310480937434 -3.698390242437862 a26.91353968447398,26.91353968447398 0 0,0 0.2928468762601979,-0.3589956436905839 l 4.549965112600844 3.777270055736528" fill="#ff3f05" stroke="none" /><path d="M 86.10567301691215 84.25364557470407 l -2.1330101800919543 -2.4173271817609048 a24.223849117445795,24.223849117445795 0 0,0 0.3150325435533014,-0.2731931173871876 l 2.0910838378918792 2.453685292567773" fill="#ff1802" stroke="none" /><path d="M 86.37877921826538 84.01681056812374 l -4.8433163667896935 -5.683164835908946 a28.4669991282258,28.4669991282258 0 0,0 0.3756863930371122,-0.3146265500063124 l 4.744772436793471 5.76569254330907" fill="#ff5507" stroke="none" /><path d="M 86.65592168130627 83.78471172551755 l -6.006861641004607 -7.299342135707378 a30.45318900627115,30.45318900627115 0 0,0 0.40763275869217797,-0.32961067523753945 l 5.880325483747929 7.401658908209051" fill="#ff700a" stroke="none" /><path d="M 87.22198572758235 83.33499621200491 l -7.311133729785889 -9.53513344905412 a33.01546696163256,33.01546696163256 0 0,0 0.45396871764924784,-0.34191982637488755 l 7.145918858378251 9.659569864934861" fill="#ff930d" stroke="none" /><path d="M 87.80319425747018 82.90503203632743 l -13.07413107240077 -18.32462175372723 a43.51054565565856,43.51054565565856 0 0,0 0.6134341746839976,-0.42974984136167027 l 12.756765758133112 18.54695643785284" fill="#e6ff1a" stroke="none" /><line stroke="#e1ed5e" stroke-width="0.3" x1="56.762969772571076" x2="54.21961505331055" y1="26.818313649435495" y2="22.513508569990535" /><path d="M 56.25429882871897 25.957352633546506 a86.0,86.0 0 0,1 42.265352541879196,-11.944610805530505" fill="none" id="id96" stroke="none" /><text fill="#e1ed5e" style="font-size:6.75px; font-family:Arial;" text-anchor="middle"><textPath startOffset="22.20632615414155" xlink:href="#id96">December</textPath></text><path d="M 89.3179101791058 81.91981866633112 l -15.980553167056533 -27.048199735932563 a52.41628858538231,52.41628858538231 0 0,0 0.7807612543594442,-0.45226731317689517 l 15.512595180231768 27.319271206499508" fill="#81ff25" stroke="none" /><path d="M 91.90106846888425 80.62456947434976 l -7.369675430524119 -17.630799044554944 a40.109086605611225,40.109086605611225 0 0,0 0.6392932506178433,-0.26078376862458663 l 7.065098310317896 17.755043699363107" fill="#ffee16" stroke="none" /><path d="M 92.23578459929587 80.48803036053334 l -4.102452492913226 -10.309725369264964 a32.095970153451006,32.095970153451006 0 0,0 0.5150896322562338,-0.19984677491784836 l 3.924379695657316 10.378814848073365" fill="#ff870c" stroke="none" /><path d="M 92.91201910852362 80.23233633223022 l -13.618329525180025 -37.98014722279316 a61.34786837146955,61.34786837146955 0 0,0 0.9971014994066358,-0.34786913454181756 l 12.962546021710104 38.20893721050719" fill="#31ff3c" stroke="none" /><path d="M 93.94186890950719 79.89281104454417 l -18.17439327147842 -60.321566866367455 a84.0,84.0 0 0,0 1.3880391291063148,-0.4052066843252047 l 17.133363924648684 60.625471879611354" fill="#4dd2ff" stroke="none" /></svg>