<?xml version="1.0" encoding="utf-8" ?>
<svg baseProfile="full" height="200mm" version="1.1" viewBox="0,0,200,200" width="200mm" xmlns="http://www.w3.org/2000/svg" xmlns:ev="http://www.w3.org/2001/xml-events" xmlns:xlink="http://www.w3.org/1999/xlink"><defs /><rect fill="#1a1a1a" height="200" width="200" x="0" y="0" /><text alignment-baseline="middle" fill="#e1ed5e" style="dominant-baseline: central; font-size:9.0px; font-family:Arial;" text-anchor="middle" x="100.0" y="100.0">2025</text><line stroke="#e1ed5e" stroke-width="0.3" x1="100.0" x2="100.0" y1="15.0" y2="10.0" /><path d="M 100.0 14.0 a86.0,86.0 0 0,1 42.46469731375804,11.215312516191453" fill="none" id="id37" stroke="none" /><text fill="#e1ed5e" style="font-size:6.75px; font-family:Arial;" text-anchor="middle"><textPath startOffset="22.20632615414155" xlink:href="#id37">January</textPath></text><line stroke="#e1ed5e" stroke-width="0.3" x1="143.23703022742887" x2="145.7803849466894" y1="26.81831364943548" y2="22.513508569990506" /><path d="M 143.74570117128098 25.957352633546492 a86.0,86.0 0 0,1 28.547481713284135,27.462654790039103" fill="none" id="id38" stroke="none" /><text fill="#e1ed5e" style="font-size:6.75px; font-family:Arial;" text-anchor="middle"><textPath startOffset="19.985693538727396" xlink:href="#id38">February</textPath></text><line stroke="#e1ed5e" stroke-width="0.3" x1="172.23445277983987" x2="176.4835382374775" y1="55.19839476539836" y2="52.563006222186495" /><path d="M 173.08426987136738 54.67131705675599 a86.0,86.0 0 0,1 12.851231095245387,41.99856678651699" fill="none" id="id39" stroke="none" /><text fill="#e1ed5e" style="font-size:6.75px; font-family:Arial;" text-anchor="middle"><textPath startOffset="22.20632615414155" xlink:href="#id39">March</textPath></text><line stroke="#e1ed5e" stroke-width="0.3" x1="184.98032266829074" x2="189.97916517819016" y1="98.17113171792111" y2="98.06355123074" /><path d="M 185.9800911702706 98.14961562048488 a86.0,86.0 0 0,1 -9.607161424134198,41.387399972396054" fill="none" id="id40" stroke="none" /><text fill="#e1ed5e" style="font-size:6.75px; font-family:Arial;" text-anchor="middle"><textPath startOffset="21.466115282336823" xlink:href="#id40">April</textPath></text><path d="M 120.23288151984713 105.62410040840565 l 3.319447347466828 0.9227012555901294 a24.44530235243181,24.44530235243181 0 0,0 -0.11618196039610715,0.404444645780128 l -3.3030727501846218 -0.9797033768748393" fill="#ff1902" stroke="none" /><path d="M 119.54520255179757 107.68017299344265 l 4.715794404732283 1.8530438215654026 a26.06680256891326,26.06680256891326 0 0,0 -0.16769318484423182,0.41620073236538996 l -4.6831986056306585 -1.933943921773606" fill="#ff3104" stroke="none" /><path d="M 119.41010516605496 108.01547362559984 l 5.866641557660763 2.4226509992596417 a27.347182133063935,27.347182133063935 0 0,0 -0.1834201795522512,0.4335511230163871 l -5.824070396916204 -2.523276647942192" fill="#ff4306" stroke="none" /><path d="M 118.97047184881838 109.00673069616215 l 3.038852284155115 1.442775085771373 a24.363959445807478,24.363959445807478 0 0,0 -0.1831319835472324,0.3773061280090828 l -3.0135670439931683 -1.4948701697457312" fill="#ff1802" stroke="none" /><line stroke="#e1ed5e" stroke-width="0.3" x1="174.80103733775053" x2="179.2010983576182" y1="140.37084112569926" y2="142.7455964860345" /><path d="M 175.68104954172406 140.8457921977663 a86.0,86.0 0 0,1 -30.038265399797805,32.042727171017184" fill="none" id="id41" stroke="none" /><text fill="#e1ed5e" style="font-size:6.75px; font-family:Arial;" text-anchor="middle"><textPath startOffset="22.206326154141568" xlink:href="#id41">May</textPath></text><path d="M 118.30583269289576 110.29060199501025 l 1.5056087885313143 0.8463761830937173 a22.727197286765765,22.727197286765765 0 0,0 -0.19464005071789897,0.33937133468535674 l -1.4908167416610356 -0.8721673636373892" fill="#ff0000" stroke="none" /><path d="M 115.07121518719521 114.62390073753431 l 8.614414579310717 8.358738307103485 a33.00319310145764,33.00319310145764 0 0,0 -0.3991176329151258,0.40430405496865374 l -8.469256321340056 -8.505782856052804" fill="#ff910d" stroke="none" /><path d="M 111.45004920935366 117.60387380957326 l 7.332152076402886 11.27281442599869 a34.44755736758551,34.44755736758551 0 0,0 -0.49984750499693525,0.3190263271552133 l -7.13702276935902 -11.397355181977714" fill="#ffa40f" stroke="none" /><line stroke="#e1ed5e" stroke-width="0.3" x1="143.8653032363475" x2="146.44561519142675" y1="172.8068346515853" y2="177.08958963109032" /><path d="M 144.38136562736335 173.6633856474863 a86.0,86.0 0 0,1 -40.68145358897372,12.25698825130547" fill="none" id="id42" stroke="none" /><text fill="#e1ed5e" style="font-size:6.75px; font-family:Arial;" text-anchor="middle"><textPath startOffset="21.466115282336833" xlink:href="#id42">June</textPath></text><path d="M 109.2508944713604 118.85261126421891 l 1.1829922470489016 2.4108471922627017 a23.68545244624044,23.68545244624044 0 0,0 -0.3675613764244123,0.1764517973517786 l -1.1413182026242565 -2.4308532661140405" fill="#ff0e01" stroke="none" /><path d="M 107.59598834532513 119.57807347666477 l 1.2377563014097508 3.1902213001839064 a24.421922355318227,24.421922355318227 0 0,0 -0.3932275816482601,0.14868502423273458 l -1.182658499001216 -3.211054574523272" fill="#ff1902" stroke="none" /><path d="M 106.91757812671514 119.82793768551818 l 1.240540981865742 3.5557775906819744 a24.765965507288207,24.765965507288207 0 0,0 -0.40372093267511416,0.13696406002859826 l -1.179150316253401 -3.5766046376086957" fill="#ff1e03" stroke="none" /><path d="M 101.98527174616119 120.90594882070398 l 0.33553110403802583 3.533317845447105 a24.54921345071439,24.54921345071439 0 0,0 -0.42102565329764585,0.03632786495007825 l -0.2746611329988383 -3.538569962675847" fill="#ff1b02" stroke="none" /><path d="M 101.62511606390274 120.93702456842531 l 0.4572115264727686 5.890440181693107 a26.90815774282003,26.90815774282003 0 0,0 -0.46209922480455545,0.031869068051470176 l -0.3557495408892828 -5.897437594260862" fill="#ff3d05" stroke="none" /><line stroke="#e1ed5e" stroke-width="0.3" x1="102.19456741930631" x2="102.32365962044197" y1="184.97166512339345" y2="189.96999836594603" /><path d="M 102.22038585953345 185.97133177190398 a86.0,86.0 0 0,1 -42.740103519485714,-10.115201625700543" fill="none" id="id43" stroke="none" /><text fill="#e1ed5e" style="font-size:6.75px; font-family:Arial;" text-anchor="middle"><textPath startOffset="22.20632615414155" xlink:href="#id43">July</textPath></text><path d="M 94.46302465271185 120.25689768951611 l -2.6134904924845497 9.561395201933067 a30.912144609611776,30.912144609611776 0 0,0 -0.5120653160346145,-0.1447147731935741 l 2.777686976623778 -9.514991635400971" fill="#ff750a" stroke="none" /><path d="M 92.7421414339146 119.70592522655815 l -3.815695353652668 10.36005409057734 a32.040391831433105,32.040391831433105 0 0,0 -0.5158957436531671,-0.19506762680561227 l 3.993461318066118 -10.292838213665094" fill="#ff840c" stroke="none" /><path d="M 92.40401165467489 119.57807347666478 l -22.787965035975347 58.734220429994345 a84.0,84.0 0 0,0 -1.3435156958325676,-0.5346126223757337 l 23.795601807849774 -58.333260963212545" fill="#4dd2ff" stroke="none" /><line stroke="#e1ed5e" stroke-width="0.3" x1="58.666819895761336" x2="56.23545636021788" y1="174.27360380694188" y2="178.64263932499728" /><path d="M 58.180547188652646 175.14741091055294 a86.0,86.0 0 0,1 -31.652253787137756,-30.449443065178592" fill="none" id="id44" stroke="none" /><text fill="#e1ed5e" style="font-size:6.75px; font-family:Arial;" text-anchor="middle"><textPath startOffset="22.20632615414155" xlink:href="#id44">August</textPath></text><line stroke="#e1ed5e" stroke-width="0.3" x1="26.63291911575756" x2="22.317208475507996" y1="142.92168965132927" y2="145.44649492493687" /><path d="M 25.769776987707644 143.4266507060508 a86.0,86.0 0 0,1 -11.730757126820373,-40.83630448921669" fill="none" id="id45" stroke="none" /><text fill="#e1ed5e" style="font-size:6.75px; font-family:Arial;" text-anchor="middle"><textPath startOffset="21.46611528233685" xlink:href="#id45">September</textPath></text><line stroke="#e1ed5e" stroke-width="0.3" x1="15.007084014347285" x2="10.007500721073583" y1="101.09737516637583" y2="101.16192664675087" /><path d="M 14.007167355692545 101.11028546245083 a86.0,86.0 0 0,1 10.666146001902534,-42.60595125391555" fill="none" id="id46" stroke="none" /><text fill="#e1ed5e" style="font-size:6.75px; font-family:Arial;" text-anchor="middle"><textPath startOffset="22.20632615414155" xlink:href="#id46">October</textPath></text><line stroke="#e1ed5e" stroke-width="0.3" x1="26.266209847984243" x2="21.928928074336255" y1="57.711370442889674" y2="55.22380399835377" /><path d="M 25.398753493254645 57.213857153982495 a86.0,86.0 0 0,1 29.58750427330803,-30.492523968695096" fill="none" id="id47" stroke="none" /><text fill="#e1ed5e" style="font-size:6.75px; font-family:Arial;" text-anchor="middle"><textPath startOffset="21.46611528233685" xlink:href="#id47">November</textPath></text><line stroke="#e1ed5e" stroke-width="0.3" x1="56.762969772571076" x2="54.21961505331055" y1="26.818313649435495" y2="22.513508569990535" /><path d="M 56.25429882871897 25.957352633546506 a86.0,86.0 0 0,1 42.265352541879196,-11.944610805530505" fill="none" id="id48" stroke="none" /><text fill="#e1ed5e" style="font-size:6.75px; font-family:Arial;" text-anchor="middle"><textPath startOffset="22.20632615414155" xlink:href="#id48">December</textPath></text></svg>